<svg width="661" height="581" viewBox="0 0 661 581" fill="none" xmlns="http://www.w3.org/2000/svg">
<g filter="url(#filter0_i_198_361)">
<path d="M90.1748 436.69C164.842 583.62 305.88 546.186 373.173 488.163C502.597 545.063 562.607 482.547 576.434 444.177C633.956 434.07 631.436 394.109 622.986 375.391C641.791 249.237 540.483 216.763 487.479 216.295C420.37 92.3866 322.78 139.71 282.374 178.86C135.989 93.884 84.0293 203.661 76.3475 269.171C-7.35363 340.671 50.6902 410.642 90.1748 436.69Z" fill="#FF48B0"/>
</g>
<path d="M31.3237 371.713C40.6559 402.55 65.3738 427.159 85.5438 440.812C123.789 515.067 179.271 543.461 234.241 545.281C287.535 547.045 339.603 523.827 374.203 495.149C438.255 522.535 486.23 521.282 520.402 507.458C553.259 494.167 572.582 469.551 580.83 449.451C608.841 443.76 623.767 430.685 630.011 415.265C635.987 400.504 633.427 384.963 629.167 374.578C638.24 310.529 617.038 269.207 585.935 244.046C556.288 220.064 518.313 211.281 491.068 210.37C456.956 149.255 414.627 129.13 374.717 130.434C336.906 131.669 302.698 152.113 281.501 171.448C245.996 151.434 215.587 142.555 189.655 141.911C162.666 141.242 140.862 149.508 123.67 162.842C90.3916 188.652 75.0314 232.867 70.6776 266.141C50.197 284.049 37.9197 302.166 31.9558 319.938C25.8062 338.264 26.5109 355.809 31.3237 371.713Z" stroke="url(#paint0_linear_198_361)" stroke-width="12"/>
<mask id="mask0_198_361" style="mask-type:alpha" maskUnits="userSpaceOnUse" x="20" y="0" width="608" height="540">
<path d="M627.529 295.747C612.184 423.964 566.572 480.598 518.029 502.163C501.338 509.577 484.301 512.846 468.029 513.453C422.138 515.166 382.331 495.71 373.529 488.375C323.182 531.51 258.029 544.875 220.529 538.375C86.2995 527.123 -18.1672 379.392 33.4319 295.747C33.4319 190.359 170.242 0 391.661 0C560.261 0 627.529 190.359 627.529 295.747Z" fill="#D9D9D9"/>
</mask>
<g mask="url(#mask0_198_361)">
<path d="M490.401 312.203C487.341 351.482 496.548 443.046 506.495 473.652L524.094 523.388C513.388 529.764 483.251 538.691 448.352 523.388C389.942 515.481 265.775 504.412 236.393 523.388C218.155 535.167 200.153 535.369 186.558 531.937C186.331 531.901 186.101 531.842 185.868 531.759C177.883 529.648 171.478 526.303 167.529 523.388L185.868 473.652C195.075 444.576 193.542 402.237 195.084 369.59C194.472 348.166 197.89 296.39 199.675 273.18L324.396 140.042L412.39 135.451L448.352 176.77L490.401 312.203Z" fill="#FFE68C"/>
<path d="M215.734 278.536C214.456 337.709 207.317 454.523 203.491 475.183C199.687 495.728 195.79 535.289 185.868 531.759M185.868 531.759C177.883 529.648 171.478 526.303 167.529 523.388L185.868 473.652C195.075 444.576 193.542 402.237 195.084 369.59C194.472 348.166 197.89 296.39 199.675 273.18L324.396 140.042L412.39 135.451L448.352 176.77L490.401 312.203C487.341 351.482 496.548 443.046 506.495 473.652L524.094 523.388C513.388 529.764 483.251 538.691 448.352 523.388C389.942 515.481 265.775 504.412 236.393 523.388C217.844 535.367 199.539 535.373 185.868 531.759Z" stroke="black" stroke-width="4" stroke-linecap="round"/>
<path d="M244.045 473.652C228.13 484.67 222.11 523.132 221.09 540.986C296.841 570.827 347.342 516.501 470.533 540.221C475.344 541.147 458.29 482.834 446.047 472.122C436.253 463.552 396.567 457.329 377.948 455.288C351.627 471.816 322.601 462.175 311.379 455.288L272.356 463.705L244.045 473.652Z" fill="#D5E2FF"/>
<path d="M240.253 313.298C228.136 309.609 200.917 303.16 209.75 334.398C218.157 364.133 247.719 368.923 258.356 365.782L259.415 364.781L257.556 360.947C254.104 353.934 252.714 351.157 252.336 350.459C249.37 343.661 250.46 345.864 249.802 344.627C249.194 343.485 246.127 334.018 244.67 329.427L240.253 313.298Z" fill="#FFCBCB" stroke="black" stroke-width="4"/>
<path d="M481.17 334.006C490.611 302.063 463.152 308.386 450.913 312.04C449.954 313.465 447.683 318.276 446.27 326.118C445.154 332.31 441.286 342.089 439.492 346.205C439.602 347.929 433.721 359.725 430.767 365.407C441.396 368.743 472.183 364.412 481.17 334.006Z" fill="#FFCBCB" stroke="black" stroke-width="4"/>
<path d="M375.627 404.788C356.039 416.419 328.698 409.634 317.475 404.788C317.73 419.326 317.016 449.627 312.119 454.524C322.831 461.155 351.142 470.439 378.688 454.524C375.015 450.239 375.117 419.581 375.627 404.788Z" fill="#FFCBCB"/>
<path d="M378.688 454.524C375.015 450.239 375.117 419.581 375.628 404.788C356.039 416.419 328.698 409.634 317.475 404.788C317.73 419.326 317.016 449.627 312.119 454.524C322.831 461.155 351.142 470.439 378.688 454.524ZM378.688 454.524C398.591 457.329 440.079 464.624 446.813 471.357C455.229 479.774 470.533 514.206 471.298 538.691" stroke="black" stroke-width="4" stroke-linecap="round"/>
<path d="M223.085 539.323C223.159 540.425 222.325 541.378 221.223 541.451C220.121 541.525 219.168 540.691 219.094 539.589L223.085 539.323ZM313.283 457.266C303.145 458.787 288.453 461.644 275.26 464.79C268.664 466.362 262.469 468 257.419 469.572C252.294 471.167 248.565 472.63 246.738 473.804L244.576 470.439C246.916 468.935 251.137 467.338 256.23 465.753C261.398 464.144 267.688 462.483 274.332 460.899C287.619 457.731 302.424 454.85 312.689 453.31L313.283 457.266ZM246.738 473.804C245.987 474.287 244.971 475.271 243.744 476.83C242.541 478.36 241.223 480.332 239.849 482.665C237.101 487.329 234.187 493.333 231.566 499.908C226.296 513.129 222.351 528.3 223.085 539.323L219.094 539.589C218.299 527.657 222.516 511.809 227.851 498.427C230.532 491.699 233.532 485.505 236.402 480.634C237.837 478.199 239.254 476.069 240.6 474.358C241.921 472.677 243.266 471.281 244.576 470.439L246.738 473.804Z" fill="black"/>
<path d="M318.24 426.979C351.295 435.549 369.761 423.408 374.862 416.266L376.393 405.554L317.475 409.38L318.24 426.979Z" fill="black" stroke="black" stroke-width="4"/>
<path d="M434.615 178.328C408.248 142.89 354.591 145.773 338.97 153.842C287.988 139.42 264.641 203.496 252.507 217.35C227.99 245.344 234.062 253.994 236.808 293.14C238.525 336.236 263.156 414.753 348.557 411.61C428.559 408.666 454.127 329.025 453.612 293.14C456.187 262.063 460.982 213.766 434.615 178.328Z" fill="#FFCBCB" stroke="black" stroke-width="4"/>
<path d="M464.341 340.804C460.691 337.232 452.366 330.822 448.271 333.756C444.175 336.69 449.712 339.76 452.992 340.928" stroke="black" stroke-width="4" stroke-linecap="round"/>
<path d="M224.391 340.3C228.091 336.781 236.506 330.49 240.559 333.482C244.612 336.474 239.032 339.464 235.736 340.586" stroke="black" stroke-width="4" stroke-linecap="round"/>
<path d="M371.787 356.171C356.76 365.686 330.641 362.667 317.637 358.136C316.747 357.825 315.916 358.832 316.373 359.657C342.733 407.192 364.691 379.854 373.454 357.42C373.822 356.477 372.642 355.629 371.787 356.171Z" fill="black" stroke="black" stroke-width="4" stroke-linecap="round"/>
<path d="M370.629 358.809C357.607 366.014 333.636 363.513 320.314 360.9C319.365 360.713 318.588 361.943 319.145 362.734C319.886 363.786 320.754 364.95 322.061 366.224C323.165 367.299 324.603 367.946 326.111 368.265C338.04 370.786 349.197 372.299 366.124 366.856C367.232 366.499 368.289 365.951 369.039 365.06C370.239 363.632 371.31 361.714 372.096 360.007C372.501 359.125 371.478 358.339 370.629 358.809Z" fill="#F8EFEF"/>
<path d="M333.364 379.724C338.72 378.545 352.799 377.638 357.084 379.475C349.126 388.656 337.445 383.549 333.364 379.724Z" fill="#E86262"/>
<path d="M198.9 281.597C356.83 259.56 404.729 198.194 407.024 172.179L304.493 242.574L198.9 281.597Z" fill="black" stroke="black" stroke-width="4"/>
<path d="M407.834 164.555C400.438 200.008 354.993 234.922 247.15 264.791L198.18 280.094C196.395 277.034 193.895 263.108 198.18 231.889C202.465 200.67 216.289 173.992 222.665 164.555C227.007 157.349 235.191 147.573 247.15 138.093C268.209 121.4 300.975 105.622 345.091 106.403C381.677 107.05 408.809 117.562 429.214 131.85C443.184 141.632 454 153.185 462.536 164.555C470.998 175.826 477.698 186.677 482.055 195.927C495.018 223.445 492.767 291.062 489.707 322.943L485.989 320.62L465.221 307.64C416.863 280.094 406.814 200.773 407.834 164.555Z" fill="#FFE68C"/>
<path d="M407.834 164.555C400.438 200.008 354.993 234.922 247.15 264.791L198.18 280.094M407.834 164.555C406.814 200.773 416.863 280.094 465.221 307.64L485.989 320.62M407.834 164.555C410.625 155.259 418.808 135.703 429.214 131.85M407.834 164.555C341.79 182.163 207.398 229.922 198.18 280.094M407.834 164.555C396.882 146.2 369 108.874 345.091 106.403M407.834 164.555C422.893 161.759 454.915 157.844 462.536 164.555M407.834 164.555C362.435 160.696 266.739 150 247.15 138.093M198.18 280.094C196.395 277.034 193.895 263.108 198.18 231.889C202.465 200.67 216.289 173.992 222.665 164.555C227.007 157.349 235.191 147.573 247.15 138.093M485.989 320.62L489.707 322.943C492.767 291.062 495.018 223.445 482.055 195.927C477.698 186.677 470.998 175.826 462.536 164.555M485.989 320.62C483.898 383.618 484.918 513.441 505.73 528.744M429.214 131.85C408.809 117.562 381.677 107.05 345.091 106.403M429.214 131.85C443.184 141.632 454 153.185 462.536 164.555M345.091 106.403C300.975 105.622 268.209 121.4 247.15 138.093" stroke="black" stroke-width="4" stroke-linecap="round"/>
<path d="M292.5 257.146C304.242 256.154 314.695 260.411 320.317 263.749C322.141 264.832 324.218 266.718 323.309 268.634C322.966 269.357 322.182 269.909 320.67 269.99C319.893 270.031 319.118 269.869 318.362 269.681C307.529 266.985 298.064 265.448 290.6 265.068C283.533 264.708 276.44 265.529 269.364 265.529C268.549 265.529 268.222 264.583 268.911 264.148C272.848 261.657 280.901 258.127 292.5 257.146Z" fill="#B79725" stroke="#A88A1F" stroke-width="4"/>
<path d="M198.9 281.597C356.83 259.56 404.729 198.194 407.024 172.179L304.493 242.574L198.9 281.597Z" fill="black" stroke="black" stroke-width="4"/>
<path d="M407.834 164.555C400.438 200.008 354.993 234.922 247.15 264.791L198.18 280.094C196.395 277.034 193.895 263.108 198.18 231.889C202.465 200.67 216.289 173.992 222.665 164.555C227.007 157.349 235.191 147.573 247.15 138.093C268.209 121.4 300.975 105.622 345.091 106.403C381.677 107.05 408.809 117.562 429.214 131.85C443.184 141.632 454 153.185 462.536 164.555C470.998 175.826 477.698 186.677 482.055 195.927C495.018 223.445 492.767 291.062 489.707 322.943L485.989 320.62L465.221 307.64C416.863 280.094 406.814 200.773 407.834 164.555Z" fill="#FFE68C"/>
<path d="M407.834 164.555C400.438 200.008 354.993 234.922 247.15 264.791L198.18 280.094M407.834 164.555C406.814 200.773 416.863 280.094 465.221 307.64L485.989 320.62M407.834 164.555C410.625 155.259 418.808 135.703 429.214 131.85M407.834 164.555C341.79 182.163 207.398 229.922 198.18 280.094M407.834 164.555C396.882 146.2 369 108.874 345.091 106.403M407.834 164.555C422.893 161.759 454.915 157.844 462.536 164.555M407.834 164.555C362.435 160.696 266.739 150 247.15 138.093M198.18 280.094C196.395 277.034 193.895 263.108 198.18 231.889C202.465 200.67 216.289 173.992 222.665 164.555C227.007 157.349 235.191 147.573 247.15 138.093M485.989 320.62L489.707 322.943C492.767 291.062 495.018 223.445 482.055 195.927C477.698 186.677 470.998 175.826 462.536 164.555M485.989 320.62C483.898 383.618 484.918 513.441 505.73 528.744M429.214 131.85C408.809 117.562 381.677 107.05 345.091 106.403M429.214 131.85C443.184 141.632 454 153.185 462.536 164.555M345.091 106.403C300.975 105.622 268.209 121.4 247.15 138.093" stroke="black" stroke-width="4" stroke-linecap="round"/>
<path d="M257.053 365.765C257.818 398.412 256.288 466.154 250.166 469.827" stroke="black" stroke-width="4"/>
<path d="M303.728 404.788C304.238 418.56 302.809 449.779 296.076 458.349" stroke="black" stroke-width="4"/>
<path d="M395.547 399.431C394.782 416.265 398.302 453.605 406.259 459.114" stroke="black" stroke-width="4"/>
<path d="M432.274 366.529C434.315 398.411 439.314 463.858 446.047 470.591" stroke="black" stroke-width="4"/>
<path d="M427.684 231.861C433.04 252.776 452.169 297.359 485.836 308.377" stroke="#B79725" stroke-width="3" stroke-linecap="round"/>
<path d="M458.29 172.179C466.452 185.186 482.928 217.782 483.54 244.104" stroke="#B79725" stroke-width="3" stroke-linecap="round"/>
<path d="M205.815 253.286C205.305 232.371 211.477 185.033 240.247 162.997" stroke="#B79725" stroke-width="3" stroke-linecap="round"/>
<path d="M482.01 463.705C482.01 472.887 483.999 495.842 491.957 514.206" stroke="#B79725" stroke-width="3" stroke-linecap="round"/>
<path d="M266.19 406.342C266.369 419.411 265.72 448.382 261.694 459.715" stroke="#B79725" stroke-width="3" stroke-linecap="round"/>
<path d="M400.903 400.197C401.668 416.775 405.035 451.157 412.38 456.054" stroke="#B79725" stroke-width="3" stroke-linecap="round"/>
<path d="M218.795 361.938C217.264 403.766 212.827 490.639 207.317 503.493" stroke="#B79725" stroke-width="3" stroke-linecap="round"/>
<path d="M390.956 185.952C370.807 202.275 315.205 239.36 253.992 257.112" stroke="#B79725" stroke-width="3" stroke-linecap="round"/>
<path d="M452.934 374.182C453.444 388.975 455.536 421.163 459.821 431.569" stroke="#B79725" stroke-width="3" stroke-linecap="round"/>
</g>
<path d="M337.023 341.244C337.017 339.07 337.875 336.982 339.408 335.441C340.941 333.899 343.024 333.029 345.198 333.023C347.372 333.017 349.46 333.875 351.001 335.408C352.543 336.941 353.413 339.024 353.419 341.198" stroke="black" stroke-width="4" stroke-linecap="round"/>
<g filter="url(#filter1_f_198_361)">
<path d="M280 341C273.373 341 268 337.642 268 333.5C268 329.358 273.373 326 280 326C286.627 326 292 329.358 292 333.5C292 337.642 286.627 341 280 341Z" fill="#FF8FCF"/>
</g>
<g filter="url(#filter2_f_198_361)">
<path d="M410 341.032C416.627 341.05 422.009 337.706 422.02 333.564C422.031 329.422 416.667 326.05 410.04 326.032C403.413 326.014 398.031 329.358 398.02 333.5C398.009 337.642 403.372 341.014 410 341.032Z" fill="#FF8FCF"/>
</g>
<path d="M398.03 257.149C386.275 256.141 375.812 260.468 370.194 263.855C368.382 264.947 366.35 266.815 367.2 268.752C367.531 269.504 368.311 270.084 369.845 270.171C370.633 270.216 371.417 270.048 372.182 269.855C382.987 267.13 392.432 265.572 399.885 265.183C406.982 264.813 414.107 265.649 421.213 265.649C422.017 265.649 422.344 264.715 421.668 264.279C417.749 261.752 409.677 258.147 398.03 257.149Z" fill="#B79725" stroke="#A88A1F" stroke-width="4"/>
<defs>
<filter id="filter0_i_198_361" x="31.5288" y="136.375" width="596" height="416.5" filterUnits="userSpaceOnUse" color-interpolation-filters="sRGB">
<feFlood flood-opacity="0" result="BackgroundImageFix"/>
<feBlend mode="normal" in="SourceGraphic" in2="BackgroundImageFix" result="shape"/>
<feColorMatrix in="SourceAlpha" type="matrix" values="0 0 0 0 0 0 0 0 0 0 0 0 0 0 0 0 0 0 127 0" result="hardAlpha"/>
<feOffset dx="-2" dy="43"/>
<feGaussianBlur stdDeviation="6.75"/>
<feComposite in2="hardAlpha" operator="arithmetic" k2="-1" k3="1"/>
<feColorMatrix type="matrix" values="0 0 0 0 0.956863 0 0 0 0 0.2 0 0 0 0 0.556863 0 0 0 1 0"/>
<feBlend mode="normal" in2="shape" result="effect1_innerShadow_198_361"/>
</filter>
<filter id="filter1_f_198_361" x="264" y="322" width="32" height="23" filterUnits="userSpaceOnUse" color-interpolation-filters="sRGB">
<feFlood flood-opacity="0" result="BackgroundImageFix"/>
<feBlend mode="normal" in="SourceGraphic" in2="BackgroundImageFix" result="shape"/>
<feGaussianBlur stdDeviation="2" result="effect1_foregroundBlur_198_361"/>
</filter>
<filter id="filter2_f_198_361" x="394.02" y="322.032" width="32" height="23" filterUnits="userSpaceOnUse" color-interpolation-filters="sRGB">
<feFlood flood-opacity="0" result="BackgroundImageFix"/>
<feBlend mode="normal" in="SourceGraphic" in2="BackgroundImageFix" result="shape"/>
<feGaussianBlur stdDeviation="2" result="effect1_foregroundBlur_198_361"/>
</filter>
<linearGradient id="paint0_linear_198_361" x1="33.5288" y1="246.006" x2="687.571" y2="441.809" gradientUnits="userSpaceOnUse">
<stop stop-color="#58FAFA"/>
<stop offset="0.205" stop-color="#0AA9F3"/>
<stop offset="0.485" stop-color="#3EDFF8"/>
<stop offset="0.535" stop-color="#44E5F8"/>
<stop offset="0.69" stop-color="#50BFE6"/>
<stop offset="1" stop-color="#03A7F4"/>
</linearGradient>
</defs>
</svg>
