<svg width="351" height="412" viewBox="0 0 351 412" fill="none" xmlns="http://www.w3.org/2000/svg">
<path d="M111.828 374.966L134.736 305.621C123.839 308.593 100.064 315.527 93.8724 313.051L89.5383 371.87C92.5102 375.337 105.636 375.379 111.828 374.966Z" fill="#02184F" stroke="black" stroke-width="2"/>
<path d="M126.687 326.053L94.4913 321.719C94.4913 326.672 116.781 329.149 126.687 331.626V326.053Z" fill="black"/>
<path d="M144.023 305.621L158.264 369.394C168.17 375.833 177.457 372.077 181.172 369.394L180.708 351.593L180.244 333.792L179.315 298.191C169.409 306.612 151.247 306.24 144.023 305.621Z" fill="#02184F" stroke="black" stroke-width="2"/>
<path d="M178.696 300.668L144.643 308.917C146.776 313.536 168.647 311.611 179.315 310.072L178.696 300.668Z" fill="black"/>
<path d="M156.406 319.243L163.836 357.011" stroke="#1E3570" stroke-width="0.7" stroke-linecap="round"/>
<path d="M158.264 370.013C164.043 371.251 176.715 372.737 181.172 368.775C181.585 374.347 184.887 385.74 194.794 386.73C190.23 389.012 181.882 394.448 182.147 399.163C182.319 399.562 182.411 399.959 182.411 400.352C182.255 399.962 182.17 399.565 182.147 399.163C179.604 393.249 159.541 386.73 160.121 386.73C160.617 386.73 159.089 375.586 158.264 370.013Z" fill="#FFCBCB"/>
<path d="M158.264 370.013C164.043 371.251 176.715 372.737 181.172 368.775C181.585 374.347 184.887 385.74 194.794 386.73C189.841 389.207 180.429 395.398 182.411 400.352C182.411 394.16 159.502 386.73 160.121 386.73C160.617 386.73 159.089 375.586 158.264 370.013Z" stroke="black" stroke-width="2"/>
<path d="M160.261 385.111C167.86 388.143 181.929 395.118 182.411 398.494C182.824 394.16 187.766 384.873 203.616 384.873C219.466 384.873 223.429 391.89 223.429 395.398C224.254 398.907 221.448 405.924 203.616 405.924C186.32 405.924 165.685 403.982 156.739 402.924C156.272 402.868 155.909 402.495 155.877 402.027C155.776 400.553 155.744 398.657 155.868 396.636C156.117 392.571 156.997 388.001 159.216 385.354C159.471 385.05 159.892 384.964 160.261 385.111Z" fill="#C5F7FF"/>
<path d="M223.429 395.398C223.429 391.89 219.466 384.873 203.616 384.873C187.766 384.873 182.824 394.16 182.411 398.494C181.929 395.118 167.86 388.143 160.261 385.111C159.892 384.964 159.471 385.05 159.216 385.354C156.997 388.001 156.117 392.571 155.868 396.636M223.429 395.398C224.254 398.907 221.448 405.924 203.616 405.924C186.32 405.924 165.685 403.982 156.739 402.924C156.272 402.868 155.909 402.495 155.877 402.027C155.776 400.553 155.744 398.657 155.868 396.636M223.429 395.398C221.448 402.333 177.563 399.113 155.868 396.636" stroke="#03000B" stroke-width="2"/>
<path d="M112.447 373.108C102.54 374.099 93.0468 371.457 89.5383 370.013C88.5064 376.204 84.4612 389.33 76.5361 392.302C80.4987 390.816 90.5702 399.113 95.1106 403.447C93.6247 399.98 103.985 391.683 109.351 387.968C108.856 385.491 111.208 377.03 112.447 373.108Z" fill="#FFCBCB" stroke="black" stroke-width="2"/>
<path d="M109.621 385.452L109.81 385.294C110.116 385.037 110.556 384.989 110.794 385.31C111.805 386.676 112.338 390.497 112.591 394.16C112.714 395.937 112.771 397.677 112.784 399.08C112.788 399.476 112.553 399.835 112.19 399.995L97.309 406.543C86.1088 413.847 66.0119 410.579 56.9041 407.918C56.6091 407.831 56.3781 407.614 56.275 407.325C55.6047 405.444 55.3825 403.744 55.5274 402.209C56.216 394.909 65.2042 391.339 73.7813 389.826C82.2017 388.34 91.3958 396.017 95.1107 400.351C97.4509 395.671 105.44 388.963 109.621 385.452Z" fill="#C5F7FF"/>
<path d="M112.591 394.16C112.714 395.937 112.771 397.677 112.784 399.08C112.788 399.476 112.553 399.835 112.19 399.995L97.309 406.543C86.1088 413.847 66.0119 410.579 56.9041 407.918C56.6091 407.831 56.3781 407.614 56.275 407.325C55.6047 405.444 55.3825 403.744 55.5274 402.209M112.591 394.16C112.338 390.497 111.805 386.676 110.794 385.31C110.556 384.989 110.116 385.037 109.81 385.294C105.686 388.757 97.4867 395.599 95.1107 400.351C91.3958 396.017 82.2017 388.34 73.7813 389.826C65.2042 391.339 56.216 394.909 55.5274 402.209M112.591 394.16C101.313 400.351 74.1106 410.629 55.5274 402.209" stroke="#03000B" stroke-width="2"/>
<path d="M188.602 292.274C181.172 306.638 145.468 308.165 128.545 307.133L137.213 255.125C149.183 254.918 173.619 254.629 175.6 255.125C177.581 255.62 185.094 280.097 188.602 292.274Z" fill="#C5F7FF" stroke="black" stroke-width="2"/>
<path d="M60.1767 147.894C64.1392 141.95 72.1469 129.732 75.6554 124.366C110.328 118.175 182.892 109.507 195.77 124.366C211.868 142.941 206.296 201.76 202.581 205.475C199.609 208.447 179.053 210.841 169.147 211.666L103.517 205.475C97.532 206.713 81.2277 205.723 63.8916 191.854C42.2213 174.517 55.2235 155.324 60.1767 147.894Z" fill="#FFE68C" stroke="black" stroke-width="2"/>
<path d="M57.1006 20.9507C35.9393 46.4553 59.5729 61.7819 72.4101 65.3985L100.014 26.3513C92.5444 -1.74508 67.5646 10.0939 57.1006 20.9507Z" fill="#FFE68C" stroke="black" stroke-width="2"/>
<path d="M169.411 1.76304C187.282 3.3421 190.434 25.8782 190.46 36.1994C184.745 24.4375 155.45 15.262 142.166 12.0519C142.912 8.52569 151.539 0.183986 169.411 1.76304Z" fill="#FFE68C" stroke="black" stroke-width="2"/>
<path d="M182.936 128.996C152.226 160.696 113.892 142.28 99.445 129.071C73.1931 140.464 73.4408 116.276 74.0599 99.9714C56.7238 44.0003 101.783 22.5024 133.072 21.8833C189.083 23.7407 197.796 45.2046 195.938 57.1748C203.368 70.0531 199.653 81.9405 195.319 88.132C195.815 98.0383 191.333 120.328 182.936 128.996Z" fill="#FFCBCB" stroke="black" stroke-width="2"/>
<path d="M130.31 118.619C137.381 121.42 149.224 124.593 157.436 121.929C158.389 121.62 159.448 122.679 158.951 123.549C158.56 124.235 158.136 124.947 157.685 125.667C155.081 129.823 151.558 134.291 148.016 136.073C146.633 136.769 145.247 137.056 143.913 136.756C140.952 136.089 137.821 133.091 135.048 129.497C133.431 127.401 131.936 125.103 130.668 122.946C130.064 121.919 129.512 120.924 129.022 119.998C128.586 119.174 129.443 118.276 130.31 118.619Z" fill="black"/>
<path d="M130.668 122.946C130.064 121.919 129.512 120.924 129.022 119.998C128.586 119.174 129.443 118.276 130.31 118.619C137.381 121.42 149.224 124.593 157.436 121.929C158.389 121.62 159.448 122.679 158.951 123.549C158.56 124.235 158.136 124.947 157.685 125.667M130.668 122.946C137.878 126.183 153.375 131.258 157.685 125.667M130.668 122.946C131.936 125.103 133.431 127.401 135.048 129.497M157.685 125.667C155.081 129.823 151.558 134.291 148.016 136.073M135.048 129.497C137.821 133.091 140.952 136.089 143.913 136.756C145.247 137.056 146.633 136.769 148.016 136.073M135.048 129.497C139.555 131.098 148.457 134.655 148.016 136.073" stroke="black" stroke-linecap="round"/>
<path d="M135.166 128.569C137.321 131.39 142.643 136.696 146.685 135.348C151.737 133.662 138.033 125.563 135.166 128.569Z" fill="#E86262"/>
<path d="M155.299 124.171C148.728 125.817 138.584 123.189 132.411 120.97C131.684 120.708 130.919 121.352 131.371 121.98C132.181 123.106 133.436 124.125 134.749 124.576C140.478 126.543 149.16 128.332 153.696 127.37C154.811 127.133 155.759 126.208 156.362 125.242C156.742 124.634 155.995 123.997 155.299 124.171Z" fill="#F8EFEF"/>
<path d="M133.98 92.5611C135.682 98.7608 132.705 104.848 127.517 106.273C122.329 107.697 116.661 103.984 114.958 97.7839C113.256 91.5842 116.233 85.4969 121.421 84.0724C126.61 82.6478 132.278 86.3614 133.98 92.5611Z" fill="#F8EFEF" stroke="black"/>
<path d="M175.504 97.5608C174.234 103.428 169.571 107.167 165.269 106.236C160.967 105.305 158.268 99.9713 159.538 94.1041C160.808 88.2369 165.472 84.4975 169.774 85.4288C174.075 86.3602 176.775 91.6936 175.504 97.5608Z" fill="#F8EFEF" stroke="black"/>
<path d="M114.22 90.3835L115.198 90.5951L115.621 88.6404L114.644 88.4288L114.22 90.3835ZM109.758 86.1565C109.283 85.8749 108.669 86.0318 108.388 86.5069C108.106 86.9821 108.263 87.5955 108.738 87.877L109.758 86.1565ZM113.623 94.6361L114.617 94.5278L114.401 92.5396L113.407 92.6479L113.623 94.6361ZM108.221 90.9472C107.79 90.6013 107.161 90.6699 106.815 91.1004C106.469 91.531 106.538 92.1604 106.968 92.5063L108.221 90.9472ZM114.644 88.4288C113.594 88.2016 112.428 87.7387 109.758 86.1565L108.738 87.877C111.458 89.489 112.849 90.0866 114.22 90.3835L114.644 88.4288ZM113.407 92.6479C112.816 92.7123 112.11 92.7444 111.271 92.545C110.433 92.3459 109.411 91.903 108.221 90.9472L106.968 92.5063C108.369 93.6317 109.657 94.2172 110.808 94.4907C111.957 94.764 112.917 94.7131 113.623 94.6361L113.407 92.6479Z" fill="black"/>
<path d="M175.998 90.9804L175.029 91.2282L174.533 89.2906L175.502 89.0428L175.998 90.9804ZM178.153 87.2744C178.617 86.9753 179.236 87.1093 179.535 87.5736C179.834 88.0379 179.7 88.6568 179.236 88.9558L178.153 87.2744ZM176.896 95.6094L175.927 95.8571L175.432 93.9195L176.401 93.6717L176.896 95.6094ZM178.897 92.0259C179.294 91.6416 179.927 91.6516 180.311 92.0482C180.695 92.4449 180.685 93.078 180.289 93.4623L178.897 92.0259ZM175.502 89.0428C175.979 88.9208 176.404 88.6601 176.834 88.3242C177.053 88.1532 177.249 87.9832 177.469 87.7982C177.674 87.6256 177.909 87.4313 178.153 87.2744L179.236 88.9558C179.112 89.036 178.963 89.1544 178.757 89.3282C178.565 89.4896 178.322 89.6997 178.065 89.9007C177.542 90.3088 176.862 90.7594 175.998 90.9804L175.502 89.0428ZM176.401 93.6717C177.106 93.4915 177.274 93.4388 177.481 93.3055C177.744 93.1361 178.057 92.8395 178.897 92.0259L180.289 93.4623C179.525 94.2021 179.037 94.6822 178.564 94.9869C178.035 95.3277 177.533 95.4467 176.896 95.6094L176.401 93.6717Z" fill="black"/>
<path d="M132.394 79.5943C123.285 74.8514 114.924 75.4319 106.404 79.669" stroke="#B79725" stroke-width="3" stroke-linecap="round"/>
<path d="M160.669 80.6633C163.614 78.7669 167.821 76.8919 175.425 79.8053" stroke="#B79725" stroke-width="3" stroke-linecap="round"/>
<ellipse cx="125.492" cy="96.2823" rx="7.42979" ry="8.66809" transform="rotate(-6.19951 125.492 96.2823)" fill="black"/>
<ellipse cx="168.62" cy="97.1826" rx="6.19149" ry="7.42979" transform="rotate(0.686429 168.62 97.1826)" fill="black"/>
<path d="M143.598 113.516C143.614 112.203 144.152 110.949 145.092 110.032C146.032 109.115 147.299 108.609 148.612 108.625C149.926 108.641 151.179 109.179 152.096 110.119C153.014 111.059 153.52 112.326 153.503 113.639" stroke="black" stroke-linecap="round"/>
<path d="M134.964 12.4524C64.1328 23.8448 62.1103 73.3354 69.9528 96.6567C72.0167 93.7673 76.7635 87.9886 79.2401 87.9886C82.3359 87.9886 72.3955 30.3137 134.964 19.2631C158.751 16.7906 176.613 29.2874 194.689 51.3991C195.322 52.1737 196.539 51.6582 196.36 50.6738C191.521 24.0874 163.454 9.39101 134.964 12.4524Z" fill="#02184F" stroke="black" stroke-width="2"/>
<path d="M84.7782 86.2754C89.6462 86.2754 110.163 123.053 95.3037 131.473C92.1722 133.248 89.279 133.752 86.6356 133.338C76.7664 131.793 70.3809 117.449 68.0823 108.646C68.0679 108.591 68.0588 108.537 68.0543 108.48C67.7653 104.849 68.2132 99.4879 70.4588 94.9434C72.1716 91.477 74.9304 88.4856 79.2058 87.0989C80.8345 86.5707 82.6833 86.2754 84.7782 86.2754Z" fill="#02184F"/>
<path d="M181.985 131.473C211.085 124.663 202.21 100.516 196.225 91.2286C194.78 92.9631 195.286 100.938 191.891 111.041C189.469 118.249 183.789 126.833 181.985 131.473Z" fill="#02184F"/>
<path d="M70.4588 94.9434C68.2132 99.4879 67.7653 104.849 68.0543 108.48C68.0588 108.537 68.0679 108.591 68.0823 108.646C70.3809 117.449 76.7664 131.793 86.6356 133.338M70.4588 94.9434C72.1716 91.477 74.9304 88.4856 79.2058 87.0989C80.8345 86.5707 82.6833 86.2754 84.7782 86.2754C89.6462 86.2754 110.163 123.053 95.3037 131.473C92.1722 133.248 89.279 133.752 86.6356 133.338M70.4588 94.9434C80.1851 100.108 97.0373 115.017 86.6356 133.338M196.225 91.2286C202.21 100.516 211.085 124.663 181.985 131.473C183.789 126.833 189.469 118.249 191.891 111.041C195.286 100.938 194.78 92.9631 196.225 91.2286Z" stroke="black" stroke-width="2"/>
<path d="M195.477 81.9169C187.778 77.5833 169.176 73.1113 150.639 72.4177C126.177 70.3541 101.502 78.258 101.502 78.258L100.832 92.1588C100.126 103.756 104.35 121.055 140.1 114.075L144.367 100.558L149.172 97.064L154.124 101.174L155.925 110.849C156.177 112.17 156.794 113.393 157.704 114.378C158.614 115.363 159.781 116.071 161.072 116.421C191.892 124.937 197.68 109.211 198.356 98.1175L199.053 88.6397C199.154 87.2926 198.871 85.9448 198.238 84.7541C197.604 83.5635 196.647 82.5793 195.477 81.9169Z" fill="#C5FFF5" fill-opacity="0.19"/>
<path d="M161.335 116.827C193.506 122.188 197.103 108.857 197.81 97.258L198.569 83.3845L186.432 77.0284C192.936 98.2067 161.335 116.827 161.335 116.827ZM101.801 77.5388L91.2076 80.5441L84.397 84.8782L101.302 102.742L101.801 77.5388Z" fill="#8CBCB4"/>
<path d="M195.138 82.0426C187.648 77.767 169.413 73.1344 150.639 72.4173C131.916 70.8517 113.254 73.2381 105.304 76.5738C104.161 77.0584 103.179 77.8594 102.471 78.8835C101.763 79.9077 101.358 81.1129 101.305 82.3588L100.832 92.1583C100.184 102.806 103.692 118.257 131.93 115.319C134.338 115.053 136.616 114.087 138.487 112.538C140.357 110.989 141.737 108.925 142.459 106.599L144.422 100.985C144.674 100.17 145.157 99.4454 145.811 98.9011C146.563 98.3328 147.459 97.9908 148.395 97.9147C149.332 97.8386 150.271 98.0316 151.102 98.4712C151.701 98.8199 152.218 99.2955 152.617 99.8651C153.015 100.435 153.286 101.085 153.41 101.77L154.611 107.339C155.045 109.735 156.166 111.952 157.835 113.716C159.504 115.481 161.648 116.716 164.006 117.272C191.679 123.613 197.036 108.7 197.684 98.0544L198.404 88.27C198.502 87.0267 198.246 85.7814 197.668 84.6789C197.089 83.5764 196.213 82.6623 195.138 82.0426Z" stroke="black" stroke-width="2" stroke-linecap="round" stroke-linejoin="round"/>
<path d="M102.609 78.3928L94.5242 82.9398L85.2047 85.7318L102.11 103.596" stroke="black" stroke-width="2" stroke-linecap="round" stroke-linejoin="round"/>
<path d="M140.502 18.7871C137.406 43.5531 122.299 73.5199 76.7296 86.8935C76.936 65.6361 93.4466 18.7871 140.502 18.7871C199.94 21.759 210.466 72.6531 196.845 90.6084C161.182 78.7207 144.01 35.0914 140.502 18.7871Z" fill="#FFE68C"/>
<path d="M140.502 18.7871C137.406 43.5531 122.299 73.5199 76.7296 86.8935C76.936 65.6361 93.4466 18.7871 140.502 18.7871ZM140.502 18.7871C144.01 35.0914 161.182 78.7207 196.845 90.6084C210.466 72.6531 199.94 21.759 140.502 18.7871Z" stroke="black" stroke-width="2"/>
<path d="M128.6 323.577C127.114 319.119 134.172 273.426 137.887 251.136H92.0703C85.6724 270.33 73.1243 309.584 74.1149 313.051C75.3532 317.385 130.457 329.149 128.6 323.577Z" fill="white" stroke="black" stroke-width="2"/>
<path d="M246.802 160.741L249.279 156.407L250.517 157.026L251.136 161.979L246.802 160.741Z" fill="#C1BEBE" stroke="black" stroke-width="0.1"/>
<path d="M156.679 161.044C153.707 165.007 137.713 164.15 130.49 162.499L129.783 163.836L131.021 169.409L135.974 186.126V199.128L138.451 241.23H170.028L165.074 220.179L160.74 197.27V186.126L156.679 161.044Z" fill="#C5F7FF" stroke="black" stroke-width="0.1"/>
<path d="M195.676 165.694C161.623 144.643 154.193 146.5 156.05 148.358L161.004 189.841C158.527 207.177 179.372 271.775 190.104 301.907C195.552 301.411 200.629 295.509 202.487 292.619C190.104 257.947 184.531 217.083 183.293 200.985C207.068 216.835 231.587 192.035 240.874 177.654C246.96 173.392 250.296 166.256 251.399 161.979C240.502 164.455 227.872 145.675 222.919 135.975C221.741 139.214 215.253 146.406 208.451 153.311C203.81 158.021 199.024 162.597 195.676 165.694Z" fill="white"/>
<path d="M195.676 165.694C161.623 144.643 154.193 146.5 156.05 148.358L161.004 189.841C158.527 207.177 179.372 271.775 190.104 301.907C195.552 301.411 200.629 295.509 202.487 292.619C190.104 257.947 184.531 217.083 183.293 200.985C207.068 216.835 231.587 192.035 240.874 177.654M195.676 165.694L193.199 170.028M195.676 165.694C199.024 162.597 203.81 158.021 208.451 153.311M202.487 170.028L208.451 153.311M208.451 153.311C215.253 146.406 221.741 139.214 222.919 135.975C227.872 145.675 240.502 164.455 251.399 161.979M251.399 161.979C251.812 160.121 251.895 155.787 248.923 153.311M251.399 161.979C250.296 166.256 246.96 173.392 240.874 177.654M229.729 181.172C234.162 181.172 237.856 179.766 240.874 177.654" stroke="black" stroke-width="2"/>
<path d="M77.4835 201.811C86.328 161.641 110.495 150.896 124.21 147.119C130.402 160.121 134.117 181.172 135.974 186.126L138.451 246.183L116.781 242.409L107.493 246.183L83.9658 249.279L87.6807 246.183L77.8434 211.206C76.983 208.147 76.8002 204.914 77.4835 201.811Z" fill="white"/>
<path d="M77.4835 201.811L76.5069 201.595L76.5069 201.595L77.4835 201.811ZM135.974 186.126L136.973 186.084L136.967 185.924L136.911 185.774L135.974 186.126ZM77.8434 211.206L76.8808 211.477L76.8808 211.477L77.8434 211.206ZM87.6807 246.183L88.3209 246.951L88.8188 246.536L88.6433 245.912L87.6807 246.183ZM83.9658 249.279L83.3256 248.511L80.6736 250.721L84.0963 250.27L83.9658 249.279ZM107.493 246.183L107.624 247.175L107.751 247.158L107.87 247.11L107.493 246.183ZM107.718 199.514L106.74 199.72L106.74 199.72L107.718 199.514ZM138.451 246.183L138.279 247.168L139.501 247.381L139.45 246.142L138.451 246.183ZM108.568 198.283L108.352 197.307L108.352 197.307L108.568 198.283ZM111.421 197.206C111.728 196.746 111.603 196.125 111.144 195.819C110.684 195.513 110.064 195.637 109.757 196.096L111.421 197.206ZM123.21 143.404V147.119H125.21V143.404H123.21ZM123.945 146.155C116.996 148.069 107.361 151.758 98.3423 160.083C89.3154 168.414 80.9686 181.331 76.5069 201.595L78.4601 202.026C82.8429 182.12 91.002 169.579 99.6988 161.552C108.403 153.518 117.71 149.946 124.476 148.083L123.945 146.155ZM123.308 147.549C126.359 153.956 128.816 162.388 130.749 169.89C131.715 173.637 132.544 177.125 133.252 180.008C133.953 182.86 134.548 185.171 135.038 186.477L136.911 185.774C136.472 184.604 135.906 182.425 135.194 179.531C134.491 176.667 133.655 173.152 132.686 169.391C130.75 161.879 128.254 153.284 125.113 146.689L123.308 147.549ZM76.8808 211.477L86.718 246.454L88.6433 245.912L78.8061 210.935L76.8808 211.477ZM87.0405 245.415L83.3256 248.511L84.606 250.047L88.3209 246.951L87.0405 245.415ZM84.0963 250.27L107.624 247.175L107.363 245.192L83.8353 248.287L84.0963 250.27ZM107.87 247.11L117.157 243.336L116.404 241.483L107.117 245.257L107.87 247.11ZM117.759 242.203L108.697 199.307L106.74 199.72L115.802 242.616L117.759 242.203ZM134.975 186.167L137.452 246.224L139.45 246.142L136.973 186.084L134.975 186.167ZM138.622 245.198L116.952 241.424L116.609 243.394L138.279 247.168L138.622 245.198ZM108.785 199.259C109.313 199.142 109.789 198.957 110.248 198.589C110.678 198.243 111.04 197.778 111.421 197.206L109.757 196.096C109.405 196.624 109.181 196.881 108.996 197.029C108.839 197.155 108.671 197.236 108.352 197.307L108.785 199.259ZM108.697 199.307C108.696 199.306 108.697 199.309 108.696 199.314C108.695 199.318 108.695 199.316 108.699 199.31C108.71 199.295 108.738 199.27 108.785 199.259L108.352 197.307C107.329 197.534 106.489 198.531 106.74 199.72L108.697 199.307ZM76.5069 201.595C75.7841 204.878 75.9813 208.279 76.8808 211.477L78.8061 210.935C77.9848 208.015 77.8162 204.95 78.4601 202.026L76.5069 201.595Z" fill="black"/>
<path d="M157.025 160.74C147.119 167.675 134.323 163.63 129.164 160.74L124.83 145.881V144.643C129.783 148.11 148.357 146.5 157.025 145.881V160.74Z" fill="#FFCBCB" stroke="black" stroke-width="2"/>
<path d="M155.787 153.311C155.292 154.301 139.881 153.79 125.64 146.979L156.406 147.119C156.2 148.77 156.283 152.32 155.787 153.311Z" fill="#080808" stroke="black" stroke-width="2"/>
<path d="M160.74 187.364L170.731 173.847C171.035 173.436 170.98 172.861 170.603 172.515L165.112 167.482C164.545 166.962 164.753 166.023 165.487 165.792L173.804 163.165C174.569 162.923 174.753 161.926 174.125 161.428L157.645 148.357" stroke="black" stroke-width="2"/>
<path d="M237.611 232.562H228.747C227.434 232.562 226.37 233.625 226.37 234.938C226.37 235.407 226.509 235.866 226.769 236.256L227.956 238.036C228.513 238.871 229.449 239.372 230.453 239.372H237.253C238.198 239.372 239.087 238.928 239.653 238.172L240.011 237.696C240.4 237.176 240.611 236.545 240.611 235.896V235.562C240.611 233.905 239.268 232.562 237.611 232.562Z" fill="#FFD600" stroke="black" stroke-width="0.1"/>
<path d="M226.498 232.561H241.11M230.089 217.702H237.519M236.281 217.702V226.793C237.583 227.253 238.732 228.067 239.597 229.144C240.463 230.22 241.011 231.516 241.18 232.887C241.35 234.258 241.134 235.649 240.557 236.904C239.98 238.159 239.064 239.228 237.913 239.991H229.697C228.545 239.228 227.629 238.159 227.051 236.904C226.473 235.649 226.257 234.257 226.426 232.886C226.596 231.515 227.144 230.218 228.01 229.141C228.876 228.065 230.025 227.251 231.328 226.791V217.702H236.281Z" stroke="black" stroke-width="2" stroke-linecap="round" stroke-linejoin="round"/>
<path d="M285.494 224.091H259.905C258.904 224.091 257.968 224.591 257.412 225.423L253.17 231.765C252.581 232.645 252.5 233.771 252.957 234.726L254.011 236.934C254.51 237.977 255.563 238.641 256.718 238.641H289.43C290.586 238.641 291.639 237.977 292.137 236.934L293.137 234.841C293.623 233.825 293.498 232.621 292.813 231.726L287.878 225.269C287.31 224.527 286.429 224.091 285.494 224.091Z" fill="#DE4FC7" stroke="black" stroke-width="0.1"/>
<path d="M274.368 192.083C273.39 192.083 272.589 192.878 272.589 193.849C272.589 194.821 273.39 195.616 274.368 195.616C275.346 195.616 276.146 194.821 276.146 193.849C276.146 192.878 275.346 192.083 274.368 192.083ZM269.033 197.383C268.055 197.383 267.254 198.178 267.254 199.149H261.92V202.683H263.698V216.209L252.751 230.233C251.784 231.462 251.256 232.976 251.25 234.537C251.255 236.395 252 238.176 253.322 239.491C254.645 240.805 256.437 241.545 258.308 241.551H286.869C288.739 241.546 290.532 240.806 291.855 239.492C293.178 238.178 293.923 236.397 293.928 234.538C293.928 232.978 293.395 231.468 292.428 230.233L281.481 216.209V202.683H283.259V199.149H270.811C270.811 198.178 270.011 197.383 269.033 197.383ZM267.254 202.683H277.924V217.424L282.981 223.883H262.197L267.254 217.424V202.683ZM274.368 209.75C273.39 209.75 272.589 210.545 272.589 211.516C272.589 212.488 273.39 213.283 274.368 213.283C275.346 213.283 276.146 212.488 276.146 211.516C276.146 210.545 275.346 209.75 274.368 209.75ZM259.419 227.417H285.759L289.65 232.387C290.13 233 290.372 233.765 290.372 234.538C290.377 234.997 290.291 235.452 290.117 235.876C289.943 236.301 289.685 236.686 289.359 237.01C289.032 237.335 288.644 237.591 288.217 237.763C287.79 237.936 287.332 238.023 286.871 238.017H258.31C257.848 238.023 257.39 237.937 256.963 237.764C256.535 237.591 256.147 237.335 255.821 237.011C255.494 236.687 255.236 236.301 255.062 235.877C254.888 235.452 254.801 234.997 254.807 234.538C254.807 233.766 255.05 233.001 255.529 232.387L259.419 227.417Z" fill="black"/>
<path d="M9.20474 256.089C3.01325 254.025 -5.65484 248.164 9.20474 241.229H342.926C347.673 243.706 354.318 250.145 342.926 256.089H301.287L323.577 406.542H316.766L307.479 403.447L277.45 293.238H264.758L254.232 256.089H104.398H87.2175L71.7388 295.095H66.6298L46.3537 403.447L35.209 410.257H26.5409L46.3537 256.089H9.20474Z" fill="#614E47"/>
<path d="M46.3537 256.089H9.20474C3.01325 254.025 -5.65484 248.164 9.20474 241.229H342.926C347.673 243.706 354.318 250.145 342.926 256.089H301.287M46.3537 256.089L26.5409 410.257H35.209M46.3537 256.089H77.9303M35.209 410.257L35.6351 407.781L36.9133 400.351L55.0218 295.095M35.209 410.257L46.3537 403.447L66.6298 295.095M55.0218 295.095C52.5452 295.095 49.4494 293.032 48.2111 292M55.0218 295.095H66.6298M87.2175 256.089L71.7388 295.095H66.6298M87.2175 256.089H77.9303M87.2175 256.089H104.398H254.232M77.9303 256.089L66.6298 288.285M301.287 256.089L323.577 406.542H316.766M301.287 256.089H261.043M316.766 406.542L290.143 293.238M316.766 406.542L307.479 403.447L277.45 293.238M290.143 293.238L301.907 290.761M290.143 293.238H277.45M254.232 256.089L264.758 293.238H277.45M254.232 256.089H261.043M261.043 256.089L270.949 287.666" stroke="black" stroke-width="2"/>
<path d="M92.015 256.09L85.9246 280.81C85.5273 282.423 86.5163 284.052 88.1307 284.443L109.146 289.538L114.774 290.903C116.387 291.294 118.011 290.301 118.398 288.687L126.068 256.709" stroke="black" stroke-width="2"/>
<path d="M253.613 146.5L246.183 161.359C245.192 163.341 232.562 148.151 226.37 140.308C226.99 135.562 232.067 124.953 235.038 122.972C236.524 143.776 247.009 147.532 253.613 146.5Z" fill="#8CBCB4" stroke="black" stroke-width="2"/>
<path d="M135.975 189.221L121.632 175.477C121.323 175.18 121.237 174.72 121.418 174.332L124.785 167.116C125.094 166.454 124.61 165.694 123.879 165.694H114.406C113.589 165.694 113.117 164.768 113.596 164.107L125.449 147.738" stroke="black" stroke-width="2"/>
<path d="M236.164 119.805L236.225 105.122C236.225 105.122 241.219 107.83 249.403 105.482L249.643 120.045C249.643 120.045 240.257 122.753 236.164 119.805Z" fill="white" fill-opacity="0.17"/>
<path d="M243.174 104.649C247.64 104.649 251.26 103.217 251.26 101.451C251.26 99.6845 247.64 98.2524 243.174 98.2524C238.708 98.2524 235.088 99.6845 235.088 101.451C235.088 103.217 238.708 104.649 243.174 104.649Z" fill="white" fill-opacity="0.17"/>
<path d="M250.193 121.899L250.334 148.063C250.336 152.512 246.772 154.973 243.139 155.381C243.136 155.381 242.946 155.328 242.4 155.342C241.657 155.36 241.692 155.28 240.977 155.073C238.239 154.058 236.335 151.905 235.729 148.359L235.657 120.834L235.726 120.901C238.155 122.035 240.285 122.565 242.965 122.502C244.193 122.509 245.42 122.401 246.629 122.18L246.907 122.137C248.235 121.899 248.314 122.251 249.524 121.654L250.193 121.899Z" fill="#5C9E31"/>
<path d="M235.682 120.826C238.112 121.959 239.065 122.566 241.745 122.503C242.975 122.509 244.201 122.401 245.41 122.181V148.15C245.413 151.756 242.521 155.149 239.547 154.223C237.119 152.449 236.119 152.263 235.575 148.589L235.682 120.826Z" fill="#B1CC33"/>
<path d="M251.025 103.593V147.466C251.113 149.694 250.314 151.866 248.803 153.506C247.291 155.145 245.191 156.118 242.964 156.212C240.736 156.118 238.636 155.145 237.124 153.506C235.613 151.866 234.814 149.694 234.902 147.466V104.025" stroke="black" stroke-width="2" stroke-linecap="round" stroke-linejoin="round"/>
<path d="M242.955 105.356C248.011 105.356 252.11 103.617 252.11 101.472C252.11 99.3266 248.011 97.5874 242.955 97.5874C237.899 97.5874 233.8 99.3266 233.8 101.472C233.8 103.617 237.899 105.356 242.955 105.356Z" stroke="black" stroke-width="2" stroke-miterlimit="10"/>
<path d="M235.195 120.876C237.625 122.01 240.283 122.566 242.963 122.503C244.192 122.509 245.419 122.402 246.627 122.181L246.906 122.137C248.234 121.898 249.522 121.474 250.731 120.876" stroke="black" stroke-width="2" stroke-linecap="round" stroke-linejoin="round"/>
<path d="M240.086 122.097L252.932 111.208C260.961 111.208 261.496 113.801 260.961 116.394C262.389 119.505 264.815 126.245 263.102 128.319C264.029 130.499 265.23 134.524 264.565 137.134L264.228 143.057C264.172 144.049 263.633 144.955 262.755 145.42C259.247 147.281 253.35 149.652 249.898 148.357C245.935 146.871 248.842 144.611 250.791 143.666C249.943 143.93 249.116 144.183 248.333 144.419C246.134 145.082 243.481 145.101 242.069 143.289C240.032 140.676 242.799 138.221 244.903 137.134C236.896 137.134 241.513 130.221 244.903 128.319C240.193 128.319 239.372 126.068 240.086 122.097Z" fill="#8CBCB4"/>
<path d="M244.903 128.319C240.193 128.319 239.372 126.068 240.086 122.097L252.932 111.208C260.961 111.208 261.496 113.801 260.961 116.394M244.903 128.319C250.077 125.208 260.533 118.468 260.961 116.394M244.903 128.319C241.513 130.221 236.896 137.134 244.903 137.134M260.961 116.394C262.389 119.505 264.815 126.245 263.102 128.319M244.903 137.134C250.256 135.06 261.389 130.393 263.102 128.319M244.903 137.134C242.799 138.221 240.032 140.676 242.069 143.289C243.481 145.101 246.134 145.082 248.333 144.419C249.116 144.183 249.943 143.93 250.791 143.666M263.102 128.319C264.351 131.258 266.1 137.549 263.102 139.208C261.061 140.338 255.593 142.174 250.791 143.666M250.791 143.666C248.842 144.611 245.935 146.871 249.898 148.357C253.35 149.652 259.247 147.281 262.755 145.42C263.633 144.955 264.172 144.049 264.228 143.057L264.565 137.134" stroke="black" stroke-width="2"/>
<path d="M240.73 90.7764C240.73 92.21 239.568 93.3722 238.134 93.3722C236.701 93.3722 235.538 92.21 235.538 90.7764C235.538 89.3428 236.701 88.1807 238.134 88.1807C239.568 88.1807 240.73 89.3428 240.73 90.7764Z" fill="#B1CC33" stroke="black"/>
<path d="M251.875 93.253C251.875 94.6866 250.712 95.8487 249.279 95.8487C247.845 95.8487 246.683 94.6866 246.683 93.253C246.683 91.8194 247.845 90.6572 249.279 90.6572C250.712 90.6572 251.875 91.8194 251.875 93.253Z" fill="#5C9E31" stroke="black"/>
<path d="M248.16 80.251C248.16 82.7105 246.166 84.7042 243.706 84.7042C241.247 84.7042 239.253 82.7105 239.253 80.251C239.253 77.7916 241.247 75.7979 243.706 75.7979C246.166 75.7979 248.16 77.7916 248.16 80.251Z" fill="#77C941" stroke="black"/>
<circle cx="148.357" cy="196.651" r="3.2149" fill="#02184F" stroke="black"/>
<circle cx="149.596" cy="211.511" r="3.2149" fill="#02184F" stroke="black"/>
<circle cx="150.834" cy="226.37" r="3.2149" fill="#02184F" stroke="black"/>
<path d="M186.125 131.021C191.285 137.213 200.614 154.054 196.651 164.456" stroke="black"/>
<path d="M79.0125 129.783C71.9955 139.483 58.333 166.932 64.7722 191.698" stroke="black"/>
<path d="M88.9191 134.117C86.8553 142.372 84.7089 160.369 92.634 166.312" stroke="black"/>
<path d="M140.945 22.0513C140.326 29.4352 155.728 68.4875 191.639 63.5343L140.945 22.0513Z" fill="#FFE073" stroke="black" stroke-width="2"/>
<path d="M140.848 22.0513C141.467 29.468 126.066 68.694 90.1573 63.7188L140.848 22.0513Z" fill="#FFE073" stroke="black" stroke-width="2"/>
<path d="M49.2935 35.0532C50.119 42.2766 58.7045 55.7328 71.5828 51.7703" stroke="black"/>
<path d="M75.9169 9.66797C82.3147 10.6999 95.7296 17.2216 93.253 27.6233" stroke="black"/>
<path d="M57.3424 21.4316C58.7871 27.4167 65.639 40.2538 76.536 43.721" stroke="black"/>
<path d="M69.7255 12.1445C75.5042 15.2403 86.9378 24.6513 86.4425 32.5765" stroke="black"/>
<path d="M171.885 2.85742C176.219 6.7787 184.763 17.0979 184.268 27.0042" stroke="black"/>
<path d="M148.357 11.525C149.596 8.42921 155.416 1.12344 163.836 1.61876" stroke="black"/>
<path d="M165.074 2.23828C166.313 4.71488 168.046 10.7825 165.074 15.2404" stroke="black"/>
<path d="M127.306 51.1509C117.193 62.0892 92.0147 83.9658 77.1552 83.9658" stroke="black"/>
<path d="M153.93 50.5322C164.662 62.9152 188.602 87.5573 198.508 87.062" stroke="black"/>
<path d="M140.928 20.8125C158.677 27.2104 194.794 42.4827 197.27 52.3891" stroke="black"/>
<path d="M140.308 21.4316C128.132 24.1146 102.045 31.5857 95.1106 40.0061" stroke="black"/>
<path d="M120.496 38.1489C111.828 39.3872 92.7577 44.3404 85.8232 54.2468" stroke="black"/>
<path d="M160.74 38.1489C170.647 42.0702 192.317 51.894 199.747 59.8191" stroke="black"/>
<path d="M166.313 60.438C174.155 64.3593 193.184 69.1061 199.128 66.6295C195.619 69.1061 182.658 73.3163 166.313 60.438Z" fill="#B39323"/>
<path d="M111.828 62.2954C103.159 65.3912 91.7671 69.0474 85.8232 66.6295C89.3318 69.0474 95.482 74.8685 111.828 62.2954Z" fill="#B39323"/>
<path d="M170.647 139.07C173.123 142.372 178.448 151.206 177.457 155.168" stroke="black"/>
<path d="M80.251 137.832C75.2977 147.119 79.6317 164.455 83.3466 173.124" stroke="#B39323" stroke-width="0.5" stroke-linecap="round"/>
<path d="M70.3447 163.217C69.9319 168.583 70.7162 181.173 77.1553 188.602" stroke="#B39323" stroke-width="0.5" stroke-linecap="round"/>
<path d="M62.2957 152.073C60.0255 156.82 55.7328 168.171 56.7234 175.6" stroke="#B39323" stroke-width="0.5" stroke-linecap="round"/>
<path d="M98.8568 133.498C98.6287 138.781 99.5413 150.141 105.017 153.311" stroke="#B39323" stroke-width="0.5" stroke-linecap="round"/>
<path d="M181.791 135.975C183.649 139.277 189.84 146.5 189.84 157.645" stroke="#B39323" stroke-width="0.5" stroke-linecap="round"/>
<path d="M168.17 142.785C169.202 144.023 171.266 146.872 171.266 148.357" stroke="#B39323" stroke-width="0.5" stroke-linecap="round"/>
<path d="M194.793 129.164C195.825 131.022 198.013 135.727 198.508 139.69" stroke="#B39323" stroke-width="0.5" stroke-linecap="round"/>
</svg>
