<svg width="68" height="54" viewBox="0 0 68 54" fill="none" xmlns="http://www.w3.org/2000/svg">
<path d="M41.883 20.5613C42.2298 20.751 42.2298 21.249 41.883 21.4387L29.175 28.3895C28.8418 28.5718 28.4351 28.3306 28.4351 27.9508L28.4351 14.0492C28.4351 13.6694 28.8418 13.4282 29.175 13.6105L41.883 20.5613Z" fill="#101E60"/>
<path d="M60.6416 38.6666V8.66666C60.6416 6.89855 59.9392 5.20286 58.689 3.95262C57.4387 2.70238 55.743 2 53.9749 2H13.975C12.2069 2 10.5112 2.70238 9.26095 3.95262C8.01071 5.20286 7.30833 6.89855 7.30833 8.66666V38.6666M60.6416 38.6666H7.30833M60.6416 38.6666L64.9082 47.1666C65.1652 47.6765 65.2869 48.244 65.2616 48.8145C65.2362 49.3849 65.0648 49.9394 64.7636 50.4245C64.4625 50.9097 64.0418 51.3094 63.5418 51.5853C63.0418 51.8611 62.4793 52.0039 61.9082 51.9999H6.04167C5.47063 52.0039 4.90815 51.8611 4.40815 51.5853C3.90815 51.3094 3.48741 50.9097 3.18626 50.4245C2.88511 49.9394 2.71365 49.3849 2.68834 48.8145C2.66302 48.244 2.78469 47.6765 3.04167 47.1666L7.30833 38.6666" stroke="#101E60" stroke-width="4" stroke-linecap="round" stroke-linejoin="round"/>
</svg>
