<svg width="77" height="77" viewBox="0 0 77 77" fill="none" xmlns="http://www.w3.org/2000/svg">
<path d="M44.5984 34.0009C44.9451 34.1906 44.9451 34.6886 44.5984 34.8783L35.3103 39.9585C34.9771 40.1408 34.5704 39.8996 34.5704 39.5198L34.5704 29.3594C34.5704 28.9796 34.9771 28.7385 35.3103 28.9207L44.5984 34.0009Z" fill="#101E60"/>
<path d="M59.047 47.8666V25.0667C59.047 23.7229 58.5131 22.4342 57.563 21.484C56.6128 20.5338 55.3241 20 53.9803 20H23.5803C22.2366 20 20.9479 20.5338 19.9977 21.484C19.0475 22.4342 18.5137 23.7229 18.5137 25.0667V47.8666M59.047 47.8666H18.5137M59.047 47.8666L62.2896 54.3266C62.4849 54.7142 62.5774 55.1454 62.5581 55.579C62.5389 56.0126 62.4086 56.4339 62.1797 56.8027C61.9509 57.1714 61.6311 57.4752 61.2511 57.6848C60.8711 57.8945 60.4436 58.003 60.0096 57.9999H17.551C17.117 58.003 16.6895 57.8945 16.3095 57.6848C15.9296 57.4752 15.6098 57.1714 15.3809 56.8027C15.152 56.4339 15.0217 56.0126 15.0025 55.579C14.9832 55.1454 15.0757 54.7142 15.271 54.3266L18.5137 47.8666" stroke="#101E60" stroke-width="4" stroke-linecap="round" stroke-linejoin="round"/>
<circle cx="38.5" cy="38.5" r="36.5" stroke="#101E60" stroke-width="4"/>
</svg>
