<svg width="140" height="143" viewBox="0 0 140 143" fill="none" xmlns="http://www.w3.org/2000/svg">
<g filter="url(#filter0_biii_69_7369)">
<circle cx="70.5" cy="69.5" r="69.5" fill="url(#paint0_linear_69_7369)"/>
<circle cx="70.5" cy="69.5" r="69.5" fill="url(#paint1_radial_69_7369)" fill-opacity="0.5"/>
<circle cx="70.5" cy="69.5" r="69.5" fill="url(#paint2_radial_69_7369)" fill-opacity="0.5"/>
<circle cx="70.5" cy="69.5" r="69.2625" stroke="url(#paint3_linear_69_7369)" stroke-opacity="0.3" stroke-width="0.475083"/>
</g>
<g filter="url(#filter1_f_69_7369)">
<ellipse cx="104.335" cy="30.3984" rx="8.77409" ry="4.15615" transform="rotate(45.2321 104.335 30.3984)" fill="white"/>
</g>
<g filter="url(#filter2_f_69_7369)">
<ellipse cx="39.6596" cy="104.199" rx="12.1945" ry="5.77632" transform="rotate(35.9982 39.6596 104.199)" fill="#FDA8FF"/>
</g>
<g filter="url(#filter3_f_69_7369)">
<ellipse cx="33.6887" cy="108.436" rx="3.8996" ry="1.84718" transform="rotate(45.2321 33.6887 108.436)" fill="white"/>
</g>
<circle cx="70.5001" cy="69.4994" r="66.4518" stroke="white" stroke-opacity="0.12" stroke-width="3.32558" style="mix-blend-mode:soft-light"/>
<mask id="mask0_69_7369" style="mask-type:alpha" maskUnits="userSpaceOnUse" x="1" y="0" width="139" height="139">
<circle cx="70.5" cy="69.5" r="69.5" fill="#C4C4C4"/>
</mask>
<g mask="url(#mask0_69_7369)">
<g filter="url(#filter4_f_69_7369)">
<ellipse cx="27.9268" cy="121.744" rx="47.1595" ry="22.3706" transform="rotate(35.388 27.9268 121.744)" fill="#FEC6FF"/>
</g>
<g filter="url(#filter5_f_69_7369)">
<ellipse cx="66.2692" cy="10.5812" rx="25.3021" ry="12.0023" transform="rotate(-6.37561 66.2692 10.5812)" fill="white"/>
</g>
<g filter="url(#filter6_f_69_7369)">
<circle cx="79.5433" cy="55.4541" r="11.5449" transform="rotate(29.5819 79.5433 55.4541)" fill="#3C98CC"/>
</g>
<g filter="url(#filter7_f_69_7369)">
<circle cx="104.48" cy="120.106" r="11.5449" transform="rotate(29.5819 104.48 120.106)" fill="#3C98CC"/>
</g>
<g filter="url(#filter8_f_69_7369)">
<ellipse cx="4.84614" cy="28.7129" rx="11.5449" ry="24.8707" transform="rotate(29.5819 4.84614 28.7129)" fill="#3C98CC"/>
</g>
</g>
<path d="M59.4075 112.778C66.3587 112.778 72.0001 107.136 72.0001 100.185V87.5928H59.4075C52.4564 87.5928 46.8149 93.2342 46.8149 100.185C46.8149 107.136 52.4564 112.778 59.4075 112.778Z" fill="#0ACF83"/>
<path d="M46.8149 75.0008C46.8149 68.0497 52.4564 62.4082 59.4075 62.4082H72.0001V87.5933H59.4075C52.4564 87.5933 46.8149 81.9519 46.8149 75.0008Z" fill="#A259FF"/>
<path d="M46.8149 49.8152C46.8149 42.8641 52.4564 37.2227 59.4075 37.2227H72.0001V62.4078H59.4075C52.4564 62.4078 46.8149 56.7664 46.8149 49.8152Z" fill="#F24E1E"/>
<path d="M72 37.2227H84.5926C91.5437 37.2227 97.1852 42.8641 97.1852 49.8152C97.1852 56.7664 91.5437 62.4078 84.5926 62.4078H72V37.2227Z" fill="#FF7262"/>
<path d="M97.1852 75.0008C97.1852 81.9519 91.5437 87.5933 84.5926 87.5933C77.6415 87.5933 72 81.9519 72 75.0008C72 68.0497 77.6415 62.4082 84.5926 62.4082C91.5437 62.4082 97.1852 68.0497 97.1852 75.0008Z" fill="#1ABCFE"/>
<defs>
<filter id="filter0_biii_69_7369" x="-6.12625" y="-7.12625" width="153.252" height="153.252" filterUnits="userSpaceOnUse" color-interpolation-filters="sRGB">
<feFlood flood-opacity="0" result="BackgroundImageFix"/>
<feGaussianBlur in="BackgroundImageFix" stdDeviation="3.56312"/>
<feComposite in2="SourceAlpha" operator="in" result="effect1_backgroundBlur_69_7369"/>
<feBlend mode="normal" in="SourceGraphic" in2="effect1_backgroundBlur_69_7369" result="shape"/>
<feColorMatrix in="SourceAlpha" type="matrix" values="0 0 0 0 0 0 0 0 0 0 0 0 0 0 0 0 0 0 127 0" result="hardAlpha"/>
<feOffset dx="6.17608" dy="3.32558"/>
<feGaussianBlur stdDeviation="5.46346"/>
<feComposite in2="hardAlpha" operator="arithmetic" k2="-1" k3="1"/>
<feColorMatrix type="matrix" values="0 0 0 0 1 0 0 0 0 1 0 0 0 0 1 0 0 0 0.25 0"/>
<feBlend mode="normal" in2="shape" result="effect2_innerShadow_69_7369"/>
<feColorMatrix in="SourceAlpha" type="matrix" values="0 0 0 0 0 0 0 0 0 0 0 0 0 0 0 0 0 0 127 0" result="hardAlpha"/>
<feOffset dx="-6.17608" dy="-1.42525"/>
<feGaussianBlur stdDeviation="13.7774"/>
<feComposite in2="hardAlpha" operator="arithmetic" k2="-1" k3="1"/>
<feColorMatrix type="matrix" values="0 0 0 0 0 0 0 0 0 0.835294 0 0 0 0 0.960784 0 0 0 0.21 0"/>
<feBlend mode="normal" in2="effect2_innerShadow_69_7369" result="effect3_innerShadow_69_7369"/>
<feColorMatrix in="SourceAlpha" type="matrix" values="0 0 0 0 0 0 0 0 0 0 0 0 0 0 0 0 0 0 127 0" result="hardAlpha"/>
<feOffset dx="3.32558" dy="-4.27575"/>
<feComposite in2="hardAlpha" operator="arithmetic" k2="-1" k3="1"/>
<feColorMatrix type="matrix" values="0 0 0 0 0.992157 0 0 0 0 0.658824 0 0 0 0 1 0 0 0 0.27 0"/>
<feBlend mode="soft-light" in2="effect3_innerShadow_69_7369" result="effect4_innerShadow_69_7369"/>
</filter>
<filter id="filter1_f_69_7369" x="93.2108" y="19.2379" width="22.2495" height="22.3201" filterUnits="userSpaceOnUse" color-interpolation-filters="sRGB">
<feFlood flood-opacity="0" result="BackgroundImageFix"/>
<feBlend mode="normal" in="SourceGraphic" in2="BackgroundImageFix" result="shape"/>
<feGaussianBlur stdDeviation="2.13787" result="effect1_foregroundBlur_69_7369"/>
</filter>
<filter id="filter2_f_69_7369" x="0.243076" y="66.6615" width="78.8329" height="75.0754" filterUnits="userSpaceOnUse" color-interpolation-filters="sRGB">
<feFlood flood-opacity="0" result="BackgroundImageFix"/>
<feBlend mode="normal" in="SourceGraphic" in2="BackgroundImageFix" result="shape"/>
<feGaussianBlur stdDeviation="14.49" result="effect1_foregroundBlur_69_7369"/>
</filter>
<filter id="filter3_f_69_7369" x="27.3192" y="102.05" width="12.7391" height="12.7703" filterUnits="userSpaceOnUse" color-interpolation-filters="sRGB">
<feFlood flood-opacity="0" result="BackgroundImageFix"/>
<feBlend mode="normal" in="SourceGraphic" in2="BackgroundImageFix" result="shape"/>
<feGaussianBlur stdDeviation="1.66279" result="effect1_foregroundBlur_69_7369"/>
</filter>
<filter id="filter4_f_69_7369" x="-85.8178" y="15.7376" width="227.489" height="212.013" filterUnits="userSpaceOnUse" color-interpolation-filters="sRGB">
<feFlood flood-opacity="0" result="BackgroundImageFix"/>
<feBlend mode="normal" in="SourceGraphic" in2="BackgroundImageFix" result="shape"/>
<feGaussianBlur stdDeviation="36.5814" result="effect1_foregroundBlur_69_7369"/>
</filter>
<filter id="filter5_f_69_7369" x="7.83183" y="-34.9316" width="116.875" height="91.0263" filterUnits="userSpaceOnUse" color-interpolation-filters="sRGB">
<feFlood flood-opacity="0" result="BackgroundImageFix"/>
<feBlend mode="normal" in="SourceGraphic" in2="BackgroundImageFix" result="shape"/>
<feGaussianBlur stdDeviation="16.6279" result="effect1_foregroundBlur_69_7369"/>
</filter>
<filter id="filter6_f_69_7369" x="32.3653" y="8.27599" width="94.356" height="94.3562" filterUnits="userSpaceOnUse" color-interpolation-filters="sRGB">
<feFlood flood-opacity="0" result="BackgroundImageFix"/>
<feBlend mode="normal" in="SourceGraphic" in2="BackgroundImageFix" result="shape"/>
<feGaussianBlur stdDeviation="17.8156" result="effect1_foregroundBlur_69_7369"/>
</filter>
<filter id="filter7_f_69_7369" x="57.3019" y="72.9274" width="94.356" height="94.3562" filterUnits="userSpaceOnUse" color-interpolation-filters="sRGB">
<feFlood flood-opacity="0" result="BackgroundImageFix"/>
<feBlend mode="normal" in="SourceGraphic" in2="BackgroundImageFix" result="shape"/>
<feGaussianBlur stdDeviation="17.8156" result="effect1_foregroundBlur_69_7369"/>
</filter>
<filter id="filter8_f_69_7369" x="-46.6459" y="-29.2914" width="102.984" height="116.009" filterUnits="userSpaceOnUse" color-interpolation-filters="sRGB">
<feFlood flood-opacity="0" result="BackgroundImageFix"/>
<feBlend mode="normal" in="SourceGraphic" in2="BackgroundImageFix" result="shape"/>
<feGaussianBlur stdDeviation="17.8156" result="effect1_foregroundBlur_69_7369"/>
</filter>
<linearGradient id="paint0_linear_69_7369" x1="92.4352" y1="4.15615" x2="50.6429" y2="139" gradientUnits="userSpaceOnUse">
<stop stop-color="white" stop-opacity="0.26"/>
<stop offset="1" stop-color="white" stop-opacity="0"/>
</linearGradient>
<radialGradient id="paint1_radial_69_7369" cx="0" cy="0" r="1" gradientUnits="userSpaceOnUse" gradientTransform="translate(97.5149 25.1678) rotate(119.781) scale(138.07)">
<stop stop-color="white" stop-opacity="0"/>
<stop offset="0.62353" stop-color="#FDA8FF" stop-opacity="0"/>
<stop offset="1" stop-color="#FDA8FF"/>
</radialGradient>
<radialGradient id="paint2_radial_69_7369" cx="0" cy="0" r="1" gradientUnits="userSpaceOnUse" gradientTransform="translate(51.5664 150.776) rotate(-75.2603) scale(173.335)">
<stop stop-color="white" stop-opacity="0"/>
<stop offset="0.62353" stop-color="#00B2FF" stop-opacity="0"/>
<stop offset="1" stop-color="#00E0FF"/>
</radialGradient>
<linearGradient id="paint3_linear_69_7369" x1="106.52" y1="10.8521" x2="23.6279" y2="129.071" gradientUnits="userSpaceOnUse">
<stop stop-color="#0085FF"/>
<stop offset="1" stop-color="#FEC8FF"/>
</linearGradient>
</defs>
</svg>
