<svg width="303" height="378" viewBox="0 0 303 378" fill="none" xmlns="http://www.w3.org/2000/svg">
<path d="M191.5 15.5H114H110L114 19L135.5 25L162 26L191.5 19V15.5Z" fill="#EFFDFF"/>
<g filter="url(#filter0_d_178_231)">
<path d="M195.239 16.4026V58.9132C195.239 88.804 195.239 103.749 198.916 118.096C202.558 132.46 209.74 145.627 224.087 171.961L243.513 207.666C280.072 274.801 298.352 308.385 283.356 333.266L283.116 333.642C267.914 358.403 229.2 358.403 151.805 358.403C74.4108 358.403 35.6964 358.403 20.4774 333.642L20.2551 333.266C5.25836 308.385 23.5383 274.801 60.0981 207.666L79.5237 171.961C93.8876 145.627 101.035 132.46 104.695 118.096C108.354 103.732 108.354 88.804 108.354 58.9303V16.4026" fill="#CEEAFF" fill-opacity="0.3"/>
<path d="M195.239 16.4026V58.9132C195.239 88.804 195.239 103.749 198.916 118.096C202.558 132.46 209.74 145.627 224.087 171.961L243.513 207.666C280.072 274.801 298.352 308.385 283.356 333.266L283.116 333.642C267.914 358.403 229.2 358.403 151.805 358.403C74.4108 358.403 35.6964 358.403 20.4774 333.642L20.2551 333.266C5.25836 308.385 23.5383 274.801 60.0981 207.666L79.5237 171.961C93.8876 145.627 101.035 132.46 104.695 118.096C108.354 103.732 108.354 88.804 108.354 58.9303V16.4026M195.239 16.4026C162.631 34.0069 123.729 23.7377 108.354 16.4026M195.239 16.4026C179.562 11.571 140.238 4.80688 108.354 16.4026" stroke="black" stroke-width="4" stroke-linecap="round" stroke-linejoin="round"/>
<path d="M124.597 112.383L125.927 28.5846C125.967 26.0644 123.935 24 121.415 24C118.977 24 117 25.9766 117 28.4149V111.485C117 116.1 115.936 120.652 113.89 124.787L34.4095 285.457C27.6406 299.141 23.5317 315.695 32.0159 328.387C39.1787 339.102 48.7973 342.481 54.5 345.5C62.4664 349.717 90.6667 349.5 104.5 348C90.5 349.2 73.3334 342.167 66.5 338.5C39.7 326.9 47.3334 292 54.5 276L122.015 124.091C123.655 120.402 124.533 116.419 124.597 112.383Z" fill="#C6CACB" fill-opacity="0.3"/>
<path d="M179.402 112.389L178.073 29.0848C178.033 26.5646 180.065 24.5 182.585 24.5C185.024 24.5 187 26.4765 187 28.9147V111.49C187 116.104 188.064 120.656 190.11 124.792L269.591 285.473C276.36 299.156 280.468 315.709 271.985 328.401C264.822 339.118 255.203 342.497 249.5 345.517C241.534 349.735 213.333 349.517 199.5 348.017C213.5 349.217 230.667 342.183 237.5 338.517C264.3 326.916 256.667 292.014 249.5 276.013L181.984 124.094C180.345 120.406 179.467 116.425 179.402 112.389Z" fill="white" fill-opacity="0.3"/>
</g>
<defs>
<filter id="filter0_d_178_231" x="0.799817" y="0.8" width="302.011" height="376.802" filterUnits="userSpaceOnUse" color-interpolation-filters="sRGB">
<feFlood flood-opacity="0" result="BackgroundImageFix"/>
<feColorMatrix in="SourceAlpha" type="matrix" values="0 0 0 0 0 0 0 0 0 0 0 0 0 0 0 0 0 0 127 0" result="hardAlpha"/>
<feOffset dy="5"/>
<feGaussianBlur stdDeviation="6.1"/>
<feComposite in2="hardAlpha" operator="out"/>
<feColorMatrix type="matrix" values="0 0 0 0 0.436347 0 0 0 0 0.436347 0 0 0 0 0.436347 0 0 0 0.25 0"/>
<feBlend mode="normal" in2="BackgroundImageFix" result="effect1_dropShadow_178_231"/>
<feBlend mode="normal" in="SourceGraphic" in2="effect1_dropShadow_178_231" result="shape"/>
</filter>
</defs>
</svg>
