<svg width="45" height="41" viewBox="0 0 45 41" fill="none" xmlns="http://www.w3.org/2000/svg">
<path fill-rule="evenodd" clip-rule="evenodd" d="M15.3475 8.09994C13.2237 6.81416 11.5391 4.71024 7.28542 4.71024C3.56966 4.71024 3.32312 9.43337 1.4186 11.4398C0.734081 12.161 -0.0412972 12.8937 0.00171209 14.1855C0.11499 17.6064 4.96898 22.2354 8.59812 22.5064C8.39034 23.2096 6.5155 24.163 4.79028 26.0111C4.13727 26.7115 3.72959 27.1288 3.22135 27.9825C2.08675 29.8926 1.51431 32.1756 3.689 33.7237C5.00048 34.6579 7.60345 35.5116 8.91675 36.9639C10.2373 38.4254 10.7449 38.438 12.7228 38.438C15.4838 38.438 17.8748 36.6687 19.7351 35.1162L20.2197 34.7094C21.1792 36.5165 23.0468 40.4719 26.2168 40.4719C27.9408 40.4719 28.4205 40.3076 30.0937 39.0634C30.9545 38.4304 31.8207 37.7612 32.8414 37.3034C35.2003 36.2427 37.0963 36.3987 37.0963 31.6586C37.0963 29.0263 36.204 28.2049 35.7836 26.5741C38.7821 26.5741 44.2207 25.5807 44.2207 22.6757C44.2207 19.5466 43.6755 20.2267 43.0903 17.2543C42.696 15.2512 43.5326 14.7863 42.089 13.0766C40.548 11.252 34.7205 9.964 33.1588 10.6408C33.2303 9.86598 33.6859 9.08892 33.8652 8.39565C35.9611 0.323891 29.4267 1.54396 26.2967 0.910928C24.4728 0.54184 21.7741 -1.80959 17.8603 2.91025C16.1999 4.91176 15.9479 5.76658 15.3475 8.09666" fill="#993366"/>
<path fill-rule="evenodd" clip-rule="evenodd" d="M19.6408 33.1483C18.6152 30.3385 17.9913 26.8245 18.3965 24.0809C17.7483 23.6511 17.1299 23.1401 16.727 22.7119C14.8131 23.1619 12.8176 23.2531 10.8632 22.9797C10.6209 23.1235 10.3812 23.2716 10.1442 23.4238C6.91182 25.4877 4.15317 28.1765 3.72308 30.3719C3.10823 33.5256 7.5394 33.1718 10.3392 36.4815C11.999 38.4436 17.6545 36.004 19.6383 33.151" fill="#F280BB"/>
<mask id="mask0_30_815" style="mask-type:luminance" maskUnits="userSpaceOnUse" x="3" y="22" width="17" height="16">
<path d="M19.641 33.1473C18.6154 30.3375 17.9915 26.8235 18.3968 24.08C17.7486 23.6501 17.1301 23.1392 16.7273 22.7109C14.8134 23.161 12.8178 23.2521 10.8635 22.9787C10.6212 23.1226 10.3815 23.2706 10.1444 23.4228C6.91207 25.4868 4.15342 28.1755 3.72333 30.3709C3.10847 33.5246 7.53964 33.1708 10.3395 36.4806C11.9993 38.4427 17.6547 36.0031 19.6386 33.15" fill="white"/>
</mask>
<g mask="url(#mask0_30_815)">
<path d="M17.8345 22.8587C17.8942 22.8211 17.9615 22.7944 18.0325 22.7803C18.1036 22.7661 18.177 22.7648 18.2487 22.7763C18.3203 22.7878 18.3887 22.812 18.45 22.8474C18.5113 22.8828 18.5643 22.9288 18.606 22.9827C18.6476 23.0367 18.6771 23.0975 18.6927 23.1617C18.7084 23.226 18.7099 23.2924 18.6971 23.3571C18.6844 23.4219 18.6577 23.4837 18.6185 23.5392C18.5793 23.5946 18.5284 23.6425 18.4688 23.6801C17.7752 24.1182 15.9888 25.6104 14.5313 27.0753C13.5463 28.0654 12.7297 29.0193 12.5601 29.5631L12.5286 29.6682C12.5243 29.6923 12.518 29.7161 12.5099 29.7394C12.4868 29.7969 12.4608 29.8528 12.4366 29.9097C12.4111 29.9736 12.3716 30.0322 12.3204 30.0819C12.2692 30.1316 12.2074 30.1714 12.1387 30.1989C12.07 30.2264 11.9958 30.241 11.9207 30.2418C11.8456 30.2426 11.7711 30.2297 11.7016 30.2037C11.6322 30.1778 11.5693 30.1394 11.5168 30.0908C11.4643 30.0423 11.4232 29.9846 11.396 29.9213C11.3688 29.858 11.3561 29.7903 11.3587 29.7225C11.3613 29.6546 11.3791 29.5879 11.411 29.5264L11.448 29.4497C11.4552 29.4174 11.4679 29.3676 11.491 29.2937C11.7133 28.5818 12.6237 27.4937 13.7062 26.4056C15.2104 24.8931 17.0888 23.3324 17.8357 22.8598" fill="#EFFDFF"/>
</g>
<path fill-rule="evenodd" clip-rule="evenodd" d="M24.701 24.4414C23.6743 24.8351 21.2185 25.4419 19.7041 24.8001C19.2195 28.9619 21.6159 36.842 25.1136 38.7997C28.1266 40.4858 29.4066 36.6323 33.8438 35.5108C36.4644 34.8487 36.0815 29.2417 33.8693 26.4681L31.5601 26.2518C29.1152 25.9293 26.6371 25.3099 24.7022 24.4414" fill="#00E0FF"/>
<mask id="mask1_30_815" style="mask-type:luminance" maskUnits="userSpaceOnUse" x="19" y="24" width="17" height="16">
<path d="M24.701 24.4414C23.6743 24.8351 21.2185 25.4419 19.7041 24.8001C19.2195 28.9619 21.6159 36.842 25.1136 38.7997C28.1266 40.4858 29.4066 36.6323 33.8438 35.5108C36.4644 34.8487 36.0815 29.2417 33.8693 26.4681L31.5601 26.2518C29.1152 25.9293 26.6371 25.3099 24.7022 24.4414" fill="white"/>
</mask>
<g mask="url(#mask1_30_815)">
<path d="M23.8616 23.8478C23.9843 23.9212 24.0698 24.0358 24.0992 24.1662C24.1287 24.2966 24.0996 24.4322 24.0185 24.5433C23.9911 24.5803 23.9585 24.614 23.9216 24.6435C23.9537 24.753 23.9979 24.8778 24.0524 25.0186C24.5104 26.2047 25.5941 28.1723 26.2501 28.911C26.8559 29.596 27.3514 30.0982 27.833 30.5883C28.2098 30.9716 28.5787 31.3457 28.9839 31.7887C29.0759 31.8915 29.1193 32.0229 29.1047 32.1544C29.0901 32.286 29.0187 32.407 28.9061 32.4913C28.7934 32.5756 28.6485 32.6163 28.5028 32.6046C28.3572 32.5929 28.2225 32.5297 28.128 32.4288C27.7355 32 27.3726 31.631 27.0031 31.2553C26.5039 30.7466 25.9921 30.2258 25.3845 29.5413C24.6648 28.7303 23.4921 26.6143 23.0044 25.3504C22.8999 25.0956 22.8216 24.8325 22.7706 24.5646C22.6943 24.0772 22.8584 23.7717 23.3261 23.7175C23.5163 23.7 23.707 23.7466 23.8616 23.8483" fill="#EFFDFF"/>
</g>
<path fill-rule="evenodd" clip-rule="evenodd" d="M32.283 12.0449C30.9443 14.6093 28.9023 17.32 26.7179 19.0587C27.6326 20.6522 27.6126 22.4445 26.1194 23.6509C30.4458 25.303 38.4824 26.1245 41.7069 23.9691C44.5358 22.0782 41.0806 19.482 41.5627 15.4214C41.8547 12.9616 35.8873 11.2125 32.283 12.0449Z" fill="#F280BB"/>
<mask id="mask2_30_815" style="mask-type:luminance" maskUnits="userSpaceOnUse" x="26" y="11" width="17" height="15">
<path d="M32.2833 12.0458C30.9445 14.6103 28.9025 17.321 26.7181 19.0596C27.6328 20.6532 27.6128 22.4455 26.1196 23.6519C30.446 25.304 38.4827 26.1254 41.7072 23.97C44.5361 22.0791 41.0808 19.4829 41.563 15.4224C41.855 12.9625 35.8876 11.2135 32.2833 12.0458Z" fill="white"/>
</mask>
<g mask="url(#mask2_30_815)">
<path d="M27.1017 21.4096C26.9819 21.4868 26.8332 21.5177 26.6882 21.4957C26.5431 21.4736 26.4137 21.4004 26.3284 21.2922C26.2431 21.1839 26.2089 21.0494 26.2333 20.9183C26.2576 20.7872 26.3386 20.6703 26.4584 20.5932C26.8127 20.3659 27.5487 20.2005 28.4925 19.988C30.1148 19.6233 32.4221 19.1042 33.9444 18.0648C34.1207 17.9438 34.8961 17.503 35.5442 17.2894C36.0761 17.1136 36.5855 17.0808 36.9084 17.3738C36.9598 17.4205 37.0005 17.4759 37.0282 17.5369C37.0559 17.5979 37.07 17.6632 37.0698 17.7291C37.0696 17.795 37.055 17.8602 37.0269 17.921C36.9988 17.9818 36.9577 18.037 36.906 18.0835C36.8543 18.1299 36.793 18.1667 36.7255 18.1917C36.6581 18.2168 36.5859 18.2295 36.513 18.2293C36.4401 18.2291 36.3679 18.216 36.3006 18.1906C36.2334 18.1651 36.1723 18.128 36.1209 18.0813C36.07 18.0347 36.0737 18.1815 35.921 18.2319C35.4596 18.3978 35.0204 18.6106 34.612 18.866C32.9158 20.0275 30.474 20.5767 28.7585 20.9622C27.928 21.149 27.2834 21.2941 27.1029 21.4096" fill="#EFFDFF"/>
</g>
<path fill-rule="evenodd" clip-rule="evenodd" d="M16.7488 9.36512C18.7387 11.1613 20.6323 13.4109 21.6458 15.5241C23.3256 15.8379 24.8872 16.7956 25.9503 17.9971C29.5244 15.0488 33.6799 8.18502 32.621 4.53904C31.7215 1.44122 27.8652 3.43889 23.7853 1.48722C21.2732 0.285761 17.4157 4.94591 16.9541 7.55308C16.8474 8.15304 16.7788 8.75805 16.7488 9.36512Z" fill="#F58AC2"/>
<mask id="mask3_30_815" style="mask-type:luminance" maskUnits="userSpaceOnUse" x="16" y="1" width="17" height="17">
<path d="M16.749 9.36414C18.739 11.1603 20.6326 13.4099 21.646 15.5231C23.3258 15.8369 24.8875 16.7947 25.9506 17.9961C29.5246 15.0478 33.6801 8.18405 32.6213 4.53806C31.7217 1.44024 27.8654 3.43792 23.7856 1.48624C21.2735 0.284784 17.416 4.94494 16.9544 7.55211C16.8476 8.15207 16.779 8.75708 16.749 9.36414Z" fill="white"/>
</mask>
<g mask="url(#mask3_30_815)">
<path d="M24.3254 17.1287C24.2591 17.2461 24.1443 17.3351 24.0059 17.3766C23.8676 17.4181 23.7167 17.4087 23.5859 17.3504C23.4551 17.2921 23.355 17.1897 23.3071 17.0652C23.2593 16.9407 23.2675 16.8041 23.3301 16.6851C24.0498 15.3736 23.9722 14.5095 23.8856 13.544C23.7681 12.2298 23.636 10.7545 25.0711 7.97868C25.0971 7.92775 25.1923 7.69666 25.2728 7.48966C25.311 7.39164 25.4055 7.5258 25.3794 7.4349C25.3463 7.30747 25.3697 7.1734 25.4446 7.06136C25.5194 6.94932 25.6398 6.8682 25.78 6.83536C25.9201 6.80252 26.069 6.82057 26.1946 6.88564C26.3202 6.95071 26.4127 7.05763 26.4522 7.18355C26.4874 7.30621 26.4183 7.56687 26.3196 7.81987C26.2311 8.04877 26.116 8.32257 26.0773 8.40362C24.7694 10.933 24.8894 12.2752 24.996 13.4657C25.0953 14.5746 25.1844 15.5674 24.3296 17.1292" fill="#EFFDFF"/>
</g>
<path fill-rule="evenodd" clip-rule="evenodd" d="M15.974 21.585C14.8909 19.6136 14.9321 17.9653 17.2746 16.3931C18.0834 15.8372 19.0514 15.5024 20.0641 15.4282C17.887 11.5462 11.9408 6.12596 7.81069 6.00385C4.33966 5.90144 5.1102 9.97237 2.0529 12.7865C0.0569079 14.6227 3.90533 19.296 6.53132 20.4372C9.58498 21.7646 12.8234 22.2443 15.974 21.5872" fill="#00E0FF"/>
<mask id="mask4_30_815" style="mask-type:luminance" maskUnits="userSpaceOnUse" x="1" y="6" width="20" height="16">
<path d="M15.974 21.585C14.8909 19.6136 14.9321 17.9653 17.2746 16.3931C18.0834 15.8372 19.0514 15.5024 20.0641 15.4282C17.887 11.5462 11.9408 6.12596 7.81069 6.00385C4.33966 5.90144 5.1102 9.97237 2.0529 12.7865C0.0569079 14.6227 3.90533 19.296 6.53132 20.4372C9.58498 21.7646 12.8234 22.2443 15.974 21.5872" fill="white"/>
</mask>
<g mask="url(#mask4_30_815)">
<path d="M16.3722 17.5162C16.4444 17.5255 16.5138 17.5475 16.5765 17.581C16.6393 17.6146 16.6941 17.6589 16.7379 17.7116C16.7816 17.7643 16.8135 17.8242 16.8316 17.8881C16.8497 17.9519 16.8538 18.0183 16.8435 18.0835C16.8333 18.1487 16.8089 18.2115 16.7718 18.2682C16.7347 18.3249 16.6856 18.3745 16.6273 18.414C16.5691 18.4536 16.5027 18.4824 16.4322 18.4988C16.3616 18.5152 16.2881 18.5188 16.216 18.5095C12.118 17.9795 10.4267 16.0738 8.28044 13.655C7.99573 13.3335 7.70072 13.0017 7.34635 12.6145C7.29714 12.5641 7.25965 12.5052 7.23609 12.4414C7.21254 12.3776 7.2034 12.3102 7.20922 12.2431C7.21504 12.1761 7.23571 12.1108 7.26998 12.0511C7.30426 11.9914 7.35145 11.9385 7.40876 11.8956C7.46607 11.8527 7.53233 11.8207 7.6036 11.8014C7.67487 11.7821 7.74971 11.7759 7.82366 11.7833C7.89762 11.7906 7.96919 11.8113 8.03413 11.8441C8.09907 11.877 8.15605 11.9213 8.20169 11.9744C8.50457 12.3029 8.82865 12.6698 9.14486 13.0263C11.1384 15.2715 12.7086 17.042 16.3728 17.5167" fill="#EFFDFF"/>
</g>
<path fill-rule="evenodd" clip-rule="evenodd" d="M17.4918 21.9515C16.5044 20.3558 15.889 18.8898 18.1467 17.3735C23.4943 13.7834 31.6249 23.9306 20.998 24.1923C20.0385 24.2159 17.934 22.6667 17.4918 21.9515Z" fill="#FBD4E9"/>
<path fill-rule="evenodd" clip-rule="evenodd" d="M19.6048 21.0877C19.1529 20.3572 18.8706 19.6858 19.9047 18.992C22.3526 17.3491 26.0756 21.994 21.2101 22.1133C20.7709 22.1243 19.8072 21.4146 19.6048 21.0871" fill="#FF48B0"/>
</svg>
