<svg width="71" height="66" viewBox="0 0 71 66" fill="none" xmlns="http://www.w3.org/2000/svg">
<path fill-rule="evenodd" clip-rule="evenodd" d="M24.3321 13.1732C20.965 11.0821 18.2942 7.66043 11.5504 7.66043C5.65938 7.66043 5.2685 15.3418 2.24905 18.605C1.16382 19.7779 -0.0654729 20.9695 0.00271436 23.0704C0.182306 28.634 7.87787 36.1622 13.6315 36.603C13.3021 37.7465 10.3297 39.2971 7.59456 42.3028C6.55926 43.4419 5.91292 44.1205 5.10716 45.509C3.30836 48.6154 2.40079 52.3283 5.84857 54.846C7.92781 56.3654 12.0546 57.7538 14.1367 60.1157C16.2303 62.4927 17.0351 62.5131 20.1708 62.5131C24.5482 62.5131 28.3389 59.6356 31.2882 57.1108L32.0565 56.4491C33.5778 59.388 36.5386 65.8208 41.5643 65.8208C44.2976 65.8208 45.0582 65.5536 47.7108 63.5302C49.0755 62.5007 50.4488 61.4124 52.0671 60.6678C55.8068 58.9427 58.8128 59.1966 58.8128 51.4876C58.8128 47.2065 57.3982 45.8706 56.7317 43.2184C61.4856 43.2184 70.1079 41.6028 70.1079 36.8782C70.1079 31.7894 69.2436 32.8955 68.3158 28.0613C67.6906 24.8035 69.0169 24.0474 66.7283 21.267C64.2851 18.2995 55.0462 16.2048 52.5703 17.3056C52.6837 16.0454 53.4059 14.7816 53.6901 13.6541C57.0131 0.526756 46.6534 2.511 41.6911 1.48148C38.7994 0.881213 34.5209 -2.94301 28.3158 4.73304C25.6834 7.98817 25.2839 9.37839 24.3321 13.1679" fill="#993366"/>
<path fill-rule="evenodd" clip-rule="evenodd" d="M31.1385 53.909C29.5125 49.3394 28.5233 43.6244 29.1658 39.1625C28.1382 38.4634 27.1577 37.6325 26.519 36.936C23.4847 37.6679 20.3209 37.8161 17.2225 37.3715C16.8383 37.6055 16.4583 37.8462 16.0825 38.0938C10.9579 41.4505 6.5843 45.8233 5.90243 49.3937C4.92764 54.5226 11.9528 53.9473 16.3917 59.3301C19.0232 62.5211 27.9893 58.5535 31.1346 53.9135" fill="#A6A5EE"/>
<mask id="mask0_195_322" style="mask-type:luminance" maskUnits="userSpaceOnUse" x="5" y="36" width="27" height="25">
<path d="M31.1387 53.9078C29.5128 49.3381 28.5236 43.6232 29.1661 39.1613C28.1385 38.4622 27.1579 37.6313 26.5192 36.9348C23.4849 37.6667 20.3211 37.8149 17.2227 37.3703C16.8386 37.6042 16.4586 37.845 16.0827 38.0926C10.9581 41.4492 6.58454 45.8221 5.90267 49.3925C4.92788 54.5214 11.9531 53.9461 16.392 59.3289C19.0234 62.5199 27.9896 58.5523 31.1349 53.9123" fill="white"/>
</mask>
<g mask="url(#mask0_195_322)">
<path d="M28.2751 37.1747C28.3697 37.1135 28.4764 37.0701 28.589 37.0471C28.7017 37.0241 28.8181 37.0219 28.9317 37.0407C29.0453 37.0594 29.1537 37.0987 29.2509 37.1563C29.3481 37.2139 29.4321 37.2887 29.4982 37.3764C29.5642 37.4641 29.6109 37.5631 29.6357 37.6675C29.6605 37.772 29.6629 37.88 29.6427 37.9853C29.6225 38.0906 29.5801 38.1912 29.518 38.2813C29.4559 38.3715 29.3752 38.4494 29.2806 38.5106C28.181 39.2231 25.3488 41.6499 23.0381 44.0323C21.4766 45.6425 20.182 47.1939 19.9131 48.0783L19.8631 48.2493C19.8562 48.2885 19.8462 48.3272 19.8333 48.365C19.7968 48.4586 19.7556 48.5494 19.7171 48.642C19.6768 48.7459 19.6142 48.8412 19.533 48.922C19.4518 49.0029 19.3538 49.0676 19.2449 49.1123C19.136 49.157 19.0184 49.1807 18.8993 49.1821C18.7802 49.1835 18.6621 49.1624 18.552 49.1202C18.4419 49.078 18.3422 49.0155 18.2589 48.9366C18.1756 48.8576 18.1105 48.7638 18.0674 48.6608C18.0243 48.5578 18.0042 48.4478 18.0083 48.3374C18.0124 48.2271 18.0406 48.1186 18.0912 48.0186L18.1498 47.8939C18.1613 47.8414 18.1815 47.7603 18.218 47.6401C18.5704 46.4823 20.0139 44.7127 21.7301 42.9431C24.1147 40.4833 27.0929 37.9451 28.277 37.1765" fill="#F9FAFF"/>
</g>
<path fill-rule="evenodd" clip-rule="evenodd" d="M39.1615 39.75C37.5337 40.3903 33.6403 41.3771 31.2393 40.3333C30.471 47.1019 34.2703 59.9175 39.8155 63.1014C44.5925 65.8436 46.6218 59.5765 53.6566 57.7525C57.8112 56.6758 57.2043 47.557 53.6969 43.0461L50.0359 42.6943C46.1598 42.1697 42.2309 41.1625 39.1634 39.75" fill="#A6A5EE"/>
<mask id="mask1_195_322" style="mask-type:luminance" maskUnits="userSpaceOnUse" x="31" y="39" width="26" height="25">
<path d="M39.1615 39.75C37.5337 40.3903 33.6403 41.3771 31.2393 40.3333C30.471 47.1019 34.2703 59.9175 39.8155 63.1014C44.5925 65.8436 46.6218 59.5765 53.6566 57.7525C57.8112 56.6758 57.2043 47.557 53.6969 43.0461L50.0359 42.6943C46.1598 42.1697 42.2309 41.1625 39.1634 39.75" fill="white"/>
</mask>
<g mask="url(#mask1_195_322)">
<path d="M37.8308 38.7844C38.0254 38.9039 38.161 39.0902 38.2076 39.3022C38.2542 39.5143 38.2082 39.7349 38.0796 39.9155C38.0362 39.9758 37.9845 40.0306 37.9259 40.0785C37.9768 40.2566 38.0469 40.4597 38.1333 40.6885C38.8594 42.6176 40.5775 45.8175 41.6176 47.0189C42.578 48.133 43.3636 48.9497 44.1271 49.7468C44.7245 50.3702 45.3093 50.9785 45.9518 51.699C46.0976 51.8662 46.1664 52.0799 46.1433 52.2939C46.1202 52.5078 46.007 52.7046 45.8284 52.8417C45.6497 52.9788 45.42 53.045 45.1891 53.0259C44.9581 53.0069 44.7446 52.9042 44.5948 52.7401C43.9725 52.0428 43.3972 51.4425 42.8114 50.8315C42.02 50.0042 41.2085 49.1572 40.2452 48.044C39.1043 46.725 37.245 43.2837 36.4719 41.2282C36.3061 40.8137 36.182 40.3859 36.1012 39.9502C35.9802 39.1576 36.2404 38.6607 36.9818 38.5725C37.2834 38.5441 37.5857 38.6199 37.8308 38.7853" fill="#F9FAFF"/>
</g>
<path fill-rule="evenodd" clip-rule="evenodd" d="M51.1818 19.5887C49.0594 23.7594 45.8219 28.1678 42.3588 30.9955C43.809 33.5871 43.7773 36.502 41.4099 38.464C48.269 41.1509 61.0104 42.4868 66.1225 38.9814C70.6075 35.9062 65.1295 31.6839 65.894 25.0801C66.3569 21.0796 56.8961 18.235 51.1818 19.5887Z" fill="#A6A5EE"/>
<mask id="mask2_195_322" style="mask-type:luminance" maskUnits="userSpaceOnUse" x="41" y="19" width="27" height="23">
<path d="M51.1821 19.5894C49.0596 23.7601 45.8222 28.1685 42.359 30.9962C43.8092 33.5878 43.7775 36.5027 41.4102 38.4647C48.2692 41.1517 61.0106 42.4876 66.1228 38.9822C70.6078 35.9069 65.1297 31.6846 65.8942 25.0809C66.3571 21.0803 56.8964 18.2357 51.1821 19.5894Z" fill="white"/>
</mask>
<g mask="url(#mask2_195_322)">
<path d="M42.9664 34.8177C42.7765 34.9431 42.5407 34.9935 42.3107 34.9576C42.0808 34.9218 41.8757 34.8028 41.7404 34.6267C41.6052 34.4506 41.5509 34.2319 41.5895 34.0187C41.6282 33.8055 41.7566 33.6152 41.9465 33.4898C42.5083 33.1202 43.6751 32.8513 45.1714 32.5057C47.7433 31.9126 51.4014 31.0683 53.8149 29.3779C54.0944 29.1811 55.3236 28.4642 56.3513 28.1169C57.1945 27.831 58.0022 27.7775 58.514 28.254C58.5955 28.33 58.66 28.4202 58.7039 28.5193C58.7478 28.6185 58.7703 28.7247 58.7699 28.8319C58.7695 28.939 58.7464 29.0451 58.7019 29.144C58.6573 29.2429 58.5922 29.3327 58.5102 29.4082C58.4282 29.4838 58.331 29.5436 58.2241 29.5843C58.1172 29.625 58.0027 29.6458 57.8871 29.6455C57.7715 29.6452 57.6571 29.6237 57.5505 29.5824C57.4438 29.5411 57.347 29.4807 57.2655 29.4047C57.1849 29.329 57.1906 29.5676 56.9486 29.6496C56.217 29.9195 55.5208 30.2655 54.8732 30.6809C52.1842 32.5698 48.3128 33.4631 45.593 34.0901C44.2763 34.3938 43.2545 34.6298 42.9683 34.8177" fill="#F9FAFF"/>
</g>
<path fill-rule="evenodd" clip-rule="evenodd" d="M26.5535 15.2306C29.7083 18.1517 32.7105 21.8103 34.3172 25.2471C36.9804 25.7574 39.4562 27.3151 41.1417 29.269C46.808 24.4741 53.3962 13.3113 51.7175 7.38174C50.2913 2.34364 44.1775 5.59253 37.7093 2.41845C33.7266 0.464482 27.6109 8.04345 26.879 12.2836C26.7098 13.2593 26.6011 14.2433 26.5535 15.2306Z" fill="#A6A5EE"/>
<mask id="mask3_195_322" style="mask-type:luminance" maskUnits="userSpaceOnUse" x="26" y="2" width="26" height="28">
<path d="M26.5537 15.2296C29.7086 18.1507 32.7107 21.8093 34.3175 25.2461C36.9806 25.7564 39.4565 27.3141 41.142 29.2681C46.8082 24.4731 53.3965 13.3104 51.7177 7.38076C50.2915 2.34266 44.1777 5.59156 37.7095 2.41747C33.7268 0.463505 27.6111 8.04248 26.8793 12.2826C26.71 13.2583 26.6013 14.2423 26.5537 15.2296Z" fill="white"/>
</mask>
<g mask="url(#mask3_195_322)">
<path d="M38.5655 27.8582C38.4604 28.0491 38.2784 28.194 38.059 28.2615C37.8396 28.329 37.6004 28.3137 37.3931 28.2189C37.1857 28.1241 37.027 27.9574 36.9511 27.755C36.8752 27.5525 36.8883 27.3304 36.9876 27.1369C38.1285 25.0039 38.0056 23.5985 37.8683 22.0284C37.6819 19.891 37.4726 17.4917 39.7477 12.9773C39.789 12.8944 39.9398 12.5186 40.0675 12.182C40.128 12.0226 40.2779 12.2407 40.2366 12.0929C40.1841 11.8857 40.2212 11.6676 40.3399 11.4854C40.4585 11.3032 40.6494 11.1713 40.8716 11.1179C41.0938 11.0645 41.3297 11.0938 41.5289 11.1996C41.7281 11.3055 41.8747 11.4793 41.9374 11.6841C41.9931 11.8836 41.8836 12.3075 41.7271 12.719C41.5869 13.0913 41.4044 13.5366 41.3429 13.6684C39.2695 17.782 39.4596 19.9649 39.6286 21.901C39.7861 23.7045 39.9273 25.3192 38.5722 27.8591" fill="#F9FAFF"/>
</g>
<path fill-rule="evenodd" clip-rule="evenodd" d="M25.3251 35.1052C23.608 31.899 23.6733 29.2183 27.3871 26.6614C28.6694 25.7574 30.2041 25.2129 31.8097 25.0922C28.358 18.7788 18.9309 9.96365 12.383 9.76504C6.88 9.5985 8.10161 16.2192 3.25455 20.796C0.0900798 23.7821 6.1914 31.3825 10.3547 33.2385C15.196 35.3973 20.3302 36.1774 25.3251 35.1087" fill="#A6A5EE"/>
<mask id="mask4_195_322" style="mask-type:luminance" maskUnits="userSpaceOnUse" x="2" y="9" width="30" height="27">
<path d="M25.3251 35.1057C23.608 31.8995 23.6733 29.2188 27.3871 26.6619C28.6694 25.7579 30.2041 25.2133 31.8097 25.0927C28.358 18.7793 18.9309 9.96414 12.383 9.76553C6.88 9.59899 8.10161 16.2197 3.25455 20.7965C0.0900798 23.7826 6.1914 31.383 10.3547 33.239C15.196 35.3978 20.3302 36.1779 25.3251 35.1092" fill="white"/>
</mask>
<g mask="url(#mask4_195_322)">
<path d="M25.9563 28.4877C26.0707 28.5028 26.1808 28.5386 26.2803 28.5931C26.3797 28.6477 26.4666 28.7198 26.536 28.8055C26.6054 28.8912 26.6559 28.9887 26.6846 29.0925C26.7134 29.1963 26.7198 29.3043 26.7035 29.4104C26.6873 29.5164 26.6486 29.6185 26.5898 29.7107C26.531 29.803 26.4532 29.8835 26.3608 29.9479C26.2684 30.0122 26.1632 30.0591 26.0513 30.0857C25.9394 30.1124 25.823 30.1183 25.7086 30.1032C19.2116 29.2411 16.5302 26.1419 13.1275 22.2081C12.6761 21.6853 12.2084 21.1456 11.6466 20.516C11.5686 20.4339 11.5092 20.3382 11.4718 20.2344C11.4345 20.1307 11.42 20.021 11.4292 19.912C11.4384 19.8029 11.4712 19.6967 11.5255 19.5996C11.5799 19.5025 11.6547 19.4165 11.7456 19.3468C11.8364 19.277 11.9415 19.2249 12.0545 19.1935C12.1675 19.1621 12.2861 19.1521 12.4034 19.1641C12.5206 19.176 12.6341 19.2097 12.737 19.2631C12.84 19.3165 12.9303 19.3885 13.0027 19.4749C13.4829 20.0092 13.9967 20.6059 14.498 21.1857C17.6586 24.8371 20.1479 27.7164 25.9573 28.4886" fill="#F9FAFF"/>
</g>
<path fill-rule="evenodd" clip-rule="evenodd" d="M27.7318 35.7008C26.1664 33.1056 25.1906 30.7215 28.77 28.2554C37.2483 22.4166 50.1385 38.9194 33.2905 39.3451C31.7693 39.3834 28.4329 36.8639 27.7318 35.7008Z" fill="#FC329F"/>
<path fill-rule="evenodd" clip-rule="evenodd" d="M31.0816 34.2964C30.3651 33.1083 29.9176 32.0164 31.557 30.8881C35.4379 28.2163 41.3404 35.7703 33.6266 35.9645C32.9303 35.9823 31.4023 34.8281 31.0816 34.2955" fill="white"/>
</svg>
