<svg width="79" height="79" viewBox="0 0 79 79" fill="none" xmlns="http://www.w3.org/2000/svg">
<path fill-rule="evenodd" clip-rule="evenodd" d="M33.5409 14.4726H32.8944C32.3032 12.2605 22.6589 4.13266 15.7657 4.13266C14.3818 4.13266 13.1796 5.12905 13.1796 6.39491C13.1796 8.78353 15.4774 8.7804 17.396 12.5226C19.0932 15.8324 17.678 19.8337 18.6755 21.911L6.02525 23.1644C5.14688 23.2876 3.48101 23.5592 3.48101 25.4694C3.48101 27.2836 4.70718 27.7724 5.87694 28.5693C6.66445 29.1072 6.6634 29.1907 7.31618 29.7182C9.00189 31.076 14.3473 34.7816 14.7964 36.4621C11.4051 37.2517 4.74791 42.0853 2.31751 45.32C0.437526 47.8162 -1.87799 52.6258 2.51177 52.6258C4.77506 52.6258 5.45081 50.3625 10.2698 50.3625C12.7347 50.3625 15.6623 51.7506 18.0279 52.302C16.8226 54.8149 16.2785 59.1514 15.7301 62.2847C15.2079 65.2447 13.8188 68.1419 18.0279 68.1419L30.3105 60.3755C30.7355 65.4807 32.6176 71.9416 35.6141 75.7611C36.4632 76.8431 38.0257 78.8014 39.6874 78.8014C44.991 78.8014 39.2352 73.3348 43.2385 67.1549C43.8651 66.1815 45.3336 63.8869 46.1556 63.2843L54.627 68.3905C57.2537 70.0303 56.2981 70.0731 58.763 70.0731C60.2753 70.0731 60.7798 68.049 60.4476 66.804C59.5076 63.2529 57.4699 56.2865 57.4699 52.9402C61.5506 53.8906 65.016 54.2154 69.4423 53.9219C74.8932 53.5606 78.226 51.5093 78.8057 49.6471V48.5326C78.5132 47.6877 77.5106 46.9837 75.7162 46.6527C73.479 46.2422 72.6665 46.1085 71.0539 45.1727C69.1154 44.0489 66.615 40.7234 65.5518 38.715C68.9598 36.4329 70.5995 34.1654 73.5313 31.8217C74.5078 31.0415 75.8959 30.2905 75.8959 29.0132C75.8959 25.177 71.034 26.4898 63.84 25.554C62.1511 25.3336 60.739 25.1363 59.0867 25.1363C59.2862 24.2788 61.3949 20.8353 62.4446 17.8252C63.3773 15.1264 66.7612 3.1582 61.0168 3.1582C58.3013 3.1582 59.3457 5.67634 55.7727 9.22742C53.4322 11.5544 50.8942 11.3696 48.0857 12.8558C47.2575 11.1293 46.8961 9.50106 44.9607 5.63665C44.2714 4.25904 43.956 3.57493 43.3408 2.08557C42.8019 0.778978 41.9047 -0.376167 40.218 0.115762C38.314 0.671402 37.8701 3.6564 36.6356 6.90459C36.1374 8.21536 35.6674 9.41124 35.1472 10.5883C34.7107 11.5784 33.7822 13.4344 33.5399 14.4767" fill="#101E60"/>
<path fill-rule="evenodd" clip-rule="evenodd" d="M34.9184 34.9091C33.3183 33.6778 31.759 32.7503 30.114 32.2135C28.8328 31.7961 27.4855 31.6191 26.1399 31.6912C25.0361 31.7528 23.9426 31.9363 22.8792 32.2385C22.2316 32.4161 21.8253 31.9252 21.8567 32.0975V32.1142C21.8796 32.1967 22.7215 32.6615 23.6615 33.1796C24.4132 33.5748 25.1417 34.0128 25.8433 34.4914C26.0926 34.6677 26.3312 34.8588 26.5577 35.0637C27.8183 36.221 30.1171 37.2518 32.4462 37.5923C32.846 37.6507 33.2487 37.6863 33.6525 37.6988C33.7461 37.3334 33.8623 36.9741 34.0003 36.6231C34.017 36.5792 34.0348 36.5353 34.0536 36.4915C34.2232 36.0796 34.4258 35.6822 34.6594 35.3029C34.7429 35.1671 34.8286 35.0366 34.9184 34.9091Z" fill="#ACAFFF"/>
<path fill-rule="evenodd" clip-rule="evenodd" d="M33.9584 41.8513C32.967 42.6231 32.0829 43.5237 31.3296 44.5293C30.5485 45.5973 29.9687 46.799 29.6188 48.0751C29.3229 49.1641 29.1519 50.2833 29.1091 51.411C29.0757 52.1045 28.4313 52.3312 28.6746 52.3427C28.7592 52.3427 29.4642 51.6899 30.2497 50.9557C30.8422 50.3826 31.4649 49.8415 32.115 49.3347C32.3759 49.1376 32.649 48.9572 32.9328 48.7947C34.4253 47.9592 36.1183 46.0907 37.1638 43.9903C37.1701 43.9788 37.1763 43.9663 37.1816 43.9548C36.6744 43.8292 36.186 43.6375 35.7288 43.3846C35.5596 43.2916 35.3966 43.1913 35.2421 43.0858C35.0093 42.9266 34.7887 42.7503 34.582 42.5584C34.3514 42.3458 34.1416 42.1119 33.9553 41.8597" fill="#ACAFFF"/>
<path fill-rule="evenodd" clip-rule="evenodd" d="M41.4192 43.1159C41.9351 44.6648 42.5681 46.0236 43.4141 47.1892C44.1743 48.2456 45.1177 49.1571 46.1996 49.8807C47.1573 50.5152 48.1852 51.0367 49.2629 51.4348C49.9136 51.6813 49.9282 52.3748 50.0149 52.1408C50.0452 52.0604 49.6399 51.1873 49.1856 50.2128C48.8354 49.4902 48.5217 48.7505 48.2456 47.9965C48.1308 47.6695 48.0376 47.3352 47.9668 46.9959C47.6304 45.3134 46.3834 43.1221 44.7071 41.4751C44.3408 41.1122 43.9481 40.777 43.5321 40.4724C43.3569 40.8274 43.1584 41.1704 42.9378 41.4991C42.7593 41.7648 42.5636 42.0184 42.3519 42.2584C42.2161 42.413 42.0761 42.555 41.9341 42.6877C41.7714 42.8401 41.5998 42.9828 41.4202 43.1148" fill="#ACAFFF"/>
<path fill-rule="evenodd" clip-rule="evenodd" d="M44.6433 37.165C46.4961 37.1953 48.1693 37.024 49.7026 36.5384C50.9213 36.1498 52.0616 35.5487 53.0709 34.7628C53.9935 34.0402 54.8269 33.2103 55.5535 32.2906C55.9901 31.7496 56.6449 31.9481 56.4559 31.7956C56.3901 31.7423 55.4323 31.8572 54.367 31.9857C53.4563 32.0964 52.4808 32.2133 51.5857 32.1945C51.3611 32.1893 51.1418 32.1747 50.9298 32.1496C49.2378 31.9491 46.7907 32.4463 44.7112 33.5147C44.8711 34.0081 44.9439 34.5255 44.9264 35.0438C44.9159 35.5238 44.8678 36.0022 44.7822 36.4746C44.7572 36.6209 44.729 36.7692 44.6976 36.9217C44.6809 37.0042 44.6642 37.0856 44.6464 37.1671" fill="#ACAFFF"/>
<path fill-rule="evenodd" clip-rule="evenodd" d="M40.7746 31.6158C41.2561 30.1013 41.5371 28.6663 41.5517 27.2605C41.5583 26.6612 41.515 26.0624 41.4222 25.4703C41.2897 24.6418 41.0659 23.8306 40.7548 23.0514C40.3771 22.1122 39.9072 21.2127 39.3521 20.3662C38.9771 19.7854 39.3667 19.2309 39.162 19.3583C39.0899 19.4178 38.9009 20.3557 38.691 21.3991C38.5092 22.2984 38.316 23.2592 38.0152 24.1021C37.94 24.3162 37.8565 24.5199 37.7656 24.7183C37.7395 24.7726 37.7144 24.829 37.6894 24.8865C37.0199 26.4469 36.7609 28.8553 37.1222 31.1009C37.2031 31.6123 37.3214 32.1171 37.4763 32.6111C37.5421 32.5746 37.6079 32.539 37.6737 32.5067C37.9261 32.3759 38.1855 32.2591 38.4507 32.1568C38.8221 32.0123 39.2041 31.8971 39.5934 31.8121C39.7166 31.785 39.8378 31.7599 39.9568 31.738C40.243 31.6837 40.5156 31.6429 40.7746 31.6158Z" fill="#ACAFFF"/>
<path fill-rule="evenodd" clip-rule="evenodd" d="M34.9341 31.4485C34.4923 28.7068 34.8652 25.6947 35.7592 23.7813C35.777 23.7416 35.7958 23.7008 35.8135 23.6601C35.9284 23.3825 36.0253 23.0978 36.1039 22.8078C35.3137 21.4154 34.4349 20.075 33.4729 18.7951C33.1763 18.3982 32.871 18.0048 32.557 17.6149C28.3322 12.3624 22.7393 7.95389 18.0571 6.93139L17.8649 6.8917C17.1599 6.74355 16.4444 6.65136 15.7249 6.61597L16.0277 6.89483C20.9084 11.2313 20.9178 14.8388 20.9261 18.5653C20.9335 21.848 20.9418 25.2362 25.3838 29.5204C27.2106 29.3353 29.0559 29.5341 30.8013 30.1043C32.2938 30.592 33.7006 31.3377 35.1002 32.2976C35.0361 32.0191 34.9808 31.7353 34.9341 31.4464" fill="#987FFF"/>
<mask id="mask0_30_925" style="mask-type:luminance" maskUnits="userSpaceOnUse" x="15" y="6" width="22" height="27">
<path d="M34.9341 31.4485C34.4923 28.7068 34.8652 25.6947 35.7592 23.7813C35.777 23.7416 35.7958 23.7008 35.8135 23.6601C35.9284 23.3825 36.0253 23.0978 36.1039 22.8078C35.3137 21.4154 34.4349 20.075 33.4729 18.7951C33.1763 18.3982 32.871 18.0048 32.557 17.6149C28.3322 12.3624 22.7393 7.95389 18.0571 6.93139L17.8649 6.8917C17.1599 6.74355 16.4444 6.65136 15.7249 6.61597L16.0277 6.89483C20.9084 11.2313 20.9178 14.8388 20.9261 18.5653C20.9335 21.848 20.9418 25.2362 25.3838 29.5204C27.2106 29.3353 29.0559 29.5341 30.8013 30.1043C32.2938 30.592 33.7006 31.3377 35.1002 32.2976C35.0361 32.0191 34.9808 31.7353 34.9341 31.4464" fill="white"/>
</mask>
<g mask="url(#mask0_30_925)">
<path d="M36.7775 32.8016C36.8245 32.8401 36.8633 32.8877 36.8914 32.9416C36.9195 32.9955 36.9364 33.0545 36.9411 33.115C36.9458 33.1756 36.9382 33.2365 36.9188 33.2941C36.8993 33.3517 36.8684 33.4047 36.8279 33.45C36.7874 33.4953 36.7382 33.5319 36.6831 33.5577C36.6281 33.5834 36.5684 33.5978 36.5077 33.5998C36.447 33.6019 36.3865 33.5917 36.3298 33.5697C36.2731 33.5478 36.2215 33.5146 36.178 33.4722C30.4451 28.3409 29.3996 26.6833 26.8199 22.5871C26.0668 21.3933 25.1811 19.9875 23.9842 18.1931C23.2938 17.156 22.6703 16.074 22.0572 15.0086C20.0728 11.5672 18.1928 8.30023 14.0151 6.91844C13.9059 6.8776 13.8168 6.7961 13.7664 6.69103C13.716 6.58595 13.7082 6.46545 13.7447 6.35476C13.7811 6.24407 13.859 6.15177 13.962 6.0972C14.0649 6.04263 14.185 6.03002 14.2971 6.06201C18.7986 7.54928 20.7663 10.9646 22.8364 14.5606C23.4348 15.5998 24.0427 16.6568 24.7352 17.6939C25.9154 19.4632 26.8167 20.8919 27.5813 22.1056C30.114 26.1256 31.1396 27.7539 36.7723 32.7995" fill="white"/>
</g>
<path fill-rule="evenodd" clip-rule="evenodd" d="M25.0549 36.6915C24.7234 36.4012 24.3661 36.1418 23.9875 35.9165C22.0209 36.3288 20.0892 36.8927 18.2096 37.6033C11.8992 39.9679 5.95945 43.8908 3.51861 48.0257L3.38492 48.2513C3.03632 48.8579 2.73532 49.4906 2.48462 50.1438L2.85017 49.9349C8.50265 46.6585 11.9263 47.7792 15.4638 48.9385C18.5971 49.9631 21.8255 51.0211 27.3182 48.1134C27.7141 46.3443 28.4711 44.6759 29.5418 43.2129C30.4515 41.9701 31.5701 40.8818 32.8839 39.8707C32.6322 39.8478 32.3795 39.8185 32.1278 39.7809C29.3778 39.3778 26.6153 38.1171 25.057 36.6883" fill="#987FFF"/>
<mask id="mask1_30_925" style="mask-type:luminance" maskUnits="userSpaceOnUse" x="2" y="35" width="31" height="16">
<path d="M25.0549 36.6915C24.7234 36.4012 24.3661 36.1418 23.9875 35.9165C22.0209 36.3288 20.0892 36.8927 18.2096 37.6033C11.8992 39.9679 5.95945 43.8908 3.51861 48.0257L3.38492 48.2513C3.03632 48.8579 2.73532 49.4906 2.48462 50.1438L2.85017 49.9349C8.50265 46.6585 11.9263 47.7792 15.4638 48.9385C18.5971 49.9631 21.8255 51.0211 27.3182 48.1134C27.7141 46.3443 28.4711 44.6759 29.5418 43.2129C30.4515 41.9701 31.5701 40.8818 32.8839 39.8707C32.6322 39.8478 32.3795 39.8185 32.1278 39.7809C29.3778 39.3778 26.6153 38.1171 25.057 36.6883" fill="white"/>
</mask>
<g mask="url(#mask1_30_925)">
<path d="M33.9577 38.3674C34.061 38.308 34.1837 38.2921 34.2987 38.3231C34.4138 38.3542 34.5118 38.4297 34.5713 38.533C34.6307 38.6363 34.6466 38.759 34.6156 38.8741C34.5845 38.9891 34.509 39.0872 34.4057 39.1466C27.7391 42.9932 25.8413 43.4685 21.1414 44.6414C19.7523 44.9892 18.1177 45.3986 16.0821 45.9626C14.8654 46.2999 13.6497 46.5527 12.4548 46.7981C8.56639 47.6076 4.87327 48.3752 2.25696 51.9159C2.22274 51.9658 2.17881 52.0083 2.12779 52.0408C2.07678 52.0733 2.01972 52.0953 1.96004 52.1053C1.90036 52.1153 1.83928 52.1131 1.78044 52.099C1.72161 52.0848 1.66623 52.059 1.61762 52.0229C1.56901 51.9869 1.52816 51.9414 1.49752 51.8892C1.46688 51.837 1.44707 51.7792 1.43929 51.7192C1.4315 51.6592 1.4359 51.5982 1.45221 51.54C1.46852 51.4817 1.49641 51.4273 1.53421 51.3801C4.35419 47.5668 8.21024 46.7637 12.271 45.9198C13.4533 45.6733 14.6554 45.4226 15.843 45.0936C17.9318 44.5139 19.5507 44.1097 20.9231 43.7661C25.5343 42.6172 27.3986 42.1462 33.9535 38.3664" fill="white"/>
</g>
<path fill-rule="evenodd" clip-rule="evenodd" d="M43.5748 24.8825C43.713 25.6755 43.7776 26.4797 43.768 27.2847C43.7523 28.7824 43.4902 30.2749 43.0369 31.8123L43.1351 31.8499C43.3029 31.7538 43.4738 31.6605 43.6479 31.57C46.1148 30.2905 49.0915 29.6994 51.1866 29.949C51.5298 29.9839 51.8752 29.9908 52.2196 29.9699C53.6261 28.4117 54.9031 26.7413 56.038 24.9754C59.6935 19.3355 62.1208 12.6615 61.6393 7.89055L61.6111 7.65764C61.5306 6.94346 61.3944 6.23666 61.2038 5.5437L61.0346 5.91657C58.4465 11.9127 55.0228 13.0521 51.4874 14.2292C50.1202 14.6846 48.7343 15.1452 47.3828 15.9901C45.695 17.045 44.0604 18.6984 42.5857 21.6844C43.0445 22.7061 43.3766 23.7801 43.5748 24.8825Z" fill="#987FFF"/>
<mask id="mask2_30_925" style="mask-type:luminance" maskUnits="userSpaceOnUse" x="42" y="5" width="20" height="27">
<path d="M43.5748 24.8825C43.713 25.6755 43.7776 26.4797 43.768 27.2847C43.7523 28.7824 43.4902 30.2749 43.0369 31.8123L43.1351 31.8499C43.3029 31.7538 43.4738 31.6605 43.6479 31.57C46.1148 30.2905 49.0915 29.6994 51.1866 29.949C51.5298 29.9839 51.8752 29.9908 52.2196 29.9699C53.6261 28.4117 54.9031 26.7413 56.038 24.9754C59.6935 19.3355 62.1208 12.6615 61.6393 7.89055L61.6111 7.65764C61.5306 6.94346 61.3944 6.23666 61.2038 5.5437L61.0346 5.91657C58.4465 11.9127 55.0228 13.0521 51.4874 14.2292C50.1202 14.6846 48.7343 15.1452 47.3828 15.9901C45.695 17.045 44.0604 18.6984 42.5857 21.6844C43.0445 22.7061 43.3766 23.7801 43.5748 24.8825Z" fill="white"/>
</mask>
<g mask="url(#mask2_30_925)">
<path d="M42.9481 33.7447C42.8983 33.8507 42.8091 33.9331 42.6995 33.9745C42.5899 34.0158 42.4684 34.0127 42.361 33.9659C42.2536 33.9192 42.1686 33.8324 42.1242 33.724C42.0798 33.6156 42.0794 33.4941 42.123 33.3854C45.2093 26.3354 46.4595 24.821 49.5385 21.0955C50.442 20.003 51.5052 18.7184 52.8285 17.0327C53.5951 16.0561 54.4307 15.1245 55.2526 14.2127C57.9045 11.2559 60.4226 8.44741 60.4309 4.04824C60.428 3.98738 60.4375 3.92654 60.4587 3.86944C60.48 3.81233 60.5126 3.76014 60.5547 3.71602C60.5967 3.6719 60.6473 3.63678 60.7033 3.61279C60.7593 3.58879 60.8196 3.57642 60.8806 3.57642C60.9415 3.57642 61.0018 3.58879 61.0578 3.61279C61.1138 3.63678 61.1644 3.6719 61.2064 3.71602C61.2485 3.76014 61.2811 3.81233 61.3024 3.86944C61.3237 3.92654 61.3331 3.98738 61.3302 4.04824C61.3208 8.79207 58.6909 11.7248 55.9232 14.8122C55.1231 15.7041 54.3106 16.6097 53.5377 17.5956C52.2165 19.2782 51.1438 20.5743 50.2331 21.6752C47.2084 25.3317 45.977 26.8148 42.9481 33.7447Z" fill="white"/>
</g>
<path fill-rule="evenodd" clip-rule="evenodd" d="M54.9592 36.0901C53.6177 37.2414 52.058 38.1106 50.3731 38.6458C48.9047 39.1127 47.3578 39.3299 45.6982 39.3769C45.8897 39.5447 46.0774 39.7188 46.2612 39.8991C48.2456 41.8502 49.7318 44.4947 50.1454 46.5658C50.2541 47.0406 50.4069 47.5043 50.6019 47.9507C52.3887 48.764 54.2342 49.4417 56.1227 49.9779C62.6076 51.8381 69.7192 52.2224 74.1351 50.3592L74.344 50.2693C74.9962 49.9871 75.6249 49.6532 76.2239 49.2709L75.8145 49.2176C69.3213 48.4865 67.2366 45.5443 65.085 42.5071C63.1696 39.8031 61.1903 37.0102 54.954 36.0932" fill="#987FFF"/>
<mask id="mask3_30_925" style="mask-type:luminance" maskUnits="userSpaceOnUse" x="45" y="36" width="32" height="16">
<path d="M54.9592 36.0901C53.6177 37.2414 52.058 38.1106 50.3731 38.6458C48.9047 39.1127 47.3578 39.3299 45.6982 39.3769C45.8897 39.5447 46.0774 39.7188 46.2612 39.8991C48.2456 41.8502 49.7318 44.4947 50.1454 46.5658C50.2541 47.0406 50.4069 47.5043 50.6019 47.9507C52.3887 48.764 54.2342 49.4417 56.1227 49.9779C62.6076 51.8381 69.7192 52.2224 74.1351 50.3592L74.344 50.2693C74.9962 49.9871 75.6249 49.6532 76.2239 49.2709L75.8145 49.2176C69.3213 48.4865 67.2366 45.5443 65.085 42.5071C63.1696 39.8031 61.1903 37.0102 54.954 36.0932" fill="white"/>
</mask>
<g mask="url(#mask3_30_925)">
<path d="M43.9365 39.9763C43.8215 39.9586 43.7177 39.8972 43.6469 39.8049C43.576 39.7125 43.5436 39.5963 43.5565 39.4806C43.5693 39.365 43.6263 39.2587 43.7156 39.1841C43.8049 39.1094 43.9196 39.0722 44.0357 39.0802C51.68 39.9335 53.4942 40.6792 57.9727 42.5184C59.272 43.0521 60.801 43.6809 62.8293 44.4527C63.9928 44.8966 65.1271 45.4178 66.2478 45.9306C69.8584 47.584 73.2883 49.1548 77.4932 47.8555C77.5499 47.8375 77.6095 47.831 77.6688 47.8362C77.728 47.8415 77.7856 47.8584 77.8382 47.886C77.8909 47.9136 77.9375 47.9514 77.9755 47.9971C78.0135 48.0429 78.042 48.0957 78.0595 48.1525C78.0769 48.2093 78.0829 48.2691 78.0772 48.3282C78.0714 48.3874 78.054 48.4449 78.0259 48.4973C77.9978 48.5497 77.9596 48.596 77.9136 48.6335C77.8675 48.6711 77.8144 48.6992 77.7574 48.7161C73.2267 50.1157 69.6453 48.4759 65.8738 46.7474C64.7845 46.2481 63.6805 45.7416 62.5087 45.2966C60.5347 44.5436 58.9649 43.8992 57.6312 43.3509C53.2383 41.5471 51.4586 40.816 43.9365 39.9763Z" fill="white"/>
</g>
<path fill-rule="evenodd" clip-rule="evenodd" d="M45.5281 52.0891C43.9928 51.1671 42.6618 49.9413 41.6167 48.4869C40.7164 47.2336 40.0291 45.834 39.4725 44.2705C39.368 44.5024 39.2636 44.7332 39.1529 44.9609C37.9142 47.4539 35.8577 49.6901 34.0174 50.7262C33.6198 50.9637 33.245 51.2375 32.8977 51.544C32.6775 53.5202 32.6098 55.5106 32.6951 57.4972C32.9615 64.2297 34.8247 71.0968 37.9768 74.7106L38.1398 74.8892C38.6111 75.4185 39.123 75.9102 39.6709 76.3597L39.5926 75.9503C38.2536 69.5573 40.3916 66.6548 42.6005 63.6625C44.562 61.0034 46.5872 58.2565 45.525 52.0912" fill="#987FFF"/>
<mask id="mask4_30_925" style="mask-type:luminance" maskUnits="userSpaceOnUse" x="32" y="44" width="14" height="33">
<path d="M45.5281 52.0891C43.9928 51.1671 42.6618 49.9413 41.6167 48.4869C40.7164 47.2336 40.0291 45.834 39.4725 44.2705C39.368 44.5024 39.2636 44.7332 39.1529 44.9609C37.9142 47.4539 35.8577 49.6901 34.0174 50.7262C33.6198 50.9637 33.245 51.2375 32.8977 51.544C32.6775 53.5202 32.6098 55.5106 32.6951 57.4972C32.9615 64.2297 34.8247 71.0968 37.9768 74.7106L38.1398 74.8892C38.6111 75.4185 39.123 75.9102 39.6709 76.3597L39.5926 75.9503C38.2536 69.5573 40.3916 66.6548 42.6005 63.6625C44.562 61.0034 46.5872 58.2565 45.525 52.0912" fill="white"/>
</mask>
<g mask="url(#mask4_30_925)">
<path d="M38.363 42.7838C38.3386 42.667 38.3617 42.5452 38.4271 42.4453C38.4925 42.3454 38.5949 42.2756 38.7118 42.2512C38.8287 42.2268 38.9505 42.2499 39.0504 42.3153C39.1503 42.3807 39.2201 42.4831 39.2445 42.6C40.8195 50.1335 40.6775 52.0877 40.3286 56.914C40.2242 58.3428 40.102 60.0254 40.0038 62.1299C39.9443 63.401 39.8054 64.6293 39.6696 65.8387C39.2247 69.7867 38.8017 73.5362 41.347 77.1186C41.4073 77.2158 41.4285 77.3323 41.4061 77.4445C41.3837 77.5566 41.3194 77.6561 41.2263 77.7226C41.1332 77.7891 41.0183 77.8176 40.9049 77.8024C40.7915 77.7873 40.6882 77.7295 40.6158 77.6408C37.87 73.7764 38.3118 69.8566 38.7756 65.7343C38.9113 64.53 39.0502 63.307 39.1066 62.0861C39.2111 59.9115 39.3291 58.254 39.4304 56.8451C39.774 52.1044 39.914 50.1837 38.3651 42.7786" fill="white"/>
</g>
<path fill-rule="evenodd" clip-rule="evenodd" d="M17.7771 35.4039C18.9145 34.9862 20.0624 34.6227 21.206 34.3125C20.4645 33.8341 19.9015 33.3307 19.7292 32.702C19.4273 31.6064 20.0686 30.7175 22.3016 30.1034L22.3695 30.0857L22.686 30L22.7069 29.9948C20.9386 28.0668 19.9537 26.285 19.4054 24.5961C16.7014 24.2901 14.2772 24.6462 11.7633 25.0139C9.95118 25.2802 8.09522 25.5539 6.03455 25.6103C7.244 26.4646 8.58923 27.4767 9.93447 28.5347C13.0458 30.9881 16.2418 33.7422 17.7677 35.4018" fill="#FF91D2"/>
<path fill-rule="evenodd" clip-rule="evenodd" d="M34.877 16.9805C35.559 17.8662 36.2013 18.7738 36.7956 19.6897C37.0389 18.7038 37.3554 17.8944 37.9653 17.4964C38.922 16.8792 39.9613 17.2238 41.2188 19.1675C41.2491 19.2135 41.2773 19.2594 41.3065 19.3054C42.6799 16.9095 44.1724 15.4076 45.7161 14.3725C45.2315 11.5713 44.1651 9.5253 43.0528 7.39361C42.281 5.91364 41.4861 4.39295 40.8271 2.56519C40.3613 4.02739 39.7754 5.687 39.1414 7.35601C37.6959 11.1651 35.9851 15.1224 34.877 16.9794" fill="#FF91D2"/>
<path fill-rule="evenodd" clip-rule="evenodd" d="M57.2255 27.1804C56.7273 27.9042 56.205 28.6144 55.6588 29.3048C55.569 29.4176 55.4802 29.5304 55.3904 29.6422C56.4056 29.5638 57.2704 29.6108 57.8396 30.0672C58.7274 30.7816 58.7284 31.8783 57.2766 33.6789C57.1461 33.8408 57.0155 33.9985 56.8829 34.151C59.8261 34.7703 61.822 35.8221 63.3364 37.0817C65.4984 35.8179 67.1612 34.2439 68.8824 32.6136C70.2402 31.3289 71.6303 30.0108 73.3265 28.7596C71.7661 28.7314 69.9696 28.6426 68.1377 28.51C63.9412 28.2081 59.4605 27.6922 57.2255 27.1804Z" fill="#FF91D2"/>
<path fill-rule="evenodd" clip-rule="evenodd" d="M54.6351 51.8459C53.9479 51.637 53.2774 51.4072 52.6162 51.167C52.376 51.0793 52.1368 50.9884 51.8997 50.8965C52.1797 51.6641 52.3071 52.3535 52.0888 52.9279C51.6835 53.9943 50.6422 54.3358 48.4813 53.5159C48.3065 53.4463 48.1345 53.3767 47.9654 53.307C48.31 56.4508 47.8693 58.7465 47.0671 60.6285C48.9471 62.3477 50.9733 63.4736 53.0747 64.6392C54.7009 65.5416 56.3678 66.4659 58.0661 67.6994C57.6065 66.1766 57.1324 64.4042 56.6906 62.5816C55.6984 58.5 54.8262 54.1092 54.6351 51.8375" fill="#FF91D2"/>
<path fill-rule="evenodd" clip-rule="evenodd" d="M30.4743 57.4166C30.4388 56.4171 30.4377 55.4207 30.4743 54.4368C30.4833 54.189 30.4941 53.9418 30.5067 53.6953C29.8424 54.2259 29.2063 54.5831 28.5734 54.5528C27.436 54.4995 26.7895 53.6128 26.9023 51.3035C26.9096 51.1427 26.919 50.9829 26.9305 50.8252V50.8179C24.5283 51.9062 22.5178 52.2884 20.7308 52.2801C19.491 54.9058 19.0826 57.4323 18.6596 60.058C18.3672 61.868 18.0674 63.724 17.4993 65.7105C18.7181 64.7851 20.1417 63.771 21.6112 62.7746C24.9012 60.5436 28.4773 58.342 30.4816 57.4166" fill="#FF91D2"/>
<path fill-rule="evenodd" clip-rule="evenodd" d="M36.1017 37.3341C35.7474 38.2279 35.557 39.1782 35.5398 40.1395C35.5418 40.1645 35.5474 40.1892 35.5565 40.2126C35.6609 40.5259 36.0046 40.9123 36.4965 41.2455C37.0475 41.6298 37.6952 41.8519 38.366 41.8868C38.6875 41.898 39.0085 41.8527 39.3144 41.7531C39.8517 41.561 40.3283 41.2293 40.6951 40.7922C41.1307 40.3003 41.5369 39.6246 41.8858 38.7243C42.0048 38.4186 42.1211 38.068 42.2346 37.6725C42.3464 37.2809 42.4435 36.8808 42.5281 36.4756C42.7652 35.3267 42.8164 34.4807 42.5438 34.087L42.5156 34.0535C42.2461 33.7204 41.4952 33.6692 40.0653 33.9825C39.5887 34.0873 39.1277 34.2537 38.694 34.4776C38.2852 34.6878 37.9045 34.9485 37.5608 35.2536L37.5106 35.3027C36.8988 35.8684 36.4192 36.562 36.1059 37.3341" fill="#FF91D2"/>
</svg>
