<svg width="648" height="407" viewBox="0 0 648 407" fill="none" xmlns="http://www.w3.org/2000/svg">
<rect x="49.8491" y="3" width="547.912" height="341.454" rx="47" fill="#FFC12B" stroke="#101E60" stroke-width="6"/>
<rect x="50" y="3" width="547.912" height="341.454" rx="47" fill="#FFC12B" stroke="#101E60" stroke-width="6"/>
<rect x="3" y="379.803" width="641.261" height="24.1968" rx="12.0984" fill="#FAFAFB" stroke="#101E60" stroke-width="6"/>
<rect x="3" y="379.803" width="641.261" height="24.1968" rx="12.0984" fill="#FAFAFB" stroke="#101E60" stroke-width="6"/>
<path d="M156.779 282.458C154.495 282.474 133.102 279.049 119.789 278.487C119.03 278.455 118.35 278.005 118.033 277.315L106.238 251.548C105.83 250.658 104.516 250.827 104.344 251.792L98.8079 282.845C91.7826 304.917 96.4941 325.136 100.024 333.289C100.25 333.811 100.342 334.381 100.27 334.945L99.544 340.658C99.3153 342.457 100.722 344.044 102.535 344.031L177.301 343.533C179.14 343.521 180.538 341.872 180.248 340.056L179.694 336.578C179.535 335.58 179.903 334.578 180.588 333.833C191.721 321.712 187.018 294.661 183.13 282.283L175.3 250.472C175.089 249.614 173.963 249.44 173.525 250.209C167.125 261.441 158.955 282.444 156.779 282.458Z" fill="#FFF6DF" stroke="#101E60" stroke-width="5" stroke-linecap="round"/>
<ellipse cx="2.63526" cy="2.72197" rx="2.63526" ry="2.72197" transform="matrix(0.999978 -0.00666362 0.00497233 0.999988 127.36 298.069)" fill="black"/>
<ellipse cx="2.63526" cy="2.72197" rx="2.63526" ry="2.72197" transform="matrix(0.999978 -0.00666362 0.00497233 0.999988 145.807 297.947)" fill="black"/>
<ellipse cx="2.63526" cy="2.72197" rx="2.63526" ry="2.72197" transform="matrix(0.999978 -0.00666362 0.00497233 0.999988 137.941 306.165)" fill="black"/>
<path d="M140.598 310.23C139.318 317.951 134.641 331.229 126.165 322.575" stroke="black" stroke-width="5" stroke-linecap="round"/>
<path d="M140.589 308.869C142.068 317.196 147.314 331.48 156.466 322.004" stroke="black" stroke-width="5" stroke-linecap="round"/>
<path d="M173.522 307.289L201.204 309.827" stroke="black" stroke-width="5" stroke-linecap="round"/>
<path d="M176.204 316.798L193.353 320.767" stroke="black" stroke-width="5" stroke-linecap="round"/>
<path d="M107.631 305.005L81.2397 297.016" stroke="black" stroke-width="5" stroke-linecap="round"/>
<path d="M101.085 313.215L81.3223 313.347" stroke="black" stroke-width="5" stroke-linecap="round"/>
<path d="M156.779 282.458C154.495 282.474 133.102 279.049 119.789 278.487C119.03 278.455 118.35 278.005 118.033 277.315L106.238 251.548C105.83 250.658 104.516 250.827 104.344 251.792L98.8079 282.845C91.7826 304.917 96.4941 325.136 100.024 333.289C100.25 333.811 100.342 334.381 100.27 334.945L99.544 340.658C99.3153 342.457 100.722 344.044 102.535 344.031L177.301 343.533C179.14 343.521 180.538 341.872 180.248 340.056L179.694 336.578C179.535 335.58 179.903 334.578 180.588 333.833C191.721 321.712 187.018 294.661 183.13 282.283L175.3 250.472C175.089 249.614 173.963 249.44 173.525 250.209C167.125 261.441 158.955 282.444 156.779 282.458Z" fill="#FFF6DF" stroke="#101E60" stroke-width="5" stroke-linecap="round"/>
<ellipse cx="2.63526" cy="2.72197" rx="2.63526" ry="2.72197" transform="matrix(0.999978 -0.00666362 0.00497233 0.999988 127.36 298.069)" fill="black"/>
<ellipse cx="2.63526" cy="2.72197" rx="2.63526" ry="2.72197" transform="matrix(0.999978 -0.00666362 0.00497233 0.999988 145.807 297.947)" fill="black"/>
<ellipse cx="2.63526" cy="2.72197" rx="2.63526" ry="2.72197" transform="matrix(0.999978 -0.00666362 0.00497233 0.999988 137.941 306.165)" fill="black"/>
<path d="M140.598 310.23C139.318 317.951 134.641 331.229 126.165 322.575" stroke="black" stroke-width="5" stroke-linecap="round"/>
<path d="M140.589 308.869C142.068 317.196 147.314 331.48 156.466 322.004" stroke="black" stroke-width="5" stroke-linecap="round"/>
<path d="M173.522 307.289L201.204 309.827" stroke="black" stroke-width="5" stroke-linecap="round"/>
<path d="M176.204 316.798L193.353 320.767" stroke="black" stroke-width="5" stroke-linecap="round"/>
<path d="M107.631 305.005L81.2397 297.016" stroke="black" stroke-width="5" stroke-linecap="round"/>
<path d="M101.085 313.215L81.3223 313.347" stroke="black" stroke-width="5" stroke-linecap="round"/>
<path d="M226.886 134.896C229.916 134.896 232.811 135.67 235.572 137.219C238.333 138.7 240.555 140.619 242.238 142.976C243.989 145.333 244.864 147.689 244.864 150.046H242.642C241.632 150.046 240.723 149.743 239.915 149.137C239.174 148.531 238.198 147.555 236.986 146.208C235.235 144.323 233.653 142.909 232.239 141.966C230.892 141.023 229.142 140.552 226.987 140.552C223.284 140.552 220.186 142.269 217.695 145.703C215.204 149.07 213.722 153.042 213.251 157.621C213.049 159.708 212.948 161.796 212.948 163.883C212.948 167.317 213.184 170.482 213.655 173.377C214.53 173.512 216.584 173.68 219.816 173.882C223.048 174.084 225.708 174.252 227.795 174.387C228.536 174.387 229.983 174.454 232.138 174.589C232.811 174.589 233.283 174.757 233.552 175.094C233.889 175.363 234.057 175.868 234.057 176.609C234.057 178.427 232.003 179.336 227.896 179.336C224.327 179.336 219.85 178.696 214.463 177.417C215.204 180.447 216.146 183.241 217.291 185.8C218.436 188.291 219.917 191.288 221.735 194.789C223.014 197.28 223.957 199.233 224.563 200.647C225.169 201.994 225.472 203.138 225.472 204.081C225.472 204.822 225.236 205.36 224.765 205.697C224.294 205.966 223.62 206.101 222.745 206.101C220.927 206.101 219.21 204.182 217.594 200.344C216.045 196.439 214.261 191.052 212.241 184.184L210.423 178.225C208.942 178.36 207.09 178.764 204.868 179.437C204.666 179.504 203.959 179.706 202.747 180.043C201.602 180.312 200.559 180.447 199.616 180.447C198.539 180.447 198 179.807 198 178.528C198 176.845 198.875 175.734 200.626 175.195C202.377 174.589 204.026 174.252 205.575 174.185C207.124 174.05 208.1 173.949 208.504 173.882C208.369 171.323 208.302 169.034 208.302 167.014C208.302 158.328 209.615 150.82 212.241 144.491C214.934 138.094 219.816 134.896 226.886 134.896ZM252.701 206C249.94 200.613 247.752 194.284 246.136 187.012C244.587 179.74 243.813 173.444 243.813 168.125C243.813 166.038 244.284 164.691 245.227 164.085C245.766 163.748 246.17 163.58 246.439 163.58C246.91 163.58 247.247 163.95 247.449 164.691C247.718 165.432 247.988 166.778 248.257 168.731L248.762 172.367C249.503 168.731 250.917 165.869 253.004 163.782C255.159 161.627 257.785 160.55 260.882 160.55C264.316 160.55 266.875 161.223 268.558 162.57C270.241 163.849 271.083 166.004 271.083 169.034C267.716 167.418 264.653 166.61 261.892 166.61C259.266 166.61 257.01 167.317 255.125 168.731C253.24 170.145 251.927 172.232 251.186 174.993C250.58 176.878 250.277 178.663 250.277 180.346C250.277 182.164 250.513 183.881 250.984 185.497C251.523 187.046 252.331 188.965 253.408 191.254C254.418 193.611 255.192 195.631 255.731 197.314C256.337 198.997 256.674 200.815 256.741 202.768C256.741 203.913 256.337 204.754 255.529 205.293C254.721 205.764 253.778 206 252.701 206ZM279.827 206.101C278.278 206.101 277.032 203.845 276.09 199.334C275.147 194.755 274.541 190.816 274.272 187.517C274.002 184.218 273.632 178.999 273.161 171.862C273.093 170.717 273.06 169.236 273.06 167.418C273.06 165.129 273.228 163.546 273.565 162.671C273.969 161.796 274.608 161.358 275.484 161.358C276.224 161.358 276.797 161.526 277.201 161.863C277.672 162.132 278.076 162.604 278.413 163.277L278.312 167.317C278.312 171.626 278.514 175.7 278.918 179.538C279.389 183.376 280.096 188.527 281.039 194.991C281.577 197.819 281.948 200.142 282.15 201.96C282.284 202.903 282.116 203.845 281.645 204.788C281.173 205.663 280.567 206.101 279.827 206.101ZM277.302 150.551C275.82 150.551 274.709 149.979 273.969 148.834C273.295 147.689 272.959 146.275 272.959 144.592C272.959 143.851 272.992 143.313 273.06 142.976C272.992 141.899 273.598 141.36 274.878 141.36C275.82 141.36 276.763 141.596 277.706 142.067C278.716 142.471 279.019 142.774 278.615 142.976C279.288 144.727 279.625 146.107 279.625 147.117C279.625 147.992 279.423 148.699 279.019 149.238C278.615 149.709 278.042 150.147 277.302 150.551ZM306.459 205.899C303.294 205.899 300.534 204.822 298.177 202.667C295.888 200.512 294.137 197.718 292.925 194.284C291.78 190.85 291.208 187.281 291.208 183.578C291.208 177.114 292.555 171.66 295.248 167.216C298.009 162.772 302.183 160.55 307.772 160.55C311.139 160.55 314.068 161.156 316.559 162.368C319.118 163.513 322.451 165.465 326.558 168.226L329.184 170.044C328.847 167.822 328.342 165.263 327.669 162.368C326.996 159.473 326.558 157.486 326.356 156.409C325.211 151.157 324.37 147.252 323.831 144.693C323.36 142.067 323.124 139.744 323.124 137.724C323.124 134.155 324.134 132.371 326.154 132.371C326.895 133.987 327.77 137.455 328.78 142.774C329.79 148.026 331.069 155.231 332.618 164.388C334.234 174.084 335.648 181.996 336.86 188.123C338.072 194.25 339.082 198.088 339.89 199.637C339.89 201.186 338.745 201.96 336.456 201.96C334.705 201.96 333.493 200.95 332.82 198.93C332.214 196.91 331.844 193.375 331.709 188.325H330.901C328.073 193.442 324.403 197.651 319.892 200.95C315.381 204.249 310.903 205.899 306.459 205.899ZM307.772 200.95C310.533 200.95 313.495 199.805 316.66 197.516C319.892 195.159 322.619 192.331 324.841 189.032C327.063 185.665 328.174 182.635 328.174 179.942V176.912C321.239 169.64 314.842 166.004 308.984 166.004C304.877 166.004 301.712 167.519 299.49 170.549C297.268 173.512 296.157 177.417 296.157 182.265L296.258 184.386C296.662 189.503 297.807 193.543 299.692 196.506C301.577 199.469 304.271 200.95 307.772 200.95ZM360.85 255.288C355.194 255.288 350.447 253.672 346.609 250.44C342.838 247.275 340.583 241.922 339.842 234.381C339.775 233.236 339.943 232.361 340.347 231.755C340.818 231.149 341.424 230.846 342.165 230.846C342.973 230.846 343.68 231.149 344.286 231.755C344.892 232.428 345.161 233.304 345.094 234.381C345.094 238.825 346.609 242.326 349.639 244.885C352.736 247.511 356.675 248.824 361.456 248.824C364.217 248.824 366.641 247.814 368.728 245.794C370.883 243.774 372.532 240.946 373.677 237.31C374.822 233.741 375.394 229.634 375.394 224.988C375.394 216.841 375.495 208.929 375.697 201.253L375.798 196.102C373.172 198.863 370.782 200.883 368.627 202.162C366.54 203.441 364.015 204.081 361.052 204.081C355.867 204.081 352.029 202.701 349.538 199.94C347.114 197.112 345.902 192.803 345.902 187.012C345.902 183.713 346.777 180.279 348.528 176.71C350.346 173.074 352.804 170.044 355.901 167.62C359.066 165.196 362.634 163.984 366.607 163.984C367.954 163.984 369.199 164.119 370.344 164.388C374.653 165.331 377.549 169.337 379.03 176.407C380.511 183.477 381.252 192.634 381.252 203.879C381.252 206.976 381.185 211.084 381.05 216.201L380.949 225.796C380.949 229.634 380.343 233.809 379.131 238.32C377.919 242.899 375.798 246.871 372.768 250.238C369.738 253.605 365.765 255.288 360.85 255.288ZM359.537 197.415C364.52 197.415 368.29 196.237 370.849 193.88C373.408 191.456 374.687 187.921 374.687 183.275C374.687 182.669 374.62 181.625 374.485 180.144C374.148 177.047 373.34 174.623 372.061 172.872C370.849 171.054 368.93 170.145 366.304 170.145C363.543 170.145 361.018 171.121 358.729 173.074C356.44 175.027 354.655 177.451 353.376 180.346C352.097 183.174 351.457 185.834 351.457 188.325C351.457 190.816 352.198 192.971 353.679 194.789C355.16 196.54 357.113 197.415 359.537 197.415ZM411.168 206C406.858 206 402.886 205.158 399.25 203.475C395.614 201.792 392.718 199.401 390.564 196.304C388.409 193.207 387.332 189.638 387.332 185.598C387.332 181.087 388.173 176.878 389.857 172.973C391.54 169 393.998 165.836 397.23 163.479C400.529 161.055 404.367 159.843 408.744 159.843C413.322 159.843 416.79 161.324 419.147 164.287C421.503 167.182 422.614 170.852 422.48 175.296C422.48 179.269 420.897 182.299 417.733 184.386C414.635 186.473 410.663 187.517 405.815 187.517C405.074 187.517 403.963 187.45 402.482 187.315C400.058 187.046 398.341 186.675 397.331 186.204C396.321 185.733 395.816 184.79 395.816 183.376C395.816 182.905 395.95 182.568 396.22 182.366C396.489 182.097 397.028 181.962 397.836 181.962C398.711 181.962 400.26 182.164 402.482 182.568C404.636 182.972 406.555 183.174 408.239 183.174C414.433 183.174 417.531 180.481 417.531 175.094C417.531 171.862 416.925 169.303 415.713 167.418C414.568 165.533 412.514 164.59 409.552 164.59C406.32 164.59 403.424 165.465 400.866 167.216C398.307 168.899 396.321 171.121 394.907 173.882C393.56 176.643 392.887 179.572 392.887 182.669C392.887 187.988 394.368 192.365 397.331 195.799C400.293 199.166 404.872 200.849 411.067 200.849C411.807 200.849 413.053 200.782 414.804 200.647C415.544 200.58 416.453 200.378 417.531 200.041C418.608 199.704 419.382 199.469 419.854 199.334C422.749 198.324 424.87 197.819 426.217 197.819C427.227 197.819 428.001 198.088 428.54 198.627C426.856 201.186 424.331 203.071 420.965 204.283C417.665 205.428 414.4 206 411.168 206Z" fill="black"/>
<path d="M226.886 134.896C229.916 134.896 232.811 135.67 235.572 137.219C238.333 138.7 240.555 140.619 242.238 142.976C243.989 145.333 244.864 147.689 244.864 150.046H242.642C241.632 150.046 240.723 149.743 239.915 149.137C239.174 148.531 238.198 147.555 236.986 146.208C235.235 144.323 233.653 142.909 232.239 141.966C230.892 141.023 229.142 140.552 226.987 140.552C223.284 140.552 220.186 142.269 217.695 145.703C215.204 149.07 213.722 153.042 213.251 157.621C213.049 159.708 212.948 161.796 212.948 163.883C212.948 167.317 213.184 170.482 213.655 173.377C214.53 173.512 216.584 173.68 219.816 173.882C223.048 174.084 225.708 174.252 227.795 174.387C228.536 174.387 229.983 174.454 232.138 174.589C232.811 174.589 233.283 174.757 233.552 175.094C233.889 175.363 234.057 175.868 234.057 176.609C234.057 178.427 232.003 179.336 227.896 179.336C224.327 179.336 219.85 178.696 214.463 177.417C215.204 180.447 216.146 183.241 217.291 185.8C218.436 188.291 219.917 191.288 221.735 194.789C223.014 197.28 223.957 199.233 224.563 200.647C225.169 201.994 225.472 203.138 225.472 204.081C225.472 204.822 225.236 205.36 224.765 205.697C224.294 205.966 223.62 206.101 222.745 206.101C220.927 206.101 219.21 204.182 217.594 200.344C216.045 196.439 214.261 191.052 212.241 184.184L210.423 178.225C208.942 178.36 207.09 178.764 204.868 179.437C204.666 179.504 203.959 179.706 202.747 180.043C201.602 180.312 200.559 180.447 199.616 180.447C198.539 180.447 198 179.807 198 178.528C198 176.845 198.875 175.734 200.626 175.195C202.377 174.589 204.026 174.252 205.575 174.185C207.124 174.05 208.1 173.949 208.504 173.882C208.369 171.323 208.302 169.034 208.302 167.014C208.302 158.328 209.615 150.82 212.241 144.491C214.934 138.094 219.816 134.896 226.886 134.896ZM252.701 206C249.94 200.613 247.752 194.284 246.136 187.012C244.587 179.74 243.813 173.444 243.813 168.125C243.813 166.038 244.284 164.691 245.227 164.085C245.766 163.748 246.17 163.58 246.439 163.58C246.91 163.58 247.247 163.95 247.449 164.691C247.718 165.432 247.988 166.778 248.257 168.731L248.762 172.367C249.503 168.731 250.917 165.869 253.004 163.782C255.159 161.627 257.785 160.55 260.882 160.55C264.316 160.55 266.875 161.223 268.558 162.57C270.241 163.849 271.083 166.004 271.083 169.034C267.716 167.418 264.653 166.61 261.892 166.61C259.266 166.61 257.01 167.317 255.125 168.731C253.24 170.145 251.927 172.232 251.186 174.993C250.58 176.878 250.277 178.663 250.277 180.346C250.277 182.164 250.513 183.881 250.984 185.497C251.523 187.046 252.331 188.965 253.408 191.254C254.418 193.611 255.192 195.631 255.731 197.314C256.337 198.997 256.674 200.815 256.741 202.768C256.741 203.913 256.337 204.754 255.529 205.293C254.721 205.764 253.778 206 252.701 206ZM279.827 206.101C278.278 206.101 277.032 203.845 276.09 199.334C275.147 194.755 274.541 190.816 274.272 187.517C274.002 184.218 273.632 178.999 273.161 171.862C273.093 170.717 273.06 169.236 273.06 167.418C273.06 165.129 273.228 163.546 273.565 162.671C273.969 161.796 274.608 161.358 275.484 161.358C276.224 161.358 276.797 161.526 277.201 161.863C277.672 162.132 278.076 162.604 278.413 163.277L278.312 167.317C278.312 171.626 278.514 175.7 278.918 179.538C279.389 183.376 280.096 188.527 281.039 194.991C281.577 197.819 281.948 200.142 282.15 201.96C282.284 202.903 282.116 203.845 281.645 204.788C281.173 205.663 280.567 206.101 279.827 206.101ZM277.302 150.551C275.82 150.551 274.709 149.979 273.969 148.834C273.295 147.689 272.959 146.275 272.959 144.592C272.959 143.851 272.992 143.313 273.06 142.976C272.992 141.899 273.598 141.36 274.878 141.36C275.82 141.36 276.763 141.596 277.706 142.067C278.716 142.471 279.019 142.774 278.615 142.976C279.288 144.727 279.625 146.107 279.625 147.117C279.625 147.992 279.423 148.699 279.019 149.238C278.615 149.709 278.042 150.147 277.302 150.551ZM306.459 205.899C303.294 205.899 300.534 204.822 298.177 202.667C295.888 200.512 294.137 197.718 292.925 194.284C291.78 190.85 291.208 187.281 291.208 183.578C291.208 177.114 292.555 171.66 295.248 167.216C298.009 162.772 302.183 160.55 307.772 160.55C311.139 160.55 314.068 161.156 316.559 162.368C319.118 163.513 322.451 165.465 326.558 168.226L329.184 170.044C328.847 167.822 328.342 165.263 327.669 162.368C326.996 159.473 326.558 157.486 326.356 156.409C325.211 151.157 324.37 147.252 323.831 144.693C323.36 142.067 323.124 139.744 323.124 137.724C323.124 134.155 324.134 132.371 326.154 132.371C326.895 133.987 327.77 137.455 328.78 142.774C329.79 148.026 331.069 155.231 332.618 164.388C334.234 174.084 335.648 181.996 336.86 188.123C338.072 194.25 339.082 198.088 339.89 199.637C339.89 201.186 338.745 201.96 336.456 201.96C334.705 201.96 333.493 200.95 332.82 198.93C332.214 196.91 331.844 193.375 331.709 188.325H330.901C328.073 193.442 324.403 197.651 319.892 200.95C315.381 204.249 310.903 205.899 306.459 205.899ZM307.772 200.95C310.533 200.95 313.495 199.805 316.66 197.516C319.892 195.159 322.619 192.331 324.841 189.032C327.063 185.665 328.174 182.635 328.174 179.942V176.912C321.239 169.64 314.842 166.004 308.984 166.004C304.877 166.004 301.712 167.519 299.49 170.549C297.268 173.512 296.157 177.417 296.157 182.265L296.258 184.386C296.662 189.503 297.807 193.543 299.692 196.506C301.577 199.469 304.271 200.95 307.772 200.95ZM360.85 255.288C355.194 255.288 350.447 253.672 346.609 250.44C342.838 247.275 340.583 241.922 339.842 234.381C339.775 233.236 339.943 232.361 340.347 231.755C340.818 231.149 341.424 230.846 342.165 230.846C342.973 230.846 343.68 231.149 344.286 231.755C344.892 232.428 345.161 233.304 345.094 234.381C345.094 238.825 346.609 242.326 349.639 244.885C352.736 247.511 356.675 248.824 361.456 248.824C364.217 248.824 366.641 247.814 368.728 245.794C370.883 243.774 372.532 240.946 373.677 237.31C374.822 233.741 375.394 229.634 375.394 224.988C375.394 216.841 375.495 208.929 375.697 201.253L375.798 196.102C373.172 198.863 370.782 200.883 368.627 202.162C366.54 203.441 364.015 204.081 361.052 204.081C355.867 204.081 352.029 202.701 349.538 199.94C347.114 197.112 345.902 192.803 345.902 187.012C345.902 183.713 346.777 180.279 348.528 176.71C350.346 173.074 352.804 170.044 355.901 167.62C359.066 165.196 362.634 163.984 366.607 163.984C367.954 163.984 369.199 164.119 370.344 164.388C374.653 165.331 377.549 169.337 379.03 176.407C380.511 183.477 381.252 192.634 381.252 203.879C381.252 206.976 381.185 211.084 381.05 216.201L380.949 225.796C380.949 229.634 380.343 233.809 379.131 238.32C377.919 242.899 375.798 246.871 372.768 250.238C369.738 253.605 365.765 255.288 360.85 255.288ZM359.537 197.415C364.52 197.415 368.29 196.237 370.849 193.88C373.408 191.456 374.687 187.921 374.687 183.275C374.687 182.669 374.62 181.625 374.485 180.144C374.148 177.047 373.34 174.623 372.061 172.872C370.849 171.054 368.93 170.145 366.304 170.145C363.543 170.145 361.018 171.121 358.729 173.074C356.44 175.027 354.655 177.451 353.376 180.346C352.097 183.174 351.457 185.834 351.457 188.325C351.457 190.816 352.198 192.971 353.679 194.789C355.16 196.54 357.113 197.415 359.537 197.415ZM411.168 206C406.858 206 402.886 205.158 399.25 203.475C395.614 201.792 392.718 199.401 390.564 196.304C388.409 193.207 387.332 189.638 387.332 185.598C387.332 181.087 388.173 176.878 389.857 172.973C391.54 169 393.998 165.836 397.23 163.479C400.529 161.055 404.367 159.843 408.744 159.843C413.322 159.843 416.79 161.324 419.147 164.287C421.503 167.182 422.614 170.852 422.48 175.296C422.48 179.269 420.897 182.299 417.733 184.386C414.635 186.473 410.663 187.517 405.815 187.517C405.074 187.517 403.963 187.45 402.482 187.315C400.058 187.046 398.341 186.675 397.331 186.204C396.321 185.733 395.816 184.79 395.816 183.376C395.816 182.905 395.95 182.568 396.22 182.366C396.489 182.097 397.028 181.962 397.836 181.962C398.711 181.962 400.26 182.164 402.482 182.568C404.636 182.972 406.555 183.174 408.239 183.174C414.433 183.174 417.531 180.481 417.531 175.094C417.531 171.862 416.925 169.303 415.713 167.418C414.568 165.533 412.514 164.59 409.552 164.59C406.32 164.59 403.424 165.465 400.866 167.216C398.307 168.899 396.321 171.121 394.907 173.882C393.56 176.643 392.887 179.572 392.887 182.669C392.887 187.988 394.368 192.365 397.331 195.799C400.293 199.166 404.872 200.849 411.067 200.849C411.807 200.849 413.053 200.782 414.804 200.647C415.544 200.58 416.453 200.378 417.531 200.041C418.608 199.704 419.382 199.469 419.854 199.334C422.749 198.324 424.87 197.819 426.217 197.819C427.227 197.819 428.001 198.088 428.54 198.627C426.856 201.186 424.331 203.071 420.965 204.283C417.665 205.428 414.4 206 411.168 206Z" fill="black"/>
<path d="M445.901 116.409C446.28 115.256 446.89 114.409 447.732 113.868C448.64 113.344 449.483 113.187 450.264 113.396C451.044 113.605 451.69 114.057 452.201 114.751C452.712 115.446 452.863 116.184 452.654 116.964C452.41 117.875 451.834 118.592 450.927 119.115C450.02 119.639 449.111 119.779 448.201 119.535C448.005 119.483 447.665 119.322 447.18 119.052C446.534 118.601 446.092 118.168 445.854 117.756C445.681 117.361 445.697 116.912 445.901 116.409ZM426.839 110.674C427.1 109.699 427.611 108.964 428.371 108.471C429.113 108.042 429.972 107.959 430.947 108.22C431.923 108.481 432.625 108.983 433.053 109.725C433.464 110.533 433.539 111.424 433.278 112.4C432.982 113.505 432.462 114.272 431.72 114.701C430.978 115.129 430.119 115.213 429.143 114.952C426.997 114.376 426.229 112.951 426.839 110.674ZM413.429 112.723C413.586 112.138 414.035 111.631 414.777 111.203C415.519 110.774 416.216 110.647 416.866 110.821C417.191 110.908 417.49 111.093 417.763 111.375C418.036 111.658 418.289 112.144 418.523 112.834C418.756 113.523 419.005 114.287 419.268 115.125C420.288 118.604 421.524 121.794 422.978 124.693C424.432 127.592 426.89 130.516 430.352 133.465C433.879 136.432 438.602 138.708 444.52 140.294C449.788 141.706 454.134 142.138 457.557 141.591C460.962 141.11 463.518 140.156 465.224 138.731C466.978 137.389 468.624 135.669 470.162 133.571C470.931 132.523 471.548 131.782 472.012 131.349C472.542 130.933 473.067 130.795 473.587 130.934C475.408 131.422 476.031 132.739 475.456 134.885C474.62 138.007 472.559 140.627 469.273 142.744C466.052 144.878 462.101 146.225 457.42 146.783C452.722 147.406 447.934 147.064 443.056 145.757C436.488 143.997 430.77 141.141 425.904 137.188C421.103 133.252 417.606 129.004 415.412 124.443C413.201 119.947 412.54 116.04 413.429 112.723Z" fill="black"/>
<path d="M445.901 116.409C446.28 115.256 446.89 114.409 447.732 113.868C448.64 113.344 449.483 113.187 450.264 113.396C451.044 113.605 451.69 114.057 452.201 114.751C452.712 115.446 452.863 116.184 452.654 116.964C452.41 117.875 451.834 118.592 450.927 119.115C450.02 119.639 449.111 119.779 448.201 119.535C448.005 119.483 447.665 119.322 447.18 119.052C446.534 118.601 446.092 118.168 445.854 117.756C445.681 117.361 445.697 116.912 445.901 116.409ZM426.839 110.674C427.1 109.699 427.611 108.964 428.371 108.471C429.113 108.042 429.972 107.959 430.947 108.22C431.923 108.481 432.625 108.983 433.053 109.725C433.464 110.533 433.539 111.424 433.278 112.4C432.982 113.505 432.462 114.272 431.72 114.701C430.978 115.129 430.119 115.213 429.143 114.952C426.997 114.376 426.229 112.951 426.839 110.674ZM413.429 112.723C413.586 112.138 414.035 111.631 414.777 111.203C415.519 110.774 416.216 110.647 416.866 110.821C417.191 110.908 417.49 111.093 417.763 111.375C418.036 111.658 418.289 112.144 418.523 112.834C418.756 113.523 419.005 114.287 419.268 115.125C420.288 118.604 421.524 121.794 422.978 124.693C424.432 127.592 426.89 130.516 430.352 133.465C433.879 136.432 438.602 138.708 444.52 140.294C449.788 141.706 454.134 142.138 457.557 141.591C460.962 141.11 463.518 140.156 465.224 138.731C466.978 137.389 468.624 135.669 470.162 133.571C470.931 132.523 471.548 131.782 472.012 131.349C472.542 130.933 473.067 130.795 473.587 130.934C475.408 131.422 476.031 132.739 475.456 134.885C474.62 138.007 472.559 140.627 469.273 142.744C466.052 144.878 462.101 146.225 457.42 146.783C452.722 147.406 447.934 147.064 443.056 145.757C436.488 143.997 430.77 141.141 425.904 137.188C421.103 133.252 417.606 129.004 415.412 124.443C413.201 119.947 412.54 116.04 413.429 112.723Z" fill="black"/>
</svg>
