<svg width="53" height="54" viewBox="0 0 53 54" fill="none" xmlns="http://www.w3.org/2000/svg">
<path d="M36.953 52V44.8346C37.0467 43.6441 36.8858 42.4473 36.4812 41.3238C36.0765 40.2003 35.4374 39.1757 34.6062 38.3183C42.4457 37.4445 50.6846 34.4735 50.6846 20.8417C50.684 17.356 49.3431 14.0039 46.9396 11.4793C48.0777 8.42963 47.9973 5.05876 46.7149 2.06689C46.7149 2.06689 43.7689 1.19306 36.953 5.76194C31.2304 4.21347 25.1991 4.21347 19.4764 5.76194C12.6606 1.19306 9.7145 2.06689 9.7145 2.06689C8.43216 5.05876 8.35169 8.42963 9.4898 11.4793C7.06837 14.0226 5.72615 17.405 5.74482 20.9166C5.74482 34.4485 13.9838 37.4195 21.8233 38.3932C21.0019 39.242 20.3684 40.2542 19.964 41.364C19.5597 42.4738 19.3936 43.6563 19.4764 44.8346V52" stroke="#101E60" stroke-width="4" stroke-linecap="round" stroke-linejoin="round"/>
<path d="M19.4766 47.0056C11.9866 49.4348 5.74498 47.0056 2 39.5156" stroke="#101E60" stroke-width="4" stroke-linecap="round" stroke-linejoin="round"/>
</svg>
