<svg width="77" height="77" viewBox="0 0 77 77" fill="none" xmlns="http://www.w3.org/2000/svg">
<path d="M46.5641 58V52.5543C46.6353 51.6495 46.513 50.74 46.2055 49.8861C45.898 49.0322 45.4122 48.2536 44.7805 47.6019C50.7385 46.9378 57.0001 44.6798 57.0001 34.3197C56.9996 31.6705 55.9806 29.123 54.1539 27.2043C55.0189 24.8865 54.9577 22.3247 53.9831 20.0508C53.9831 20.0508 51.7441 19.3867 46.5641 22.8591C42.2149 21.6822 37.6311 21.6822 33.2819 22.8591C28.1018 19.3867 25.8628 20.0508 25.8628 20.0508C24.8882 22.3247 24.8271 24.8865 25.692 27.2043C23.8517 29.1372 22.8317 31.7078 22.8458 34.3766C22.8458 44.6609 29.1075 46.9188 35.0655 47.6589C34.4412 48.3039 33.9598 49.0732 33.6525 49.9167C33.3452 50.7601 33.2189 51.6588 33.2819 52.5543V58" stroke="#101E60" stroke-width="4" stroke-linecap="round" stroke-linejoin="round"/>
<path d="M33.2822 54.2041C27.5898 56.0503 22.8462 54.2041 20 48.5117" stroke="#101E60" stroke-width="4" stroke-linecap="round" stroke-linejoin="round"/>
<circle cx="38.5" cy="38.5" r="36.5" stroke="#101E60" stroke-width="4"/>
</svg>
