<svg width="143" height="145" viewBox="0 0 143 145" fill="none" xmlns="http://www.w3.org/2000/svg">
<g filter="url(#filter0_biii_69_7767)">
<circle cx="71.5" cy="71.5" r="71.5" fill="url(#paint0_linear_69_7767)"/>
<circle cx="71.5" cy="71.5" r="71.5" fill="url(#paint1_radial_69_7767)" fill-opacity="0.5"/>
<circle cx="71.5" cy="71.5" r="71.5" fill="url(#paint2_radial_69_7767)" fill-opacity="0.5"/>
<circle cx="71.5" cy="71.5" r="71.2625" stroke="url(#paint3_linear_69_7767)" stroke-opacity="0.3" stroke-width="0.475083"/>
</g>
<g filter="url(#filter1_f_69_7767)">
<ellipse cx="106.309" cy="31.2732" rx="9.02658" ry="4.27575" transform="rotate(45.2321 106.309 31.2732)" fill="white"/>
</g>
<g filter="url(#filter2_f_69_7767)">
<ellipse cx="39.7721" cy="107.198" rx="12.5454" ry="5.94255" transform="rotate(35.9982 39.7721 107.198)" fill="#FDA8FF"/>
</g>
<g filter="url(#filter3_f_69_7767)">
<ellipse cx="33.6294" cy="111.556" rx="4.01181" ry="1.90033" transform="rotate(45.2321 33.6294 111.556)" fill="white"/>
</g>
<circle cx="71.5" cy="71.4996" r="68.412" stroke="white" stroke-opacity="0.12" stroke-width="3.32558" style="mix-blend-mode:soft-light"/>
<mask id="mask0_69_7767" style="mask-type:alpha" maskUnits="userSpaceOnUse" x="0" y="0" width="143" height="143">
<circle cx="71.5" cy="71.5" r="71.5" fill="#C4C4C4"/>
</mask>
<g mask="url(#mask0_69_7767)">
<g filter="url(#filter4_f_69_7767)">
<ellipse cx="27.7017" cy="125.248" rx="48.5167" ry="23.0143" transform="rotate(35.388 27.7017 125.248)" fill="#FEC6FF"/>
</g>
<g filter="url(#filter5_f_69_7767)">
<ellipse cx="67.1474" cy="10.8856" rx="26.0302" ry="12.3477" transform="rotate(-6.37561 67.1474 10.8856)" fill="white"/>
</g>
<g filter="url(#filter6_f_69_7767)">
<circle cx="80.8035" cy="57.0497" r="11.8771" transform="rotate(29.5819 80.8035 57.0497)" fill="#3C98CC"/>
</g>
<g filter="url(#filter7_f_69_7767)">
<circle cx="106.458" cy="123.561" r="11.8771" transform="rotate(29.5819 106.458 123.561)" fill="#3C98CC"/>
</g>
<g filter="url(#filter8_f_69_7767)">
<ellipse cx="3.95679" cy="29.5394" rx="11.8771" ry="25.5864" transform="rotate(29.5819 3.95679 29.5394)" fill="#3C98CC"/>
</g>
</g>
<path d="M109.778 34.0547H34.2222V109.19H109.778V34.0547Z" fill="#F7DF1E"/>
<path d="M84.9762 92.7544C86.4981 95.2255 88.4782 97.0419 91.9801 97.0419C94.922 97.0419 96.8013 95.5797 96.8013 93.5594C96.8013 91.1384 94.8704 90.2809 91.6323 88.8724L89.8573 88.115C84.734 85.9445 81.3304 83.2253 81.3304 77.4768C81.3304 72.1815 85.3876 68.1504 91.7282 68.1504C96.2424 68.1504 99.4877 69.7127 101.826 73.8035L96.2976 77.3337C95.0803 75.1631 93.767 74.3079 91.7282 74.3079C89.6487 74.3079 88.3306 75.6198 88.3306 77.3337C88.3306 79.4518 89.6499 80.3093 92.6961 81.6212L94.471 82.3773C100.503 84.9498 103.909 87.5724 103.909 93.4688C103.909 99.8255 98.888 103.308 92.1444 103.308C85.5507 103.308 81.2908 100.183 79.2064 96.0878L84.9762 92.7544ZM59.8954 93.3662C61.0107 95.334 62.0253 96.9978 64.4647 96.9978C66.7973 96.9978 68.2688 96.0902 68.2688 92.5612V68.5535H75.3687V92.6566C75.3687 99.9674 71.0584 103.295 64.7669 103.295C59.0822 103.295 55.7902 100.369 54.116 96.8457L59.8954 93.3662Z" fill="black"/>
<defs>
<filter id="filter0_biii_69_7767" x="-7.12625" y="-7.12625" width="157.252" height="157.252" filterUnits="userSpaceOnUse" color-interpolation-filters="sRGB">
<feFlood flood-opacity="0" result="BackgroundImageFix"/>
<feGaussianBlur in="BackgroundImageFix" stdDeviation="3.56312"/>
<feComposite in2="SourceAlpha" operator="in" result="effect1_backgroundBlur_69_7767"/>
<feBlend mode="normal" in="SourceGraphic" in2="effect1_backgroundBlur_69_7767" result="shape"/>
<feColorMatrix in="SourceAlpha" type="matrix" values="0 0 0 0 0 0 0 0 0 0 0 0 0 0 0 0 0 0 127 0" result="hardAlpha"/>
<feOffset dx="6.17608" dy="3.32558"/>
<feGaussianBlur stdDeviation="5.46346"/>
<feComposite in2="hardAlpha" operator="arithmetic" k2="-1" k3="1"/>
<feColorMatrix type="matrix" values="0 0 0 0 1 0 0 0 0 1 0 0 0 0 1 0 0 0 0.25 0"/>
<feBlend mode="normal" in2="shape" result="effect2_innerShadow_69_7767"/>
<feColorMatrix in="SourceAlpha" type="matrix" values="0 0 0 0 0 0 0 0 0 0 0 0 0 0 0 0 0 0 127 0" result="hardAlpha"/>
<feOffset dx="-6.17608" dy="-1.42525"/>
<feGaussianBlur stdDeviation="13.7774"/>
<feComposite in2="hardAlpha" operator="arithmetic" k2="-1" k3="1"/>
<feColorMatrix type="matrix" values="0 0 0 0 0 0 0 0 0 0.835294 0 0 0 0 0.960784 0 0 0 0.21 0"/>
<feBlend mode="normal" in2="effect2_innerShadow_69_7767" result="effect3_innerShadow_69_7767"/>
<feColorMatrix in="SourceAlpha" type="matrix" values="0 0 0 0 0 0 0 0 0 0 0 0 0 0 0 0 0 0 127 0" result="hardAlpha"/>
<feOffset dx="3.32558" dy="-4.27575"/>
<feComposite in2="hardAlpha" operator="arithmetic" k2="-1" k3="1"/>
<feColorMatrix type="matrix" values="0 0 0 0 0.992157 0 0 0 0 0.658824 0 0 0 0 1 0 0 0 0.27 0"/>
<feBlend mode="soft-light" in2="effect3_innerShadow_69_7767" result="effect4_innerShadow_69_7767"/>
</filter>
<filter id="filter1_f_69_7767" x="94.9874" y="19.9147" width="22.6438" height="22.7165" filterUnits="userSpaceOnUse" color-interpolation-filters="sRGB">
<feFlood flood-opacity="0" result="BackgroundImageFix"/>
<feBlend mode="normal" in="SourceGraphic" in2="BackgroundImageFix" result="shape"/>
<feGaussianBlur stdDeviation="2.13787" result="effect1_foregroundBlur_69_7767"/>
</filter>
<filter id="filter2_f_69_7767" x="0.0553322" y="69.4145" width="79.4335" height="75.5676" filterUnits="userSpaceOnUse" color-interpolation-filters="sRGB">
<feFlood flood-opacity="0" result="BackgroundImageFix"/>
<feBlend mode="normal" in="SourceGraphic" in2="BackgroundImageFix" result="shape"/>
<feGaussianBlur stdDeviation="14.49" result="effect1_foregroundBlur_69_7767"/>
</filter>
<filter id="filter3_f_69_7767" x="27.1722" y="105.083" width="12.9143" height="12.9461" filterUnits="userSpaceOnUse" color-interpolation-filters="sRGB">
<feFlood flood-opacity="0" result="BackgroundImageFix"/>
<feBlend mode="normal" in="SourceGraphic" in2="BackgroundImageFix" result="shape"/>
<feGaussianBlur stdDeviation="1.66279" result="effect1_foregroundBlur_69_7767"/>
</filter>
<filter id="filter4_f_69_7767" x="-87.2106" y="18.2962" width="229.825" height="213.903" filterUnits="userSpaceOnUse" color-interpolation-filters="sRGB">
<feFlood flood-opacity="0" result="BackgroundImageFix"/>
<feBlend mode="normal" in="SourceGraphic" in2="BackgroundImageFix" result="shape"/>
<feGaussianBlur stdDeviation="36.5814" result="effect1_foregroundBlur_69_7767"/>
</filter>
<filter id="filter5_f_69_7767" x="7.98539" y="-34.9804" width="118.324" height="91.7323" filterUnits="userSpaceOnUse" color-interpolation-filters="sRGB">
<feFlood flood-opacity="0" result="BackgroundImageFix"/>
<feBlend mode="normal" in="SourceGraphic" in2="BackgroundImageFix" result="shape"/>
<feGaussianBlur stdDeviation="16.6279" result="effect1_foregroundBlur_69_7767"/>
</filter>
<filter id="filter6_f_69_7767" x="33.2931" y="9.53967" width="95.0208" height="95.0203" filterUnits="userSpaceOnUse" color-interpolation-filters="sRGB">
<feFlood flood-opacity="0" result="BackgroundImageFix"/>
<feBlend mode="normal" in="SourceGraphic" in2="BackgroundImageFix" result="shape"/>
<feGaussianBlur stdDeviation="17.8156" result="effect1_foregroundBlur_69_7767"/>
</filter>
<filter id="filter7_f_69_7767" x="58.9474" y="76.0514" width="95.0208" height="95.0203" filterUnits="userSpaceOnUse" color-interpolation-filters="sRGB">
<feFlood flood-opacity="0" result="BackgroundImageFix"/>
<feBlend mode="normal" in="SourceGraphic" in2="BackgroundImageFix" result="shape"/>
<feGaussianBlur stdDeviation="17.8156" result="effect1_foregroundBlur_69_7767"/>
</filter>
<filter id="filter8_f_69_7767" x="-47.9916" y="-29.1088" width="103.897" height="117.296" filterUnits="userSpaceOnUse" color-interpolation-filters="sRGB">
<feFlood flood-opacity="0" result="BackgroundImageFix"/>
<feBlend mode="normal" in="SourceGraphic" in2="BackgroundImageFix" result="shape"/>
<feGaussianBlur stdDeviation="17.8156" result="effect1_foregroundBlur_69_7767"/>
</filter>
<linearGradient id="paint0_linear_69_7767" x1="94.0664" y1="4.27575" x2="51.0714" y2="143" gradientUnits="userSpaceOnUse">
<stop stop-color="white" stop-opacity="0.26"/>
<stop offset="1" stop-color="white" stop-opacity="0"/>
</linearGradient>
<radialGradient id="paint1_radial_69_7767" cx="0" cy="0" r="1" gradientUnits="userSpaceOnUse" gradientTransform="translate(99.2924 25.892) rotate(119.781) scale(142.043)">
<stop stop-color="white" stop-opacity="0"/>
<stop offset="0.62353" stop-color="#FDA8FF" stop-opacity="0"/>
<stop offset="1" stop-color="#FDA8FF"/>
</radialGradient>
<radialGradient id="paint2_radial_69_7767" cx="0" cy="0" r="1" gradientUnits="userSpaceOnUse" gradientTransform="translate(52.0216 155.115) rotate(-75.2603) scale(178.323)">
<stop stop-color="white" stop-opacity="0"/>
<stop offset="0.62353" stop-color="#00B2FF" stop-opacity="0"/>
<stop offset="1" stop-color="#00E0FF"/>
</radialGradient>
<linearGradient id="paint3_linear_69_7767" x1="108.556" y1="11.1644" x2="23.2791" y2="132.786" gradientUnits="userSpaceOnUse">
<stop stop-color="#0085FF"/>
<stop offset="1" stop-color="#FEC8FF"/>
</linearGradient>
</defs>
</svg>
