<svg width="913" height="880" viewBox="0 0 913 880" fill="none" xmlns="http://www.w3.org/2000/svg">
<path d="M555.754 268.178C544.698 268.206 518.725 269.246 508.287 272.638L476.888 282.004C506.721 294.645 586.522 310.16 593.557 321.235C600.122 331.571 615.567 341.68 639.322 352.644C647.386 356.366 656.408 360.187 666.365 364.148C698.456 376.915 721.638 351.923 697.285 326.158C677.803 305.547 635.712 284.961 617.045 278.684C598.378 272.407 563.944 268.157 555.754 268.178Z" fill="#D5E2FF" stroke="black" stroke-width="4"/>
<path d="M651.439 330.452C677.316 352.702 697.026 346.256 703.646 340.251C711.9 364.801 683.972 368.076 672.04 363.565C672.04 363.565 663.014 361.419 655.525 358.296C648.036 355.173 636.775 351.209 636.775 351.209L615.25 353.007L568.061 292.311C572.177 290.905 625.361 317.153 651.439 330.452Z" fill="#7EA5FF"/>
<path d="M481.94 395.754L591.66 409.585L590.205 374.862L557.053 365.856L506.161 356.187L486.495 373.012L481.94 395.754Z" fill="#7EA5FF" stroke="black" stroke-width="4"/>
<path d="M374.56 496.197C418.427 502.882 456.594 474.607 470.194 459.634L479.532 417.612L488.869 375.59L495.594 366.949C507.399 372.047 521.201 368.136 526.627 365.544C540.937 374.928 565.202 380.717 575.545 382.439C576.838 387.534 615.756 448.053 635.054 477.676C668.197 516.906 699.714 489.072 694.343 462.481C684.679 414.629 652.53 367.591 626.609 337.294C612.269 320.533 594.996 306.298 575.075 296.825C534.563 277.561 497.792 275.162 476.992 277.37C470.819 278.025 464.99 280.308 459.493 283.192L370.263 330.016C362.74 335.576 349.498 339.809 340.115 342.147C335.655 343.259 331.128 343.565 326.532 343.496C284.548 342.861 96.9484 343.042 89 343.651C45.735 349.703 28.0986 397.51 24.6885 420.657C16.1705 510.415 233.893 491.115 246.579 490.765C256.728 490.485 318.359 493.35 323.059 494.817C348.832 506.511 366.567 498.719 374.56 496.197Z" fill="#D5E2FF" stroke="black" stroke-width="4"/>
<path d="M465.176 365.076L457.676 364.626" stroke="black" stroke-width="4" stroke-linecap="round"/>
<path d="M646.535 436.339C661.523 460.889 683.643 456.797 690.063 454.656C690.063 454.656 692.473 460.914 692.542 464.989C692.629 470.174 692.803 470.682 692.121 474.217C691.472 477.583 688.8 482.342 688.8 482.342C688.8 482.342 686.621 489.871 675.732 493.512C664.843 497.154 656.143 493.842 643.231 482.895C630.32 471.948 597.349 420.292 597.349 420.292C597.349 420.292 579.962 385.045 575.861 381.08C571.759 377.115 526.74 373.263 524.183 358.321C521.387 341.985 512.687 332.866 507.516 323.445C515.785 336.62 560.892 346.538 585.85 352.965C589.422 353.885 592.509 356.046 594.636 359.059C608.003 377.988 632.773 413.799 646.535 436.339Z" fill="#7EA5FF"/>
<path d="M582.626 303.737C646.646 340.697 683.23 425.378 690.063 454.656L667.068 423.922C637.341 373.464 595.892 331.548 576.385 317.825C575.695 317.339 574.945 316.979 574.141 316.719C530.093 302.424 495.394 295.914 472.665 298.873C468.685 299.391 464.944 300.906 461.435 302.853C435.412 317.29 388.417 343.655 373.099 353.374C357.849 363.05 318.078 364.592 296.159 364.115C293.011 364.046 289.899 363.58 286.848 362.803L259.602 355.862C265.276 350.58 282.322 344.046 306.693 345.848C324.005 347.128 352.162 342.2 356.733 339.818L406.423 313.045L456.143 288.002C488.597 264.401 559.913 289.712 582.626 303.737Z" fill="#FDFFFD"/>
<path d="M584.497 362.492C584.479 361.388 585.359 360.477 586.463 360.459C587.568 360.44 588.478 361.32 588.497 362.425L584.497 362.492ZM573.299 381.438C577.752 376.833 584.693 374.086 584.497 362.492L588.497 362.425C588.728 376.181 579.653 380.622 576.175 384.219L573.299 381.438Z" fill="black"/>
<path d="M502.146 326.541C501.116 326.143 500.604 324.985 501.002 323.954C501.401 322.924 502.559 322.412 503.589 322.811L502.146 326.541ZM524.614 365.806C524.552 362.127 523.311 353.904 519.814 345.752C516.312 337.586 510.707 329.852 502.146 326.541L503.589 322.811C513.592 326.679 519.794 335.557 523.49 344.175C527.193 352.808 528.543 361.543 528.613 365.739L524.614 365.806Z" fill="black"/>
<path d="M486.34 345.479C485.496 344.765 485.391 343.504 486.104 342.66C486.817 341.817 488.079 341.711 488.923 342.424L486.34 345.479ZM493.519 366.677C493.744 364.389 493.658 360.475 492.623 356.402C491.587 352.324 489.653 348.281 486.34 345.479L488.923 342.424C493.093 345.951 495.344 350.867 496.5 355.417C497.657 359.971 497.767 364.353 497.5 367.068L493.519 366.677Z" fill="black"/>
<path d="M649.47 442.759L650.656 511.602L596.643 517.522L595.401 443.839C595.267 435.884 596.784 427.819 601.174 421.185C617.723 396.173 633.074 406.867 643.02 420.663C647.609 427.029 649.334 434.913 649.47 442.759Z" fill="#101E60" stroke="black" stroke-width="4"/>
<path d="M647.967 739.111L645.634 553.426L604.066 559.72L607.1 739.799C607.242 748.238 607.466 761.542 615.48 769.583C615.567 782.249 616.059 803.96 628.137 803.756C640.179 803.553 639.354 780.269 638.887 769.189C648.091 759.436 647.085 750.501 647.967 739.111Z" fill="#2FC1FF" stroke="black" stroke-width="4"/>
<rect x="-1.96602" y="2.03341" width="110.099" height="62.8458" rx="9" transform="matrix(-0.999858 0.0168463 0.0168465 0.999858 677.358 504.385)" fill="#55BAF3" stroke="black" stroke-width="4"/>
<path d="M656.483 521.536L657.007 552.649" stroke="#005D7A" stroke-width="6" stroke-linecap="round"/>
<path d="M635.74 521.885L636.264 552.999" stroke="#005D7A" stroke-width="6" stroke-linecap="round"/>
<path d="M613.845 522.254L614.37 553.368" stroke="#005D7A" stroke-width="6" stroke-linecap="round"/>
<path d="M593.103 522.604L593.628 553.717" stroke="#005D7A" stroke-width="6" stroke-linecap="round"/>
<path d="M502.641 462.979C489.325 464.376 477.722 464.202 471.203 463.509L467.867 463.658L458.212 464.9L453.465 460.488L459.205 364.916L461.137 364.884C466.445 365.177 471.791 365.72 476.73 367.687C479.053 368.612 481.448 369.769 483.56 371.152C485.315 372.301 486.874 373.607 488.032 375.067C488.657 375.854 489.166 376.685 489.526 377.561C490.365 379.602 491.909 381.752 493.796 383.852C502.084 393.071 514.429 397.445 526.809 398.073C526.925 398.079 527.041 398.084 527.158 398.09C530.306 398.242 533.817 398.312 537.685 398.247C545.79 398.11 553.678 398.426 561.761 399.415C572.73 400.757 584.057 403.34 596.765 407.716C607.183 412.825 617.817 417.82 616.112 441.028C614.407 464.236 593.392 473.974 583.098 475.942C556.461 481.034 536.756 474.527 527.202 468.951C520.868 466.455 507.226 462.498 502.641 462.979Z" fill="#D5E2FF"/>
<path d="M527.158 398.09C530.306 398.242 533.817 398.312 537.685 398.247C545.79 398.11 553.678 398.426 561.761 399.415M527.158 398.09C527.041 398.084 526.925 398.079 526.809 398.073C514.429 397.445 502.084 393.071 493.796 383.852C491.909 381.752 490.365 379.602 489.526 377.561C489.166 376.685 488.657 375.854 488.032 375.067C486.874 373.607 485.315 372.301 483.56 371.152C481.448 369.769 479.053 368.612 476.73 367.687C471.791 365.72 466.445 365.177 461.137 364.884V364.884L459.205 364.916L453.465 460.488L458.212 464.9L467.867 463.658L471.203 463.509C477.722 464.202 489.325 464.376 502.641 462.979C507.226 462.498 520.868 466.455 527.202 468.951C536.756 474.527 556.461 481.034 583.098 475.942C593.392 473.974 614.407 464.236 616.112 441.028C617.817 417.82 607.183 412.825 596.765 407.716C584.057 403.34 572.73 400.757 561.761 399.415M527.158 398.09C528.453 395.169 530.057 378.624 526.73 372.686M561.761 399.415C564.813 398.134 571.101 392.802 571.953 388.638" stroke="black" stroke-width="4" stroke-linecap="round"/>
<rect width="35.7279" height="104.879" transform="matrix(-0.999858 0.0168463 0.0168465 0.999858 472.855 356.304)" fill="#D5E2FF"/>
<path d="M455.409 469.558C457.535 468.666 463.948 463.267 466.221 461.307L468.898 449.159L448.155 449.509C448.379 462.761 452.548 470.759 455.409 469.558Z" fill="#D5E2FF"/>
<path d="M47.272 410.118L331.295 436.291C336.744 436.793 341.827 439.589 346.877 441.696C360.468 447.366 386.23 448.348 399.659 447.995L521.919 442.437C521.827 433.266 527.533 422.691 532.697 416.991C533.447 416.163 534.048 416.814 533.374 417.707C523 431.446 526.617 440.781 534.61 449.538C542.579 458.268 560.082 463.344 575.449 464.41C585.623 465.117 596.159 461.882 602.629 454C618.752 434.358 599.143 412.917 579.622 404.402C593.528 408.778 614.914 412.46 614.707 434.357C614.5 456.262 603.76 468.279 581.409 470.895C548.381 474.761 534.468 469.957 527.437 463.159C520.406 456.362 473.112 459.618 460.034 455.804C410.24 490.824 380.847 488.362 374.508 490.85C370.216 492.534 357.02 492.646 346.649 492.821C328.163 490.251 330.448 489.06 319.999 484.598C309.772 480.232 164.493 494.359 103.817 479.611C89.5234 476.137 74.1065 473.23 60.7137 467.147C36.0718 455.956 46.5444 422.849 47.272 410.118Z" fill="#7EA5FF"/>
<path d="M471.204 463.53L460.218 461.41" stroke="black" stroke-width="4" stroke-linecap="round"/>
<path d="M469.012 367.68C467.907 367.699 466.997 366.818 466.978 365.714C466.96 364.61 467.84 363.699 468.944 363.681L469.012 367.68ZM476.37 369.628C475.47 369.286 473.937 368.778 472.423 368.361C470.816 367.919 469.544 367.671 469.012 367.68L468.944 363.681C470.14 363.66 471.953 364.084 473.483 364.504C475.105 364.951 476.76 365.497 477.793 365.89L476.37 369.628Z" fill="black"/>
<path d="M490.586 382.516C486.359 371.061 466.096 365.639 453.948 362.962C463.251 367.8 474.672 382.093 478.085 393.101C482.351 406.861 513.313 406.916 517.508 406.845C521.541 406.777 539.412 407.053 550.408 409.749C561.404 412.445 569.461 411.733 575.271 414.517C579.919 416.744 590.426 424.636 589.381 430.993C591.206 436.726 594.589 437.028 596.91 433.172C598.354 430.772 598.83 428.413 598.724 426.218C598.284 417.093 590.943 408.667 582.46 405.276C576.959 403.078 571.146 403.08 568.153 402.534C556.591 400.423 545.653 401.184 524.882 399.805C508.265 398.702 495.303 388.777 490.586 382.516Z" fill="white"/>
<path d="M604.573 284.879C627.738 287.09 679.709 318.54 703.646 340.252C695.559 317.324 648.507 293.888 626.711 285.065C617.128 279.494 592.423 274.246 577.944 272.864C576.685 272.744 576.239 272.22 574.784 274.008C573.689 275.353 573.166 275.48 572.544 276.378C572.044 277.098 572.177 277.999 572.946 278.419C575.956 280.064 585.428 283.051 604.573 284.879Z" fill="#FDFFFD"/>
<path d="M647.185 336.714C641.399 344.882 641.828 351.994 642.865 354.68C639.29 351.77 633.056 346.101 636.723 346.708C639.85 347.226 644.175 340.826 647.185 336.714C647.624 336.094 648.099 335.469 648.612 334.838C648.184 335.364 647.704 336.005 647.185 336.714Z" fill="black"/>
<path d="M642.865 354.68C641.75 351.79 641.337 343.777 648.612 334.838C645.702 338.414 640.389 347.315 636.723 346.708C633.056 346.101 639.29 351.77 642.865 354.68Z" stroke="black" stroke-width="3"/>
<path d="M650.867 334.444C651.39 333.802 651.293 332.857 650.651 332.334C650.008 331.811 649.063 331.908 648.541 332.551L650.867 334.444ZM649.048 336.679L650.867 334.444L648.541 332.551L646.722 334.785L649.048 336.679Z" fill="black"/>
<path d="M621.355 425.903C621.998 433.03 625.997 430.343 627.744 431.104C632.074 432.093 639.756 431.796 636.639 423.348C632.743 412.788 620.55 416.995 621.355 425.903Z" fill="#FEFFFB"/>
<path d="M647.643 474.462C647.604 472.806 646.23 471.494 644.574 471.533C642.917 471.571 641.606 472.945 641.644 474.601L647.643 474.462ZM641.644 474.601L642.331 504.137L648.329 503.998L647.643 474.462L641.644 474.601Z" fill="#FEFFFB"/>
<path d="M612.502 739.61L615.502 739.677L615.503 739.618L615.502 739.558L612.502 739.61ZM621.722 766.694L624.705 767.02L624.931 764.944L623.064 764.011L621.722 766.694ZM626.696 801.283C628.294 801.719 629.943 800.776 630.379 799.178C630.815 797.579 629.873 795.93 628.274 795.494L626.696 801.283ZM606.622 572.547L609.503 739.662L615.502 739.558L612.621 572.444L606.622 572.547ZM609.503 739.544C609.401 744.129 610.006 750.332 611.557 755.902C612.334 758.691 613.377 761.426 614.758 763.751C616.128 766.057 617.952 768.163 620.381 769.378L623.064 764.011C622.035 763.496 620.954 762.433 619.917 760.687C618.891 758.96 618.025 756.761 617.337 754.292C615.959 749.346 615.411 743.735 615.502 739.677L609.503 739.544ZM618.74 766.369C618.133 771.936 618.319 779.772 619.302 786.423C619.793 789.743 620.505 792.923 621.491 795.435C621.983 796.688 622.59 797.896 623.357 798.893C624.114 799.876 625.2 800.875 626.696 801.283L628.274 795.494C628.502 795.556 628.421 795.635 628.111 795.233C627.812 794.844 627.452 794.199 627.076 793.242C626.326 791.332 625.698 788.656 625.238 785.546C624.32 779.337 624.16 772.018 624.705 767.02L618.74 766.369Z" fill="#FEFFFB"/>
</svg>
