<svg width="946" height="1275" viewBox="0 0 946 1275" fill="none" xmlns="http://www.w3.org/2000/svg">
<path fill-rule="evenodd" clip-rule="evenodd" d="M511.933 1219.81C493.516 1225.35 482.799 1231.98 482.799 1239.12C482.799 1258.54 562.269 1274.28 660.299 1274.28C758.33 1274.28 837.799 1258.54 837.799 1239.12C837.799 1231.94 826.936 1225.26 808.288 1219.69C807.869 1220.51 807.419 1221.31 806.938 1222.11L806.671 1222.53C789.7 1250.17 746.481 1250.17 660.082 1250.17C573.682 1250.17 530.463 1250.17 513.473 1222.53L513.225 1222.11C512.767 1221.35 512.336 1220.58 511.933 1219.81Z" fill="#EAEAEA" fill-opacity="0.53"/>
<path d="M705.512 870.163V866.256L657.509 859L618.995 866.256H614.529L618.995 870.163L642.996 876.861L672.58 877.977L705.512 870.163Z" fill="#8EF0FD"/>
<g filter="url(#filter0_d_226_1048)">
<path d="M708.569 866.147V913.604C708.569 946.972 708.569 963.657 712.674 979.673C716.74 995.708 724.757 1010.41 740.773 1039.81L762.459 1079.66C803.273 1154.61 823.68 1192.1 806.938 1219.88L806.671 1220.3C789.7 1247.94 746.481 1247.94 660.082 1247.94C573.682 1247.94 530.463 1247.94 513.474 1220.3L513.225 1219.88C496.484 1192.1 516.891 1154.61 557.704 1079.66L579.39 1039.81C595.425 1010.41 603.405 995.708 607.49 979.673C611.575 963.638 611.575 946.972 611.575 913.623V866.147" fill="#67EDFF" fill-opacity="0.2"/>
<path d="M708.569 866.147V913.604C708.569 946.972 708.569 963.657 712.674 979.673C716.74 995.708 724.757 1010.41 740.773 1039.81L762.459 1079.66C803.273 1154.61 823.68 1192.1 806.938 1219.88L806.671 1220.3C789.7 1247.94 746.481 1247.94 660.082 1247.94C573.682 1247.94 530.463 1247.94 513.474 1220.3L513.225 1219.88C496.484 1192.1 516.891 1154.61 557.704 1079.66L579.39 1039.81C595.425 1010.41 603.405 995.708 607.49 979.673C611.575 963.638 611.575 946.972 611.575 913.623V866.147M708.569 866.147C672.167 885.8 628.739 874.336 611.575 866.147M708.569 866.147C691.068 860.753 647.168 853.202 611.575 866.147" stroke="black" stroke-width="4" stroke-linecap="round" stroke-linejoin="round"/>
<path d="M623.459 971.945V876.334C623.459 874.775 622.196 873.512 620.638 873.512C619.113 873.512 617.878 874.748 617.878 876.272V971.993C617.878 976.607 616.813 981.159 614.767 985.295L528.09 1160.51C519.137 1178.61 516.103 1201.15 529.246 1216.48C536.308 1224.71 543.146 1227.82 548.664 1230.74C557.557 1235.45 588.48 1236.88 603.923 1235.21C588.294 1236.55 564.665 1228.7 557.037 1224.6C527.118 1211.65 527.825 1172.69 535.826 1154.83L620.309 985.328C622.381 981.171 623.459 976.59 623.459 971.945Z" fill="#C6CACB" fill-opacity="0.53"/>
<path d="M697.139 972.082V876.334C697.139 874.775 698.402 873.512 699.96 873.512C701.485 873.512 702.721 874.748 702.721 876.272V972.129C702.721 976.739 703.783 981.286 705.824 985.418L792.539 1160.93C801.473 1179.01 804.497 1201.51 791.397 1216.84C784.319 1225.13 777.463 1228.25 771.934 1231.18C763.041 1235.89 732.118 1237.33 716.675 1235.65C732.304 1236.99 755.933 1229.13 763.562 1225.03C793.48 1212.07 792.773 1173.06 784.772 1155.18L700.283 985.451C698.215 981.298 697.139 976.722 697.139 972.082Z" fill="white"/>
</g>
<path d="M588.964 269.562C577.909 269.591 551.935 270.63 541.497 274.022L510.098 283.388C539.932 296.029 619.733 311.545 626.767 322.62C633.332 332.955 648.777 343.064 672.532 354.028C680.596 357.75 689.618 361.571 699.576 365.532C731.666 378.3 754.848 353.307 730.495 327.543C711.013 306.931 668.922 286.345 650.255 280.068C631.588 273.791 597.154 269.541 588.964 269.562Z" fill="#D5E2FF" stroke="black" stroke-width="4"/>
<path d="M684.648 331.836C710.525 354.086 730.235 347.64 736.855 341.636C745.109 366.185 717.181 369.46 705.249 364.95C705.249 364.95 696.222 362.804 688.734 359.681C681.245 356.558 669.983 352.593 669.983 352.593L648.458 354.392L601.269 293.695C605.385 292.29 658.57 318.537 684.648 331.836Z" fill="#7EA5FF"/>
<path d="M515.149 397.138L624.869 410.969L623.414 376.247L590.262 367.24L539.37 357.572L519.704 374.396L515.149 397.138Z" fill="#7EA5FF" stroke="black" stroke-width="4"/>
<path d="M407.77 497.581C451.638 504.266 489.805 475.991 503.405 461.018L512.742 418.996L522.08 376.974L528.804 368.334C540.609 373.432 554.411 369.521 559.837 366.928C574.147 376.313 598.412 382.102 608.756 383.823C610.048 388.918 648.967 449.438 668.264 479.061C701.408 518.291 732.924 490.456 727.554 463.866C717.889 416.013 685.741 368.976 659.819 338.678C645.479 321.917 628.207 307.682 608.286 298.209C567.773 278.946 531.002 276.546 510.202 278.754C504.03 279.409 498.2 281.692 492.703 284.577L403.473 331.401C395.95 336.961 382.708 341.193 373.325 343.532C368.865 344.643 364.339 344.949 359.743 344.88C317.759 344.246 130.159 344.427 122.21 345.036C78.9451 351.088 61.3087 398.894 57.8986 422.041C49.3806 511.799 267.103 492.5 279.789 492.15C289.938 491.87 351.569 494.734 356.269 496.201C382.042 507.895 399.778 500.104 407.77 497.581Z" fill="#D5E2FF" stroke="black" stroke-width="4"/>
<path d="M498.385 366.46L490.885 366.01" stroke="black" stroke-width="4" stroke-linecap="round"/>
<path d="M679.743 437.723C694.732 462.274 716.852 458.182 723.272 456.041C723.272 456.041 725.682 462.299 725.751 466.373C725.838 471.558 726.012 472.066 725.33 475.601C724.68 478.967 722.009 483.726 722.009 483.726C722.009 483.726 719.83 491.255 708.941 494.897C698.052 498.538 689.351 495.227 676.44 484.28C663.528 473.332 630.558 421.676 630.558 421.676C630.558 421.676 613.171 386.43 609.069 382.464C604.968 378.499 559.949 374.647 557.392 359.705C554.596 343.369 545.896 334.25 540.725 324.829C548.993 338.005 594.101 347.922 619.059 354.349C622.631 355.269 625.718 357.43 627.845 360.443C641.212 379.373 665.982 415.183 679.743 437.723Z" fill="#7EA5FF"/>
<path d="M615.836 305.121C679.856 342.081 716.439 426.762 723.272 456.04L700.277 425.306C670.551 374.848 629.101 332.932 609.595 319.209C608.904 318.723 608.154 318.364 607.351 318.103C563.303 303.809 528.604 297.299 505.874 300.257C501.894 300.775 498.154 302.29 494.644 304.237C468.621 318.674 421.627 345.039 406.308 354.759C391.058 364.435 351.287 365.976 329.368 365.499C326.22 365.431 323.108 364.964 320.057 364.187L292.811 357.247C298.486 351.964 315.531 345.43 339.902 347.232C357.214 348.512 385.372 343.584 389.942 341.202L439.633 314.429L489.352 289.386C521.806 265.785 593.122 291.096 615.836 305.121Z" fill="#FDFFFD"/>
<path d="M617.706 363.876C617.688 362.772 618.568 361.862 619.672 361.843C620.777 361.824 621.687 362.705 621.706 363.809L617.706 363.876ZM606.508 382.823C610.961 378.217 617.902 375.471 617.706 363.876L621.706 363.809C621.937 377.565 612.862 382.006 609.384 385.603L606.508 382.823Z" fill="black"/>
<path d="M535.356 327.926C534.326 327.527 533.814 326.369 534.212 325.339C534.611 324.309 535.769 323.796 536.799 324.195L535.356 327.926ZM557.824 367.19C557.762 363.511 556.521 355.288 553.024 347.136C549.522 338.97 543.917 331.236 535.356 327.926L536.799 324.195C546.802 328.064 553.004 336.941 556.7 345.559C560.403 354.192 561.753 362.927 561.823 367.123L557.824 367.19Z" fill="black"/>
<path d="M519.55 346.863C518.706 346.15 518.601 344.888 519.314 344.044C520.027 343.201 521.289 343.096 522.133 343.809L519.55 346.863ZM526.729 368.061C526.954 365.773 526.867 361.859 525.833 357.786C524.797 353.708 522.863 349.665 519.55 346.863L522.133 343.809C526.303 347.336 528.554 352.251 529.71 356.801C530.867 361.355 530.977 365.737 530.71 368.452L526.729 368.061Z" fill="black"/>
<path d="M682.681 444.143L683.867 512.986L629.854 518.905L628.612 445.223C628.478 437.268 629.995 429.203 634.385 422.568C650.934 397.557 666.285 408.25 676.231 422.047C680.82 428.413 682.546 436.297 682.681 444.143Z" fill="#101E60" stroke="black" stroke-width="4"/>
<path d="M681.178 740.494L678.846 554.81L637.277 561.103L640.311 741.183C640.453 749.622 640.677 762.926 648.691 770.967C648.778 783.633 649.27 805.343 661.348 805.14C673.39 804.937 672.565 781.653 672.098 770.572C681.302 760.82 680.296 751.884 681.178 740.494Z" fill="#2FC1FF" stroke="black" stroke-width="4"/>
<rect x="-1.96602" y="2.03341" width="110.099" height="62.8458" rx="9" transform="matrix(-0.999858 0.0168463 0.0168465 0.999858 710.569 505.769)" fill="#55BAF3" stroke="black" stroke-width="4"/>
<path d="M689.693 522.919L690.217 554.033" stroke="#005D7A" stroke-width="6" stroke-linecap="round"/>
<path d="M668.95 523.269L669.475 554.383" stroke="#005D7A" stroke-width="6" stroke-linecap="round"/>
<path d="M647.057 523.638L647.581 554.752" stroke="#005D7A" stroke-width="6" stroke-linecap="round"/>
<path d="M626.314 523.988L626.838 555.101" stroke="#005D7A" stroke-width="6" stroke-linecap="round"/>
<path d="M535.85 464.364C522.534 465.76 510.931 465.586 504.412 464.893L501.076 465.042L491.421 466.284L486.674 461.872L492.414 366.301L494.347 366.268C499.654 366.561 505 367.104 509.939 369.071C512.262 369.996 514.658 371.153 516.769 372.536C518.524 373.686 520.083 374.992 521.242 376.451C521.866 377.238 522.375 378.069 522.735 378.945C523.575 380.986 525.118 383.137 527.005 385.236C535.293 394.455 547.638 398.829 560.018 399.457C560.134 399.463 560.25 399.469 560.367 399.474C563.515 399.627 567.026 399.696 570.894 399.631C578.999 399.494 586.888 399.81 594.97 400.799C605.939 402.142 617.266 404.725 629.974 409.1C640.392 414.209 651.027 419.204 649.321 442.412C647.616 465.62 626.602 475.358 616.307 477.326C589.67 482.419 569.965 475.911 560.411 470.335C554.077 467.84 540.435 463.883 535.85 464.364Z" fill="#D5E2FF"/>
<path d="M560.367 399.474C563.515 399.627 567.026 399.696 570.894 399.631C578.999 399.494 586.888 399.81 594.97 400.799M560.367 399.474C560.25 399.469 560.134 399.463 560.018 399.457C547.638 398.829 535.293 394.455 527.005 385.236C525.118 383.137 523.575 380.986 522.735 378.945C522.375 378.069 521.866 377.238 521.242 376.451C520.083 374.992 518.524 373.686 516.769 372.536C514.658 371.153 512.262 369.996 509.939 369.071C505 367.104 499.654 366.561 494.347 366.268V366.268L492.414 366.301L486.674 461.872L491.421 466.284L501.076 465.042L504.412 464.893C510.931 465.586 522.534 465.76 535.85 464.364C540.435 463.883 554.077 467.84 560.411 470.335C569.965 475.911 589.67 482.419 616.307 477.326C626.602 475.358 647.616 465.62 649.321 442.412C651.027 419.204 640.392 414.209 629.974 409.1C617.266 404.725 605.939 402.142 594.97 400.799M560.367 399.474C561.663 396.553 563.267 380.008 559.939 374.07M594.97 400.799C598.022 399.518 604.31 394.186 605.162 390.022" stroke="black" stroke-width="4" stroke-linecap="round"/>
<rect width="35.728" height="104.879" transform="matrix(-0.999858 0.0168463 0.0168466 0.999858 506.063 357.688)" fill="#D5E2FF"/>
<path d="M488.619 470.943C490.744 470.051 497.158 464.651 499.43 462.692L502.107 450.543L481.365 450.893C481.588 464.145 485.758 472.143 488.619 470.943Z" fill="#D5E2FF"/>
<path d="M69.7997 405.812L364.886 437.591C370.215 438.165 375.156 440.942 380.092 443.032C393.636 448.768 419.563 449.76 433.051 449.405L555.311 443.847C555.219 434.677 560.925 424.101 566.088 418.402C566.839 417.573 567.439 418.225 566.766 419.117C556.391 432.856 560.008 442.191 568.001 450.948C575.97 459.679 593.474 464.754 608.841 465.821C619.014 466.527 629.551 463.292 636.021 455.41C652.144 435.768 632.535 414.327 613.014 405.812C626.919 410.189 648.306 413.87 648.099 435.767C647.892 457.672 637.151 469.689 614.8 472.305C581.772 476.171 567.859 471.367 560.828 464.569C553.798 457.772 506.503 461.028 493.425 457.214C443.632 492.234 414.238 489.773 407.899 492.26C403.607 493.944 390.411 494.057 380.04 494.231C361.554 491.661 363.839 490.47 353.39 486.009C343.163 481.642 197.884 495.769 137.208 481.022C122.915 477.548 107.614 474.282 94.0985 468.477C65.7825 456.316 69.0638 418.688 69.7997 405.812Z" fill="#7EA5FF"/>
<path d="M504.413 464.915L493.427 462.794" stroke="black" stroke-width="4" stroke-linecap="round"/>
<path d="M502.221 369.064C501.116 369.083 500.206 368.203 500.187 367.098C500.169 365.994 501.049 365.084 502.154 365.065L502.221 369.064ZM509.58 371.013C508.679 370.67 507.146 370.162 505.632 369.746C504.025 369.304 502.754 369.055 502.221 369.064L502.154 365.065C503.349 365.045 505.163 365.468 506.693 365.889C508.315 366.335 509.969 366.881 511.002 367.274L509.58 371.013Z" fill="black"/>
<path d="M523.797 383.901C519.569 372.445 499.306 367.023 487.158 364.346C496.461 369.184 507.882 383.477 511.295 394.485C515.561 408.246 546.523 408.3 550.718 408.23C554.751 408.162 572.622 408.437 583.618 411.133C594.614 413.83 602.671 413.118 608.481 415.901C613.13 418.128 623.636 426.02 622.591 432.378C624.416 438.11 627.799 438.412 630.12 434.556C631.564 432.156 632.04 429.798 631.934 427.603C631.494 418.477 624.153 410.052 615.67 406.661C610.169 404.462 604.356 404.464 601.363 403.918C589.801 401.808 578.863 402.568 558.092 401.189C541.475 400.086 528.513 390.161 523.797 383.901Z" fill="white"/>
<path d="M637.783 286.263C660.948 288.474 712.919 319.925 736.856 341.636C728.769 318.708 681.717 295.272 659.921 286.449C650.338 280.878 625.633 275.63 611.154 274.249C609.895 274.128 609.449 273.605 607.994 275.392C606.899 276.738 606.375 276.864 605.753 277.762C605.254 278.482 605.387 279.383 606.156 279.803C609.166 281.448 618.638 284.436 637.783 286.263Z" fill="#FDFFFD"/>
<path d="M680.395 338.098C674.609 346.266 675.038 353.378 676.075 356.064C672.5 353.154 666.266 347.485 669.932 348.092C673.06 348.61 677.385 342.21 680.395 338.098C680.834 337.479 681.309 336.853 681.822 336.222C681.394 336.748 680.914 337.389 680.395 338.098Z" fill="black"/>
<path d="M676.075 356.064C674.96 353.175 674.547 345.161 681.822 336.222C678.912 339.798 673.599 348.699 669.932 348.092C666.266 347.485 672.5 353.154 676.075 356.064Z" stroke="black" stroke-width="3"/>
<path d="M684.077 335.829C684.6 335.186 684.503 334.241 683.861 333.718C683.218 333.196 682.273 333.292 681.75 333.935L684.077 335.829ZM682.258 338.063L684.077 335.829L681.75 333.935L679.932 336.17L682.258 338.063Z" fill="black"/>
<path d="M654.565 427.288C655.208 434.415 659.207 431.727 660.954 432.488C665.284 433.477 672.966 433.181 669.849 424.732C665.953 414.172 653.76 418.379 654.565 427.288Z" fill="#FEFFFB"/>
<path d="M680.853 475.846C680.815 474.19 679.441 472.878 677.784 472.917C676.128 472.955 674.816 474.329 674.855 475.986L680.853 475.846ZM674.855 475.986L675.541 505.521L681.54 505.382L680.853 475.846L674.855 475.986Z" fill="#FEFFFB"/>
<path d="M645.712 740.994L648.711 741.061L648.713 741.002L648.712 740.943L645.712 740.994ZM654.932 768.079L657.914 768.404L658.141 766.329L656.274 765.395L654.932 768.079ZM659.905 802.667C661.504 803.103 663.153 802.16 663.589 800.562C664.025 798.964 663.082 797.314 661.484 796.878L659.905 802.667ZM639.831 573.932L642.712 741.046L648.712 740.943L645.83 573.828L639.831 573.932ZM642.713 740.928C642.611 745.513 643.215 751.716 644.767 757.286C645.544 760.076 646.587 762.811 647.968 765.136C649.337 767.441 651.162 769.548 653.59 770.762L656.274 765.395C655.245 764.881 654.164 763.818 653.126 762.071C652.101 760.345 651.235 758.145 650.547 755.676C649.169 750.73 648.621 745.119 648.711 741.061L642.713 740.928ZM651.95 767.753C651.342 773.32 651.528 781.156 652.512 787.808C653.003 791.128 653.714 794.307 654.7 796.819C655.192 798.073 655.799 799.28 656.567 800.277C657.324 801.26 658.41 802.259 659.905 802.667L661.484 796.878C661.712 796.94 661.631 797.02 661.321 796.617C661.022 796.228 660.661 795.584 660.285 794.626C659.535 792.716 658.907 790.04 658.447 786.93C657.529 780.721 657.369 773.402 657.914 768.404L651.95 767.753Z" fill="#FEFFFB"/>
<path d="M143.387 301.617C154.499 286.653 147.649 268.879 142.524 261.522C119.918 234.107 101.555 235.03 96.4853 239.284C92.4298 242.687 90.6789 253.57 91.3266 259.428C91.9744 265.286 96.7709 282.61 80.4831 298.298C74.2231 304.327 70.0426 309.46 67.3207 313.658C62.3476 321.328 66.9795 329.662 69.9307 338.313C75.3936 354.327 65.843 369.406 59.0397 374.902C58.3912 375.425 57.7375 376.014 57.0831 376.656C45.6604 387.852 52.0863 406.187 53.6248 422.108C54.1327 427.364 53.0869 432.76 49.3593 437.648C45.5116 442.694 42.6736 447.476 40.6126 451.719C36.1125 460.985 42.7544 469.939 47.653 479.001C51.3052 485.757 50.3609 492.965 47.2315 499.616C42.4119 509.858 40.3197 530.974 44.3257 541.562C45.0655 543.517 45.84 545.478 46.6984 547.388C48.1881 550.703 51.9715 552.139 55.3933 550.915C67.0596 546.741 85.0637 538.663 94.1461 528.718C104.166 517.747 106.525 504.32 106.494 497.749C106.49 496.81 106.591 495.879 106.798 494.962C109.339 483.711 105.573 464.974 102.503 453.811C101.782 451.191 102.376 448.4 103.888 446.143C113.908 431.185 114.981 409.812 113.988 397.597C113.783 395.082 114.653 392.604 116.219 390.626C126.653 377.444 127.546 356.989 126.361 345.132C126.118 342.694 126.854 340.254 128.387 338.342C137.55 326.918 140.644 314.522 141.23 307.358C141.399 305.286 142.147 303.286 143.387 301.617Z" fill="#FEFDE2" stroke="black" stroke-width="4"/>
<path d="M138.614 291.481C128.398 270.612 114.441 258.209 105.207 252.431C103.52 251.375 101.976 253.188 103.114 254.821L131.112 295.006C132.768 297.382 136.222 297.554 138.105 295.352C139.026 294.275 139.237 292.754 138.614 291.481Z" fill="#ACC5FF"/>
<path d="M64.6993 426.352L87.2336 422.691C98.6421 420.838 107.255 432.826 101.859 443.047L99.8668 446.82C98.0223 450.313 94.7835 452.839 91.019 454.037C77.5214 458.332 59.5605 466.017 53.5878 467.444C51.8923 467.849 50.2681 467.947 48.7384 467.828C41.9151 467.299 40.4324 458.883 43.774 452.911L54.7266 433.335C56.8118 429.608 60.484 427.037 64.6993 426.352Z" fill="#ACC5FF"/>
<path d="M58.2553 380.306C77.6672 361.696 97.5117 362.943 109.603 368.529C113.216 370.198 115.353 373.909 115.261 377.888C115.054 386.844 112.446 398.456 103.079 400.664C95.3211 402.493 79.3561 401.349 65.1147 399.277C55.5433 397.885 51.2735 387 58.2553 380.306Z" fill="#ACC5FF"/>
<path d="M74.5994 479.867L86.8194 476.123C94.8623 473.659 103.054 479.493 103.355 487.899L103.585 494.31C103.855 501.859 102.205 509.352 98.7879 516.088C95.0608 523.436 89.3207 529.573 82.2375 533.781L64.8632 544.105C58.3538 547.973 49.954 544.507 48.0658 537.174L47.3579 534.426C44.798 524.484 45.3061 514.001 48.8155 504.354C53.092 492.599 62.6388 483.532 74.5994 479.867Z" fill="#ACC5FF"/>
<path d="M92.2291 295.87C103.662 293.862 118.533 308.507 127.743 319.147C130.653 322.509 131.33 327.226 129.686 331.357C127.165 337.692 119.985 340.783 113.651 338.259L78.919 324.421C71.6244 321.515 68.4322 313.192 73.7323 307.399C78.507 302.179 84.957 297.148 92.2291 295.87Z" fill="#ACC5FF"/>
<path d="M129.645 293.579C122.706 283.144 104.893 262.782 93.3807 262.874" stroke="black" stroke-width="6" stroke-linecap="round"/>
<path d="M89.8533 498.149L49.0247 513.005" stroke="black" stroke-width="6" stroke-linecap="round"/>
<path d="M88.5017 445.856L50.7954 458.889" stroke="black" stroke-width="6" stroke-linecap="round"/>
<path d="M96.7329 393.378L53.8427 391.706" stroke="black" stroke-width="6" stroke-linecap="round"/>
<path d="M107.898 330.7C99.1033 326.871 77.039 318.823 66.4357 316.45" stroke="black" stroke-width="6" stroke-linecap="round"/>
<defs>
<filter id="filter0_d_226_1048" x="493.159" y="849.8" width="333.846" height="417.339" filterUnits="userSpaceOnUse" color-interpolation-filters="sRGB">
<feFlood flood-opacity="0" result="BackgroundImageFix"/>
<feColorMatrix in="SourceAlpha" type="matrix" values="0 0 0 0 0 0 0 0 0 0 0 0 0 0 0 0 0 0 127 0" result="hardAlpha"/>
<feOffset dy="5"/>
<feGaussianBlur stdDeviation="6.1"/>
<feComposite in2="hardAlpha" operator="out"/>
<feColorMatrix type="matrix" values="0 0 0 0 0.436347 0 0 0 0 0.436347 0 0 0 0 0.436347 0 0 0 0.25 0"/>
<feBlend mode="normal" in2="BackgroundImageFix" result="effect1_dropShadow_226_1048"/>
<feBlend mode="normal" in="SourceGraphic" in2="effect1_dropShadow_226_1048" result="shape"/>
</filter>
</defs>
</svg>
