<svg width="380" height="369" viewBox="0 0 380 369" fill="none" xmlns="http://www.w3.org/2000/svg">
<ellipse cx="190" cy="345.5" rx="190" ry="23.5" fill="#E9E9E9"/>
<path d="M148.225 10.3508V78.8768C148.225 90.1 142.257 99.7804 132.407 105.07C81.8011 132.196 34.2636 209.029 84.1238 287.778C95.2791 307.105 132.102 345.742 190.151 345.742C248.2 345.742 285.023 307.088 296.178 287.778C346.038 209.029 298.501 132.179 247.894 105.07C243.099 102.585 239.083 98.8245 236.289 94.2027C233.495 89.5809 232.032 84.2774 232.06 78.8768V11.1815" fill="#CEEAFF"/>
<path d="M148.225 10.3508V78.8768C148.225 90.1 142.257 99.7804 132.407 105.07C81.8011 132.196 34.2636 209.029 84.1238 287.778C95.2791 307.105 132.102 345.742 190.151 345.742C248.2 345.742 285.023 307.088 296.178 287.778C346.038 209.029 298.501 132.179 247.894 105.07C243.099 102.585 239.083 98.8245 236.289 94.2027C233.495 89.5809 232.032 84.2774 232.06 78.8768V11.1815M148.225 10.3508C178.805 24.4383 216.857 16.7744 232.06 11.1815M148.225 10.3508C180.005 -5.16169 217.357 4.44108 232.06 11.1815" stroke="black" stroke-width="4" stroke-linecap="round" stroke-linejoin="round"/>
</svg>
