<svg width="95" height="93" viewBox="0 0 95 93" fill="none" xmlns="http://www.w3.org/2000/svg">
<path d="M71.0684 54.1035C69.1514 66.2396 57.9878 73.3757 46.1282 70.0335C34.2685 66.6912 26.2148 54.1395 28.1318 42.0033C30.0488 29.8672 41.2124 22.7311 53.072 26.0734C64.9316 29.4156 72.9854 41.9673 71.0684 54.1035Z" fill="#F8EFEF" stroke="black" stroke-width="3"/>
<path d="M29.8322 32.6905L31.6504 33.5234L33.2328 29.8497L31.4145 29.0167L29.8322 32.6905ZM22.5233 22.6346C21.6809 21.9098 20.4307 22.008 19.7309 22.8538C19.0311 23.6997 19.1467 24.9729 19.9891 25.6977L22.5233 22.6346ZM26.8955 40.0367L28.8623 40.3241L29.3672 36.3314L27.4003 36.0441L26.8955 40.0367ZM18.1229 30.3008C17.3768 29.4738 16.1221 29.4083 15.3204 30.1545C14.5186 30.9007 14.4734 32.1761 15.2194 33.0031L18.1229 30.3008ZM31.4145 29.0167C29.4028 28.0952 27.2475 26.6992 22.5233 22.6346L19.9891 25.6977C24.7967 29.8339 27.2975 31.5294 29.8322 32.6905L31.4145 29.0167ZM27.4003 36.0441C25.297 35.7368 22.2268 34.8503 18.1229 30.3008L15.2194 33.0031C19.9576 38.2557 23.8778 39.5958 26.8955 40.0367L27.4003 36.0441Z" fill="black"/>
</svg>
