<svg width="139" height="71" viewBox="0 0 139 71" fill="none" xmlns="http://www.w3.org/2000/svg">
<path d="M70.195 30.034L71.4145 30.034L71.6634 28.8401C73.3311 20.8412 77.9234 13.7376 84.5564 8.90283C91.1896 4.06789 99.3924 1.84573 107.58 2.66745C115.768 3.48916 123.357 7.29606 128.882 13.3501C134.406 19.4036 137.476 27.2743 137.5 35.4421C137.508 43.6289 134.454 51.5282 128.929 57.6064C123.403 63.6852 115.799 67.509 107.593 68.3326C99.3858 69.1562 91.1649 66.9205 84.5259 62.0615C77.8871 57.2026 73.3045 50.068 71.6646 42.044L71.4194 40.8444L70.195 40.8444L48.65 40.8444L47.15 40.8444L47.15 42.3444L47.15 56.1548C47.15 57.5852 46.5782 58.959 45.5571 59.9734C44.5358 60.9882 43.1485 61.56 41.7 61.56C40.2514 61.56 38.8641 60.9882 37.8428 59.9734C36.8218 58.959 36.25 57.5852 36.25 56.1548L36.25 42.3444L36.25 40.8444L34.75 40.8444L27.8 40.8444L26.3 40.8444L26.3 42.3444L26.3 56.1548C26.3 57.5852 25.7282 58.959 24.7072 59.9734C23.6858 60.9882 22.2985 61.56 20.85 61.56C19.4014 61.56 18.0142 60.9882 16.9928 59.9734C15.9718 58.959 15.4 57.5852 15.4 56.1548L15.4 42.3444L15.4 40.8444L13.9 40.8444L6.95 40.8444C5.50145 40.8444 4.11415 40.2726 3.09282 39.2578C2.07182 38.2434 1.5 36.8696 1.5 35.4392C1.5 34.0088 2.07182 32.635 3.09282 31.6205C4.11416 30.6058 5.50145 30.034 6.95 30.034L70.195 30.034Z" fill="#FF48B0" stroke="#101E60" stroke-width="3"/>
<mask id="path-2-outside-1_104_110" maskUnits="userSpaceOnUse" x="80" y="22" width="51" height="28" fill="black">
<rect fill="white" x="80" y="22" width="51" height="28"/>
<path d="M106.044 25.85C106.204 26.15 106.294 26.42 106.314 26.66C106.354 26.9 106.374 27.25 106.374 27.71V44.36C106.374 45.74 105.994 46.55 105.234 46.79C104.854 46.91 104.374 46.97 103.794 46.97C103.214 46.97 102.754 46.92 102.414 46.82C102.074 46.72 101.814 46.6 101.634 46.46C101.454 46.32 101.314 46.12 101.214 45.86C101.114 45.52 101.064 45 101.064 44.3V34.25C100.564 34.87 99.8342 35.86 98.8742 37.22C97.9142 38.56 97.3042 39.4 97.0442 39.74C96.7842 40.08 96.6042 40.32 96.5042 40.46C96.4042 40.58 96.1542 40.76 95.7542 41C95.3742 41.22 94.9542 41.33 94.4942 41.33C94.0542 41.33 93.6442 41.23 93.2642 41.03C92.9042 40.81 92.6442 40.6 92.4842 40.4L92.2442 40.07C91.8442 39.57 91.0542 38.51 89.8742 36.89C88.6942 35.25 88.0542 34.37 87.9542 34.25V44.36C87.9542 44.82 87.9342 45.17 87.8942 45.41C87.8742 45.63 87.7842 45.88 87.6242 46.16C87.3242 46.7 86.5442 46.97 85.2842 46.97C84.0642 46.97 83.3042 46.7 83.0042 46.16C82.8442 45.88 82.7442 45.62 82.7042 45.38C82.6842 45.14 82.6742 44.78 82.6742 44.3V27.65C82.6742 27.19 82.6842 26.85 82.7042 26.63C82.7442 26.39 82.8442 26.12 83.0042 25.82C83.3042 25.3 84.0842 25.04 85.3442 25.04C85.8842 25.04 86.3442 25.11 86.7242 25.25C87.1242 25.37 87.3842 25.5 87.5042 25.64L87.6842 25.82L94.4942 34.76C97.8942 30.26 100.164 27.29 101.304 25.85C101.644 25.31 102.444 25.04 103.704 25.04C104.984 25.04 105.764 25.31 106.044 25.85ZM120.986 35.96C124.046 38.9 126.216 41.11 127.496 42.59C128.156 43.33 128.486 43.96 128.486 44.48C128.486 44.98 128.086 45.58 127.286 46.28C126.486 46.96 125.826 47.3 125.306 47.3C124.806 47.3 124.196 46.88 123.476 46.04L116.876 38.51V44.36C116.876 44.84 116.856 45.19 116.816 45.41C116.796 45.63 116.706 45.89 116.546 46.19C116.266 46.73 115.486 47 114.206 47C112.806 47 111.986 46.62 111.746 45.86C111.626 45.54 111.566 45.03 111.566 44.33V27.65C111.566 27.19 111.576 26.85 111.596 26.63C111.636 26.39 111.736 26.12 111.896 25.82C112.176 25.28 112.956 25.01 114.236 25.01C115.636 25.01 116.466 25.38 116.726 26.12C116.826 26.46 116.876 26.98 116.876 27.68V33.41C119.596 30.35 121.796 27.84 123.476 25.88C124.176 25.06 124.786 24.65 125.306 24.65C125.826 24.65 126.486 25 127.286 25.7C128.086 26.38 128.486 26.98 128.486 27.5C128.486 28 128.186 28.6 127.586 29.3C126.426 30.64 124.626 32.48 122.186 34.82L120.986 35.96Z"/>
</mask>
<path d="M106.044 25.85C106.204 26.15 106.294 26.42 106.314 26.66C106.354 26.9 106.374 27.25 106.374 27.71V44.36C106.374 45.74 105.994 46.55 105.234 46.79C104.854 46.91 104.374 46.97 103.794 46.97C103.214 46.97 102.754 46.92 102.414 46.82C102.074 46.72 101.814 46.6 101.634 46.46C101.454 46.32 101.314 46.12 101.214 45.86C101.114 45.52 101.064 45 101.064 44.3V34.25C100.564 34.87 99.8342 35.86 98.8742 37.22C97.9142 38.56 97.3042 39.4 97.0442 39.74C96.7842 40.08 96.6042 40.32 96.5042 40.46C96.4042 40.58 96.1542 40.76 95.7542 41C95.3742 41.22 94.9542 41.33 94.4942 41.33C94.0542 41.33 93.6442 41.23 93.2642 41.03C92.9042 40.81 92.6442 40.6 92.4842 40.4L92.2442 40.07C91.8442 39.57 91.0542 38.51 89.8742 36.89C88.6942 35.25 88.0542 34.37 87.9542 34.25V44.36C87.9542 44.82 87.9342 45.17 87.8942 45.41C87.8742 45.63 87.7842 45.88 87.6242 46.16C87.3242 46.7 86.5442 46.97 85.2842 46.97C84.0642 46.97 83.3042 46.7 83.0042 46.16C82.8442 45.88 82.7442 45.62 82.7042 45.38C82.6842 45.14 82.6742 44.78 82.6742 44.3V27.65C82.6742 27.19 82.6842 26.85 82.7042 26.63C82.7442 26.39 82.8442 26.12 83.0042 25.82C83.3042 25.3 84.0842 25.04 85.3442 25.04C85.8842 25.04 86.3442 25.11 86.7242 25.25C87.1242 25.37 87.3842 25.5 87.5042 25.64L87.6842 25.82L94.4942 34.76C97.8942 30.26 100.164 27.29 101.304 25.85C101.644 25.31 102.444 25.04 103.704 25.04C104.984 25.04 105.764 25.31 106.044 25.85ZM120.986 35.96C124.046 38.9 126.216 41.11 127.496 42.59C128.156 43.33 128.486 43.96 128.486 44.48C128.486 44.98 128.086 45.58 127.286 46.28C126.486 46.96 125.826 47.3 125.306 47.3C124.806 47.3 124.196 46.88 123.476 46.04L116.876 38.51V44.36C116.876 44.84 116.856 45.19 116.816 45.41C116.796 45.63 116.706 45.89 116.546 46.19C116.266 46.73 115.486 47 114.206 47C112.806 47 111.986 46.62 111.746 45.86C111.626 45.54 111.566 45.03 111.566 44.33V27.65C111.566 27.19 111.576 26.85 111.596 26.63C111.636 26.39 111.736 26.12 111.896 25.82C112.176 25.28 112.956 25.01 114.236 25.01C115.636 25.01 116.466 25.38 116.726 26.12C116.826 26.46 116.876 26.98 116.876 27.68V33.41C119.596 30.35 121.796 27.84 123.476 25.88C124.176 25.06 124.786 24.65 125.306 24.65C125.826 24.65 126.486 25 127.286 25.7C128.086 26.38 128.486 26.98 128.486 27.5C128.486 28 128.186 28.6 127.586 29.3C126.426 30.64 124.626 32.48 122.186 34.82L120.986 35.96Z" fill="#EFFDFF"/>
<path d="M106.044 25.85L104.269 26.7706L104.274 26.7809L104.28 26.7912L106.044 25.85ZM106.314 26.66L104.321 26.8261L104.328 26.9079L104.341 26.9888L106.314 26.66ZM105.234 46.79L105.836 48.6972L105.234 46.79ZM102.414 46.82L101.85 48.7387H101.85L102.414 46.82ZM101.634 46.46L102.862 44.8813L101.634 46.46ZM101.214 45.86L99.2955 46.4243L99.3184 46.5022L99.3475 46.578L101.214 45.86ZM101.064 34.25H103.064V28.584L99.5074 32.9945L101.064 34.25ZM98.8742 37.22L100.5 38.3848L100.508 38.3734L98.8742 37.22ZM97.0442 39.74L98.6329 40.9549H98.6329L97.0442 39.74ZM96.5042 40.46L98.0407 41.7404L98.0884 41.6831L98.1317 41.6225L96.5042 40.46ZM95.7542 41L96.7563 42.7309L96.7698 42.723L96.7832 42.715L95.7542 41ZM93.2642 41.03L92.2213 42.7366L92.276 42.77L92.3327 42.7998L93.2642 41.03ZM92.4842 40.4L90.8667 41.5763L90.8938 41.6135L90.9225 41.6494L92.4842 40.4ZM92.2442 40.07L93.8617 38.8937L93.8347 38.8565L93.806 38.8206L92.2442 40.07ZM89.8742 36.89L88.2507 38.0581L88.2576 38.0675L89.8742 36.89ZM87.9542 34.25L89.4907 32.9696L85.9542 28.7259V34.25H87.9542ZM87.8942 45.41L85.9214 45.0812L85.9092 45.1547L85.9024 45.2289L87.8942 45.41ZM87.6242 46.16L85.8877 45.1677L85.8818 45.1782L85.8759 45.1887L87.6242 46.16ZM83.0042 46.16L84.7525 45.1887L84.7467 45.1782L84.7407 45.1677L83.0042 46.16ZM82.7042 45.38L80.7111 45.5461L80.7179 45.6279L80.7314 45.7088L82.7042 45.38ZM82.7042 26.63L80.7314 26.3012L80.7192 26.3747L80.7124 26.4489L82.7042 26.63ZM83.0042 25.82L81.2718 24.8206L81.2552 24.8494L81.2395 24.8788L83.0042 25.82ZM86.7242 25.25L86.0328 27.1267L86.0906 27.148L86.1495 27.1657L86.7242 25.25ZM87.5042 25.64L85.9857 26.9416L86.0357 26.9999L86.09 27.0542L87.5042 25.64ZM87.6842 25.82L89.2752 24.6081L89.1936 24.501L89.0984 24.4058L87.6842 25.82ZM94.4942 34.76L92.9032 35.9719L94.5007 38.0691L96.09 35.9657L94.4942 34.76ZM101.304 25.85L102.872 27.0914L102.939 27.0069L102.997 26.9156L101.304 25.85ZM104.28 26.7912C104.317 26.8606 104.331 26.8995 104.334 26.91C104.338 26.9204 104.326 26.8904 104.321 26.8261L108.307 26.4939C108.257 25.8954 108.048 25.3572 107.809 24.9088L104.28 26.7912ZM104.341 26.9888C104.354 27.0632 104.374 27.2814 104.374 27.71H108.374C108.374 27.2186 108.355 26.7368 108.287 26.3312L104.341 26.9888ZM104.374 27.71V44.36H108.374V27.71H104.374ZM104.374 44.36C104.374 44.6166 104.356 44.8085 104.332 44.9462C104.308 45.0849 104.282 45.1453 104.279 45.1531C104.277 45.1567 104.303 45.1015 104.378 45.032C104.458 44.9587 104.55 44.9086 104.632 44.8828L105.836 48.6972C107.955 48.0281 108.374 45.8914 108.374 44.36H104.374ZM104.632 44.8828C104.514 44.9202 104.254 44.97 103.794 44.97V48.97C104.494 48.97 105.195 48.8998 105.836 48.6972L104.632 44.8828ZM103.794 44.97C103.3 44.97 103.056 44.9241 102.979 44.9013L101.85 48.7387C102.452 48.9159 103.128 48.97 103.794 48.97V44.97ZM102.979 44.9013C102.881 44.8726 102.826 44.8499 102.802 44.8391C102.777 44.8276 102.806 44.8374 102.862 44.8813L100.406 48.0387C100.863 48.3937 101.388 48.6029 101.85 48.7387L102.979 44.9013ZM102.862 44.8813C103.027 45.0095 103.079 45.1376 103.081 45.142L99.3475 46.578C99.5492 47.1024 99.8815 47.6305 100.406 48.0387L102.862 44.8813ZM103.133 45.2957C103.133 45.2975 103.127 45.2769 103.119 45.2276C103.11 45.1792 103.101 45.1121 103.093 45.0236C103.075 44.8444 103.064 44.606 103.064 44.3H99.0642C99.0642 45.0432 99.1116 45.7992 99.2955 46.4243L103.133 45.2957ZM103.064 44.3V34.25H99.0642V44.3H103.064ZM99.5074 32.9945C98.965 33.667 98.2045 34.7007 97.2403 36.0666L100.508 38.3734C101.464 37.0193 102.163 36.073 102.621 35.5055L99.5074 32.9945ZM97.2484 36.0552C96.2821 37.404 95.6924 38.2153 95.4555 38.5251L98.6329 40.9549C98.916 40.5847 99.5464 39.716 100.5 38.3848L97.2484 36.0552ZM95.4555 38.5251C95.196 38.8645 94.9979 39.128 94.8768 39.2975L98.1317 41.6225C98.2106 41.512 98.3725 41.2955 98.6329 40.9549L95.4555 38.5251ZM94.9678 39.1796C95.0064 39.1333 95.0387 39.1002 95.0585 39.0807C95.079 39.0606 95.0936 39.0478 95.0995 39.0427C95.1101 39.0337 95.104 39.0397 95.0731 39.0619C95.01 39.1074 94.899 39.1807 94.7252 39.285L96.7832 42.715C97.0094 42.5793 97.2235 42.4426 97.4103 42.3081C97.5668 42.1954 97.8234 42.0011 98.0407 41.7404L94.9678 39.1796ZM94.7521 39.2691C94.6914 39.3043 94.6198 39.33 94.4942 39.33V43.33C95.2887 43.33 96.057 43.1357 96.7563 42.7309L94.7521 39.2691ZM94.4942 39.33C94.3705 39.33 94.2812 39.3052 94.1957 39.2602L92.3327 42.7998C93.0072 43.1548 93.738 43.33 94.4942 43.33V39.33ZM94.3071 39.3234C94.1833 39.2477 94.1031 39.1898 94.0559 39.1516C94.0064 39.1116 94.0131 39.1096 94.046 39.1506L90.9225 41.6494C91.2912 42.1103 91.7743 42.4634 92.2213 42.7366L94.3071 39.3234ZM94.1017 39.2237L93.8617 38.8937L90.6267 41.2463L90.8667 41.5763L94.1017 39.2237ZM93.806 38.8206C93.4392 38.3622 92.6761 37.3397 91.4908 35.7125L88.2576 38.0675C89.4323 39.6803 90.2492 40.7778 90.6825 41.3194L93.806 38.8206ZM91.4977 35.7219C90.3577 34.1376 89.6507 33.1617 89.4907 32.9696L86.4178 35.5304C86.4132 35.5249 86.5443 35.6987 86.8917 36.1763C87.2087 36.6122 87.6614 37.2389 88.2508 38.0581L91.4977 35.7219ZM85.9542 34.25V44.36H89.9542V34.25H85.9542ZM85.9542 44.36C85.9542 44.7886 85.9338 45.0068 85.9214 45.0812L89.867 45.7388C89.9346 45.3332 89.9542 44.8514 89.9542 44.36H85.9542ZM85.9024 45.2289C85.9106 45.1393 85.9285 45.089 85.9299 45.0851C85.931 45.0821 85.9291 45.0878 85.9222 45.1024C85.9154 45.1169 85.9043 45.1386 85.8877 45.1677L89.3607 47.1523C89.6028 46.7286 89.8309 46.1968 89.886 45.5911L85.9024 45.2289ZM85.8759 45.1887C86.0358 44.901 86.2435 44.8486 86.16 44.8775C86.1187 44.8918 86.0295 44.9165 85.8768 44.9367C85.7255 44.9567 85.5301 44.97 85.2842 44.97V48.97C86.0323 48.97 86.7878 48.8931 87.4684 48.6575C88.1649 48.4164 88.9127 47.959 89.3725 47.1313L85.8759 45.1887ZM85.2842 44.97C85.0507 44.97 84.8666 44.9569 84.7257 44.9377C84.5835 44.9183 84.503 44.8951 84.4687 44.8829C84.4351 44.8709 84.4668 44.8771 84.5298 44.9252C84.5983 44.9775 84.6835 45.0645 84.7525 45.1887L81.2559 47.1313C81.707 47.9432 82.4341 48.405 83.1297 48.6521C83.8051 48.8921 84.5509 48.97 85.2842 48.97V44.97ZM84.7407 45.1677C84.7033 45.1023 84.6844 45.0591 84.6759 45.037C84.6675 45.0151 84.6719 45.0207 84.677 45.0512L80.7314 45.7088C80.8207 46.2444 81.0263 46.7298 81.2677 47.1523L84.7407 45.1677ZM84.6973 45.2139C84.6845 45.0598 84.6742 44.7675 84.6742 44.3H80.6742C80.6742 44.7925 80.684 45.2202 80.7111 45.5461L84.6973 45.2139ZM84.6742 44.3V27.65H80.6742V44.3H84.6742ZM84.6742 27.65C84.6742 27.2005 84.6847 26.936 84.696 26.8111L80.7124 26.4489C80.6838 26.764 80.6742 27.1795 80.6742 27.65H84.6742ZM84.677 26.9588C84.6728 26.9837 84.6709 26.9794 84.6847 26.9421C84.6984 26.9052 84.724 26.8454 84.7689 26.7612L81.2395 24.8788C81.0148 25.3002 80.8182 25.7808 80.7314 26.3012L84.677 26.9588ZM84.7366 26.8194C84.5644 27.1179 84.3484 27.1651 84.4467 27.1324C84.5545 27.0964 84.8274 27.04 85.3442 27.04V23.04C84.6011 23.04 83.8539 23.1136 83.1818 23.3376C82.5001 23.5649 81.744 24.0021 81.2718 24.8206L84.7366 26.8194ZM85.3442 27.04C85.7222 27.04 85.9343 27.0904 86.0328 27.1267L87.4156 23.3733C86.7541 23.1296 86.0462 23.04 85.3442 23.04V27.04ZM86.1495 27.1657C86.2827 27.2056 86.3312 27.2296 86.3248 27.2264C86.3193 27.2236 86.2833 27.2055 86.2296 27.1672C86.1773 27.1301 86.0855 27.058 85.9857 26.9416L89.0227 24.3384C88.7183 23.9832 88.36 23.7718 88.1136 23.6486C87.8472 23.5154 87.5657 23.4144 87.2989 23.3343L86.1495 27.1657ZM86.09 27.0542L86.27 27.2342L89.0984 24.4058L88.9184 24.2258L86.09 27.0542ZM86.0932 27.0319L92.9032 35.9719L96.0852 33.5481L89.2752 24.6081L86.0932 27.0319ZM96.09 35.9657C99.4925 31.4623 101.749 28.5106 102.872 27.0914L99.7361 24.6086C98.5797 26.0694 96.296 29.0577 92.8985 33.5543L96.09 35.9657ZM102.997 26.9156C102.852 27.1451 102.693 27.1732 102.799 27.1375C102.918 27.0973 103.195 27.04 103.704 27.04V23.04C102.387 23.04 100.56 23.2786 99.6118 24.7844L102.997 26.9156ZM103.704 27.04C103.956 27.04 104.156 27.0534 104.311 27.0737C104.467 27.0941 104.556 27.1189 104.595 27.1325C104.677 27.1608 104.438 27.0975 104.269 26.7706L107.82 24.9294C107.37 24.0625 106.602 23.5942 105.903 23.3525C105.22 23.1161 104.458 23.04 103.704 23.04V27.04ZM120.986 35.96L119.608 34.51L118.09 35.9518L119.6 37.4022L120.986 35.96ZM127.496 42.59L125.983 43.8983L125.993 43.9098L126.003 43.9212L127.496 42.59ZM127.286 46.28L128.581 47.8039L128.592 47.7946L128.603 47.7852L127.286 46.28ZM123.476 46.04L124.994 44.7384L124.987 44.73L124.98 44.7217L123.476 46.04ZM116.876 38.51L118.38 37.1917L114.876 33.1939V38.51H116.876ZM116.816 45.41L114.848 45.0522L114.832 45.14L114.824 45.2289L116.816 45.41ZM116.546 46.19L114.781 45.2488L114.775 45.2591L114.77 45.2694L116.546 46.19ZM111.746 45.86L113.653 45.2577L113.637 45.2073L113.618 45.1578L111.746 45.86ZM111.596 26.63L109.623 26.3012L109.611 26.3747L109.604 26.4489L111.596 26.63ZM111.896 25.82L113.66 26.7612L113.666 26.7509L113.671 26.7406L111.896 25.82ZM116.726 26.12L118.644 25.5557L118.63 25.5059L118.613 25.457L116.726 26.12ZM116.876 33.41H114.876V38.6704L118.37 34.7387L116.876 33.41ZM123.476 25.88L124.994 27.1816L124.997 27.1785L123.476 25.88ZM127.286 25.7L125.969 27.2052L125.979 27.2146L125.99 27.2239L127.286 25.7ZM127.586 29.3L129.098 30.609L129.104 30.6016L127.586 29.3ZM122.186 34.82L123.563 36.27L123.57 36.2635L122.186 34.82ZM119.6 37.4022C122.654 40.3369 124.767 42.4929 125.983 43.8983L129.008 41.2817C127.664 39.7271 125.437 37.4631 122.371 34.5178L119.6 37.4022ZM126.003 43.9212C126.263 44.2129 126.401 44.4203 126.466 44.5455C126.534 44.6743 126.486 44.64 126.486 44.48H130.486C130.486 43.1844 129.716 42.0746 128.988 41.2588L126.003 43.9212ZM126.486 44.48C126.486 44.1964 126.595 44.0857 126.522 44.1956C126.454 44.2975 126.292 44.4915 125.969 44.7748L128.603 47.7852C129.079 47.3685 129.518 46.9125 129.85 46.4144C130.176 45.9243 130.486 45.2636 130.486 44.48H126.486ZM125.99 44.7561C125.663 45.0344 125.426 45.1891 125.275 45.2671C125.115 45.3495 125.14 45.3 125.306 45.3V49.3C126.591 49.3 127.731 48.5266 128.581 47.8039L125.99 44.7561ZM125.306 45.3C125.613 45.3 125.731 45.4226 125.607 45.3377C125.496 45.2613 125.291 45.0849 124.994 44.7384L121.957 47.3416C122.38 47.8351 122.84 48.2887 123.339 48.6323C123.826 48.9674 124.499 49.3 125.306 49.3V45.3ZM124.98 44.7217L118.38 37.1917L115.372 39.8283L121.972 47.3583L124.98 44.7217ZM114.876 38.51V44.36H118.876V38.51H114.876ZM114.876 44.36C114.876 44.5747 114.871 44.7423 114.864 44.8684C114.856 45.0019 114.847 45.0546 114.848 45.0522L118.783 45.7678C118.858 45.359 118.876 44.856 118.876 44.36H114.876ZM114.824 45.2289C114.828 45.1851 114.834 45.1535 114.838 45.1357C114.842 45.118 114.845 45.111 114.843 45.1158C114.842 45.1204 114.837 45.1341 114.826 45.1572C114.816 45.1802 114.801 45.2107 114.781 45.2488L118.31 47.1312C118.535 46.7095 118.754 46.181 118.807 45.5911L114.824 45.2289ZM114.77 45.2694C114.94 44.9425 115.178 44.8792 115.096 44.9075C115.057 44.9211 114.968 44.9459 114.812 44.9663C114.658 44.9866 114.458 45 114.206 45V49C114.96 49 115.722 48.9239 116.405 48.6875C117.103 48.4458 117.872 47.9775 118.321 47.1106L114.77 45.2694ZM114.206 45C113.943 45 113.745 44.9819 113.602 44.9574C113.458 44.9327 113.393 44.9056 113.382 44.9004C113.374 44.8971 113.429 44.9214 113.499 44.9969C113.573 45.0769 113.626 45.1718 113.653 45.2577L109.838 46.4623C110.511 48.5916 112.674 49 114.206 49V45ZM113.618 45.1578C113.636 45.2039 113.616 45.1702 113.597 45.0038C113.579 44.8484 113.566 44.6278 113.566 44.33H109.566C109.566 45.0722 109.62 45.8869 109.873 46.5622L113.618 45.1578ZM113.566 44.33V27.65H109.566V44.33H113.566ZM113.566 27.65C113.566 27.2005 113.576 26.936 113.587 26.8111L109.604 26.4489C109.575 26.764 109.566 27.1795 109.566 27.65H113.566ZM113.568 26.9588C113.564 26.9837 113.562 26.9794 113.576 26.9421C113.59 26.9052 113.615 26.8454 113.66 26.7612L110.131 24.8788C109.906 25.3002 109.71 25.7808 109.623 26.3012L113.568 26.9588ZM113.671 26.7406C113.502 27.0675 113.263 27.1308 113.345 27.1025C113.384 27.0889 113.473 27.0641 113.629 27.0437C113.784 27.0234 113.983 27.01 114.236 27.01V23.01C113.482 23.01 112.72 23.0861 112.036 23.3225C111.338 23.5642 110.57 24.0325 110.12 24.8994L113.671 26.7406ZM114.236 27.01C114.501 27.01 114.703 27.0277 114.851 27.0524C115.001 27.0773 115.074 27.1054 115.094 27.1142C115.11 27.1215 115.063 27.1033 114.997 27.0357C114.926 26.9632 114.87 26.8724 114.839 26.783L118.613 25.457C117.889 23.3964 115.755 23.01 114.236 23.01V27.01ZM114.807 26.6843C114.806 26.6825 114.812 26.7031 114.821 26.7524C114.829 26.8008 114.839 26.8679 114.847 26.9564C114.865 27.1356 114.876 27.374 114.876 27.68H118.876C118.876 26.9368 118.828 26.1808 118.644 25.5557L114.807 26.6843ZM114.876 27.68V33.41H118.876V27.68H114.876ZM118.37 34.7387C121.094 31.6743 123.303 29.1544 124.994 27.1816L121.957 24.5784C120.288 26.5256 118.097 29.0257 115.381 32.0813L118.37 34.7387ZM124.997 27.1785C125.278 26.8488 125.472 26.6857 125.574 26.6174C125.68 26.5461 125.576 26.65 125.306 26.65V22.65C124.515 22.65 123.846 22.9589 123.342 23.2976C122.834 23.6393 122.373 24.0912 121.954 24.5815L124.997 27.1785ZM125.306 26.65C125.128 26.65 125.094 26.595 125.254 26.6794C125.403 26.7589 125.64 26.9178 125.969 27.2052L128.603 24.1948C127.759 23.4566 126.612 22.65 125.306 22.65V26.65ZM125.99 27.2239C126.307 27.4931 126.46 27.6769 126.522 27.7694C126.584 27.8637 126.486 27.7603 126.486 27.5H130.486C130.486 26.7197 130.187 26.0563 129.85 25.5506C129.511 25.0431 129.064 24.5869 128.581 24.1761L125.99 27.2239ZM126.486 27.5C126.486 27.3521 126.528 27.3178 126.472 27.4306C126.416 27.5414 126.297 27.7299 126.067 27.9984L129.104 30.6016C129.783 29.8095 130.486 28.7418 130.486 27.5H126.486ZM126.074 27.991C124.975 29.2595 123.229 31.0484 120.801 33.3765L123.57 36.2635C126.022 33.9116 127.876 32.0205 129.098 30.609L126.074 27.991ZM120.808 33.37L119.608 34.51L122.363 37.41L123.563 36.27L120.808 33.37Z" fill="#101E60" mask="url(#path-2-outside-1_104_110)"/>
</svg>
