<svg width="65" height="46" viewBox="0 0 65 46" fill="none" xmlns="http://www.w3.org/2000/svg">
<path d="M0 3.27053C0 2.40313 0.34241 1.57126 0.951903 0.957917C1.5614 0.344573 2.38805 0 3.25 0H61.75C62.612 0 63.4386 0.344573 64.0481 0.957917C64.6576 1.57126 65 2.40313 65 3.27053C65 4.13793 64.6576 4.9698 64.0481 5.58314C63.4386 6.19649 62.612 6.54106 61.75 6.54106H3.25C2.38805 6.54106 1.5614 6.19649 0.951903 5.58314C0.34241 4.9698 0 4.13793 0 3.27053ZM0 22.9984C0 22.131 0.34241 21.2991 0.951903 20.6857C1.5614 20.0724 2.38805 19.7278 3.25 19.7278H61.75C62.612 19.7278 63.4386 20.0724 64.0481 20.6857C64.6576 21.2991 65 22.131 65 22.9984C65 23.8658 64.6576 24.6976 64.0481 25.311C63.4386 25.9243 62.612 26.2689 61.75 26.2689H3.25C2.38805 26.2689 1.5614 25.9243 0.951903 25.311C0.34241 24.6976 0 23.8658 0 22.9984ZM3.25 39.4589C2.38805 39.4589 1.5614 39.8035 0.951903 40.4169C0.34241 41.0302 0 41.8621 0 42.7295C0 43.5969 0.34241 44.4287 0.951903 45.0421C1.5614 45.6554 2.38805 46 3.25 46H61.75C62.612 46 63.4386 45.6554 64.0481 45.0421C64.6576 44.4287 65 43.5969 65 42.7295C65 41.8621 64.6576 41.0302 64.0481 40.4169C63.4386 39.8035 62.612 39.4589 61.75 39.4589H3.25Z" fill="#FF48B0"/>
</svg>
