<svg width="51" height="54" viewBox="0 0 51 54" fill="none" xmlns="http://www.w3.org/2000/svg">
<path d="M44.1053 20.4209H7.26316C4.3564 20.4209 2 22.7773 2 25.6841V46.7367C2 49.6434 4.3564 51.9998 7.26316 51.9998H44.1053C47.012 51.9998 49.3684 49.6434 49.3684 46.7367V25.6841C49.3684 22.7773 47.012 20.4209 44.1053 20.4209Z" stroke="#101E60" stroke-width="3" stroke-linecap="round" stroke-linejoin="round"/>
<path d="M9.89453 9.89474C9.89453 7.80092 10.7263 5.79287 12.2068 4.31232C13.6874 2.83176 15.6955 2 17.7893 2H33.5787C35.6726 2 37.6806 2.83176 39.1612 4.31232C40.6417 5.79287 41.4735 7.80092 41.4735 9.89474V15.1579V20.4211H9.89453V9.89474Z" stroke="#101E60" stroke-width="3" stroke-linecap="round" stroke-linejoin="round"/>
<circle cx="26" cy="36" r="4" fill="#101E60"/>
<path d="M23.9936 42.6702C23.9338 39.0596 23.4669 39.4338 23 38.5H29C28.537 39.4259 28.0741 39.4678 28.008 42.6691C27.9971 43.1994 27.8064 43.7405 27.3518 44.0139C26.348 44.6176 25.3549 44.3868 24.6611 43.9949C24.1992 43.7341 24.0024 43.2006 23.9936 42.6702Z" fill="#101E60"/>
</svg>
