<svg width="77" height="77" viewBox="0 0 77 77" fill="none" xmlns="http://www.w3.org/2000/svg">
<path d="M53 34H25C22.7909 34 21 35.7909 21 38V54C21 56.2091 22.7909 58 25 58H53C55.2091 58 57 56.2091 57 54V38C57 35.7909 55.2091 34 53 34Z" stroke="#101E60" stroke-width="4" stroke-linecap="round" stroke-linejoin="round"/>
<path d="M27 26C27 24.4087 27.6321 22.8826 28.7574 21.7574C29.8826 20.6321 31.4087 20 33 20H45C46.5913 20 48.1174 20.6321 49.2426 21.7574C50.3679 22.8826 51 24.4087 51 26V30V34H27V26Z" stroke="#101E60" stroke-width="4" stroke-linecap="round" stroke-linejoin="round"/>
<ellipse cx="39.2397" cy="45.8398" rx="3.04" ry="3.04" fill="#101E60"/>
<path d="M37.7111 50.7107C37.652 48.1791 37.306 48.4323 36.96 47.7402H41.52C41.1779 48.4243 40.8359 48.4735 40.771 50.7107C40.7556 51.2409 40.5708 51.7957 40.0926 52.0251C39.4718 52.323 38.8676 52.2242 38.3993 52.0072C37.918 51.7842 37.7235 51.241 37.7111 50.7107Z" fill="#101E60"/>
<circle cx="38.5" cy="38.5" r="36.5" stroke="#101E60" stroke-width="4"/>
</svg>
