<svg width="313" height="644" viewBox="0 0 313 644" fill="none" xmlns="http://www.w3.org/2000/svg">
<g clip-path="url(#clip0_145_186)">
<path d="M275.52 403.794C270.574 395.015 259.039 384.021 255.954 383L272.214 357.902C276.024 352.021 280.811 346.376 287.475 344.212C298.774 340.543 303.775 347.557 304.784 355.454C305.65 362.238 301.865 368.481 297.776 373.962L275.52 403.794Z" fill="#BBF7FF" stroke="black" stroke-width="5"/>
<path d="M294.438 222.159C293.249 305.529 266.709 358.95 250.371 378.534C270.913 386.919 275.093 400.552 275.576 408.798C275.848 413.457 275.1 418.222 273.75 422.688C270.476 433.514 259.376 458.744 221.878 509.593C175.922 571.913 132.374 615.987 104.398 628.078C40.1773 650.678 13.3139 624.266 7.87758 610.372C-5.32509 581.784 15.715 534.982 29.5433 513.548C45.4756 486.632 75.1689 445.396 90.7747 427.755C111.765 401.748 136.961 379.569 148.619 372.059C112.772 271.972 142.881 175.687 155.771 137.283C175.827 77.5293 211.194 73.5966 232.319 73.8978C291.541 69.7184 295.889 120.441 295.567 143.045L294.438 222.159Z" fill="#FF48B0"/>
<path d="M250.371 378.534C266.709 358.95 293.249 305.529 294.438 222.159C294.707 203.322 295.309 161.128 295.567 143.045C295.889 120.441 291.541 69.7184 232.319 73.8978C211.194 73.5966 175.827 77.5293 155.771 137.283C142.881 175.687 112.772 271.972 148.619 372.059M250.371 378.534C270.913 386.919 275.093 400.552 275.576 408.798C275.848 413.457 275.1 418.222 273.75 422.688C270.476 433.514 259.376 458.744 221.878 509.593C175.922 571.913 132.374 615.987 104.398 628.078C40.1773 650.678 13.3139 624.266 7.87758 610.372M250.371 378.534C217.316 349.536 168.763 362.135 148.619 372.059M250.371 378.534C255.185 394.56 254.965 435.499 215.579 471.055M148.619 372.059C136.961 379.569 111.765 401.748 90.7747 427.755C75.1689 445.396 45.4756 486.632 29.5433 513.548C15.715 534.982 -5.32509 581.784 7.87758 610.372M7.87758 610.372C26.708 634.157 81.4562 624.82 123.699 578.53" stroke="black" stroke-width="5" stroke-linecap="round"/>
<path d="M218.885 417.091C222.404 425.631 219.489 430.941 215.371 433.948C211.255 436.954 205.837 435.058 201.471 432.428C192.034 426.742 181.004 423.614 170.215 422.098C154.126 419.837 152.099 418.232 130.921 421.635C120.852 423.254 110.218 421.34 121.37 409.776C132.523 398.212 145.349 395.65 160.479 393.65C171.91 392.138 174.053 392.261 181.189 393.457C197.774 396.237 214.03 405.313 218.885 417.091Z" fill="#BA1774"/>
<path d="M192.793 471.141C195.496 474.76 194.491 480.131 183.23 487.341C170.362 495.579 149.888 494.886 132.877 491.871C124.18 490.33 116.388 488.181 110.982 486.31C101.731 483.108 92.1069 470.466 93.6305 458.43C94.4578 451.894 97.3407 449.206 100.452 448.437C105.259 447.248 109.5 451.219 113.678 453.877C119.883 457.824 129.115 462.116 140.87 464.796C150.059 466.891 160.79 468.001 172.822 467.192C179.925 466.714 188.532 465.436 192.793 471.141Z" fill="#BA1774"/>
<path d="M170.215 422.098C154.126 419.837 152.099 418.232 130.921 421.635C120.852 423.254 110.218 421.34 121.37 409.776C132.523 398.212 145.349 395.65 160.479 393.65C171.91 392.138 174.053 392.261 181.189 393.457M170.215 422.098C181.004 423.614 192.034 426.742 201.471 432.428C205.837 435.058 211.255 436.954 215.371 433.948C219.489 430.941 222.404 425.631 218.885 417.091C214.03 405.313 197.774 396.237 181.189 393.457M170.215 422.098C170.041 414.566 171.991 398.294 181.189 393.457M140.87 464.796C129.115 462.115 119.883 457.823 113.678 453.876C109.5 451.218 105.259 447.247 100.452 448.436C97.3406 449.205 94.4578 451.893 93.6304 458.429C92.1068 470.466 101.731 483.107 110.982 486.31C116.388 488.18 124.18 490.329 132.877 491.87M140.87 464.796C150.059 466.89 160.79 468 172.822 467.191C179.925 466.713 188.532 465.435 192.793 471.14C195.495 474.759 194.49 480.13 183.23 487.34C170.362 495.578 149.888 494.885 132.877 491.87M140.87 464.796C137.271 470.253 130.633 483.309 132.877 491.87" stroke="black" stroke-width="5"/>
<path d="M154.289 294.336C152.642 261.655 160.473 196.593 166.655 168.071C168.645 158.889 171.631 145.115 189.858 141.188C204.671 139.585 238.846 137.533 257.036 142.146C268.405 145.03 272.96 151.585 272.829 160.794C272.232 202.653 265.408 246.517 262.362 272.431C260.839 285.389 258.411 312.4 244.853 314.887C231.294 317.373 194.7 315.287 178.097 313.934C156.148 312.145 154.775 303.972 154.289 294.336Z" fill="#EFFDFF" stroke="black" stroke-width="5"/>
<path d="M208.486 109.216C201.069 107.771 201.018 99.4803 208.665 96.6586C215.165 95.2156 231.11 93.2944 242.888 97.1467C254.665 100.999 249.915 108.133 242.708 109.705C234.391 110.144 215.903 110.662 208.486 109.216Z" fill="#BBF7FF" stroke="black" stroke-width="5"/>
<path d="M149.205 371.3C168.883 354.555 216.616 332.32 250.119 377.345C236.472 366.265 197.184 349.544 149.205 371.3Z" fill="#BBF7FF" stroke="black" stroke-width="5"/>
<path d="M49.4335 507.186C56.9938 498.586 68.703 499.366 73.6117 500.832C75.6295 501.218 78.8134 501.894 82.8806 502.855C90.5903 504.676 101.475 507.512 113.609 511.301C115.133 511.777 116.677 512.268 118.236 512.773C138.764 519.43 138.996 528.84 136.546 532.712C135.235 535.777 133.127 539.942 130.242 544.764C126.982 550.212 122.731 556.498 117.52 562.978C113.315 568.207 108.486 573.563 103.048 578.707C97.975 583.509 92.3717 588.125 86.2534 592.284C80.3279 596.312 74.6176 599.277 69.2197 601.405C61.3999 604.486 54.2356 605.809 48.0232 606.057C38.2638 606.446 30.8568 604.18 26.9532 601.905C24.5545 600.819 22.6805 599.215 21.2499 597.219C18.0874 592.807 17.0861 586.48 17.3637 579.579C17.5439 575.101 18.2625 570.382 19.279 565.79C20.6998 559.373 22.7014 553.203 24.6258 548.281C24.9681 547.408 25.3073 546.574 25.6408 545.784C27.4901 542.194 30.3374 536.893 33.5713 531.243C37.4577 524.457 41.9012 517.168 45.8435 511.74C47.103 510.007 48.3112 508.463 49.4335 507.186Z" fill="#BBF7FF"/>
<path d="M86.2534 592.284C92.3717 588.125 97.975 583.509 103.048 578.707M86.2534 592.284C75.9231 581.754 37.2995 570.233 19.279 565.79M86.2534 592.284C80.3279 596.312 74.6176 599.277 69.2197 601.405M103.048 578.707C108.486 573.563 113.315 568.207 117.52 562.978M103.048 578.707C90.4588 567.475 45.5215 553.743 24.6258 548.281M19.279 565.79C20.6998 559.373 22.7014 553.203 24.6258 548.281M19.279 565.79C18.2625 570.382 17.5439 575.101 17.3637 579.579M69.2197 601.405C46.7424 586.755 26.9921 580.516 17.3637 579.579M69.2197 601.405C61.3999 604.486 54.2356 605.809 48.0232 606.057M45.8435 511.74C47.103 510.007 48.3112 508.463 49.4335 507.186C56.9938 498.586 68.703 499.366 73.6117 500.832C75.6295 501.218 78.8134 501.894 82.8806 502.855M45.8435 511.74C74.4846 521.918 131.462 542.772 130.242 544.764M45.8435 511.74C41.9012 517.168 37.4577 524.457 33.5713 531.243M82.8806 502.855C90.5903 504.676 101.475 507.512 113.609 511.301M82.8806 502.855L21.2499 597.219M130.242 544.764C133.127 539.942 135.235 535.777 136.546 532.712C138.996 528.84 138.764 519.43 118.236 512.773C116.677 512.268 115.133 511.777 113.609 511.301M130.242 544.764C126.982 550.212 122.731 556.498 117.52 562.978M33.5713 531.243C30.3374 536.893 27.4902 542.194 25.6408 545.784C25.3073 546.574 24.9681 547.408 24.6258 548.281M33.5713 531.243C57.4656 537.289 107.706 552.098 117.52 562.978M113.609 511.301L80.8161 558.679L48.0232 606.057M17.3637 579.579C17.0861 586.48 18.0874 592.808 21.2499 597.219M21.2499 597.219C22.6805 599.215 24.5545 600.819 26.9532 601.905C30.8568 604.18 38.2638 606.446 48.0232 606.057" stroke="black" stroke-width="5"/>
<path d="M172.616 446.268C172.135 449.477 169.955 452.282 166.52 454.154C163.084 456.026 158.499 456.884 153.597 456.161C148.695 455.439 144.561 453.296 141.822 450.513C139.084 447.731 137.822 444.418 138.303 441.209C138.784 438 140.964 435.195 144.4 433.323C147.836 431.451 152.42 430.593 157.322 431.316C162.224 432.038 166.359 434.181 169.097 436.964C171.835 439.746 173.097 443.059 172.616 446.268Z" fill="#BA1774" stroke="black" stroke-width="5"/>
<path d="M238.112 211.796C199.264 257.129 188.079 272.907 187.343 275.129" stroke="black" stroke-width="5" stroke-linecap="round"/>
<path d="M218.892 196.449L190.143 227.021" stroke="black" stroke-width="5" stroke-linecap="round"/>
<path d="M131.921 72.1177C136.724 61.3006 152.487 40.5078 177.119 43.8736" stroke="black" stroke-width="5" stroke-linecap="round"/>
<path d="M99.2641 50.7176C106.509 36.5858 129.374 7.77201 162.874 5.57031" stroke="black" stroke-width="5" stroke-linecap="round"/>
</g>
<defs>
<clipPath id="clip0_145_186">
<rect width="303" height="638" fill="white" transform="matrix(-0.999898 -0.0142622 -0.0142622 0.999898 312.534 5.19336)"/>
</clipPath>
</defs>
</svg>
