<svg width="481" height="638" viewBox="0 0 481 638" fill="none" xmlns="http://www.w3.org/2000/svg">
<g clip-path="url(#clip0_145_186)">
<path d="M117.326 238.912C122.396 247.62 134.087 258.448 137.185 259.425L121.286 284.752C117.56 290.687 112.854 296.4 106.222 298.659C94.9753 302.488 89.8748 295.547 88.754 287.664C87.7913 280.893 91.4867 274.597 95.4971 269.059L117.326 238.912Z" fill="#BBF7FF" stroke="black" stroke-width="5"/>
<path d="M100.999 420.799C100.999 337.42 126.774 283.626 142.831 263.811C122.172 255.72 117.798 242.148 117.198 233.909C116.859 229.255 117.539 224.48 118.826 219.995C121.945 209.124 132.684 183.738 169.452 132.359C214.515 69.3899 257.43 24.6998 285.23 12.211C349.122 -11.3029 376.36 14.7228 381.994 28.5378C395.603 56.9347 375.232 104.032 361.711 125.661C346.164 152.802 317.062 194.457 301.71 212.319C281.092 238.622 256.215 261.159 244.665 268.834C281.937 368.399 253.204 465.104 240.863 503.689C221.661 563.722 186.354 568.159 165.226 568.159C106.07 573.182 100.999 522.527 100.999 499.921V420.799Z" fill="#FF48B0"/>
<path d="M142.831 263.811C126.774 283.626 100.999 337.42 100.999 420.799C100.999 439.638 100.999 481.836 100.999 499.921C100.999 522.527 106.07 573.182 165.226 568.159C186.354 568.159 221.661 563.722 240.863 503.689C253.204 465.104 281.937 368.399 244.665 268.834M142.831 263.811C122.172 255.72 117.798 242.148 117.198 233.909C116.859 229.255 117.539 224.48 118.826 219.995C121.945 209.124 132.684 183.738 169.452 132.359C214.515 69.3899 257.43 24.6998 285.23 12.211C349.122 -11.3029 376.36 14.7228 381.994 28.5378M142.831 263.811C176.297 292.335 224.665 279.045 244.665 268.834M142.831 263.811C137.79 247.856 137.426 206.917 176.3 170.803M244.665 268.834C256.215 261.159 281.092 238.622 301.71 212.319C317.062 194.457 346.164 152.802 361.711 125.661C375.232 104.032 395.603 56.9347 381.994 28.5378M381.994 28.5378C362.826 5.0239 308.217 15.1415 266.638 62.0286" stroke="black" stroke-width="5" stroke-linecap="round"/>
<path d="M173.765 224.808C170.124 216.32 172.963 210.969 177.038 207.903C181.111 204.838 186.555 206.657 190.958 209.225C200.475 214.775 211.549 217.746 222.358 219.108C238.478 221.139 240.528 222.715 261.655 219.01C271.7 217.248 282.36 219.01 271.374 230.732C260.387 242.454 247.599 245.198 232.499 247.414C221.091 249.089 218.946 248.997 211.794 247.903C195.171 245.359 178.787 236.516 173.765 224.808Z" fill="#BA1774"/>
<path d="M199.083 170.393C196.329 166.813 197.258 161.428 208.414 154.058C221.164 145.638 241.645 146.039 258.697 148.81C267.416 150.228 275.237 152.265 280.67 154.058C289.966 157.128 299.769 169.631 298.417 181.688C297.683 188.235 294.839 190.964 291.738 191.778C286.949 193.035 282.652 189.125 278.437 186.527C272.176 182.668 262.883 178.509 251.091 175.996C241.873 174.033 231.128 173.076 219.109 174.056C212.013 174.636 203.425 176.036 199.083 170.393Z" fill="#BA1774"/>
<path d="M222.358 219.108C238.478 221.139 240.528 222.715 261.655 219.01C271.7 217.248 282.36 219.01 271.374 230.732C260.387 242.454 247.599 245.198 232.499 247.414C221.091 249.089 218.946 248.997 211.794 247.903M222.358 219.108C211.549 217.746 200.475 214.775 190.958 209.225C186.555 206.657 181.111 204.838 177.038 207.903C172.963 210.969 170.124 216.32 173.765 224.808C178.787 236.516 195.171 245.359 211.794 247.903M222.358 219.108C222.64 226.637 220.922 242.935 211.794 247.903M251.091 175.996C262.883 178.509 272.176 182.668 278.436 186.526C282.652 189.124 286.949 193.035 291.738 191.778C294.839 190.964 297.683 188.235 298.417 181.688C299.769 169.631 289.966 157.128 280.67 154.058C275.237 152.264 267.415 150.227 258.697 148.81M251.091 175.996C241.873 174.033 231.127 173.076 219.109 174.056C212.013 174.636 203.425 176.036 199.083 170.393C196.329 166.813 197.258 161.428 208.414 154.058C221.164 145.638 241.645 146.039 258.697 148.81M251.091 175.996C254.612 170.488 261.063 157.338 258.697 148.81" stroke="black" stroke-width="5"/>
<path d="M240.105 346.63C242.218 379.283 235.316 444.451 229.541 473.058C227.682 482.267 224.893 496.082 206.724 500.269C191.935 502.083 157.793 504.623 139.539 500.269C128.13 497.548 123.482 491.059 123.482 481.849C123.482 439.985 129.679 396.029 132.355 370.073C133.693 357.096 135.736 330.052 149.257 327.372C162.779 324.693 199.4 326.256 216.02 327.372C237.993 328.849 239.482 337.001 240.105 346.63Z" fill="#EFFDFF" stroke="black" stroke-width="5"/>
<path d="M188.554 532.504C195.991 533.844 196.16 542.133 188.554 545.063C182.075 546.599 166.159 548.747 154.328 545.063C142.496 541.379 147.144 534.179 154.328 532.504C162.638 531.947 181.117 531.165 188.554 532.504Z" fill="#BBF7FF" stroke="black" stroke-width="5"/>
<path d="M244.09 269.601C224.653 286.626 177.243 309.539 143.101 264.996C156.904 275.881 196.426 292.039 244.09 269.601Z" fill="#BBF7FF" stroke="black" stroke-width="5"/>
<path d="M341.914 132.306C334.477 141.014 322.758 140.4 317.829 139.004C315.806 138.648 312.613 138.016 308.532 137.114C300.797 135.403 289.873 132.722 277.686 129.107C276.156 128.653 274.605 128.184 273.038 127.701C252.418 121.338 252.052 111.932 254.447 108.025C255.713 104.942 257.762 100.747 260.578 95.8849C263.759 90.3907 267.921 84.045 273.038 77.4909C277.168 72.2027 281.921 66.778 287.285 61.5568C292.289 56.6839 297.826 51.9876 303.884 47.7418C309.752 43.63 315.419 40.584 320.786 38.3795C328.561 35.1869 335.706 33.7619 341.914 33.4253C351.667 32.897 359.106 35.0572 363.041 37.2759C365.455 38.3275 367.352 39.905 368.811 41.8809C372.036 46.2464 373.127 52.5595 372.948 59.4636C372.832 63.943 372.181 68.6719 371.23 73.2786C369.901 79.7147 367.987 85.913 366.133 90.8612C365.803 91.7395 365.476 92.5785 365.154 93.373C363.356 96.9892 360.585 102.33 357.432 108.025C353.642 114.867 349.303 122.218 345.439 127.701C344.204 129.453 343.018 131.013 341.914 132.306Z" fill="#BBF7FF"/>
<path d="M303.884 47.7418C297.826 51.9876 292.289 56.6838 287.285 61.5568M303.884 47.7418C314.364 58.124 353.148 69.0922 371.23 73.2785M303.884 47.7418C309.752 43.63 315.419 40.584 320.786 38.3794M287.285 61.5568C281.921 66.778 277.168 72.2027 273.038 77.4909M287.285 61.5568C300.033 72.6087 345.162 85.6978 366.133 90.8612M371.23 73.2785C369.901 79.7146 367.987 85.913 366.133 90.8612M371.23 73.2785C372.181 68.6719 372.832 63.943 372.948 59.4636M320.786 38.3794C343.47 52.7068 363.307 58.664 372.948 59.4636M320.786 38.3794C328.561 35.1869 335.706 33.7619 341.914 33.4253M345.439 127.701C344.204 129.453 343.018 131.013 341.914 132.306C334.477 141.014 322.758 140.4 317.829 139.004C315.806 138.648 312.613 138.016 308.532 137.114M345.439 127.701C316.655 117.933 259.387 97.8943 260.578 95.8848M345.439 127.701C349.303 122.218 353.642 114.867 357.432 108.025M308.532 137.114C300.797 135.403 289.873 132.722 277.686 129.107M308.532 137.114L368.811 41.8809M260.578 95.8848C257.762 100.747 255.713 104.942 254.447 108.025C252.052 111.932 252.418 121.338 273.038 127.701C274.605 128.184 276.156 128.653 277.686 129.107M260.578 95.8848C263.759 90.3907 267.921 84.045 273.038 77.4909M357.432 108.025C360.585 102.33 363.356 96.9892 365.154 93.373C365.476 92.5785 365.803 91.7395 366.133 90.8612M357.432 108.025C333.454 102.321 283.007 88.2297 273.038 77.4909M277.686 129.107L309.8 81.2661L341.914 33.4253M372.948 59.4636C373.127 52.5595 372.036 46.2464 368.811 41.8809M368.811 41.8809C367.352 39.905 365.455 38.3275 363.041 37.2759C359.106 35.0572 351.667 32.897 341.914 33.4253" stroke="black" stroke-width="5"/>
<path d="M219.612 194.975C220.048 191.759 222.187 188.923 225.595 187.002C229.004 185.082 233.576 184.158 238.488 184.811C243.4 185.464 247.564 187.548 250.342 190.29C253.12 193.033 254.429 196.328 253.994 199.543C253.558 202.759 251.419 205.595 248.011 207.516C244.601 209.436 240.03 210.36 235.118 209.707C230.206 209.054 226.041 206.97 223.263 204.228C220.486 201.485 219.177 198.19 219.612 194.975Z" fill="#BA1774" stroke="black" stroke-width="5"/>
<path d="M157.467 430.357C195.665 384.475 206.624 368.539 207.328 366.306" stroke="black" stroke-width="5" stroke-linecap="round"/>
<path d="M176.904 445.428L205.215 414.449" stroke="black" stroke-width="5" stroke-linecap="round"/>
<path d="M265.64 568.507C260.992 579.392 245.527 600.407 220.85 597.393" stroke="black" stroke-width="5" stroke-linecap="round"/>
<path d="M298.598 589.438C291.556 603.672 269.104 632.809 235.639 635.488" stroke="black" stroke-width="5" stroke-linecap="round"/>
<path d="M198 33.5C183.722 33.5 177.5 39.5065 177.5 54C177.5 39.5065 171.32 33.5 157 33.5C171.32 33.5 177.5 27.3204 177.5 13C177.5 27.3204 183.722 33.5 198 33.5Z" fill="#7FA6FF" stroke="#101E60" stroke-width="4" stroke-linejoin="round"/>
<path d="M359 414.5C341.24 414.5 333.5 421.972 333.5 440C333.5 421.972 325.813 414.5 308 414.5C325.813 414.5 333.5 406.813 333.5 389C333.5 406.813 341.24 414.5 359 414.5Z" fill="#BBF7FF" stroke="#101E60" stroke-width="3" stroke-linejoin="round"/>
<path d="M334 311.5C316.24 311.5 308.5 318.972 308.5 337C308.5 318.972 300.813 311.5 283 311.5C300.813 311.5 308.5 303.813 308.5 286C308.5 303.813 316.24 311.5 334 311.5Z" stroke="#101E60" stroke-width="4" stroke-linejoin="round"/>
</g>
<path d="M89 187.501C71.2407 187.501 63.5 194.972 63.5 213.001C63.5 194.972 55.8132 187.501 38 187.501C55.8132 187.501 63.5 179.814 63.5 162.001C63.5 179.814 71.2407 187.501 89 187.501Z" stroke="#101E60" stroke-width="4" stroke-linejoin="round"/>
<path d="M89 72.5C74.7229 72.5 68.5 78.5065 68.5 93C68.5 78.5065 62.3204 72.5 48 72.5C62.3204 72.5 68.5 66.3204 68.5 52C68.5 66.3204 74.7229 72.5 89 72.5Z" fill="#FF48B0" stroke="#101E60" stroke-width="4" stroke-linejoin="round"/>
<path d="M423 213.501C408.723 213.501 402.5 219.507 402.5 234.001C402.5 219.507 396.32 213.501 382 213.501C396.32 213.501 402.5 207.321 402.5 193.001C402.5 207.321 408.723 213.501 423 213.501Z" fill="#7FA6FF" stroke="#101E60" stroke-width="4" stroke-linejoin="round"/>
<path d="M53 321.5C35.2407 321.5 27.5 328.972 27.5 347C27.5 328.972 19.8132 321.5 2.00001 321.5C19.8132 321.5 27.5 313.813 27.5 296C27.5 313.813 35.2407 321.5 53 321.5Z" fill="#BBF7FF" stroke="#101E60" stroke-width="4" stroke-linejoin="round"/>
<path d="M479 326.5C464.723 326.5 458.5 332.507 458.5 347C458.5 332.507 452.32 326.5 438 326.5C452.32 326.5 458.5 320.32 458.5 306C458.5 320.32 464.723 326.5 479 326.5Z" fill="#FF48B0" stroke="#101E60" stroke-width="4" stroke-linejoin="round"/>
<path d="M464 97.5C446.241 97.5 438.5 104.972 438.5 123C438.5 104.972 430.813 97.5 413 97.5C430.813 97.5 438.5 89.8132 438.5 72C438.5 89.8132 446.241 97.5 464 97.5Z" stroke="#101E60" stroke-width="4" stroke-linejoin="round"/>
<defs>
<clipPath id="clip0_145_186">
<rect width="303" height="638" fill="white" transform="matrix(1 0 0 -1 85.9995 638)"/>
</clipPath>
</defs>
</svg>
