<svg width="362" height="762" viewBox="0 0 362 762" fill="none" xmlns="http://www.w3.org/2000/svg">
<path d="M37.4258 476.654C43.4837 466.254 57.4505 453.321 61.1526 452.154L42.157 421.904C37.7059 414.816 32.0832 407.993 24.1596 405.295C10.7233 400.721 4.62962 409.012 3.29058 418.426C2.14036 426.513 6.55531 434.033 11.3467 440.648L37.4258 476.654Z" fill="#69D1ED" stroke="black" stroke-width="5"/>
<path d="M17.9201 259.416C17.9201 359 48.7145 423.249 67.8979 446.916C43.2162 456.579 37.99 472.789 37.2733 482.629C36.8685 488.188 37.6803 493.891 39.2179 499.248C42.9445 512.232 55.7745 542.552 99.7022 603.916C153.54 679.124 204.811 732.5 238.025 747.416C314.358 775.5 346.899 744.416 353.63 727.916C369.889 694 345.552 637.749 329.398 611.916C310.824 579.5 276.055 529.749 257.713 508.416C233.081 477 203.36 450.083 189.561 440.916C234.09 322 199.762 206.5 185.018 160.416C162.077 88.7149 119.895 83.4158 94.6537 83.4157C23.9781 77.4157 17.9201 137.916 17.9201 164.916V259.416Z" fill="#FF48B0"/>
<path d="M67.8979 446.916C48.7145 423.249 17.9201 359 17.9201 259.416C17.9201 236.916 17.9201 186.516 17.9201 164.916C17.9201 137.916 23.9781 77.4157 94.6537 83.4157C119.895 83.4158 162.077 88.7149 185.018 160.416C199.762 206.5 234.09 322 189.561 440.916M67.8979 446.916C43.2162 456.579 37.9899 472.789 37.2733 482.629C36.8685 488.188 37.6803 493.891 39.2179 499.248C42.9446 512.232 55.7745 542.552 99.7022 603.916C153.54 679.124 204.811 732.5 238.025 747.416C314.358 775.5 346.899 744.416 353.63 727.916M67.8979 446.916C107.88 412.848 165.666 428.721 189.561 440.916M67.8979 446.916C61.8749 465.972 61.4399 514.867 107.884 558M189.561 440.916C203.36 450.083 233.081 477 257.713 508.416C276.055 529.749 310.824 579.5 329.398 611.916C345.552 637.749 369.889 694 353.63 727.916M353.63 727.916C330.73 756 265.487 743.916 215.812 687.916" stroke="black" stroke-width="5" stroke-linecap="round"/>
<path d="M104.855 493.499C100.505 503.637 103.897 510.028 108.765 513.69C113.631 517.35 120.135 515.178 125.396 512.111C136.766 505.482 149.996 501.934 162.91 500.307C182.169 497.881 184.618 495.999 209.859 500.424C221.86 502.528 234.595 500.424 221.47 486.424C208.344 472.424 193.066 469.146 175.026 466.499C161.396 464.499 158.834 464.609 150.289 465.916C130.429 468.954 110.855 479.516 104.855 493.499Z" fill="#BA1774"/>
<path d="M135.103 558.49C131.813 562.766 132.922 569.198 146.251 578C161.483 588.057 185.953 587.578 206.325 584.268C216.741 582.575 226.086 580.142 232.576 578C243.682 574.333 255.394 559.4 253.779 545C252.902 537.18 249.504 533.921 245.8 532.949C240.078 531.448 234.944 536.118 229.908 539.221C222.428 543.829 211.326 548.797 197.238 551.798C186.225 554.143 173.387 555.286 159.028 554.115C150.551 553.423 140.29 551.75 135.103 558.49Z" fill="#BA1774"/>
<path d="M162.91 500.307C182.169 497.881 184.618 495.999 209.859 500.424C221.86 502.528 234.595 500.424 221.47 486.424C208.344 472.424 193.066 469.146 175.026 466.499C161.396 464.499 158.834 464.609 150.289 465.916M162.91 500.307C149.996 501.934 136.766 505.482 125.396 512.111C120.135 515.178 113.631 517.35 108.765 513.69C103.897 510.028 100.505 503.637 104.855 493.499C110.855 479.516 130.429 468.954 150.289 465.916M162.91 500.307C163.247 491.315 161.194 471.849 150.289 465.916M197.238 551.798C211.326 548.797 222.428 543.829 229.908 539.221C234.944 536.118 240.078 531.448 245.8 532.949C249.504 533.921 252.902 537.18 253.779 545C255.394 559.4 243.682 574.333 232.576 578C226.086 580.142 216.741 582.575 206.325 584.268M197.238 551.798C186.225 554.143 173.387 555.286 159.028 554.115C150.551 553.423 140.29 551.75 135.103 558.49C131.813 562.766 132.922 569.198 146.251 578C161.483 588.057 185.953 587.578 206.325 584.268M197.238 551.798C201.445 558.377 209.152 574.082 206.325 584.268" stroke="black" stroke-width="5"/>
<path d="M184.113 348C186.637 309 178.391 231.167 171.492 197L171.492 197C169.271 186 165.939 169.5 144.232 164.5C126.563 162.333 85.7727 159.3 63.9642 164.5C50.3339 167.75 44.7807 175.5 44.7807 186.5C44.7807 236.5 52.1847 289 55.3819 320C56.9805 335.5 59.4206 367.8 75.5752 371C91.7298 374.2 135.481 372.333 155.338 371C181.589 369.237 183.368 359.5 184.113 348Z" fill="#EFFDFF" stroke="black" stroke-width="5"/>
<path d="M122.524 126C131.409 124.4 131.611 114.5 122.524 111C114.783 109.166 95.7682 106.6 81.6331 111C67.498 115.4 73.051 124 81.6331 126C91.5613 126.666 113.639 127.6 122.524 126Z" fill="#69D1ED" stroke="black" stroke-width="5"/>
<path d="M188.874 440C165.652 419.667 109.01 392.3 68.2201 445.5C84.7111 432.5 131.929 413.201 188.874 440Z" fill="#69D1ED" stroke="black" stroke-width="5"/>
<path d="M305.746 603.979C296.861 593.579 282.86 594.312 276.971 595.979C274.554 596.405 270.739 597.159 265.864 598.237C256.623 600.28 243.572 603.482 229.012 607.8C227.183 608.342 225.331 608.902 223.459 609.479C198.823 617.079 198.386 628.313 201.247 632.979C202.76 636.662 205.208 641.672 208.572 647.479C212.373 654.041 217.345 661.62 223.459 669.448C228.393 675.764 234.071 682.243 240.479 688.479C246.458 694.299 253.073 699.908 260.311 704.979C267.321 709.89 274.092 713.528 280.504 716.161C289.793 719.974 298.329 721.676 305.746 722.078C317.398 722.709 326.285 720.129 330.987 717.479C333.871 716.223 336.137 714.339 337.88 711.979C341.733 706.765 343.037 699.225 342.823 690.979C342.684 685.629 341.906 679.981 340.77 674.479C339.182 666.792 336.896 659.389 334.681 653.479C334.287 652.43 333.896 651.428 333.511 650.479C331.363 646.16 328.052 639.781 324.285 632.979C319.758 624.808 314.574 616.028 309.957 609.479C308.482 607.387 307.065 605.523 305.746 603.979Z" fill="#69D1ED"/>
<path d="M260.311 704.979C253.073 699.908 246.458 694.299 240.479 688.479M260.311 704.979C272.831 692.579 319.167 679.479 340.77 674.479M260.311 704.979C267.321 709.89 274.092 713.528 280.504 716.161M309.957 609.479C308.482 607.387 307.065 605.523 305.746 603.979C296.861 593.579 282.86 594.312 276.971 595.979C274.554 596.405 270.739 597.159 265.864 598.237M309.957 609.479C275.569 621.146 207.149 645.079 208.572 647.479M309.957 609.479C314.574 616.028 319.758 624.808 324.285 632.979M208.572 647.479C205.208 641.672 202.76 636.662 201.247 632.979C198.386 628.313 198.823 617.079 223.459 609.479C225.331 608.902 227.183 608.342 229.012 607.8M208.572 647.479C212.373 654.041 217.345 661.62 223.459 669.448M324.285 632.979C328.052 639.781 331.363 646.16 333.511 650.479C333.896 651.428 334.287 652.43 334.681 653.479M324.285 632.979C295.638 639.792 235.369 656.622 223.459 669.448M223.459 669.448C228.393 675.764 234.071 682.243 240.479 688.479M334.681 653.479C309.626 659.646 255.71 675.279 240.479 688.479M334.681 653.479C336.896 659.389 339.182 666.792 340.77 674.479M340.77 674.479C341.906 679.981 342.684 685.629 342.823 690.979M342.823 690.979C331.305 691.934 307.605 699.049 280.504 716.161M342.823 690.979C343.037 699.225 341.733 706.765 337.88 711.979M280.504 716.161C289.793 719.974 298.329 721.676 305.746 722.078M229.012 607.8C243.572 603.482 256.623 600.28 265.864 598.237M229.012 607.8L267.379 664.939L305.746 722.078M305.746 722.078C317.398 722.709 326.285 720.129 330.987 717.479C333.871 716.223 336.137 714.339 337.88 711.979M265.864 598.237L337.88 711.979" stroke="black" stroke-width="5"/>
<path d="M159.63 529.13C160.15 532.971 162.706 536.358 166.778 538.652C170.851 540.946 176.313 542.049 182.181 541.269C188.05 540.49 193.025 538.001 196.344 534.725C199.662 531.449 201.226 527.514 200.706 523.674C200.186 519.833 197.63 516.446 193.558 514.152C189.485 511.858 184.023 510.755 178.155 511.535C172.287 512.314 167.311 514.803 163.992 518.079C160.674 521.355 159.11 525.29 159.63 529.13Z" fill="#BA1774" stroke="black" stroke-width="5"/>
<path d="M85.3841 248C131.02 302.8 144.112 321.833 144.954 324.5" stroke="black" stroke-width="5" stroke-linecap="round"/>
<path d="M108.606 230L142.429 267" stroke="black" stroke-width="5" stroke-linecap="round"/>
<path d="M214.62 82.9999C209.067 69.9999 190.59 44.8999 161.108 48.4999" stroke="black" stroke-width="5" stroke-linecap="round"/>
<path d="M253.996 58C245.582 41 218.759 6.2 178.777 3" stroke="black" stroke-width="5" stroke-linecap="round"/>
</svg>
