<svg width="143" height="143" viewBox="0 0 143 143" fill="none" xmlns="http://www.w3.org/2000/svg">
<g filter="url(#filter0_biii_69_7768)">
<circle cx="71.5001" cy="68.0589" r="63.5062" fill="url(#paint0_linear_69_7768)"/>
<circle cx="71.5001" cy="68.0589" r="63.5062" fill="url(#paint1_radial_69_7768)" fill-opacity="0.5"/>
<circle cx="71.5001" cy="68.0589" r="63.5062" fill="url(#paint2_radial_69_7768)" fill-opacity="0.5"/>
<circle cx="71.5001" cy="68.0589" r="63.2687" stroke="url(#paint3_linear_69_7768)" stroke-opacity="0.3" stroke-width="0.475083"/>
</g>
<g filter="url(#filter1_f_69_7768)">
<ellipse cx="102.417" cy="32.3295" rx="8.0174" ry="3.79771" transform="rotate(45.2321 102.417 32.3295)" fill="white"/>
</g>
<g filter="url(#filter2_f_69_7768)">
<ellipse cx="43.3194" cy="99.7658" rx="11.1428" ry="5.27816" transform="rotate(35.9982 43.3194 99.7658)" fill="#FDA8FF"/>
</g>
<g filter="url(#filter3_f_69_7768)">
<ellipse cx="37.8633" cy="103.636" rx="3.56329" ry="1.68787" transform="rotate(45.2321 37.8633 103.636)" fill="white"/>
</g>
<circle cx="71.5001" cy="68.0587" r="60.5775" stroke="white" stroke-opacity="0.12" stroke-width="3.32558" style="mix-blend-mode:soft-light"/>
<mask id="mask0_69_7768" style="mask-type:alpha" maskUnits="userSpaceOnUse" x="7" y="4" width="129" height="128">
<circle cx="71.5001" cy="68.0589" r="63.5062" fill="#C4C4C4"/>
</mask>
<g mask="url(#mask0_69_7768)">
<g filter="url(#filter4_f_69_7768)">
<ellipse cx="32.5982" cy="115.798" rx="43.0924" ry="20.4413" transform="rotate(35.388 32.5982 115.798)" fill="#FEC6FF"/>
</g>
<g filter="url(#filter5_f_69_7768)">
<ellipse cx="67.6341" cy="14.2216" rx="23.12" ry="10.9672" transform="rotate(-6.37561 67.6341 14.2216)" fill="white"/>
</g>
<g filter="url(#filter6_f_69_7768)">
<circle cx="79.7635" cy="55.2247" r="10.5492" transform="rotate(29.5819 79.7635 55.2247)" fill="#3C98CC"/>
</g>
<g filter="url(#filter7_f_69_7768)">
<circle cx="102.549" cy="114.3" r="10.5492" transform="rotate(29.5819 102.549 114.3)" fill="#3C98CC"/>
</g>
<g filter="url(#filter8_f_69_7768)">
<ellipse cx="11.5081" cy="30.7897" rx="10.5492" ry="22.7258" transform="rotate(29.5819 11.5081 30.7897)" fill="#3C98CC"/>
</g>
</g>
<path d="M98.2553 62.3159C98.1313 59.5877 98.5034 57.1695 97.2633 55.1233C94.287 50.0388 86.8463 47.0625 71.9649 47.0625V47.4965H71.6549H71.9649V47.0625C57.0835 47.0625 49.2708 50.0388 46.2945 55.1853C45.1164 57.2935 45.2404 59.6497 45.0544 62.3779C44.9304 64.5481 43.9383 66.8424 44.3723 69.3226C44.8684 72.5469 45.0544 75.7712 45.5505 78.7475C45.9225 81.1657 49.2708 83.2119 49.5808 85.5061C50.4489 91.8307 57.0215 94.745 71.9029 94.745V95.241H71.5309H71.9649V94.745C86.8463 94.745 93.1709 91.8307 93.9769 85.5061C94.287 83.1499 97.3873 81.1657 97.7593 78.7475C98.2553 75.7712 98.4414 72.5469 98.9374 69.3226C99.3714 66.8424 98.3794 64.4861 98.2553 62.3159V62.3159Z" fill="#EFCCA3"/>
<path d="M71.717 64.5479C74.3833 64.6099 76.2435 66.284 77.9796 67.8342C80.0258 69.6323 83.4981 70.8724 84.9243 72.4226C86.3504 73.9727 88.2106 75.5229 88.8926 77.9411C89.5747 80.3593 89.7607 83.4596 89.7607 84.2657C89.7607 85.0718 90.1948 84.8858 91.4349 84.2657C94.3492 82.8396 97.5735 78.9952 97.5735 78.9952C97.2014 81.4134 94.0391 83.5836 93.7291 85.8779C92.985 92.2025 86.8465 95.2407 71.655 95.2407H71.593H71.9651" fill="#CCAC8D"/>
<path d="M81.514 59.7121C82.0721 61.6343 84.0563 68.1449 80.2119 65.9747C80.2119 65.9747 81.8241 66.9048 82.8162 70.4391C83.8702 73.9735 86.4125 74.4075 86.4125 74.4075C86.4125 74.4075 90.5669 75.2136 93.6672 72.5473C96.2714 70.3151 96.7054 66.3468 95.5893 63.3085C94.4732 60.3322 92.489 59.4021 89.5748 58.7821C86.6605 58.1 80.832 57.5419 81.514 59.7121V59.7121Z" fill="#CCAC8D"/>
<path d="M88.8925 72.2373C91.9061 72.2373 94.349 69.7943 94.349 66.7807C94.349 63.7672 91.9061 61.3242 88.8925 61.3242C85.879 61.3242 83.436 63.7672 83.436 66.7807C83.436 69.7943 85.879 72.2373 88.8925 72.2373Z" fill="black"/>
<path d="M87.4665 65.7878C88.2541 65.7878 88.8927 65.1493 88.8927 64.3617C88.8927 63.574 88.2541 62.9355 87.4665 62.9355C86.6788 62.9355 86.0403 63.574 86.0403 64.3617C86.0403 65.1493 86.6788 65.7878 87.4665 65.7878Z" fill="white"/>
<path d="M80.5838 66.5322C80.5838 66.5322 85.4823 69.8805 88.1485 73.1668C90.8148 76.4531 90.7528 77.0732 90.7528 77.0732L88.8306 77.9413C88.8306 77.9413 86.1023 72.7948 82.754 70.8726C79.3437 68.9504 78.9717 67.3383 78.9717 67.3383L80.5838 66.5322V66.5322Z" fill="#EFCCA3"/>
<path d="M71.903 64.5479C69.2368 64.6099 67.2526 66.284 65.4544 67.8342C63.4082 69.6323 59.8119 70.8724 58.3858 72.4226C56.9596 73.9727 55.0374 75.5229 54.3554 77.9411C53.6733 80.3593 53.4253 83.4596 53.4253 84.2657C53.4253 85.0718 53.5493 85.1338 51.7511 84.2657C48.8369 82.9016 45.6125 78.9952 45.6125 78.9952C45.9846 81.4134 49.1469 83.5836 49.4569 85.8779C50.325 92.2025 56.4636 95.2407 71.655 95.2407H71.965" fill="#CCAC8D"/>
<path d="M86.2884 75.0267C83.3121 71.3683 78.5376 67.958 71.903 67.958H71.841C65.2064 67.958 60.4319 71.3683 57.4556 75.0267C54.3553 78.809 54.6034 80.2971 54.6034 83.8935C54.6034 96.9147 59.1918 93.1943 62.2301 94.8065C65.3304 96.3566 68.5547 95.8606 71.841 95.8606H71.903C75.2513 95.8606 78.4136 96.2946 81.5139 94.7445C84.5522 93.1943 89.1406 97.0387 89.1406 84.0175C89.2027 80.4212 89.3887 78.809 86.2884 75.0267V75.0267Z" fill="#56332B"/>
<path d="M71.5929 71.1826C71.5929 71.1826 71.1589 77.1973 70.2908 78.3754L71.903 78.0034L71.5929 71.1826Z" fill="#442823"/>
<path d="M72.0271 71.1826C72.0271 71.1826 72.4611 77.1973 73.3292 78.3754L71.717 78.0034L72.0271 71.1826Z" fill="#442823"/>
<path d="M66.8185 69.757C66.1985 68.3308 68.4307 66.0366 71.965 65.9746C75.4994 65.9746 77.7316 68.2688 77.1115 69.757C76.4914 71.2451 74.2592 71.6791 71.965 71.7411C69.7328 71.6791 67.4386 71.2451 66.8185 69.757V69.757Z" fill="#56332B"/>
<path d="M71.9649 71.1825C71.9649 70.9344 74.0731 70.8724 75.1892 70.1284C75.1892 70.1284 72.895 70.8724 72.399 70.5624C71.9029 70.3144 71.7789 69.5703 71.7789 69.5703C71.7789 69.5703 71.5929 70.3144 71.2209 70.5624C70.7868 70.8104 68.1826 70.1284 68.1826 70.1284C68.1826 70.1284 71.6549 70.9964 71.6549 71.1825C71.6549 71.3685 71.5929 71.9885 71.5929 72.4226C71.5929 73.9727 71.5929 77.8171 71.8409 78.1271C72.213 78.6852 72.0889 73.9727 72.0889 72.4226C72.0269 71.9265 72.0269 71.4305 71.9649 71.1825V71.1825Z" fill="black"/>
<path d="M72.0891 79.4911C73.1432 79.4911 75.0033 80.2351 76.6775 81.4132C75.0654 79.6151 73.1432 78.375 72.0891 78.375C70.973 78.375 68.6168 79.7391 66.9426 81.7232C68.6788 80.3591 70.911 79.4911 72.0891 79.4911Z" fill="#7F4A41"/>
<path d="M71.6549 90.4666C69.2987 90.4666 67.0044 89.7225 64.8962 89.1644C64.4622 89.0404 64.0282 89.3505 63.5941 89.2264C59.6877 87.9863 56.5255 85.8781 54.6033 83.2118V83.8319C54.6033 96.8532 59.1917 93.1948 62.23 94.745C65.3303 96.2951 68.5546 95.7991 71.8409 95.7991H71.9029C75.2512 95.7991 78.4135 96.2331 81.5138 94.683C84.5521 93.1328 89.1405 96.9152 89.1405 83.8939C89.1405 83.3979 89.1405 82.9018 89.2025 82.4678C87.4044 85.3821 84.118 87.6763 80.0257 89.0404C79.6536 89.1644 78.7855 88.8544 78.4135 88.9164C76.1813 89.6605 74.1971 90.4666 71.6549 90.4666V90.4666Z" fill="#442823"/>
<path d="M65.7645 83.46C65.7645 83.46 64.2143 88.1104 65.2684 90.1566L63.8423 89.5366C63.8423 89.5366 64.8964 84.8241 65.7645 83.46V83.46ZM78.0416 83.46C78.0416 83.46 79.5918 88.1104 78.5377 90.1566L79.9638 89.5366C79.9638 89.5366 78.8477 84.8241 78.0416 83.46Z" fill="#442823"/>
<path d="M61.7961 59.7121C61.2381 61.6343 59.2539 68.1449 63.0982 65.9747C63.0982 65.9747 61.4861 66.9048 60.494 70.4391C59.5019 73.9735 56.8977 74.4075 56.8977 74.4075C56.8977 74.4075 52.7433 75.2136 49.643 72.5473C47.0387 70.3151 46.6047 66.3468 47.7208 63.3085C48.8369 60.2702 50.8211 59.4021 53.7354 58.7821C56.6496 58.1 62.4162 57.5419 61.7961 59.7121V59.7121Z" fill="#CCAC8D"/>
<path d="M71.9029 78.3759C73.577 78.3759 78.7855 81.9722 78.8475 86.3746V86.1266C78.8475 81.5382 74.6311 77.8799 71.9029 77.8799C69.1746 77.8799 64.9583 81.6002 64.9583 86.1266V86.3746C65.0203 81.9722 70.2287 78.3759 71.9029 78.3759Z" fill="black"/>
<path d="M73.2567 69.7906C73.522 69.7221 73.6331 69.2635 73.5047 68.7661C73.3764 68.2687 73.0574 67.9209 72.7921 67.9894C72.5268 68.0578 72.4158 68.5165 72.5441 69.0139C72.6724 69.5113 72.9915 69.859 73.2567 69.7906Z" fill="#331712"/>
<path d="M70.0696 69.781C70.3313 69.8622 70.6668 69.5303 70.819 69.0397C70.9712 68.5491 70.8824 68.0856 70.6208 68.0044C70.3591 67.9232 70.0236 68.2551 69.8714 68.7457C69.7192 69.2363 69.8079 69.6998 70.0696 69.781Z" fill="#331712"/>
<path d="M54.7275 72.2373C57.7411 72.2373 60.184 69.7943 60.184 66.7807C60.184 63.7672 57.7411 61.3242 54.7275 61.3242C51.714 61.3242 49.271 63.7672 49.271 66.7807C49.271 69.7943 51.714 72.2373 54.7275 72.2373Z" fill="black"/>
<path d="M56.1534 65.7878C56.941 65.7878 57.5795 65.1493 57.5795 64.3617C57.5795 63.574 56.941 62.9355 56.1534 62.9355C55.3658 62.9355 54.7273 63.574 54.7273 64.3617C54.7273 65.1493 55.3658 65.7878 56.1534 65.7878Z" fill="white"/>
<path d="M73.5153 66.8419C73.5153 66.7799 72.0891 67.4619 71.7171 67.5239C71.3451 67.4619 69.9189 66.7799 69.9189 66.8419H73.5153Z" fill="#7F4A41"/>
<path d="M62.6642 66.5322C62.6642 66.5322 57.7657 69.8805 55.0995 73.1668C52.4332 76.4531 52.4952 77.0732 52.4952 77.0732L54.4174 77.9413C54.4174 77.9413 57.1457 72.7948 60.494 70.8726C63.8423 68.9504 64.2763 67.3383 64.2763 67.3383L62.6642 66.5322Z" fill="#EFCCA3"/>
<path d="M51.9372 56.6116C51.9372 56.6116 50.2631 61.2 46.5427 63.1222C46.5427 63.1222 52.3713 62.4402 51.9372 56.6116ZM91.0629 56.6116C91.0629 56.6116 92.7371 61.2 96.4574 63.1222C96.4574 63.1222 90.6289 62.4402 91.0629 56.6116ZM80.4599 65.1684C80.4599 65.1684 76.8016 61.3241 71.9031 61.2H71.9651H72.0271C67.0667 61.3241 63.4703 65.1684 63.4703 65.1684C67.7487 62.1921 71.4071 62.2541 72.0271 62.2541C71.9651 62.2541 76.1815 62.1921 80.4599 65.1684V65.1684ZM76.1815 57.1077C76.1815 57.1077 74.3213 54.5034 71.8411 54.4414H71.9651C70.1049 54.5034 67.6867 57.1077 67.6867 57.1077C69.7949 55.0615 71.9651 55.1235 71.9651 55.1235C71.9651 55.1235 74.0113 55.0615 76.1815 57.1077ZM54.7275 76.1435C54.7275 76.1435 51.8132 77.5696 49.705 76.7015H49.643C47.7828 75.6474 46.8528 72.4851 46.8528 72.4851C46.8528 72.4851 48.7129 78.0656 54.7275 76.1435V76.1435ZM88.7067 76.1435C88.7067 76.1435 91.621 77.5696 93.7292 76.7015C96.2094 75.6474 96.5814 72.4851 96.5814 72.4851C96.5814 72.4851 94.7213 78.0656 88.7067 76.1435V76.1435Z" fill="#CCAC8D"/>
<path d="M58.0757 56.3015C59.6878 55.9915 62.3541 55.9295 64.4623 56.6116C67.1285 57.5416 64.9583 60.952 65.5164 61.138C66.0744 61.324 66.8185 58.7818 71.779 59.0298C76.8014 59.2778 77.3595 61.51 78.0416 61.138C78.7236 60.7659 77.3595 54.9374 84.8622 56.3015C84.8622 56.3015 76.9875 54.1933 77.3595 59.8979C77.3595 59.8979 72.8331 56.4255 66.5085 59.5258C66.5705 59.5258 68.1826 54.1933 58.0757 56.3015V56.3015ZM85.5443 56.3015C85.6683 56.3015 85.7303 56.3635 85.7923 56.3635C85.8543 56.3635 85.7303 56.3015 85.5443 56.3015ZM55.9055 48.6748C55.9055 48.6748 49.2088 57.1076 48.2167 60.3319C47.2247 63.6182 46.4806 77.0735 45.6125 78.9957L42.5122 65.7264L48.2167 51.8991L55.9055 48.6748V48.6748ZM87.4044 48.6748C87.4044 48.6748 94.1011 57.1076 95.0932 60.3319C96.0853 63.6182 96.8293 77.0735 97.6974 78.9957L100.798 65.7264L95.0932 51.8991L87.4044 48.6748V48.6748Z" fill="#CCAC8D"/>
<path d="M87.0943 48.6748C87.0943 48.6748 94.2871 54.6893 96.3953 61.634C98.5035 68.5786 97.6354 77.0114 99.2475 78.0655C101.542 79.5537 104.146 70.6868 105.014 69.7568C106.378 68.2686 110.905 64.4863 111.215 63.8042C111.525 63.1221 102.038 52.7672 97.8834 50.721C92.8609 48.3647 86.6603 48.1787 87.0943 48.6748V48.6748Z" fill="#56332B"/>
<path d="M93.2329 52.3945C93.2329 52.3945 101.728 63.2455 101.604 76.7628L105.014 69.8181C104.952 69.8181 101.976 60.9513 93.2329 52.3945V52.3945Z" fill="#442823"/>
<path d="M55.9055 48.6748C55.9055 48.6748 48.7128 54.6893 46.6046 61.634C44.4964 68.5786 45.3645 77.0114 43.7524 78.0655C41.4582 79.5537 38.8539 70.6868 37.9858 69.7568C36.6217 68.2686 32.0953 64.4863 31.7853 63.8042C31.4752 63.1221 40.9621 52.7672 45.1165 50.721C50.139 48.3647 56.3396 48.1787 55.9055 48.6748V48.6748Z" fill="#56332B"/>
<path d="M49.767 52.3945C49.767 52.3945 41.2722 63.2455 41.3962 76.7628L38.0479 69.8181C38.0479 69.8181 41.0241 60.9513 49.767 52.3945Z" fill="#442823"/>
<path d="M45.1785 77.0115C45.1785 77.0115 45.7985 80.3598 46.7906 81.4139C47.7827 82.468 47.1006 80.6078 47.1006 80.6078C47.1006 80.6078 46.0465 80.0498 46.2326 75.7713C46.4186 71.4929 45.1785 77.0115 45.1785 77.0115V77.0115ZM98.0694 77.0115C98.0694 77.0115 97.4494 80.3598 96.4573 81.4139C95.4652 82.468 96.1473 80.6078 96.1473 80.6078C96.1473 80.6078 97.2014 80.0498 97.0153 75.7713C96.8293 71.4929 98.0694 77.0115 98.0694 77.0115V77.0115Z" fill="#CCAC8D"/>
<path d="M65.4545 74.9649C65.7285 74.9649 65.9506 74.7427 65.9506 74.4688C65.9506 74.1948 65.7285 73.9727 65.4545 73.9727C65.1806 73.9727 64.9585 74.1948 64.9585 74.4688C64.9585 74.7427 65.1806 74.9649 65.4545 74.9649Z" fill="#442823"/>
<path d="M62.6023 77.9413C62.8762 77.9413 63.0983 77.7192 63.0983 77.4453C63.0983 77.1713 62.8762 76.9492 62.6023 76.9492C62.3283 76.9492 62.1062 77.1713 62.1062 77.4453C62.1062 77.7192 62.3283 77.9413 62.6023 77.9413Z" fill="#442823"/>
<path d="M61.6721 74.9649C61.9461 74.9649 62.1682 74.7427 62.1682 74.4688C62.1682 74.1948 61.9461 73.9727 61.6721 73.9727C61.3981 73.9727 61.176 74.1948 61.176 74.4688C61.176 74.7427 61.3981 74.9649 61.6721 74.9649Z" fill="#442823"/>
<path d="M77.5457 74.9649C77.8196 74.9649 78.0418 74.7427 78.0418 74.4688C78.0418 74.1948 77.8196 73.9727 77.5457 73.9727C77.2717 73.9727 77.0496 74.1948 77.0496 74.4688C77.0496 74.7427 77.2717 74.9649 77.5457 74.9649Z" fill="#442823"/>
<path d="M80.3979 77.9413C80.6718 77.9413 80.8939 77.7192 80.8939 77.4453C80.8939 77.1713 80.6718 76.9492 80.3979 76.9492C80.1239 76.9492 79.9019 77.1713 79.9019 77.4453C79.9019 77.7192 80.1239 77.9413 80.3979 77.9413Z" fill="#442823"/>
<path d="M81.3281 74.9649C81.602 74.9649 81.8241 74.7427 81.8241 74.4688C81.8241 74.1948 81.602 73.9727 81.3281 73.9727C81.0541 73.9727 80.832 74.1948 80.832 74.4688C80.832 74.7427 81.0541 74.9649 81.3281 74.9649Z" fill="#442823"/>
<defs>
<filter id="filter0_biii_69_7768" x="0.86765" y="-2.57351" width="141.265" height="141.265" filterUnits="userSpaceOnUse" color-interpolation-filters="sRGB">
<feFlood flood-opacity="0" result="BackgroundImageFix"/>
<feGaussianBlur in="BackgroundImageFix" stdDeviation="3.56312"/>
<feComposite in2="SourceAlpha" operator="in" result="effect1_backgroundBlur_69_7768"/>
<feBlend mode="normal" in="SourceGraphic" in2="effect1_backgroundBlur_69_7768" result="shape"/>
<feColorMatrix in="SourceAlpha" type="matrix" values="0 0 0 0 0 0 0 0 0 0 0 0 0 0 0 0 0 0 127 0" result="hardAlpha"/>
<feOffset dx="6.17608" dy="3.32558"/>
<feGaussianBlur stdDeviation="5.46346"/>
<feComposite in2="hardAlpha" operator="arithmetic" k2="-1" k3="1"/>
<feColorMatrix type="matrix" values="0 0 0 0 1 0 0 0 0 1 0 0 0 0 1 0 0 0 0.25 0"/>
<feBlend mode="normal" in2="shape" result="effect2_innerShadow_69_7768"/>
<feColorMatrix in="SourceAlpha" type="matrix" values="0 0 0 0 0 0 0 0 0 0 0 0 0 0 0 0 0 0 127 0" result="hardAlpha"/>
<feOffset dx="-6.17608" dy="-1.42525"/>
<feGaussianBlur stdDeviation="13.7774"/>
<feComposite in2="hardAlpha" operator="arithmetic" k2="-1" k3="1"/>
<feColorMatrix type="matrix" values="0 0 0 0 0 0 0 0 0 0.835294 0 0 0 0 0.960784 0 0 0 0.21 0"/>
<feBlend mode="normal" in2="effect2_innerShadow_69_7768" result="effect3_innerShadow_69_7768"/>
<feColorMatrix in="SourceAlpha" type="matrix" values="0 0 0 0 0 0 0 0 0 0 0 0 0 0 0 0 0 0 127 0" result="hardAlpha"/>
<feOffset dx="3.32558" dy="-4.27575"/>
<feComposite in2="hardAlpha" operator="arithmetic" k2="-1" k3="1"/>
<feColorMatrix type="matrix" values="0 0 0 0 0.992157 0 0 0 0 0.658824 0 0 0 0 1 0 0 0 0.27 0"/>
<feBlend mode="soft-light" in2="effect3_innerShadow_69_7768" result="effect4_innerShadow_69_7768"/>
</filter>
<filter id="filter1_f_69_7768" x="91.8834" y="21.7633" width="21.0681" height="21.1326" filterUnits="userSpaceOnUse" color-interpolation-filters="sRGB">
<feFlood flood-opacity="0" result="BackgroundImageFix"/>
<feBlend mode="normal" in="SourceGraphic" in2="BackgroundImageFix" result="shape"/>
<feGaussianBlur stdDeviation="2.13787" result="effect1_foregroundBlur_69_7768"/>
</filter>
<filter id="filter2_f_69_7768" x="4.80289" y="62.9662" width="77.0329" height="73.5988" filterUnits="userSpaceOnUse" color-interpolation-filters="sRGB">
<feFlood flood-opacity="0" result="BackgroundImageFix"/>
<feBlend mode="normal" in="SourceGraphic" in2="BackgroundImageFix" result="shape"/>
<feGaussianBlur stdDeviation="14.49" result="effect1_foregroundBlur_69_7768"/>
</filter>
<filter id="filter3_f_69_7768" x="31.7562" y="97.5152" width="12.2142" height="12.243" filterUnits="userSpaceOnUse" color-interpolation-filters="sRGB">
<feFlood flood-opacity="0" result="BackgroundImageFix"/>
<feBlend mode="normal" in="SourceGraphic" in2="BackgroundImageFix" result="shape"/>
<feGaussianBlur stdDeviation="1.66279" result="effect1_foregroundBlur_69_7768"/>
</filter>
<filter id="filter4_f_69_7768" x="-77.6464" y="12.6233" width="220.489" height="206.348" filterUnits="userSpaceOnUse" color-interpolation-filters="sRGB">
<feFlood flood-opacity="0" result="BackgroundImageFix"/>
<feBlend mode="normal" in="SourceGraphic" in2="BackgroundImageFix" result="shape"/>
<feGaussianBlur stdDeviation="36.5814" result="effect1_foregroundBlur_69_7768"/>
</filter>
<filter id="filter5_f_69_7768" x="11.3685" y="-30.2343" width="112.531" height="88.912" filterUnits="userSpaceOnUse" color-interpolation-filters="sRGB">
<feFlood flood-opacity="0" result="BackgroundImageFix"/>
<feBlend mode="normal" in="SourceGraphic" in2="BackgroundImageFix" result="shape"/>
<feGaussianBlur stdDeviation="16.6279" result="effect1_foregroundBlur_69_7768"/>
</filter>
<filter id="filter6_f_69_7768" x="33.5812" y="9.04259" width="92.3645" height="92.364" filterUnits="userSpaceOnUse" color-interpolation-filters="sRGB">
<feFlood flood-opacity="0" result="BackgroundImageFix"/>
<feBlend mode="normal" in="SourceGraphic" in2="BackgroundImageFix" result="shape"/>
<feGaussianBlur stdDeviation="17.8156" result="effect1_foregroundBlur_69_7768"/>
</filter>
<filter id="filter7_f_69_7768" x="56.3671" y="68.1178" width="92.3645" height="92.364" filterUnits="userSpaceOnUse" color-interpolation-filters="sRGB">
<feFlood flood-opacity="0" result="BackgroundImageFix"/>
<feBlend mode="normal" in="SourceGraphic" in2="BackgroundImageFix" result="shape"/>
<feGaussianBlur stdDeviation="17.8156" result="effect1_foregroundBlur_69_7768"/>
</filter>
<filter id="filter8_f_69_7768" x="-38.6159" y="-25.2846" width="100.248" height="112.148" filterUnits="userSpaceOnUse" color-interpolation-filters="sRGB">
<feFlood flood-opacity="0" result="BackgroundImageFix"/>
<feBlend mode="normal" in="SourceGraphic" in2="BackgroundImageFix" result="shape"/>
<feGaussianBlur stdDeviation="17.8156" result="effect1_foregroundBlur_69_7768"/>
</filter>
<linearGradient id="paint0_linear_69_7768" x1="91.5436" y1="8.35045" x2="53.3555" y2="131.565" gradientUnits="userSpaceOnUse">
<stop stop-color="white" stop-opacity="0.26"/>
<stop offset="1" stop-color="white" stop-opacity="0"/>
</linearGradient>
<radialGradient id="paint1_radial_69_7768" cx="0" cy="0" r="1" gradientUnits="userSpaceOnUse" gradientTransform="translate(96.1852 27.55) rotate(119.781) scale(126.162)">
<stop stop-color="white" stop-opacity="0"/>
<stop offset="0.62353" stop-color="#FDA8FF" stop-opacity="0"/>
<stop offset="1" stop-color="#FDA8FF"/>
</radialGradient>
<radialGradient id="paint2_radial_69_7768" cx="0" cy="0" r="1" gradientUnits="userSpaceOnUse" gradientTransform="translate(54.1994 142.325) rotate(-75.2603) scale(158.387)">
<stop stop-color="white" stop-opacity="0"/>
<stop offset="0.62353" stop-color="#00B2FF" stop-opacity="0"/>
<stop offset="1" stop-color="#00E0FF"/>
</radialGradient>
<linearGradient id="paint3_linear_69_7768" x1="104.414" y1="14.469" x2="28.6703" y2="122.493" gradientUnits="userSpaceOnUse">
<stop stop-color="#0085FF"/>
<stop offset="1" stop-color="#FEC8FF"/>
</linearGradient>
</defs>
</svg>
