<svg width="380" height="371" viewBox="0 0 380 371" fill="none" xmlns="http://www.w3.org/2000/svg">
<ellipse cx="190" cy="346.897" rx="190" ry="23.5" fill="#E9E9E9"/>
<path d="M231.239 8.40259V50.9132C231.239 80.804 231.239 95.7494 234.916 110.096C238.558 124.46 245.74 137.627 260.087 163.961L279.513 199.666C316.072 266.801 334.352 300.385 319.356 325.266L319.116 325.642C303.914 350.403 265.2 350.403 187.805 350.403C110.411 350.403 71.6964 350.403 56.4774 325.642L56.2551 325.266C41.2584 300.385 59.5383 266.801 96.0981 199.666L115.524 163.961C129.888 137.627 137.035 124.46 140.695 110.096C144.354 95.7323 144.354 80.804 144.354 50.9303V8.40259" fill="#DFFDFF"/>
<path d="M231.239 8.40259V50.9132C231.239 80.804 231.239 95.7494 234.916 110.096C238.558 124.46 245.74 137.627 260.087 163.961L279.513 199.666C316.072 266.801 334.352 300.385 319.356 325.266L319.116 325.642C303.914 350.403 265.2 350.403 187.805 350.403C110.411 350.403 71.6964 350.403 56.4774 325.642L56.2551 325.266C41.2584 300.385 59.5383 266.801 96.0981 199.666L115.524 163.961C129.888 137.627 137.035 124.46 140.695 110.096C144.354 95.7323 144.354 80.804 144.354 50.9303V8.40259M231.239 8.40259C198.631 26.0069 159.729 15.7377 144.354 8.40259M231.239 8.40259C215.562 3.57104 176.238 -3.19312 144.354 8.40259" stroke="black" stroke-width="4" stroke-linecap="round" stroke-linejoin="round"/>
</svg>
