<svg width="946" height="1275" viewBox="0 0 946 1275" fill="none" xmlns="http://www.w3.org/2000/svg">
<path fill-rule="evenodd" clip-rule="evenodd" d="M433.866 1219.81C452.283 1225.35 463 1231.99 463 1239.12C463 1258.54 383.531 1274.28 285.5 1274.28C187.469 1274.28 108 1258.54 108 1239.12C108 1231.94 118.863 1225.26 137.511 1219.69C137.93 1220.51 138.38 1221.31 138.861 1222.11L139.128 1222.53C156.099 1250.17 199.318 1250.17 285.717 1250.17C372.117 1250.17 415.336 1250.17 432.326 1222.53L432.574 1222.11C433.032 1221.35 433.463 1220.58 433.866 1219.81Z" fill="#EAEAEA" fill-opacity="0.53"/>
<path d="M240.288 870.164V866.256L288.291 859L326.805 866.256H331.27L326.805 870.164L302.803 876.862L273.22 877.978L240.288 870.164Z" fill="#FF7EC7"/>
<g filter="url(#filter0_d_225_867)">
<path d="M237.23 866.148V913.604C237.23 946.973 237.23 963.657 233.126 979.673C229.059 995.709 221.042 1010.41 205.026 1039.81L183.34 1079.66C142.526 1154.61 122.119 1192.1 138.861 1219.88L139.128 1220.3C156.099 1247.94 199.318 1247.94 285.717 1247.94C372.117 1247.94 415.336 1247.94 432.326 1220.3L432.574 1219.88C449.316 1192.1 428.909 1154.61 388.095 1079.66L366.409 1039.81C350.374 1010.41 342.395 995.709 338.309 979.673C334.224 963.638 334.224 946.973 334.224 913.623V866.148" fill="#FF7EC7" fill-opacity="0.2"/>
<path d="M237.23 866.148V913.604C237.23 946.973 237.23 963.657 233.126 979.673C229.059 995.709 221.042 1010.41 205.026 1039.81L183.34 1079.66C142.526 1154.61 122.119 1192.1 138.861 1219.88L139.128 1220.3C156.099 1247.94 199.318 1247.94 285.717 1247.94C372.117 1247.94 415.336 1247.94 432.326 1220.3L432.574 1219.88C449.316 1192.1 428.909 1154.61 388.095 1079.66L366.409 1039.81C350.374 1010.41 342.395 995.709 338.309 979.673C334.224 963.638 334.224 946.973 334.224 913.623V866.148M237.23 866.148C273.632 885.8 317.061 874.336 334.224 866.148M237.23 866.148C254.731 860.754 298.631 853.203 334.224 866.148" stroke="black" stroke-width="4" stroke-linecap="round" stroke-linejoin="round"/>
<path d="M322.34 971.946V876.334C322.34 874.776 323.603 873.513 325.161 873.513C326.686 873.513 327.922 874.748 327.922 876.273V971.993C327.922 976.607 328.986 981.159 331.032 985.295L417.71 1160.51C426.662 1178.61 429.696 1201.15 416.554 1216.48C409.492 1224.71 402.653 1227.82 397.135 1230.74C388.242 1235.45 357.319 1236.88 341.876 1235.21C357.505 1236.55 381.134 1228.7 388.763 1224.6C418.681 1211.66 417.974 1172.69 409.973 1154.83L325.49 985.328C323.418 981.171 322.34 976.59 322.34 971.946Z" fill="#C6CACB" fill-opacity="0.53"/>
<path d="M248.66 972.082V876.334C248.66 874.776 247.397 873.513 245.839 873.513C244.314 873.513 243.078 874.748 243.078 876.273V972.13C243.078 976.739 242.016 981.286 239.975 985.419L153.259 1160.93C144.326 1179.01 141.302 1201.51 154.402 1216.84C161.48 1225.13 168.335 1228.25 173.864 1231.18C182.758 1235.9 213.681 1237.33 229.124 1235.65C213.495 1236.99 189.866 1229.13 182.237 1225.03C152.319 1212.07 153.026 1173.06 161.026 1155.18L245.516 985.452C247.584 981.298 248.66 976.722 248.66 972.082Z" fill="white"/>
</g>
<path d="M356.836 269.562C367.892 269.591 393.865 270.63 404.303 274.022L435.702 283.388C405.869 296.029 326.068 311.545 319.033 322.62C312.468 332.955 297.023 343.064 273.268 354.028C265.204 357.75 256.182 361.571 246.224 365.532C214.134 378.3 190.952 353.307 215.305 327.543C234.787 306.931 276.878 286.345 295.545 280.068C314.212 273.791 348.646 269.541 356.836 269.562Z" fill="#FFE1F2" stroke="black" stroke-width="4"/>
<path d="M261.151 331.836C235.274 354.086 215.564 347.64 208.944 341.636C200.69 366.185 228.618 369.46 240.55 364.95C240.55 364.95 249.577 362.804 257.065 359.681C264.554 356.558 275.815 352.593 275.815 352.593L297.341 354.392L344.53 293.695C340.414 292.29 287.229 318.537 261.151 331.836Z" fill="#FF83CA"/>
<path d="M430.65 397.138L320.93 410.969L322.385 376.247L355.537 367.24L406.429 357.572L426.095 374.396L430.65 397.138Z" fill="#FF83CA" stroke="black" stroke-width="4"/>
<path d="M538.031 497.581C494.163 504.266 455.996 475.991 442.396 461.018L433.058 418.996L423.721 376.974L416.996 368.334C405.191 373.432 391.389 369.521 385.964 366.928C371.653 376.313 347.388 382.102 337.045 383.823C335.752 388.918 296.834 449.438 277.536 479.061C244.393 518.291 212.876 490.456 218.247 463.866C227.911 416.013 260.06 368.976 285.981 338.678C300.321 321.917 317.594 307.682 337.515 298.209C378.028 278.946 414.798 276.546 435.598 278.754C441.771 279.409 447.601 281.692 453.097 284.577L542.327 331.401C549.851 336.961 563.093 341.193 572.475 343.532C576.935 344.643 581.462 344.949 586.058 344.88C628.042 344.246 815.642 344.427 823.591 345.036C866.856 351.088 884.492 398.894 887.903 422.041C896.42 511.799 678.697 492.5 666.012 492.15C655.863 491.87 594.232 494.734 589.532 496.201C563.758 507.895 546.023 500.104 538.031 497.581Z" fill="#FFE1F2" stroke="black" stroke-width="4"/>
<path d="M447.415 366.46L454.915 366.01" stroke="black" stroke-width="4" stroke-linecap="round"/>
<path d="M266.055 437.723C251.067 462.274 228.946 458.182 222.527 456.041C222.527 456.041 220.116 462.299 220.048 466.373C219.96 471.558 219.786 472.066 220.469 475.601C221.118 478.967 223.79 483.726 223.79 483.726C223.79 483.726 225.968 491.255 236.857 494.897C247.746 498.538 256.447 495.227 269.359 484.28C282.27 473.332 315.241 421.676 315.241 421.676C315.241 421.676 332.628 386.43 336.73 382.464C340.831 378.499 385.85 374.647 388.407 359.705C391.203 343.369 399.903 334.25 405.074 324.829C396.806 338.005 351.698 347.922 326.74 354.349C323.168 355.269 320.081 357.43 317.954 360.443C304.587 379.373 279.817 415.183 266.055 437.723Z" fill="#FF83CA"/>
<path d="M329.964 305.121C265.944 342.081 229.36 426.762 222.527 456.04L245.522 425.306C275.249 374.848 316.698 332.932 336.205 319.209C336.895 318.723 337.646 318.364 338.449 318.103C382.497 303.809 417.196 297.299 439.925 300.257C443.905 300.775 447.646 302.29 451.155 304.237C477.179 318.674 524.173 345.039 539.491 354.759C554.742 364.435 594.512 365.976 616.432 365.499C619.579 365.431 622.691 364.964 625.743 364.187L652.989 357.247C647.314 351.964 630.269 345.43 605.897 347.232C588.586 348.512 560.428 343.584 555.857 341.202L506.167 314.429L456.447 289.386C423.994 265.785 352.677 291.096 329.964 305.121Z" fill="#FDFFFD"/>
<path d="M328.093 363.876C328.112 362.772 327.231 361.862 326.127 361.843C325.023 361.824 324.112 362.705 324.094 363.809L328.093 363.876ZM339.291 382.823C334.838 378.217 327.898 375.471 328.093 363.876L324.094 363.809C323.862 377.565 332.937 382.006 336.415 385.603L339.291 382.823Z" fill="black"/>
<path d="M410.444 327.926C411.474 327.527 411.986 326.369 411.588 325.339C411.189 324.309 410.031 323.796 409.001 324.195L410.444 327.926ZM387.976 367.19C388.038 363.511 389.279 355.288 392.776 347.136C396.278 338.97 401.883 331.236 410.444 327.926L409.001 324.195C398.998 328.064 392.796 336.941 389.1 345.559C385.397 354.192 384.047 362.927 383.977 367.123L387.976 367.19Z" fill="black"/>
<path d="M426.25 346.863C427.094 346.15 427.199 344.888 426.486 344.044C425.773 343.201 424.511 343.096 423.667 343.809L426.25 346.863ZM419.071 368.061C418.846 365.773 418.932 361.859 419.967 357.786C421.003 353.708 422.937 349.665 426.25 346.863L423.667 343.809C419.497 347.336 417.246 352.251 416.09 356.801C414.933 361.355 414.823 365.737 415.09 368.452L419.071 368.061Z" fill="black"/>
<path d="M263.12 444.143L261.934 512.987L315.947 518.906L317.189 445.223C317.323 437.269 315.807 429.204 311.416 422.569C294.867 397.557 279.516 408.251 269.57 422.048C264.981 428.413 263.256 436.297 263.12 444.143Z" fill="#101E60" stroke="black" stroke-width="4"/>
<path d="M264.624 740.495L266.956 554.81L308.525 561.104L305.491 741.184C305.348 749.623 305.124 762.926 297.11 770.967C297.024 783.634 296.531 805.344 284.453 805.14C272.411 804.937 273.237 781.654 273.704 770.573C264.5 760.821 265.506 751.885 264.624 740.495Z" fill="#2FC1FF" stroke="black" stroke-width="4"/>
<rect x="233.232" y="507.769" width="110.099" height="62.8458" rx="9" transform="rotate(0.965265 233.232 507.769)" fill="#55BAF3" stroke="black" stroke-width="4"/>
<path d="M256.108 522.92L255.584 554.033" stroke="#005D7A" stroke-width="6" stroke-linecap="round"/>
<path d="M276.85 523.27L276.326 554.383" stroke="#005D7A" stroke-width="6" stroke-linecap="round"/>
<path d="M298.745 523.639L298.221 554.752" stroke="#005D7A" stroke-width="6" stroke-linecap="round"/>
<path d="M319.487 523.988L318.962 555.102" stroke="#005D7A" stroke-width="6" stroke-linecap="round"/>
<path d="M409.949 464.364C423.265 465.76 434.868 465.586 441.387 464.893L444.723 465.042L454.378 466.284L459.125 461.872L453.385 366.301L451.453 366.268C446.145 366.561 440.799 367.104 435.86 369.071C433.537 369.996 431.141 371.153 429.03 372.536C427.275 373.686 425.716 374.992 424.557 376.451C423.933 377.238 423.424 378.069 423.064 378.945C422.224 380.986 420.681 383.137 418.794 385.236C410.506 394.455 398.161 398.829 385.781 399.457C385.665 399.463 385.549 399.469 385.432 399.474C382.284 399.627 378.773 399.696 374.905 399.631C366.8 399.494 358.911 399.81 350.829 400.799C339.86 402.142 328.533 404.725 315.825 409.1C305.407 414.209 294.772 419.204 296.478 442.412C298.183 465.62 319.197 475.358 329.492 477.326C356.129 482.419 375.834 475.911 385.388 470.335C391.722 467.84 405.364 463.883 409.949 464.364Z" fill="#FFE1F2"/>
<path d="M385.432 399.474C382.284 399.627 378.773 399.696 374.905 399.631C366.8 399.494 358.911 399.81 350.829 400.799M385.432 399.474C385.549 399.469 385.665 399.463 385.781 399.457C398.161 398.829 410.506 394.455 418.794 385.236C420.681 383.137 422.224 380.986 423.064 378.945C423.424 378.069 423.933 377.238 424.557 376.451C425.716 374.992 427.275 373.686 429.03 372.536C431.141 371.153 433.537 369.996 435.86 369.071C440.799 367.104 446.145 366.561 451.453 366.268V366.268L453.385 366.301L459.125 461.872L454.378 466.284L444.723 465.042L441.387 464.893C434.868 465.586 423.265 465.76 409.949 464.364C405.364 463.883 391.722 467.84 385.388 470.335C375.834 475.911 356.129 482.419 329.492 477.326C319.197 475.358 298.183 465.62 296.478 442.412C294.772 419.204 305.407 414.209 315.825 409.1C328.533 404.725 339.86 402.142 350.829 400.799M385.432 399.474C384.136 396.553 382.532 380.008 385.86 374.07M350.829 400.799C347.777 399.518 341.489 394.186 340.637 390.022" stroke="black" stroke-width="4" stroke-linecap="round"/>
<rect x="439.735" y="357.688" width="35.728" height="104.879" transform="rotate(0.965266 439.735 357.688)" fill="#FFE1F2"/>
<path d="M457.181 470.943C455.056 470.051 448.642 464.651 446.37 462.692L443.693 450.543L464.435 450.893C464.212 464.145 460.043 472.143 457.181 470.943Z" fill="#FFE1F2"/>
<path d="M876 405.812L580.914 437.591C575.584 438.165 570.643 440.942 565.707 443.032C552.164 448.768 526.236 449.76 512.749 449.405L390.488 443.847C390.581 434.677 384.875 424.101 379.711 418.402C378.96 417.573 378.36 418.225 379.034 419.117C389.408 432.856 385.791 442.191 377.798 450.948C369.829 459.679 352.325 464.754 336.958 465.821C326.785 466.527 316.248 463.292 309.778 455.41C293.655 435.768 313.264 414.327 332.786 405.812C318.88 410.189 297.493 413.87 297.7 435.767C297.907 457.672 308.648 469.689 330.999 472.305C364.027 476.171 377.94 471.367 384.971 464.569C392.001 457.772 439.296 461.028 452.374 457.214C502.168 492.234 531.561 489.773 537.9 492.26C542.192 493.944 555.388 494.057 565.759 494.231C584.245 491.661 581.96 490.47 592.409 486.009C602.636 481.642 747.915 495.769 808.592 481.022C822.885 477.548 838.186 474.282 851.701 468.477C880.017 456.316 876.736 418.688 876 405.812Z" fill="#FF83CA"/>
<path d="M441.387 464.915L452.373 462.794" stroke="black" stroke-width="4" stroke-linecap="round"/>
<path d="M443.579 369.064C444.683 369.083 445.594 368.203 445.612 367.098C445.631 365.994 444.75 365.084 443.646 365.065L443.579 369.064ZM436.22 371.013C437.12 370.67 438.653 370.162 440.168 369.746C441.774 369.304 443.046 369.055 443.579 369.064L443.646 365.065C442.45 365.045 440.637 365.468 439.107 365.889C437.485 366.335 435.83 366.881 434.797 367.274L436.22 371.013Z" fill="black"/>
<path d="M422.004 383.901C426.231 372.445 446.495 367.023 458.643 364.346C449.34 369.184 437.918 383.477 434.505 394.485C430.239 408.246 399.277 408.3 395.082 408.23C391.049 408.162 373.178 408.437 362.182 411.133C351.186 413.83 343.129 413.118 337.319 415.901C332.671 418.128 322.164 426.02 323.21 432.378C321.384 438.11 318.001 438.412 315.681 434.556C314.236 432.156 313.76 429.798 313.866 427.603C314.307 418.477 321.647 410.052 330.131 406.661C335.631 404.462 341.445 404.464 344.437 403.918C356 401.808 366.937 402.568 387.709 401.189C404.326 400.086 417.288 390.161 422.004 383.901Z" fill="white"/>
<path d="M308.017 286.263C284.852 288.474 232.88 319.925 208.943 341.636C217.03 318.708 264.083 295.272 285.878 286.449C295.461 280.878 320.167 275.63 334.645 274.249C335.905 274.128 336.35 273.605 337.805 275.392C338.9 276.738 339.424 276.864 340.046 277.762C340.545 278.482 340.413 279.383 339.644 279.803C336.634 281.448 327.162 284.436 308.017 286.263Z" fill="#FDFFFD"/>
<path d="M265.405 338.098C271.191 346.266 270.761 353.378 269.724 356.064C273.3 353.154 279.534 347.485 275.867 348.092C272.74 348.61 268.415 342.21 265.405 338.098C264.965 337.479 264.491 336.853 263.978 336.222C264.406 336.748 264.885 337.389 265.405 338.098Z" fill="black"/>
<path d="M269.724 356.064C270.84 353.175 271.253 345.161 263.978 336.222C266.888 339.798 272.201 348.699 275.867 348.092C279.534 347.485 273.3 353.154 269.724 356.064Z" stroke="black" stroke-width="3"/>
<path d="M261.723 335.829C261.2 335.186 261.297 334.241 261.939 333.718C262.582 333.196 263.526 333.292 264.049 333.935L261.723 335.829ZM263.541 338.063L261.723 335.829L264.049 333.935L265.868 336.17L263.541 338.063Z" fill="black"/>
<path d="M291.235 427.288C290.592 434.415 286.593 431.727 284.846 432.488C280.516 433.477 272.834 433.181 275.951 424.732C279.846 414.172 292.039 418.379 291.235 427.288Z" fill="#FEFFFB"/>
<path d="M264.947 475.846C264.985 474.19 266.359 472.878 268.016 472.917C269.672 472.955 270.984 474.329 270.945 475.986L264.947 475.846ZM270.945 475.986L270.259 505.521L264.26 505.382L264.947 475.846L270.945 475.986Z" fill="#FEFFFB"/>
<path d="M300.087 740.994L297.088 741.061L297.087 741.002L297.088 740.943L300.087 740.994ZM290.867 768.079L287.885 768.404L287.659 766.329L289.526 765.395L290.867 768.079ZM285.894 802.667C284.296 803.103 282.646 802.16 282.21 800.562C281.775 798.964 282.717 797.314 284.315 796.878L285.894 802.667ZM305.968 573.932L303.087 741.046L297.088 740.943L299.969 573.828L305.968 573.932ZM303.087 740.928C303.189 745.513 302.584 751.716 301.033 757.286C300.256 760.076 299.213 762.811 297.832 765.136C296.462 767.441 294.637 769.548 292.209 770.762L289.526 765.395C290.555 764.881 291.636 763.818 292.673 762.071C293.699 760.345 294.565 758.145 295.253 755.676C296.63 750.73 297.178 745.119 297.088 741.061L303.087 740.928ZM293.85 767.753C294.457 773.32 294.271 781.156 293.288 787.808C292.797 791.128 292.085 794.307 291.099 796.819C290.607 798.073 290 799.28 289.233 800.277C288.476 801.26 287.39 802.259 285.894 802.667L284.315 796.878C284.088 796.94 284.168 797.02 284.478 796.617C284.778 796.228 285.138 795.584 285.514 794.626C286.264 792.716 286.892 790.04 287.352 786.93C288.27 780.721 288.43 773.402 287.885 768.404L293.85 767.753Z" fill="#FEFFFB"/>
<path d="M802.414 301.618C791.302 286.654 798.152 268.879 803.277 261.523C825.882 234.108 844.246 235.03 849.316 239.284C853.371 242.687 855.122 253.571 854.474 259.429C853.826 265.286 849.03 282.611 865.318 298.298C871.578 304.327 875.758 309.461 878.48 313.659C883.453 321.328 878.821 329.662 875.87 338.314C870.407 354.328 879.958 369.407 886.761 374.902C887.41 375.426 888.063 376.015 888.718 376.656C900.141 387.853 893.715 406.187 892.176 422.108C891.668 427.364 892.714 432.76 896.442 437.649C900.289 442.695 903.127 447.476 905.188 451.72C909.688 460.986 903.047 469.94 898.148 479.002C894.496 485.758 895.44 492.965 898.569 499.616C903.389 509.859 905.481 530.975 901.475 541.562C900.735 543.517 899.961 545.478 899.103 547.388C897.613 550.703 893.829 552.14 890.408 550.916C878.741 546.742 860.737 538.663 851.655 528.718C841.635 517.747 839.276 504.32 839.307 497.75C839.311 496.81 839.209 495.879 839.002 494.963C836.462 483.711 840.228 464.975 843.298 453.811C844.019 451.192 843.425 448.401 841.913 446.144C831.892 431.186 830.82 409.813 831.813 397.598C832.017 395.082 831.148 392.605 829.582 390.626C819.148 377.445 818.255 356.99 819.44 345.133C819.683 342.695 818.947 340.254 817.414 338.343C808.251 326.919 805.157 314.523 804.571 307.359C804.402 305.287 803.653 303.287 802.414 301.618Z" fill="#FEFDE2" stroke="black" stroke-width="4"/>
<path d="M807.186 291.481C817.401 270.612 831.359 258.209 840.593 252.431C842.28 251.376 843.823 253.189 842.686 254.821L814.687 295.007C813.032 297.383 809.577 297.554 807.695 295.353C806.774 294.276 806.563 292.754 807.186 291.481Z" fill="#FFACDB"/>
<path d="M881.1 426.353L858.566 422.692C847.157 420.838 838.544 432.826 843.941 443.047L845.933 446.82C847.777 450.314 851.016 452.84 854.781 454.038C868.278 458.333 886.239 466.018 892.212 467.444C893.907 467.849 895.531 467.947 897.061 467.829C903.884 467.3 905.367 458.884 902.026 452.911L891.073 433.336C888.988 429.609 885.316 427.037 881.1 426.353Z" fill="#FFACDB"/>
<path d="M887.545 380.307C868.134 361.696 848.289 362.943 836.198 368.53C832.585 370.199 830.447 373.909 830.54 377.888C830.747 386.844 833.355 398.457 842.722 400.665C850.48 402.494 866.445 401.349 880.686 399.278C890.257 397.885 894.527 387 887.545 380.307Z" fill="#FFACDB"/>
<path d="M871.201 479.868L858.981 476.124C850.938 473.659 842.746 479.493 842.445 487.9L842.216 494.31C841.945 501.859 843.596 509.353 847.013 516.089C850.74 523.437 856.48 529.573 863.563 533.782L880.938 544.105C887.447 547.973 895.847 544.508 897.735 537.175L898.443 534.426C901.003 524.485 900.495 514.002 896.985 504.355C892.709 492.599 883.162 483.533 871.201 479.868Z" fill="#FFACDB"/>
<path d="M853.572 295.871C842.139 293.862 827.268 308.507 818.058 319.148C815.148 322.51 814.471 327.226 816.115 331.358C818.636 337.693 825.816 340.783 832.15 338.26L866.882 324.422C874.177 321.516 877.369 313.193 872.069 307.399C867.294 302.18 860.844 297.148 853.572 295.871Z" fill="#FFACDB"/>
<path d="M816.155 293.58C823.095 283.144 840.907 262.783 852.42 262.874" stroke="black" stroke-width="6" stroke-linecap="round"/>
<path d="M855.947 498.15L896.776 513.006" stroke="black" stroke-width="6" stroke-linecap="round"/>
<path d="M857.298 445.856L895.004 458.89" stroke="black" stroke-width="6" stroke-linecap="round"/>
<path d="M849.067 393.378L891.958 391.706" stroke="black" stroke-width="6" stroke-linecap="round"/>
<path d="M837.902 330.7C846.697 326.872 868.761 318.823 879.364 316.45" stroke="black" stroke-width="6" stroke-linecap="round"/>
<defs>
<filter id="filter0_d_225_867" x="118.794" y="849.8" width="333.846" height="417.339" filterUnits="userSpaceOnUse" color-interpolation-filters="sRGB">
<feFlood flood-opacity="0" result="BackgroundImageFix"/>
<feColorMatrix in="SourceAlpha" type="matrix" values="0 0 0 0 0 0 0 0 0 0 0 0 0 0 0 0 0 0 127 0" result="hardAlpha"/>
<feOffset dy="5"/>
<feGaussianBlur stdDeviation="6.1"/>
<feComposite in2="hardAlpha" operator="out"/>
<feColorMatrix type="matrix" values="0 0 0 0 0.436347 0 0 0 0 0.436347 0 0 0 0 0.436347 0 0 0 0.25 0"/>
<feBlend mode="normal" in2="BackgroundImageFix" result="effect1_dropShadow_225_867"/>
<feBlend mode="normal" in="SourceGraphic" in2="effect1_dropShadow_225_867" result="shape"/>
</filter>
</defs>
</svg>
