<svg width="911" height="884" viewBox="0 0 911 884" fill="none" xmlns="http://www.w3.org/2000/svg">
<path d="M428.3 398.844L318.92 415.15L319.59 380.404L352.531 370.651L403.191 359.835L423.232 376.211L428.3 398.844Z" fill="#FF83CA" stroke="black" stroke-width="4"/>
<path d="M537.921 496.835C494.216 504.509 455.42 477.104 441.485 462.443L431.201 420.642L420.916 378.842L413.998 370.355C402.311 375.719 388.424 372.121 382.941 369.651C368.847 379.357 344.719 385.693 334.417 387.647C333.24 392.77 295.699 454.153 277.076 484.205C244.828 524.173 212.69 497.058 217.459 470.353C226.039 422.295 257.116 374.543 282.346 343.668C296.304 326.587 313.251 311.965 332.953 302.045C373.02 281.871 409.726 278.641 430.571 280.379C436.757 280.894 442.637 283.045 448.197 285.805L538.462 330.601C546.109 335.989 559.443 339.922 568.876 342.048C573.36 343.058 577.892 343.262 582.486 343.088C624.445 341.506 812 337.449 819.96 337.878C863.351 342.951 882.063 390.347 885.995 413.411C896.539 502.953 678.437 488.577 665.746 488.514C655.594 488.463 594.043 492.719 589.378 494.292C563.875 506.565 545.969 499.177 537.921 496.835Z" fill="#FFE1F2" stroke="black" stroke-width="4"/>
<path d="M315.982 492.423L317.482 476.923L330.042 470.801L404.992 463.868C405.117 463.97 405.243 464.074 405.37 464.18C408.877 466.198 427.232 461.356 436.349 458.559L459.708 477.822C474.739 476.777 491.247 479.288 490.628 489.661C489.842 502.839 482.898 510.143 479.525 512.148C449.446 536.382 428.519 525.21 421.815 516.595L410.325 502.333C393.105 515.636 368.766 507.07 358.749 501.124C330.042 509.5 319.136 493.684 315.982 492.423Z" fill="#FF83CA"/>
<path d="M358.749 501.124C330.042 509.5 319.136 493.684 315.982 492.423L317.482 476.923L330.042 470.801L404.992 463.868M358.749 501.124C368.766 507.07 393.105 515.636 410.325 502.333M358.749 501.124C358.109 499.74 357.169 495.271 358.532 488.471M410.325 502.333C427.544 489.03 413.944 471.147 404.992 463.868M410.325 502.333L421.815 516.595C428.519 525.21 449.446 536.382 479.525 512.148C482.898 510.143 489.842 502.839 490.628 489.661C491.247 479.288 474.739 476.777 459.708 477.822M404.992 463.868C407.22 466.634 426.825 461.481 436.349 458.559L459.708 477.822M438.512 482.474C442.548 480.278 450.873 478.436 459.708 477.822" stroke="black" stroke-width="4" stroke-linecap="round"/>
<path d="M444.366 367.796L451.854 367.177" stroke="black" stroke-width="4" stroke-linecap="round"/>
<path d="M264.664 443.138C250.234 468.02 228.027 464.429 221.561 462.434C221.561 462.434 219.293 468.744 219.316 472.819C219.346 478.005 219.183 478.517 219.945 482.036C220.671 485.386 223.449 490.083 223.449 490.083C223.449 490.083 225.797 497.561 236.766 500.956C247.734 504.351 256.358 500.843 269.019 489.607C281.68 478.371 313.474 425.983 313.474 425.983C313.474 425.983 330.061 390.353 334.071 386.296C338.082 382.239 383.003 377.371 385.221 362.375C387.647 345.981 396.139 336.667 401.096 327.132C393.127 340.491 348.255 351.425 323.449 358.414C319.899 359.414 316.862 361.645 314.803 364.705C301.867 383.931 277.913 420.292 264.664 443.138Z" fill="#FF83CA"/>
<path d="M325.56 309.126C262.391 347.522 227.731 433.008 221.561 462.433L243.856 431.187C272.435 380.071 312.926 337.229 332.117 323.069C332.797 322.567 333.539 322.191 334.336 321.912C378.05 306.627 412.592 299.335 435.383 301.779C439.373 302.207 443.147 303.637 446.7 305.504C473.043 319.349 520.621 344.646 536.155 354.017C551.619 363.346 591.415 363.988 613.317 363.016C616.463 362.877 619.563 362.34 622.596 361.494L649.678 353.94C643.886 348.787 626.697 342.64 602.373 344.992C585.095 346.663 556.833 342.372 552.21 340.094L501.927 314.451L451.655 290.537C418.676 267.675 347.95 294.591 325.56 309.126Z" fill="#FDFFFD"/>
<path d="M325.017 367.908C325.011 366.803 324.11 365.913 323.006 365.919C321.901 365.926 321.011 366.826 321.017 367.931L325.017 367.908ZM336.64 386.596C332.085 382.093 325.084 379.504 325.017 367.908L321.017 367.931C321.096 381.689 330.27 385.923 333.828 389.441L336.64 386.596Z" fill="black"/>
<path d="M406.534 330.106C407.555 329.685 408.041 328.515 407.62 327.494C407.198 326.473 406.029 325.987 405.008 326.409L406.534 330.106ZM384.96 369.868C384.939 366.189 385.994 357.94 389.305 349.711C392.622 341.468 398.051 333.61 406.534 330.106L405.008 326.409C395.095 330.503 389.095 339.518 385.594 348.218C382.088 356.932 380.936 365.695 380.96 369.891L384.96 369.868Z" fill="black"/>
<path d="M422.765 348.682C423.592 347.95 423.669 346.686 422.937 345.858C422.205 345.031 420.941 344.954 420.113 345.687L422.765 348.682ZM416.066 370.036C415.789 367.754 415.788 363.839 416.73 359.744C417.673 355.644 419.516 351.558 422.765 348.682L420.113 345.687C416.024 349.307 413.884 354.272 412.832 358.847C411.778 363.426 411.767 367.809 412.095 370.518L416.066 370.036Z" fill="black"/>
<path d="M260.63 444.681L260.999 513.533L315.132 518.231L314.708 444.539C314.663 436.583 312.964 428.554 308.426 422.021C291.315 397.389 276.21 408.427 266.578 422.445C262.134 428.913 260.587 436.833 260.63 444.681Z" fill="#101E60" stroke="black" stroke-width="4"/>
<path d="M268.828 740.922L266.964 555.232L308.664 560.585L309.7 740.687C309.749 749.127 309.825 762.433 301.995 770.652C302.195 783.318 302.193 805.033 290.114 805.103C278.07 805.172 278.369 781.875 278.586 770.787C269.163 761.245 269.967 752.289 268.828 740.922Z" fill="#2FC1FF" stroke="black" stroke-width="4"/>
<rect x="2.01147" y="1.98847" width="110.098" height="62.8457" rx="9" transform="matrix(0.999985 -0.00574627 0.00575166 0.999983 230.164 506.989)" fill="#55BAF3" stroke="black" stroke-width="4"/>
<path d="M255.398 523.595L255.577 554.713" stroke="#005D7A" stroke-width="6" stroke-linecap="round"/>
<path d="M276.144 523.476L276.323 554.593" stroke="#005D7A" stroke-width="6" stroke-linecap="round"/>
<path d="M298.041 523.351L298.22 554.468" stroke="#005D7A" stroke-width="6" stroke-linecap="round"/>
<path d="M318.785 523.231L318.964 554.349" stroke="#005D7A" stroke-width="6" stroke-linecap="round"/>
<path d="M409.123 466.52C422.467 467.615 434.063 467.179 440.565 466.339L443.903 466.413L453.584 467.437L458.23 462.918L450.332 367.501L448.399 367.512C443.1 367.925 437.767 368.589 432.874 370.666C430.572 371.644 428.204 372.855 426.124 374.285C424.395 375.474 422.867 376.815 421.741 378.3C421.134 379.101 420.645 379.943 420.305 380.827C419.511 382.886 418.017 385.071 416.177 387.213C408.1 396.617 395.857 401.269 383.494 402.176C383.379 402.185 383.263 402.193 383.146 402.201C380.003 402.425 376.494 402.573 372.625 402.596C364.519 402.642 356.64 403.136 348.582 404.308C337.646 405.898 326.381 408.736 313.775 413.397C303.475 418.74 292.956 423.974 295.185 447.138C297.414 470.301 318.644 479.562 328.979 481.297C355.725 485.786 375.278 478.836 384.703 473.045C390.979 470.407 404.529 466.143 409.123 466.52Z" fill="#FFE1F2"/>
<path d="M383.146 402.201C380.003 402.425 376.494 402.573 372.625 402.596C364.519 402.642 356.64 403.136 348.582 404.308M383.146 402.201C383.263 402.193 383.379 402.185 383.494 402.176C395.857 401.269 408.1 396.617 416.177 387.213C418.017 385.071 419.511 382.886 420.305 380.827C420.645 379.943 421.134 379.101 421.741 378.3C422.867 376.815 424.395 375.474 426.124 374.285C428.204 372.855 430.572 371.644 432.874 370.666C437.767 368.589 443.1 367.925 448.399 367.512V367.512L450.332 367.501L458.23 462.918L453.584 467.437L443.903 466.413L440.565 466.339C434.063 467.179 422.467 467.615 409.123 466.52C404.529 466.143 390.979 470.407 384.703 473.045C375.278 478.836 355.725 485.786 328.979 481.297C318.644 479.562 297.414 470.301 295.185 447.138C292.956 423.974 303.475 418.74 313.775 413.397C326.381 408.736 337.646 405.898 348.582 404.308M383.146 402.201C381.785 399.31 379.807 382.805 383 376.794M348.582 404.308C345.502 403.096 339.095 397.907 338.149 393.763" stroke="black" stroke-width="4" stroke-linecap="round"/>
<rect width="35.7278" height="104.879" transform="matrix(0.999984 -0.00574622 0.0057516 0.999984 436.491 359.2)" fill="#FFE1F2"/>
<path d="M456.491 472.031C454.346 471.187 447.812 465.934 445.496 464.026L442.545 451.941L463.29 451.822C463.366 465.076 459.379 473.166 456.491 472.031Z" fill="#FFE1F2"/>
<path d="M440.564 466.361L451.5 463.993" stroke="black" stroke-width="4" stroke-linecap="round"/>
<path d="M440.59 370.486C441.695 370.479 442.585 369.579 442.579 368.474C442.572 367.37 441.672 366.48 440.567 366.486L440.59 370.486ZM433.277 372.6C434.17 372.237 435.691 371.695 437.195 371.244C438.791 370.766 440.057 370.489 440.59 370.486L440.567 366.486C439.371 366.493 437.568 366.957 436.048 367.412C434.436 367.895 432.794 368.478 431.77 368.894L433.277 372.6Z" fill="black"/>
<path d="M419.356 385.805C423.323 374.257 443.459 368.379 455.543 365.428C446.352 370.475 435.257 385.023 432.093 396.105C428.139 409.958 397.186 410.712 392.991 410.736C388.957 410.76 371.097 411.438 360.165 414.383C349.233 417.327 341.162 416.797 335.416 419.711C330.82 422.043 320.494 430.17 321.683 436.502C319.987 442.274 316.612 442.653 314.205 438.85C312.707 436.483 312.177 434.136 312.234 431.939C312.468 422.806 319.616 414.217 328.021 410.635C333.47 408.313 339.282 408.184 342.262 407.57C353.773 405.199 364.725 405.712 385.46 403.864C402.048 402.386 414.782 392.171 419.356 385.805Z" fill="white"/>
<path d="M266.172 476.336L269.172 476.335L269.172 476.338L266.172 476.336ZM266.153 438.058L263.153 438.06L263.153 438.052L266.153 438.058ZM280.309 413.592C281.948 413.346 283.475 414.475 283.721 416.114C283.967 417.752 282.838 419.28 281.199 419.525L280.309 413.592ZM269.172 476.338L269.153 505.882L263.153 505.878L263.172 476.334L269.172 476.338ZM263.172 476.338L263.153 438.06L269.153 438.057L269.172 476.335L263.172 476.338ZM263.153 438.052C263.164 433.129 265.038 427.506 267.93 422.961C270.774 418.49 275.054 414.38 280.309 413.592L281.199 419.525C278.455 419.937 275.444 422.327 272.992 426.181C270.588 429.961 269.161 434.487 269.153 438.065L263.153 438.052Z" fill="#FEFFFB"/>
<path d="M304.295 740.62L301.298 740.754L301.296 740.695L301.295 740.636L304.295 740.62ZM295.69 767.905L292.715 768.298L292.442 766.229L294.288 765.253L295.69 767.905ZM291.499 802.597C289.911 803.069 288.241 802.164 287.769 800.576C287.297 798.988 288.202 797.318 289.79 796.846L291.499 802.597ZM306.4 573.467L307.295 740.604L301.295 740.636L300.4 573.499L306.4 573.467ZM307.292 740.486C307.498 745.068 307.034 751.283 305.608 756.886C304.895 759.692 303.914 762.45 302.586 764.806C301.268 767.142 299.492 769.289 297.092 770.558L294.288 765.253C295.305 764.715 296.361 763.628 297.359 761.859C298.346 760.109 299.162 757.891 299.794 755.407C301.059 750.431 301.48 744.81 301.298 740.754L307.292 740.486ZM298.664 767.513C299.397 773.064 299.388 780.903 298.555 787.575C298.139 790.905 297.5 794.1 296.571 796.633C296.107 797.898 295.528 799.119 294.783 800.133C294.049 801.133 292.985 802.156 291.499 802.597L289.79 796.846C289.564 796.913 289.646 796.99 289.947 796.581C290.238 796.185 290.584 795.533 290.938 794.567C291.644 792.641 292.212 789.951 292.601 786.831C293.379 780.603 293.374 773.282 292.715 768.298L298.664 767.513Z" fill="#FEFFFB"/>
<path d="M863.18 403.385L579.822 435.968C574.386 436.593 569.367 439.503 564.366 441.724C550.906 447.699 525.173 449.263 511.74 449.213L389.386 446.419C389.271 437.249 383.327 426.805 378.036 421.223C377.267 420.412 376.681 421.077 377.375 421.954C388.057 435.455 384.652 444.869 376.859 453.805C369.089 462.713 351.705 468.182 336.366 469.596C326.211 470.532 315.604 467.536 308.958 459.802C292.395 440.529 311.515 418.651 330.838 409.697C317.035 414.387 295.737 418.551 296.439 440.437C297.141 462.332 308.15 474.103 330.555 476.213C363.661 479.332 377.463 474.215 384.338 467.26C391.213 460.306 438.569 462.493 451.557 458.385C502.129 492.271 531.459 489.146 537.853 491.489C542.182 493.076 555.377 492.89 565.749 492.83C584.172 489.843 581.861 488.704 592.207 484.008C602.332 479.411 747.892 490.253 808.22 474.138C822.431 470.342 837.778 467.087 851.031 460.703C875.413 448.958 864.195 416.096 863.18 403.385Z" fill="#FF83CA"/>
<path d="M398.011 499.806C389.029 499.648 389.287 494.547 390.539 492.016C394.721 488.005 399.119 489.104 400.796 490.154C403.611 493.437 406.994 499.964 398.011 499.806Z" fill="#FFDED1"/>
<path d="M480.605 494.32C480.808 500 475.183 501.064 472.345 500.885C470.693 502.198 467.076 503.978 465.823 500.593C464.57 497.208 468.295 493.152 470.314 491.547C473.66 490.104 480.402 488.639 480.605 494.32Z" fill="#FFDBDD"/>
</svg>
