<svg width="925" height="896" viewBox="0 0 925 896" fill="none" xmlns="http://www.w3.org/2000/svg">
<path d="M418.498 400.468L313.068 415.567L313.906 382.108L345.684 372.897L394.533 362.761L413.743 378.643L418.498 400.468Z" fill="#FF83CA" stroke="black" stroke-width="4"/>
<path d="M523.529 495.448C481.395 502.596 444.183 475.989 430.844 461.791L421.171 421.478L411.498 381.164L404.882 372.953C393.597 378.054 380.243 374.511 374.977 372.103C361.349 381.372 338.077 387.34 328.145 389.166C326.983 394.093 290.488 453.001 272.386 481.84C241.108 520.154 210.307 493.862 215.047 468.17C223.488 422.417 253.142 377.076 277.471 347.456C291.472 330.41 308.493 315.868 328.308 306.175C366.353 287.564 401.06 284.653 420.993 286.36C427.178 286.89 433.051 289.078 438.595 291.869L524.97 335.355C532.239 340.54 544.894 344.378 553.951 346.49C558.428 347.534 562.978 347.783 567.575 347.834C613.386 348.345 841.982 358.997 849.671 359.456C891.431 364.582 889.545 410.772 893.204 433.006C902.863 519.3 675.943 489.202 663.722 489.071C653.944 488.966 577.601 491.794 573.099 493.283C548.47 504.962 531.266 497.747 523.529 495.448Z" fill="#FFE1F2" stroke="black" stroke-width="4"/>
<path d="M434.143 370.656L441.358 370.101" stroke="black" stroke-width="4" stroke-linecap="round"/>
<path d="M260.661 442.22C246.626 466.104 225.259 462.522 219.043 460.565C219.043 460.565 216.823 466.63 216.823 470.554C216.823 475.549 216.664 476.041 217.378 479.434C218.058 482.665 220.708 487.204 220.708 487.204C220.708 487.204 222.928 494.419 233.472 497.749C244.017 501.079 252.342 497.749 264.597 486.998C276.853 476.247 307.763 425.969 307.763 425.969C307.763 425.969 323.935 391.747 327.82 387.862C331.704 383.977 374.993 379.537 377.213 365.108C379.64 349.332 387.87 340.409 392.696 331.254C384.97 344.039 341.915 354.299 317.946 360.895C314.389 361.874 311.339 364.089 309.262 367.137C296.67 385.627 273.506 420.361 260.661 442.22Z" fill="#FF83CA"/>
<path d="M311.725 493.309L316.443 478.07L318.412 470.782L393.361 463.85C393.487 463.952 393.613 464.056 393.74 464.162C397.247 466.179 415.602 461.338 424.719 458.541L448.078 477.804C463.109 476.759 479.617 479.27 478.998 489.643C478.211 502.82 471.268 510.125 467.894 512.13C437.815 536.364 416.888 525.192 410.185 516.576L398.694 502.315C381.475 515.618 357.136 507.052 347.119 501.106C332.814 507.739 314.879 494.569 311.725 493.309Z" fill="#FF83CA"/>
<path d="M347.119 501.106C332.814 507.739 314.879 494.569 311.725 493.309L316.443 478.07L318.412 470.782L393.361 463.85M347.119 501.106C357.136 507.052 381.475 515.618 398.694 502.315M347.119 501.106C346.479 499.721 345.539 495.252 346.902 488.452M398.694 502.315C415.914 489.012 402.314 471.128 393.361 463.85M398.694 502.315L410.185 516.576C416.888 525.192 437.815 536.364 467.894 512.13C471.268 510.125 478.211 502.82 478.998 489.643C479.617 479.27 463.109 476.759 448.078 477.803M393.361 463.85C395.59 466.616 415.195 461.463 424.719 458.541L448.078 477.803M426.882 482.456C430.917 480.26 439.242 478.417 448.078 477.803" stroke="black" stroke-width="4" stroke-linecap="round"/>
<path d="M320.05 313.495C259.002 350.124 225.148 432.261 219.043 460.565L240.687 430.596C268.475 381.559 307.673 340.546 326.25 326.987C326.932 326.489 327.677 326.116 328.476 325.842C370.496 311.423 403.704 304.594 425.634 307.002C429.624 307.44 433.388 308.893 436.93 310.781C462.262 324.282 507.748 348.806 522.619 357.893C537.42 366.939 575.574 367.798 596.709 366.994C599.855 366.874 602.958 366.355 605.995 365.527L631.95 358.448C626.401 353.453 609.881 347.437 586.442 349.568C569.792 351.082 542.598 346.793 538.158 344.573L489.875 319.599L441.591 296.29C409.957 274.09 341.694 299.621 320.05 313.495Z" fill="#FDFFFD"/>
<path d="M319.275 370.103C319.275 368.998 318.38 368.103 317.275 368.103C316.171 368.103 315.275 368.998 315.275 370.103L319.275 370.103ZM330.344 388.113C325.963 383.732 319.275 381.231 319.275 370.103L315.275 370.103C315.275 383.393 324.127 387.553 327.515 390.942L330.344 388.113Z" fill="black"/>
<path d="M397.945 334.217C398.968 333.801 399.461 332.634 399.045 331.611C398.63 330.588 397.463 330.095 396.44 330.511L397.945 334.217ZM376.993 372.323C376.993 368.788 378.053 360.86 381.284 352.962C384.521 345.05 389.782 337.533 397.945 334.217L396.44 330.511C386.844 334.409 381.005 343.08 377.582 351.447C374.153 359.829 372.993 368.272 372.993 372.323H376.993Z" fill="black"/>
<path d="M413.494 352.183C414.325 351.456 414.41 350.192 413.682 349.361C412.955 348.53 411.691 348.446 410.86 349.173L413.494 352.183ZM406.949 372.648C406.696 370.457 406.716 366.695 407.644 362.765C408.573 358.83 410.365 354.922 413.494 352.183L410.86 349.173C406.886 352.651 404.792 357.437 403.751 361.845C402.709 366.259 402.673 370.489 402.975 373.107L406.949 372.648Z" fill="black"/>
<path d="M260.756 446.479L260.828 515.65L314.97 520.755L314.864 446.693C314.853 438.768 313.199 430.765 308.731 424.221C291.683 399.253 276.49 410.265 266.783 424.295C262.324 430.739 260.748 438.642 260.756 446.479Z" fill="#101E60" stroke="black" stroke-width="4"/>
<path d="M267.679 743.938L266.616 557.547L308.316 563.22L308.574 743.997C308.586 752.468 308.605 765.824 300.735 774.018C300.88 786.731 300.784 808.527 288.698 808.51C276.647 808.493 277.048 785.112 277.312 773.984C267.926 764.339 268.769 755.355 267.679 743.938Z" fill="#2FC1FF" stroke="black" stroke-width="4"/>
<rect x="2.00285" y="2.00286" width="110.161" height="63.0952" rx="9" transform="matrix(0.999999 0.00143028 0.00142572 0.999999 230.012 508.845)" fill="#55BAF3" stroke="black" stroke-width="4"/>
<path d="M305.536 579.564L305.532 576.564L299.532 576.572L299.536 579.572L305.536 579.564ZM302.754 732.267L299.754 732.272L299.754 732.385L299.763 732.499L302.754 732.267ZM295.315 771.589L293.259 769.403L292.313 770.293L292.314 771.593L295.315 771.589ZM287.87 800.358C286.514 801.31 286.186 803.181 287.138 804.537C288.089 805.893 289.96 806.222 291.317 805.27L287.87 800.358ZM302.644 655.339L305.644 655.335L305.644 655.335L302.644 655.339ZM299.763 732.499C300.191 738.04 300.613 745.466 299.83 752.523C299.035 759.693 297.061 765.828 293.259 769.403L297.37 773.774C302.781 768.686 304.957 760.727 305.794 753.185C306.643 745.53 306.177 737.627 305.745 732.036L299.763 732.499ZM292.314 771.593C292.326 779.476 292.329 786.041 291.649 791.146C290.951 796.382 289.638 799.119 287.87 800.358L291.317 805.27C295.309 802.469 296.868 797.402 297.596 791.939C298.342 786.346 298.326 779.319 298.315 771.585L292.314 771.593ZM299.536 579.572L299.644 655.343L305.644 655.335L305.536 579.564L299.536 579.572ZM299.644 655.343L299.754 732.272L305.754 732.263L305.644 655.335L299.644 655.343Z" fill="#FAFEFF"/>
<path d="M255.181 525.709L255.225 556.943" stroke="#005D7A" stroke-width="6" stroke-linecap="round"/>
<path d="M275.937 525.739L275.982 556.973" stroke="#005D7A" stroke-width="6" stroke-linecap="round"/>
<path d="M297.847 525.771L297.892 557.004" stroke="#005D7A" stroke-width="6" stroke-linecap="round"/>
<path d="M318.604 525.8L318.648 557.034" stroke="#005D7A" stroke-width="6" stroke-linecap="round"/>
<path d="M263.759 504.91L263.764 508.41L270.764 508.399L270.759 504.899L263.759 504.91ZM285.998 418.983C287.725 418.117 288.424 416.013 287.558 414.285C286.692 412.557 284.589 411.859 282.861 412.725L285.998 418.983ZM267.205 467.308L270.705 467.302L270.705 467.302L267.205 467.308ZM267.181 449.955L263.681 449.961L263.681 449.961L267.181 449.955ZM267.174 445.504L270.674 445.498L267.174 445.504ZM273.463 432.385C274.913 429.861 277.045 426.979 279.385 424.451C281.766 421.877 284.133 419.918 285.998 418.983L282.861 412.725C279.902 414.209 276.864 416.869 274.248 419.696C271.59 422.569 269.133 425.871 267.394 428.898L273.463 432.385ZM270.759 504.899L270.705 467.302L263.706 467.313L263.759 504.91L270.759 504.899ZM270.705 467.302L270.68 449.95L263.681 449.961L263.706 467.313L270.705 467.302ZM270.68 449.95L270.674 445.498L263.675 445.51L263.681 449.961L270.68 449.95ZM270.674 445.498C270.67 442.955 270.955 440.42 271.522 437.941L264.699 436.381C264.014 439.375 263.67 442.438 263.675 445.51L270.674 445.498ZM267.394 428.898C265.972 431.373 265.236 434.032 264.699 436.381L271.522 437.941C272.019 435.766 272.573 433.934 273.463 432.385L267.394 428.898Z" fill="#FAFEFF"/>
<path d="M399.655 465.539C412.499 466.668 423.67 466.312 429.936 465.539L433.151 465.629L442.468 466.668L446.968 462.342L439.89 370.405L438.029 370.405C432.923 370.773 427.783 371.383 423.06 373.357C420.837 374.286 418.549 375.439 416.538 376.805C414.867 377.94 413.387 379.223 412.295 380.647C411.707 381.415 411.23 382.224 410.898 383.073C410.154 384.971 408.789 386.977 407.105 388.948C399.208 398.194 387.127 402.661 374.993 403.452C371.965 403.65 368.584 403.774 364.858 403.774C357.052 403.774 349.461 404.206 341.694 405.29C331.153 406.76 320.288 409.431 308.122 413.851C298.173 418.94 288.013 423.922 290.032 446.243C292.05 468.563 312.444 477.599 322.389 479.327C348.121 483.799 366.991 477.213 376.1 471.688C382.159 469.182 395.232 465.151 399.655 465.539Z" fill="#FFE1F2"/>
<path d="M374.993 403.452C371.965 403.65 368.584 403.774 364.858 403.774C357.052 403.774 349.461 404.206 341.694 405.29M374.993 403.452V403.452C387.127 402.661 399.208 398.194 407.105 388.948C408.789 386.977 410.154 384.971 410.898 383.073C411.23 382.224 411.707 381.415 412.295 380.647C413.387 379.223 414.867 377.94 416.538 376.805C418.549 375.439 420.837 374.286 423.06 373.357C427.783 371.383 432.923 370.773 438.029 370.405V370.405L439.89 370.405L446.968 462.342L442.468 466.668L433.151 465.629L429.936 465.539C423.67 466.312 412.499 466.668 399.655 465.539C395.232 465.151 382.159 469.182 376.1 471.688C366.991 477.213 348.121 483.799 322.389 479.327C312.444 477.599 292.05 468.563 290.032 446.243C288.013 423.922 298.173 418.94 308.122 413.851C320.288 409.431 331.153 406.76 341.694 405.29M374.993 403.452C373.698 400.661 371.885 384.754 374.993 378.982M341.694 405.29C338.734 404.105 332.592 399.073 331.704 395.077" stroke="black" stroke-width="4" stroke-linecap="round"/>
<rect x="426.607" y="362.333" width="34.409" height="101.007" fill="#FFE1F2"/>
<path d="M445.243 471.108C443.182 470.284 436.918 465.188 434.698 463.338L431.924 451.684H451.903C451.903 464.448 448.018 472.218 445.243 471.108Z" fill="#FFE1F2"/>
<path d="M876.171 419.514L565.201 437.425C559.366 437.761 553.848 440.68 548.435 442.883C535.23 448.257 511.233 449.559 498.578 449.439L380.758 446.071C380.699 437.321 375.137 427.336 370.109 421.895C369.35 421.074 368.77 421.725 369.455 422.608C379.511 435.581 376.176 444.588 368.653 453.114C361.217 461.541 344.777 466.689 330.138 468.047C319.984 468.99 309.333 465.972 302.868 458.085C287.666 439.541 306.06 418.832 324.576 410.381C311.257 414.821 290.722 418.714 291.277 439.795C291.832 460.885 302.369 472.283 323.935 474.439C355.801 477.626 369.121 472.774 375.781 466.115C382.441 459.455 428.036 461.823 440.567 457.939C489.084 490.853 517.943 486.943 523.493 490.298C527.292 492.595 540.362 491.744 550.351 491.744C568.111 488.969 565.891 487.859 575.88 483.394C586.318 478.728 764.151 493.163 821.935 482.984C829.435 481.663 837.004 480.555 844.508 479.255C882.233 472.719 877.188 433.24 876.171 419.514Z" fill="#FF83CA"/>
<path d="M429.936 465.56L440.481 463.34" stroke="black" stroke-width="4" stroke-linecap="round"/>
<path d="M430.492 373.299C431.596 373.299 432.492 372.404 432.492 371.299C432.492 370.195 431.596 369.299 430.492 369.299L430.492 373.299ZM423.464 375.289C424.324 374.946 425.789 374.433 427.239 374.008C428.78 373.556 429.991 373.299 430.492 373.299L430.492 369.299C429.327 369.299 427.578 369.74 426.113 370.169C424.557 370.626 422.97 371.179 421.979 371.576L423.464 375.289Z" fill="black"/>
<path d="M409.957 387.862C413.842 376.762 433.266 371.212 444.921 368.438C436.041 373.247 425.275 387.196 422.167 397.852C418.282 411.171 388.468 411.726 384.428 411.726C380.543 411.726 363.338 412.281 352.794 415.056C342.249 417.831 334.479 417.276 328.929 420.051C324.489 422.271 314.5 430.041 315.61 436.145C313.945 441.695 310.693 442.041 308.395 438.365C307.079 436.26 306.554 434.175 306.53 432.208C306.42 423.072 313.83 414.431 322.329 411.077C327.45 409.057 332.802 408.954 335.589 408.396C346.689 406.176 357.233 406.731 377.213 405.066C393.196 403.734 405.517 393.967 409.957 387.862Z" fill="white"/>
</svg>
