<svg width="95" height="94" viewBox="0 0 95 94" fill="none" xmlns="http://www.w3.org/2000/svg">
<path d="M24.7097 54.5727C26.6268 66.7089 37.7908 73.8449 49.6508 70.5027C61.5109 67.1605 69.5649 54.6087 67.6478 42.4726C65.7308 30.3364 54.5668 23.2004 42.7067 26.5426C30.8466 29.8848 22.7926 42.4366 24.7097 54.5727Z" fill="#F8EFEF" stroke="black" stroke-width="3"/>
<path d="M65.9475 33.1602L64.1292 33.9931L62.5468 30.3194L64.3651 29.4865L65.9475 33.1602ZM73.2567 23.1044C74.0991 22.3796 75.3493 22.4777 76.0491 23.3236C76.7489 24.1694 76.6333 25.4426 75.7909 26.1674L73.2567 23.1044ZM68.8843 40.5064L66.9175 40.7938L66.4126 36.8012L68.3794 36.5138L68.8843 40.5064ZM77.6573 30.7705C78.4033 29.9435 79.658 29.878 80.4598 30.6243C81.2616 31.3705 81.3068 32.6458 80.5608 33.4728L77.6573 30.7705ZM64.3651 29.4865C66.3769 28.565 68.5323 27.1689 73.2567 23.1044L75.7909 26.1674C70.9832 30.3036 68.4822 31.9991 65.9475 33.1602L64.3651 29.4865ZM68.3794 36.5138C70.4829 36.2065 73.5532 35.32 77.6573 30.7705L80.5608 33.4728C75.8225 38.7254 71.9021 40.0655 68.8843 40.5064L68.3794 36.5138Z" fill="black"/>
</svg>
