<svg width="318" height="382" viewBox="0 0 318 382" fill="none" xmlns="http://www.w3.org/2000/svg">
<path fill-rule="evenodd" clip-rule="evenodd" d="M26.0978 333.202C9.59993 338.167 0 344.111 0 350.5C0 367.897 71.1867 382 159 382C246.813 382 318 367.897 318 350.5C318 344.068 308.269 338.086 291.565 333.101C291.189 333.83 290.786 334.551 290.356 335.265L290.116 335.641C274.914 360.402 236.2 360.402 158.805 360.402C81.4108 360.402 42.6964 360.402 27.4774 335.641L27.2551 335.265C26.8445 334.584 26.4588 333.896 26.0978 333.202Z" fill="#EAEAEA" fill-opacity="0.53"/>
<path d="M199.5 20V16.5L156.5 10L122 16.5H118L122 20L143.5 26L170 27L199.5 20Z" fill="#F3E0F2"/>
<g filter="url(#filter0_d_184_278)">
<path d="M202.239 16.4026V58.9132C202.239 88.804 202.239 103.749 205.916 118.096C209.558 132.46 216.74 145.627 231.087 171.961L250.513 207.666C287.072 274.801 305.352 308.385 290.356 333.266L290.116 333.642C274.914 358.403 236.2 358.403 158.805 358.403C81.4108 358.403 42.6964 358.403 27.4774 333.642L27.2551 333.266C12.2584 308.385 30.5383 274.801 67.0981 207.666L86.5237 171.961C100.888 145.627 108.035 132.46 111.695 118.096C115.354 103.732 115.354 88.804 115.354 58.9303V16.4026" fill="#FF7EC7" fill-opacity="0.23"/>
<path d="M202.239 16.4026V58.9132C202.239 88.804 202.239 103.749 205.916 118.096C209.558 132.46 216.74 145.627 231.087 171.961L250.513 207.666C287.072 274.801 305.352 308.385 290.356 333.266L290.116 333.642C274.914 358.403 236.2 358.403 158.805 358.403C81.4108 358.403 42.6964 358.403 27.4774 333.642L27.2551 333.266C12.2584 308.385 30.5383 274.801 67.0981 207.666L86.5237 171.961C100.888 145.627 108.035 132.46 111.695 118.096C115.354 103.732 115.354 88.804 115.354 58.9303V16.4026M202.239 16.4026C169.631 34.0069 130.729 23.7377 115.354 16.4026M202.239 16.4026C186.562 11.571 147.238 4.80688 115.354 16.4026" stroke="black" stroke-width="4" stroke-linecap="round" stroke-linejoin="round"/>
<path d="M126 110.438V25.5275C126 24.1316 124.868 23 123.473 23C122.107 23 121 24.107 121 25.4725V110.485C121 115.1 119.936 119.652 117.89 123.787L42.0326 277.133C33.0801 295.231 29.6613 318.269 43.8359 332.648C49.3615 338.253 54.641 340.692 59 343C66.9663 347.217 94.6667 348.5 108.5 347C94.5 348.2 73.3334 341.167 66.5 337.5C39.7 325.9 40.3333 291 47.5 275L122.85 123.82C124.922 119.664 126 115.083 126 110.438Z" fill="#C6CACB" fill-opacity="0.53"/>
<path d="M192 110.561V25.5275C192 24.1316 193.132 23 194.527 23C195.893 23 197 24.107 197 25.4725V110.609C197 115.218 198.062 119.765 200.104 123.897L275.998 277.506C284.932 295.587 288.34 318.586 274.211 332.978C268.668 338.624 263.371 341.074 259 343.391C251.034 347.613 223.333 348.898 209.5 347.396C223.5 348.597 244.667 341.555 251.5 337.884C278.3 326.27 277.667 291.327 270.5 275.308L195.144 123.93C193.076 119.777 192 115.201 192 110.561Z" fill="white"/>
</g>
<defs>
<filter id="filter0_d_184_278" x="7.79976" y="0.8" width="302.011" height="376.802" filterUnits="userSpaceOnUse" color-interpolation-filters="sRGB">
<feFlood flood-opacity="0" result="BackgroundImageFix"/>
<feColorMatrix in="SourceAlpha" type="matrix" values="0 0 0 0 0 0 0 0 0 0 0 0 0 0 0 0 0 0 127 0" result="hardAlpha"/>
<feOffset dy="5"/>
<feGaussianBlur stdDeviation="6.1"/>
<feComposite in2="hardAlpha" operator="out"/>
<feColorMatrix type="matrix" values="0 0 0 0 0.436347 0 0 0 0 0.436347 0 0 0 0 0.436347 0 0 0 0.25 0"/>
<feBlend mode="normal" in2="BackgroundImageFix" result="effect1_dropShadow_184_278"/>
<feBlend mode="normal" in="SourceGraphic" in2="effect1_dropShadow_184_278" result="shape"/>
</filter>
</defs>
</svg>
