<svg width="140" height="142" viewBox="0 0 140 142" fill="none" xmlns="http://www.w3.org/2000/svg">
<g filter="url(#filter0_biii_69_7434)">
<circle cx="70.5" cy="69.5" r="69.5" fill="url(#paint0_linear_69_7434)"/>
<circle cx="70.5" cy="69.5" r="69.5" fill="url(#paint1_radial_69_7434)" fill-opacity="0.5"/>
<circle cx="70.5" cy="69.5" r="69.5" fill="url(#paint2_radial_69_7434)" fill-opacity="0.5"/>
<circle cx="70.5" cy="69.5" r="69.2625" stroke="url(#paint3_linear_69_7434)" stroke-opacity="0.3" stroke-width="0.475083"/>
</g>
<g filter="url(#filter1_f_69_7434)">
<ellipse cx="104.335" cy="30.3984" rx="8.77409" ry="4.15615" transform="rotate(45.2321 104.335 30.3984)" fill="white"/>
</g>
<g filter="url(#filter2_f_69_7434)">
<ellipse cx="39.6596" cy="104.199" rx="12.1945" ry="5.77632" transform="rotate(35.9982 39.6596 104.199)" fill="#FDA8FF"/>
</g>
<g filter="url(#filter3_f_69_7434)">
<ellipse cx="33.6887" cy="108.436" rx="3.8996" ry="1.84718" transform="rotate(45.2321 33.6887 108.436)" fill="white"/>
</g>
<circle cx="70.5001" cy="69.4994" r="66.4518" stroke="white" stroke-opacity="0.12" stroke-width="3.32558" style="mix-blend-mode:soft-light"/>
<mask id="mask0_69_7434" style="mask-type:alpha" maskUnits="userSpaceOnUse" x="1" y="0" width="139" height="139">
<circle cx="70.5" cy="69.5" r="69.5" fill="#C4C4C4"/>
</mask>
<g mask="url(#mask0_69_7434)">
<g filter="url(#filter4_f_69_7434)">
<ellipse cx="27.9268" cy="121.744" rx="47.1595" ry="22.3706" transform="rotate(35.388 27.9268 121.744)" fill="#FEC6FF"/>
</g>
<g filter="url(#filter5_f_69_7434)">
<ellipse cx="66.2692" cy="10.5812" rx="25.3021" ry="12.0023" transform="rotate(-6.37561 66.2692 10.5812)" fill="white"/>
</g>
<g filter="url(#filter6_f_69_7434)">
<circle cx="79.5433" cy="55.4537" r="11.5449" transform="rotate(29.5819 79.5433 55.4537)" fill="#3C98CC"/>
</g>
<g filter="url(#filter7_f_69_7434)">
<circle cx="104.48" cy="120.106" r="11.5449" transform="rotate(29.5819 104.48 120.106)" fill="#3C98CC"/>
</g>
<g filter="url(#filter8_f_69_7434)">
<ellipse cx="4.84614" cy="28.7129" rx="11.5449" ry="24.8707" transform="rotate(29.5819 4.84614 28.7129)" fill="#3C98CC"/>
</g>
</g>
<path d="M70.9999 48.3398C60.9256 48.3398 54.6294 53.3756 52.1106 63.4462C55.8888 58.4104 60.2963 56.5227 65.333 57.7812C68.2071 58.4992 70.2611 60.5844 72.5352 62.8916C76.2389 66.65 80.5254 70.9999 89.8893 70.9999C99.9627 70.9999 106.26 65.9641 108.778 55.8926C105 60.9283 100.593 62.817 95.5553 61.5585C92.6821 60.8405 90.6281 58.7553 88.354 56.4481C84.6504 52.6897 80.3629 48.3398 70.9999 48.3398ZM52.1106 70.9999C42.0371 70.9999 35.7401 76.0356 33.2222 86.1072C36.9995 81.0714 41.407 79.1827 46.4446 80.4422C49.3178 81.1612 51.3718 83.2454 53.6459 85.5516C57.3495 89.31 61.637 93.6608 70.9999 93.6608C81.0743 93.6608 87.3705 88.625 89.8893 78.5535C86.1111 83.5893 81.7036 85.4779 76.6669 84.2185C73.7928 83.5014 71.7388 81.4153 69.4646 79.109C65.761 75.3506 61.4745 70.9999 52.1106 70.9999Z" fill="#06B6D4"/>
<defs>
<filter id="filter0_biii_69_7434" x="-6.12625" y="-7.12625" width="153.252" height="153.252" filterUnits="userSpaceOnUse" color-interpolation-filters="sRGB">
<feFlood flood-opacity="0" result="BackgroundImageFix"/>
<feGaussianBlur in="BackgroundImageFix" stdDeviation="3.56312"/>
<feComposite in2="SourceAlpha" operator="in" result="effect1_backgroundBlur_69_7434"/>
<feBlend mode="normal" in="SourceGraphic" in2="effect1_backgroundBlur_69_7434" result="shape"/>
<feColorMatrix in="SourceAlpha" type="matrix" values="0 0 0 0 0 0 0 0 0 0 0 0 0 0 0 0 0 0 127 0" result="hardAlpha"/>
<feOffset dx="6.17608" dy="3.32558"/>
<feGaussianBlur stdDeviation="5.46346"/>
<feComposite in2="hardAlpha" operator="arithmetic" k2="-1" k3="1"/>
<feColorMatrix type="matrix" values="0 0 0 0 1 0 0 0 0 1 0 0 0 0 1 0 0 0 0.25 0"/>
<feBlend mode="normal" in2="shape" result="effect2_innerShadow_69_7434"/>
<feColorMatrix in="SourceAlpha" type="matrix" values="0 0 0 0 0 0 0 0 0 0 0 0 0 0 0 0 0 0 127 0" result="hardAlpha"/>
<feOffset dx="-6.17608" dy="-1.42525"/>
<feGaussianBlur stdDeviation="13.7774"/>
<feComposite in2="hardAlpha" operator="arithmetic" k2="-1" k3="1"/>
<feColorMatrix type="matrix" values="0 0 0 0 0 0 0 0 0 0.835294 0 0 0 0 0.960784 0 0 0 0.21 0"/>
<feBlend mode="normal" in2="effect2_innerShadow_69_7434" result="effect3_innerShadow_69_7434"/>
<feColorMatrix in="SourceAlpha" type="matrix" values="0 0 0 0 0 0 0 0 0 0 0 0 0 0 0 0 0 0 127 0" result="hardAlpha"/>
<feOffset dx="3.32558" dy="-4.27575"/>
<feComposite in2="hardAlpha" operator="arithmetic" k2="-1" k3="1"/>
<feColorMatrix type="matrix" values="0 0 0 0 0.992157 0 0 0 0 0.658824 0 0 0 0 1 0 0 0 0.27 0"/>
<feBlend mode="soft-light" in2="effect3_innerShadow_69_7434" result="effect4_innerShadow_69_7434"/>
</filter>
<filter id="filter1_f_69_7434" x="93.2108" y="19.2384" width="22.2495" height="22.3201" filterUnits="userSpaceOnUse" color-interpolation-filters="sRGB">
<feFlood flood-opacity="0" result="BackgroundImageFix"/>
<feBlend mode="normal" in="SourceGraphic" in2="BackgroundImageFix" result="shape"/>
<feGaussianBlur stdDeviation="2.13787" result="effect1_foregroundBlur_69_7434"/>
</filter>
<filter id="filter2_f_69_7434" x="0.243076" y="66.6615" width="78.8329" height="75.0754" filterUnits="userSpaceOnUse" color-interpolation-filters="sRGB">
<feFlood flood-opacity="0" result="BackgroundImageFix"/>
<feBlend mode="normal" in="SourceGraphic" in2="BackgroundImageFix" result="shape"/>
<feGaussianBlur stdDeviation="14.49" result="effect1_foregroundBlur_69_7434"/>
</filter>
<filter id="filter3_f_69_7434" x="27.3192" y="102.05" width="12.7391" height="12.7703" filterUnits="userSpaceOnUse" color-interpolation-filters="sRGB">
<feFlood flood-opacity="0" result="BackgroundImageFix"/>
<feBlend mode="normal" in="SourceGraphic" in2="BackgroundImageFix" result="shape"/>
<feGaussianBlur stdDeviation="1.66279" result="effect1_foregroundBlur_69_7434"/>
</filter>
<filter id="filter4_f_69_7434" x="-85.8178" y="15.7376" width="227.489" height="212.013" filterUnits="userSpaceOnUse" color-interpolation-filters="sRGB">
<feFlood flood-opacity="0" result="BackgroundImageFix"/>
<feBlend mode="normal" in="SourceGraphic" in2="BackgroundImageFix" result="shape"/>
<feGaussianBlur stdDeviation="36.5814" result="effect1_foregroundBlur_69_7434"/>
</filter>
<filter id="filter5_f_69_7434" x="7.83183" y="-34.9316" width="116.875" height="91.0258" filterUnits="userSpaceOnUse" color-interpolation-filters="sRGB">
<feFlood flood-opacity="0" result="BackgroundImageFix"/>
<feBlend mode="normal" in="SourceGraphic" in2="BackgroundImageFix" result="shape"/>
<feGaussianBlur stdDeviation="16.6279" result="effect1_foregroundBlur_69_7434"/>
</filter>
<filter id="filter6_f_69_7434" x="32.3653" y="8.27599" width="94.356" height="94.3562" filterUnits="userSpaceOnUse" color-interpolation-filters="sRGB">
<feFlood flood-opacity="0" result="BackgroundImageFix"/>
<feBlend mode="normal" in="SourceGraphic" in2="BackgroundImageFix" result="shape"/>
<feGaussianBlur stdDeviation="17.8156" result="effect1_foregroundBlur_69_7434"/>
</filter>
<filter id="filter7_f_69_7434" x="57.3019" y="72.9274" width="94.356" height="94.3562" filterUnits="userSpaceOnUse" color-interpolation-filters="sRGB">
<feFlood flood-opacity="0" result="BackgroundImageFix"/>
<feBlend mode="normal" in="SourceGraphic" in2="BackgroundImageFix" result="shape"/>
<feGaussianBlur stdDeviation="17.8156" result="effect1_foregroundBlur_69_7434"/>
</filter>
<filter id="filter8_f_69_7434" x="-46.6459" y="-29.2909" width="102.984" height="116.008" filterUnits="userSpaceOnUse" color-interpolation-filters="sRGB">
<feFlood flood-opacity="0" result="BackgroundImageFix"/>
<feBlend mode="normal" in="SourceGraphic" in2="BackgroundImageFix" result="shape"/>
<feGaussianBlur stdDeviation="17.8156" result="effect1_foregroundBlur_69_7434"/>
</filter>
<linearGradient id="paint0_linear_69_7434" x1="92.4352" y1="4.15615" x2="50.6429" y2="139" gradientUnits="userSpaceOnUse">
<stop stop-color="white" stop-opacity="0.26"/>
<stop offset="1" stop-color="white" stop-opacity="0"/>
</linearGradient>
<radialGradient id="paint1_radial_69_7434" cx="0" cy="0" r="1" gradientUnits="userSpaceOnUse" gradientTransform="translate(97.5149 25.1678) rotate(119.781) scale(138.07)">
<stop stop-color="white" stop-opacity="0"/>
<stop offset="0.62353" stop-color="#FDA8FF" stop-opacity="0"/>
<stop offset="1" stop-color="#FDA8FF"/>
</radialGradient>
<radialGradient id="paint2_radial_69_7434" cx="0" cy="0" r="1" gradientUnits="userSpaceOnUse" gradientTransform="translate(51.5664 150.776) rotate(-75.2603) scale(173.335)">
<stop stop-color="white" stop-opacity="0"/>
<stop offset="0.62353" stop-color="#00B2FF" stop-opacity="0"/>
<stop offset="1" stop-color="#00E0FF"/>
</radialGradient>
<linearGradient id="paint3_linear_69_7434" x1="106.52" y1="10.8521" x2="23.6279" y2="129.071" gradientUnits="userSpaceOnUse">
<stop stop-color="#0085FF"/>
<stop offset="1" stop-color="#FEC8FF"/>
</linearGradient>
</defs>
</svg>
