<svg width="77" height="77" viewBox="0 0 77 77" fill="none" xmlns="http://www.w3.org/2000/svg">
<path d="M53.0008 34H25.0001C22.7909 34 21 35.7909 21 38V54C21 56.2091 22.7909 58 25.0001 58H53.0008C55.21 58 57.0009 56.2091 57.0009 54V38C57.0009 35.7909 55.21 34 53.0008 34Z" stroke="#101E60" stroke-width="4" stroke-linecap="round" stroke-linejoin="round"/>
<path d="M49.2432 21.7574C48.1179 20.6321 46.5918 20 45.0004 20C43.4091 20 33.0001 20 33.0001 20C31.4088 20 29.8826 20.6321 28.7574 21.7574C27.6322 22.8826 27 24.4087 27 26V34H51.0006" stroke="#101E60" stroke-width="4" stroke-linecap="round" stroke-linejoin="round"/>
<ellipse cx="39.2403" cy="45.8398" rx="3.04007" ry="3.04" fill="#101E60"/>
<path d="M37.7116 50.7107C37.6525 48.1791 37.3065 48.4323 36.9604 47.7402H41.5206C41.1785 48.4243 40.8365 48.4735 40.7715 50.7107C40.7562 51.2409 40.5714 51.7957 40.0932 52.0251C39.4723 52.323 38.8681 52.2242 38.3998 52.0072C37.9185 51.7842 37.724 51.241 37.7116 50.7107Z" fill="#101E60"/>
<circle cx="38.5" cy="38.5" r="36.5" stroke="#101E60" stroke-width="4"/>
</svg>
