<svg width="143" height="145" viewBox="0 0 143 145" fill="none" xmlns="http://www.w3.org/2000/svg">
<g filter="url(#filter0_biii_69_7771)">
<circle cx="71.5" cy="71.5" r="71.5" fill="url(#paint0_linear_69_7771)"/>
<circle cx="71.5" cy="71.5" r="71.5" fill="url(#paint1_radial_69_7771)" fill-opacity="0.5"/>
<circle cx="71.5" cy="71.5" r="71.5" fill="url(#paint2_radial_69_7771)" fill-opacity="0.5"/>
<circle cx="71.5" cy="71.5" r="71.2625" stroke="url(#paint3_linear_69_7771)" stroke-opacity="0.3" stroke-width="0.475083"/>
</g>
<g filter="url(#filter1_f_69_7771)">
<ellipse cx="106.309" cy="31.2732" rx="9.02658" ry="4.27575" transform="rotate(45.2321 106.309 31.2732)" fill="white"/>
</g>
<g filter="url(#filter2_f_69_7771)">
<ellipse cx="39.7721" cy="107.198" rx="12.5454" ry="5.94255" transform="rotate(35.9982 39.7721 107.198)" fill="#FDA8FF"/>
</g>
<g filter="url(#filter3_f_69_7771)">
<ellipse cx="33.6294" cy="111.556" rx="4.01181" ry="1.90033" transform="rotate(45.2321 33.6294 111.556)" fill="white"/>
</g>
<circle cx="71.5" cy="71.4996" r="68.412" stroke="white" stroke-opacity="0.12" stroke-width="3.32558" style="mix-blend-mode:soft-light"/>
<mask id="mask0_69_7771" style="mask-type:alpha" maskUnits="userSpaceOnUse" x="0" y="0" width="143" height="143">
<circle cx="71.5" cy="71.5" r="71.5" fill="#C4C4C4"/>
</mask>
<g mask="url(#mask0_69_7771)">
<g filter="url(#filter4_f_69_7771)">
<ellipse cx="27.7017" cy="125.248" rx="48.5167" ry="23.0143" transform="rotate(35.388 27.7017 125.248)" fill="#FEC6FF"/>
</g>
<g filter="url(#filter5_f_69_7771)">
<ellipse cx="67.1474" cy="10.8856" rx="26.0302" ry="12.3477" transform="rotate(-6.37561 67.1474 10.8856)" fill="white"/>
</g>
<g filter="url(#filter6_f_69_7771)">
<circle cx="80.8035" cy="57.0497" r="11.8771" transform="rotate(29.5819 80.8035 57.0497)" fill="#3C98CC"/>
</g>
<g filter="url(#filter7_f_69_7771)">
<circle cx="106.458" cy="123.561" r="11.8771" transform="rotate(29.5819 106.458 123.561)" fill="#3C98CC"/>
</g>
<g filter="url(#filter8_f_69_7771)">
<ellipse cx="3.95679" cy="29.5394" rx="11.8771" ry="25.5864" transform="rotate(29.5819 3.95679 29.5394)" fill="#3C98CC"/>
</g>
</g>
<path d="M108.842 49.1758L73.9984 112.21C73.279 113.512 71.4307 113.519 70.7005 112.224L35.166 49.1817C34.3704 47.7705 35.5633 46.061 37.1441 46.3471L72.0253 52.6544C72.2478 52.6946 72.4756 52.6942 72.698 52.6532L106.85 46.3559C108.425 46.0654 109.624 47.7617 108.842 49.1758Z" fill="url(#paint4_linear_69_7771)"/>
<path d="M88.6407 38.0732L62.8556 43.1848C62.6495 43.2256 62.4628 43.3346 62.3246 43.4945C62.1865 43.6544 62.1048 43.8563 62.0924 44.0683L60.5063 71.1701C60.4976 71.3187 60.5232 71.4673 60.5812 71.6042C60.6392 71.7411 60.7279 71.8624 60.8403 71.9585C60.9527 72.0546 61.0857 72.1229 61.2288 72.1579C61.3719 72.1929 61.521 72.1937 61.6644 72.1602L68.8435 70.4841C69.5151 70.3273 70.1221 70.9259 69.9839 71.6092L67.8511 82.1757C67.7077 82.8868 68.3674 83.4948 69.0538 83.2837L73.4881 81.9209C74.1754 81.7099 74.836 82.3196 74.6906 83.0313L71.3011 99.6287C71.089 100.667 72.454 101.233 73.0231 100.343L73.4035 99.7486L94.4148 57.3266C94.7668 56.6164 94.1598 55.8065 93.3891 55.9571L85.9991 57.3999C85.3049 57.5353 84.7141 56.8811 84.9099 56.194L89.7331 39.2788C89.9292 38.59 89.3361 37.9354 88.641 38.0732H88.6407Z" fill="url(#paint5_linear_69_7771)"/>
<defs>
<filter id="filter0_biii_69_7771" x="-7.12625" y="-7.12625" width="157.252" height="157.252" filterUnits="userSpaceOnUse" color-interpolation-filters="sRGB">
<feFlood flood-opacity="0" result="BackgroundImageFix"/>
<feGaussianBlur in="BackgroundImageFix" stdDeviation="3.56312"/>
<feComposite in2="SourceAlpha" operator="in" result="effect1_backgroundBlur_69_7771"/>
<feBlend mode="normal" in="SourceGraphic" in2="effect1_backgroundBlur_69_7771" result="shape"/>
<feColorMatrix in="SourceAlpha" type="matrix" values="0 0 0 0 0 0 0 0 0 0 0 0 0 0 0 0 0 0 127 0" result="hardAlpha"/>
<feOffset dx="6.17608" dy="3.32558"/>
<feGaussianBlur stdDeviation="5.46346"/>
<feComposite in2="hardAlpha" operator="arithmetic" k2="-1" k3="1"/>
<feColorMatrix type="matrix" values="0 0 0 0 1 0 0 0 0 1 0 0 0 0 1 0 0 0 0.25 0"/>
<feBlend mode="normal" in2="shape" result="effect2_innerShadow_69_7771"/>
<feColorMatrix in="SourceAlpha" type="matrix" values="0 0 0 0 0 0 0 0 0 0 0 0 0 0 0 0 0 0 127 0" result="hardAlpha"/>
<feOffset dx="-6.17608" dy="-1.42525"/>
<feGaussianBlur stdDeviation="13.7774"/>
<feComposite in2="hardAlpha" operator="arithmetic" k2="-1" k3="1"/>
<feColorMatrix type="matrix" values="0 0 0 0 0 0 0 0 0 0.835294 0 0 0 0 0.960784 0 0 0 0.21 0"/>
<feBlend mode="normal" in2="effect2_innerShadow_69_7771" result="effect3_innerShadow_69_7771"/>
<feColorMatrix in="SourceAlpha" type="matrix" values="0 0 0 0 0 0 0 0 0 0 0 0 0 0 0 0 0 0 127 0" result="hardAlpha"/>
<feOffset dx="3.32558" dy="-4.27575"/>
<feComposite in2="hardAlpha" operator="arithmetic" k2="-1" k3="1"/>
<feColorMatrix type="matrix" values="0 0 0 0 0.992157 0 0 0 0 0.658824 0 0 0 0 1 0 0 0 0.27 0"/>
<feBlend mode="soft-light" in2="effect3_innerShadow_69_7771" result="effect4_innerShadow_69_7771"/>
</filter>
<filter id="filter1_f_69_7771" x="94.9874" y="19.9147" width="22.6438" height="22.7165" filterUnits="userSpaceOnUse" color-interpolation-filters="sRGB">
<feFlood flood-opacity="0" result="BackgroundImageFix"/>
<feBlend mode="normal" in="SourceGraphic" in2="BackgroundImageFix" result="shape"/>
<feGaussianBlur stdDeviation="2.13787" result="effect1_foregroundBlur_69_7771"/>
</filter>
<filter id="filter2_f_69_7771" x="0.0553322" y="69.4145" width="79.4335" height="75.5676" filterUnits="userSpaceOnUse" color-interpolation-filters="sRGB">
<feFlood flood-opacity="0" result="BackgroundImageFix"/>
<feBlend mode="normal" in="SourceGraphic" in2="BackgroundImageFix" result="shape"/>
<feGaussianBlur stdDeviation="14.49" result="effect1_foregroundBlur_69_7771"/>
</filter>
<filter id="filter3_f_69_7771" x="27.1722" y="105.083" width="12.9143" height="12.9461" filterUnits="userSpaceOnUse" color-interpolation-filters="sRGB">
<feFlood flood-opacity="0" result="BackgroundImageFix"/>
<feBlend mode="normal" in="SourceGraphic" in2="BackgroundImageFix" result="shape"/>
<feGaussianBlur stdDeviation="1.66279" result="effect1_foregroundBlur_69_7771"/>
</filter>
<filter id="filter4_f_69_7771" x="-87.2106" y="18.2962" width="229.825" height="213.903" filterUnits="userSpaceOnUse" color-interpolation-filters="sRGB">
<feFlood flood-opacity="0" result="BackgroundImageFix"/>
<feBlend mode="normal" in="SourceGraphic" in2="BackgroundImageFix" result="shape"/>
<feGaussianBlur stdDeviation="36.5814" result="effect1_foregroundBlur_69_7771"/>
</filter>
<filter id="filter5_f_69_7771" x="7.98539" y="-34.9804" width="118.324" height="91.7323" filterUnits="userSpaceOnUse" color-interpolation-filters="sRGB">
<feFlood flood-opacity="0" result="BackgroundImageFix"/>
<feBlend mode="normal" in="SourceGraphic" in2="BackgroundImageFix" result="shape"/>
<feGaussianBlur stdDeviation="16.6279" result="effect1_foregroundBlur_69_7771"/>
</filter>
<filter id="filter6_f_69_7771" x="33.2931" y="9.53967" width="95.0208" height="95.0203" filterUnits="userSpaceOnUse" color-interpolation-filters="sRGB">
<feFlood flood-opacity="0" result="BackgroundImageFix"/>
<feBlend mode="normal" in="SourceGraphic" in2="BackgroundImageFix" result="shape"/>
<feGaussianBlur stdDeviation="17.8156" result="effect1_foregroundBlur_69_7771"/>
</filter>
<filter id="filter7_f_69_7771" x="58.9474" y="76.0514" width="95.0208" height="95.0203" filterUnits="userSpaceOnUse" color-interpolation-filters="sRGB">
<feFlood flood-opacity="0" result="BackgroundImageFix"/>
<feBlend mode="normal" in="SourceGraphic" in2="BackgroundImageFix" result="shape"/>
<feGaussianBlur stdDeviation="17.8156" result="effect1_foregroundBlur_69_7771"/>
</filter>
<filter id="filter8_f_69_7771" x="-47.9916" y="-29.1088" width="103.897" height="117.296" filterUnits="userSpaceOnUse" color-interpolation-filters="sRGB">
<feFlood flood-opacity="0" result="BackgroundImageFix"/>
<feBlend mode="normal" in="SourceGraphic" in2="BackgroundImageFix" result="shape"/>
<feGaussianBlur stdDeviation="17.8156" result="effect1_foregroundBlur_69_7771"/>
</filter>
<linearGradient id="paint0_linear_69_7771" x1="94.0664" y1="4.27575" x2="51.0714" y2="143" gradientUnits="userSpaceOnUse">
<stop stop-color="white" stop-opacity="0.26"/>
<stop offset="1" stop-color="white" stop-opacity="0"/>
</linearGradient>
<radialGradient id="paint1_radial_69_7771" cx="0" cy="0" r="1" gradientUnits="userSpaceOnUse" gradientTransform="translate(99.2924 25.892) rotate(119.781) scale(142.043)">
<stop stop-color="white" stop-opacity="0"/>
<stop offset="0.62353" stop-color="#FDA8FF" stop-opacity="0"/>
<stop offset="1" stop-color="#FDA8FF"/>
</radialGradient>
<radialGradient id="paint2_radial_69_7771" cx="0" cy="0" r="1" gradientUnits="userSpaceOnUse" gradientTransform="translate(52.0216 155.115) rotate(-75.2603) scale(178.323)">
<stop stop-color="white" stop-opacity="0"/>
<stop offset="0.62353" stop-color="#00B2FF" stop-opacity="0"/>
<stop offset="1" stop-color="#00E0FF"/>
</radialGradient>
<linearGradient id="paint3_linear_69_7771" x1="108.556" y1="11.1644" x2="23.2791" y2="132.786" gradientUnits="userSpaceOnUse">
<stop stop-color="#0085FF"/>
<stop offset="1" stop-color="#FEC8FF"/>
</linearGradient>
<linearGradient id="paint4_linear_69_7771" x1="34.2984" y1="51.4327" x2="72.445" y2="102.641" gradientUnits="userSpaceOnUse">
<stop stop-color="#41D1FF"/>
<stop offset="1" stop-color="#BD34FE"/>
</linearGradient>
<linearGradient id="paint5_linear_69_7771" x1="75.258" y1="39.4611" x2="83.1664" y2="93.085" gradientUnits="userSpaceOnUse">
<stop stop-color="#FFEA83"/>
<stop offset="0.083" stop-color="#FFDD35"/>
<stop offset="1" stop-color="#FFA800"/>
</linearGradient>
</defs>
</svg>
